<svg width="24" height="24" viewBox="0 0 24 24" fill="none" xmlns="http://www.w3.org/2000/svg">
<path d="M7.2 17.6002C8.96731 17.6002 10.4 16.1675 10.4 14.4002C10.4 12.6329 8.96731 11.2002 7.2 11.2002C5.43269 11.2002 4 12.6329 4 14.4002C4 16.1675 5.43269 17.6002 7.2 17.6002Z" fill="white" fill-opacity="0.6"/>
<path d="M14.7998 20C15.9044 20 16.7998 19.1046 16.7998 18C16.7998 16.8954 15.9044 16 14.7998 16C13.6952 16 12.7998 16.8954 12.7998 18C12.7998 19.1046 13.6952 20 14.7998 20Z" fill="white" fill-opacity="0.6"/>
<path d="M15.2004 13.6C17.8514 13.6 20.0004 11.451 20.0004 8.8C20.0004 6.14903 17.8514 4 15.2004 4C12.5494 4 10.4004 6.14903 10.4004 8.8C10.4004 11.451 12.5494 13.6 15.2004 13.6Z" fill="white" fill-opacity="0.6"/>
</svg>
