<svg width="551" height="414" viewBox="0 0 551 414" fill="none" xmlns="http://www.w3.org/2000/svg">
<path d="M69.7009 294.523C104.869 314.952 193.676 366.263 227.81 385.962C231.95 388.35 236.649 389.599 241.428 389.579C246.207 389.56 250.896 388.274 255.016 385.851L464.548 262.675C466.06 261.789 467.312 260.52 468.178 258.995C469.043 257.471 469.491 255.745 469.477 253.992C469.464 252.239 468.988 250.52 468.098 249.01C467.208 247.499 465.936 246.25 464.41 245.388L291.203 147.31L69.6596 277.401C68.1671 278.279 66.9304 279.532 66.0725 281.036C65.2146 282.54 64.7654 284.242 64.7696 285.974C64.7737 287.705 65.2312 289.406 66.0963 290.906C66.9615 292.405 68.2042 293.653 69.7009 294.523Z" fill="#68E1FD"/>
<path style="mix-blend-mode:multiply" d="M347.389 263.034C347.237 262.469 259.711 312.045 259.711 312.045L298.419 339.595L422.063 265.334" fill="url(#paint0_linear)"/>
<path style="mix-blend-mode:multiply" d="M229.57 295.36C276.304 270.532 308.732 240.133 302 227.462C295.269 214.791 251.927 224.646 205.193 249.474C158.459 274.302 126.031 304.701 132.763 317.372C139.495 330.043 182.837 320.188 229.57 295.36Z" fill="url(#paint1_linear)"/>
<path d="M280.636 199.738C280.636 199.738 278.294 205.537 279.713 210.344C281.132 215.152 293.571 230.428 291.367 231.999C289.163 233.569 273.073 225.841 272.082 222.728C271.09 219.615 271.241 212.769 271.241 212.769L268.968 225.166L264.836 223.913L265.883 197.974L280.636 199.738Z" fill="#FF7F2E"/>
<path d="M247.439 239.492C246.613 239.85 245.883 250.512 246.668 254.355C247.453 258.199 253.707 270.637 259.176 275.018C264.644 279.398 259.506 253.873 259.548 252.303C259.589 250.733 259.258 239.451 259.258 239.451C259.258 239.451 251.462 237.757 247.439 239.492Z" fill="#FF7F2E"/>
<path d="M356.166 66.5609C356.097 66.2109 355.94 65.8842 355.709 65.6119C355.478 65.3397 355.182 65.1308 354.848 65.0053C354.514 64.8797 354.154 64.8415 353.801 64.8944C353.448 64.9473 353.115 65.0894 352.832 65.3074C351.737 66.2717 350.908 67.4998 350.421 68.8751L352.198 50.9676C352.377 49.1769 349.981 48.9427 349.195 50.2376C348.911 50.2822 348.65 50.4201 348.453 50.6296C348.256 50.8392 348.134 51.1083 348.107 51.3947L347.956 52.2487C347.707 52.159 347.442 52.1277 347.179 52.1571C346.917 52.1865 346.664 52.276 346.442 52.4184C346.22 52.5609 346.033 52.7527 345.897 52.9788C345.76 53.205 345.678 53.4595 345.655 53.7226C345.655 54.5491 345.531 55.3756 345.462 56.2297C345.267 56.0919 345.04 56.0073 344.802 55.984C344.565 55.9607 344.325 55.9995 344.107 56.0968C343.889 56.194 343.7 56.3463 343.558 56.5386C343.417 56.731 343.328 56.9568 343.3 57.1939C342.86 60.2331 342.126 63.2225 341.11 66.1201C340.919 66.7268 340.602 67.286 340.179 67.761C339.757 68.2359 339.238 68.6157 338.658 68.8751C337.197 69.619 335.682 70.2526 334.194 71.0103C332.707 71.7679 333.547 73.9306 335.035 73.9857C334.898 74.2061 334.812 74.4542 334.784 74.712C334.755 74.9697 334.783 75.2306 334.868 75.4758C334.952 75.721 335.09 75.9444 335.271 76.1298C335.453 76.3152 335.673 76.458 335.916 76.5478C333.933 77.0162 334.787 80.1018 336.825 79.6747C340.435 78.9033 344.168 78.2972 347.708 77.2917C350.986 76.3274 353.025 73.7653 354.595 70.8725C355.27 69.7705 356.427 67.9798 356.166 66.5609ZM337.142 73.2969C337.983 72.925 338.837 72.5531 339.649 72.126C339.328 72.4383 338.988 72.7367 338.63 73.0214L337.142 73.2969Z" fill="#FF7D09"/>
<path d="M346.08 63.3652C346.236 60.0683 346.452 56.7761 346.728 53.4885C346.728 52.7997 345.695 52.7997 345.639 53.4885C345.382 56.5649 345.176 59.6459 345.02 62.7315C345.368 62.9611 345.722 63.1723 346.08 63.3652Z" fill="#99551D"/>
<path d="M348.26 65.0043C348.82 60.2014 349.279 55.3893 349.638 50.5681C349.638 49.8793 348.604 49.8793 348.549 50.5681C348.173 55.2516 347.714 59.9259 347.172 64.591L348.26 65.0043Z" fill="#99551D"/>
<path d="M288.364 96.6455C288.364 96.6455 288.283 96.7 288.364 96.6455V96.6455Z" fill="#FF7D09"/>
<path d="M322.874 99.8964C321.125 99.5107 319.348 99.1801 317.571 98.9046H317.667C318.976 98.4638 320.629 97.3067 319.486 95.7363C318.342 94.166 316.524 95.5435 315.353 96.0394C313.562 96.7637 311.72 97.3576 309.843 97.8164C309.471 97.9128 291.812 96.9899 291.674 97.2378C290.861 97.1552 294.016 95.7914 293.189 95.7088C292.363 95.6261 288.506 96.0256 288.368 96.6455L289.497 96.8383C289.355 97.0502 289.265 97.293 289.236 97.5466C289.207 97.8002 289.238 98.0572 289.329 98.2959C289.419 98.5347 289.565 98.7483 289.755 98.9189C289.945 99.0895 290.173 99.2121 290.42 99.2765H290.655C290.597 99.5447 290.605 99.8231 290.68 100.087C290.754 100.351 290.892 100.593 291.082 100.792L285.572 99.979C285.351 99.979 287.968 100.392 291.082 100.902L291.302 101.026L292.239 101.412C291.536 102.293 291.688 103.932 293.024 104.167L294.016 104.318C294.205 104.454 294.421 104.547 294.649 104.594C295.751 104.832 296.858 105.053 297.969 105.255C297.982 105.466 298.048 105.669 298.162 105.847C300.449 109.622 305.049 108.754 308.714 108.988C308.838 109.966 308.838 111.275 309.595 111.936C310.019 112.198 310.492 112.369 310.986 112.438C311.479 112.506 311.981 112.472 312.46 112.335C312.94 112.246 313.385 112.021 313.741 111.688C313.901 111.829 314.097 111.924 314.306 111.963C314.948 112.123 315.624 112.075 316.237 111.828C316.851 111.581 317.371 111.146 317.722 110.586C318.571 110.577 319.409 110.399 320.188 110.062C320.598 109.872 320.945 109.568 321.189 109.188C321.433 108.807 321.563 108.365 321.566 107.913C321.741 106.414 321.629 104.894 321.235 103.437L321.91 103.519C323.356 103.74 326.938 104.497 328.412 104.194C328.908 104.098 329.693 103.533 329.638 103.023C329.541 100.998 324.472 100.241 322.874 99.8964Z" fill="#FF7D09"/>
<path d="M311.74 112.032C311.12 112.032 310.61 111.949 310.238 111.357C310.045 111 309.897 110.621 309.797 110.227C309.494 109.343 309.377 108.405 309.453 107.472C309.453 106.839 308.53 106.853 308.475 107.472C308.453 107.789 308.453 108.106 308.475 108.423C306.484 108.849 304.413 108.71 302.497 108.023C300.894 107.739 299.422 106.953 298.295 105.778C297.896 105.296 297.193 105.985 297.606 106.467C298.853 107.765 300.478 108.637 302.249 108.96C304.306 109.68 306.52 109.827 308.654 109.387C308.756 110.14 308.955 110.876 309.246 111.577C309.477 112.029 309.838 112.402 310.282 112.647C310.727 112.892 311.234 113 311.74 112.955C312.373 113.065 312.359 112.087 311.74 112.032Z" fill="#99551D"/>
<path d="M313.739 105.916C313.647 107.697 313.514 109.474 313.34 111.247C313.34 111.88 314.263 111.867 314.318 111.247C314.492 109.474 314.626 107.697 314.717 105.916C314.745 105.282 313.767 105.282 313.739 105.916Z" fill="#99551D"/>
<path d="M318.066 104.69L317.832 110.2C317.832 110.834 318.783 110.834 318.81 110.2L319.044 104.69C319.072 104.029 318.094 104.029 318.066 104.69Z" fill="#99551D"/>
<path d="M240.839 109.98C240.839 109.98 225.329 163.702 237.726 239.465C237.726 239.465 256.805 247.413 271.296 237.564L268.996 203.36L281.545 202.823C281.545 202.823 303.833 172.201 300.719 149.597C297.606 126.992 276.875 104.966 276.875 104.966L240.908 109.98" fill="#2887FD"/>
<path d="M267.016 54.5078C267.016 54.5078 244.673 77.5672 240.844 109.994C240.844 109.994 257.374 116.55 277.719 105.379C277.719 105.379 288.12 109.925 298.12 107.404C298.12 107.404 302.694 97.293 307.473 95.1303L287.899 90.7498L286.384 83.0083L334.734 86.4934C334.734 86.4934 344.762 75.3769 340.106 66.2717L283.161 59.7561" fill="#FFB001"/>
<path d="M290.501 45.2234C290.501 45.2234 291.258 35.5809 279.481 36.9584C277.446 36.0829 275.226 35.7252 273.019 35.9176C270.812 36.1099 268.688 36.8461 266.835 38.0604C265.402 38.9692 264.211 40.2125 263.364 41.6833C261.37 42.536 259.292 43.1778 257.165 43.598C250.705 44.0801 243.817 41.3251 237.894 39.5206C235.907 38.9032 233.883 38.4154 231.833 38.0604C230.109 37.625 228.334 37.4257 226.557 37.4681C225.975 37.487 225.395 37.5468 224.821 37.6472C220.805 37.7951 216.972 39.3674 214.008 42.0827C212.602 43.4681 211.534 45.1594 210.889 47.025C210.243 48.8905 210.037 50.8799 210.286 52.8382C210.536 54.7965 211.234 56.6708 212.326 58.3151C213.418 59.9594 214.875 61.3293 216.584 62.3182C220.372 64.4396 224.932 64.8115 229.188 64.6324C233.449 64.4547 237.662 63.6613 241.696 62.2769C249.19 59.709 255.887 55.2375 261.132 49.3008C260.791 52.3178 261.357 55.3681 262.758 58.0617C265.513 62.1942 271.216 63.1172 271.216 63.1172L289.123 47.9647C290.541 47.8188 291.861 47.1709 292.843 46.1378C293.826 45.1047 294.407 43.7545 294.482 42.3307C294.482 42.3307 292.03 45.0857 290.501 45.2234Z" fill="#EE6300"/>
<path d="M277.151 41.9311C273.239 42.7301 271.09 46.4493 270.264 50.8022C270.023 50.5201 269.722 50.2952 269.383 50.1441C269.045 49.9929 268.676 49.9193 268.306 49.9285C267.935 49.9378 267.571 50.0297 267.24 50.1975C266.909 50.3653 266.62 50.6049 266.393 50.8986C266.083 51.556 265.99 52.2951 266.129 53.0085C266.268 53.722 266.631 54.3726 267.165 54.8658C267.948 55.7338 268.912 56.4202 269.988 56.877C270.443 62.387 272.743 67.3047 276.104 67.3735C283.474 67.5251 287.276 51.3257 289.273 49.8242C289.893 44.4382 287.634 39.796 277.151 41.9311Z" fill="#FFE1D7"/>
<path d="M262.634 41.6008C262.149 41.5918 261.671 41.7208 261.257 41.9727C258.708 42.9094 257.042 46.6424 257.276 49.1082C257.414 50.4857 258.254 52.1387 259.907 51.8632C261.56 51.5877 262.662 49.9347 263.433 48.8051C264.357 47.5722 264.885 46.088 264.948 44.5486C264.948 43.1849 264.287 41.6421 262.634 41.6008Z" fill="#FF7D09"/>
<path d="M285.708 42.496C285.281 42.496 282.843 41.1185 281.025 44.4796C279.206 47.8407 281.727 51.2845 278.421 52.965C275.115 54.6456 272.401 55.1553 270.294 50.8024C268.186 46.4495 274.964 38.8319 279.771 39.3967C284.578 39.9614 285.708 42.5098 285.708 42.5098" fill="#EE6300"/>
<path d="M268.871 145.602C268.945 139.954 269.046 134.306 269.174 128.659C269.174 127.281 267.797 127.281 267.7 128.659C267.26 148.66 267.154 168.666 267.384 188.676C267.448 194.324 267.544 199.972 267.673 205.62C267.673 206.997 269.174 206.997 269.147 205.62C268.706 185.618 268.614 165.612 268.871 145.602Z" fill="#68E1FD"/>
<path d="M275.348 52.1937C275.348 52.1937 266.27 49.4387 264.328 46.1465L262.055 50.5683C265.845 53.6623 270.194 56.0004 274.865 57.4558" fill="#00106F"/>
<path d="M290.497 49.7002C290.271 49.5327 290.004 49.4311 289.724 49.4068C289.445 49.3825 289.164 49.4364 288.913 49.5624C287.367 50.384 285.711 50.9779 283.995 51.3256C281.736 51.6011 275.289 50.5956 274.201 53.4194C273.754 54.741 273.699 56.1639 274.044 57.5158C274.389 58.8678 275.118 60.0908 276.143 61.037C278.072 63.1308 287.246 60.734 289.67 59.3151C292.095 57.8963 292.659 51.3256 292.659 51.3256L290.497 49.7002Z" fill="#00106F"/>
<path d="M292.678 51.3259C290.639 52.1789 288.528 52.8474 286.37 53.3233C283.904 53.7228 279.262 53.1305 278.105 54.5217C276.925 56.2891 276.084 58.2602 275.625 60.3348C275.625 60.3348 275.763 61.8638 279.62 61.8638C283.118 61.6408 286.545 60.777 289.731 59.3154C291.108 58.6542 291.907 55.6375 291.907 55.6375L292.72 51.3259" fill="#68E1FD"/>
<path d="M241.338 237.591C241.228 238.762 241.338 250.099 241.338 250.099C241.338 250.099 244.782 252.854 244.644 251.793C244.506 250.733 247.399 237.591 247.399 237.591H241.338Z" fill="#FF7F2E"/>
<path d="M396.606 130.622C400.028 104.799 391.498 82.3674 377.554 80.5192C363.609 78.671 349.53 98.1063 346.107 123.929C342.685 149.752 351.215 172.184 365.159 174.033C379.104 175.881 393.183 156.445 396.606 130.622Z" fill="#FFB001"/>
<path d="M110.711 150.892V207.741L181.225 247.592V191.266L110.711 150.892Z" fill="#2887FD"/>
<path d="M411.114 169.865C412.192 161.727 409.502 154.658 405.105 154.075C400.708 153.493 396.27 159.617 395.191 167.755C394.113 175.892 396.803 182.961 401.199 183.544C405.596 184.127 410.035 178.003 411.114 169.865Z" fill="#FFB001"/>
<path d="M230.99 315.971C229.902 310.929 227.409 305.667 222.822 303.477C219.033 301.659 214.625 301.19 211.43 298.463C212.421 321.784 228.552 319.773 231.486 319.208C231.384 318.12 231.218 317.039 230.99 315.971Z" fill="#00C0B9"/>
<path d="M138.341 119.595C142.997 117.391 147.556 113.768 148.658 108.795C149.568 104.662 149.017 100.296 150.945 96.5627C128.464 102.844 134.098 118.079 135.31 120.807C136.343 120.461 137.355 120.057 138.341 119.595Z" fill="#00C0B9"/>
<path d="M354.997 269.26C362.285 272.31 370.005 274.206 377.877 274.88C386.03 275.738 394.266 275.381 402.314 273.819C409.325 272.442 416.447 269.88 422.053 265.306C423.032 264.505 423.953 263.635 424.808 262.703C425.208 262.271 425.505 261.754 425.677 261.191C425.849 260.628 425.891 260.034 425.8 259.452C424.519 251.476 418.32 230.249 388.608 228.803C360.699 227.425 350.506 251.118 347.283 262.469C347.1 263.12 347.136 263.814 347.385 264.443C347.634 265.072 348.082 265.603 348.66 265.954C350.692 267.204 352.809 268.308 354.997 269.26Z" fill="#EE6300"/>
<path d="M382.105 272.883C378.32 270.224 375.234 266.689 373.11 262.579C370.934 257.929 370.158 252.745 370.878 247.661C371.774 241.021 374.446 234.038 379.267 229.382C358.164 233.225 350.092 253.281 347.392 263.02C347.26 263.501 347.285 264.012 347.463 264.478C347.642 264.943 347.964 265.34 348.384 265.61C350.582 266.996 352.884 268.207 355.271 269.233C362.56 272.283 370.279 274.179 378.152 274.853C380.631 275.101 383.125 275.239 385.632 275.28C384.447 274.55 383.248 273.751 382.105 272.883Z" fill="#CE5A0B"/>
<defs>
<linearGradient id="paint0_linear" x1="329.247" y1="295.956" x2="542.457" y2="162.407" gradientUnits="userSpaceOnUse">
<stop stop-opacity="0"/>
<stop offset="1"/>
</linearGradient>
<linearGradient id="paint1_linear" x1="27253.7" y1="11195.8" x2="34912.9" y2="-11383.9" gradientUnits="userSpaceOnUse">
<stop stop-opacity="0"/>
<stop offset="1"/>
</linearGradient>
</defs>
</svg>
