<svg width="834" height="526" viewBox="0 0 834 526" fill="none" xmlns="http://www.w3.org/2000/svg">
<g clip-path="url(#clip0)">
<path d="M111.446 307.555L439.416 120.239C447.191 115.797 455.997 113.477 464.951 113.51C473.905 113.543 482.694 115.928 490.436 120.426L755.481 274.404C758.392 276.108 760.806 278.544 762.484 281.47C764.162 284.396 765.045 287.71 765.045 291.084C765.045 294.457 764.162 297.771 762.484 300.697C760.806 303.623 758.392 306.059 755.481 307.764L433.682 496.894C426.072 501.37 417.413 503.752 408.584 503.8C399.755 503.848 391.071 501.558 383.413 497.165L111.404 341.103C108.451 339.407 105.999 336.962 104.294 334.015C102.59 331.067 101.695 327.722 101.699 324.317C101.703 320.912 102.607 317.569 104.318 314.625C106.03 311.682 108.489 309.243 111.446 307.555Z" fill="#E59950"/>
<path d="M461.349 123.72C458.576 123.428 433.348 112.253 412.185 116.277C407.056 117.257 369.38 161.918 370.485 169.173C371.59 176.429 391.564 201.908 391.564 201.908L444.106 151.868" fill="#68E1FD"/>
<path opacity="0.61" d="M438.867 155.58L442.599 152.035L459.904 123.825C457.173 123.533 432.903 112.816 411.949 116.173C412.095 132.415 424.855 147.198 438.867 155.58Z" fill="black"/>
<path d="M516.373 236.123C512.912 221.987 507.533 197.133 503.279 191.754C496.816 183.581 479.385 165.004 479.385 165.004L466.625 191.254L485.223 210.352L496.524 240.689C503.675 239.167 510.076 239.855 516.373 236.123Z" fill="white"/>
<path d="M497.731 233.037C497.731 233.037 489.203 256.097 492.414 257.953C497.856 261.08 498.982 244.651 501.943 248.091C504.903 251.531 507.384 268.774 512.618 266.71C517.851 264.646 521.166 239.209 511.471 223.488C501.776 207.767 497.731 233.037 497.731 233.037Z" fill="white"/>
<path d="M347.592 260.059C347.592 260.059 335.583 259.746 333.518 266.314C331.454 272.882 328.702 308.014 340.795 309.765C352.888 311.517 355.119 277.552 355.119 277.552" fill="white"/>
<path d="M319.238 211.27C317.612 210.936 312.274 219.922 311.461 221.278C309.046 225.298 307.24 229.655 306.102 234.205C304.518 240.668 303.183 249.634 305.769 255.993C310.085 266.668 322.991 256.994 326.619 250.488C328.142 247.564 329.358 244.49 330.247 241.314C330.855 236.759 331.19 232.17 331.247 227.574V214.835C327.34 213.346 323.325 212.154 319.238 211.27Z" fill="white"/>
<path d="M415.622 159.666C415.622 159.666 391.707 200.24 389.497 215.231C387.286 230.222 377.404 280.763 388.621 283.494C399.838 286.226 411.222 283.14 417.811 257.598C422.189 240.918 421.668 214.71 421.668 214.71L415.622 159.666Z" fill="white"/>
<path d="M475.796 180.328C477.318 175.303 478.382 170.174 479.403 165.024L478.903 164.294L449.108 144.841C449.108 144.841 430.802 152.285 427.57 163.44C424.338 174.594 437.474 219.609 437.474 219.609L471.918 190.419C473.405 187.133 474.7 183.764 475.796 180.328Z" fill="white"/>
<path d="M392.103 255.43L347.609 260.059C347.609 260.059 338.205 274.32 350.757 285.287C350.757 285.287 393.375 289.978 405.759 280.638C418.144 271.297 392.103 255.43 392.103 255.43Z" fill="white"/>
<path d="M361.828 248.633C374.63 243.17 415.267 221.903 415.267 221.903L361.828 248.633Z" fill="white"/>
<path d="M361.827 248.633C351.652 250.28 325.902 242.607 325.902 242.607C305.052 234.1 330.26 214.293 330.26 214.293C330.26 214.293 350.922 218.755 360.805 215.606C370.688 212.458 403.652 179.723 403.652 179.723C403.652 179.723 407.092 225.593 402.568 232.891C398.043 240.188 361.827 248.633 361.827 248.633Z" fill="white"/>
<path d="M452.027 227.533C452.027 227.533 471.104 227.074 471.104 231.223C471.104 235.372 463.119 236.644 463.119 236.644C463.119 236.644 474.128 253.574 469.103 259.579C464.078 265.584 451.297 263.415 449.066 260.851C446.835 258.286 440.059 241.586 440.059 241.586" fill="white"/>
<path d="M384.324 255.43C384.324 255.43 397.647 267.398 402.005 268.67C406.363 269.942 415.015 267.314 415.015 267.314C415.015 267.314 408.76 274.049 402.005 274.362C395.25 274.674 384.324 255.43 384.324 255.43Z" fill="#57464E"/>
<path d="M356.849 250.697C354.174 245.003 352.321 238.959 351.344 232.745C351.115 227.595 354.138 216.607 354.138 216.607L356.974 216.357C356.974 216.357 353.596 231.306 354.889 233.871C356.182 236.436 361.769 248.633 361.769 248.633C361.769 248.633 362.061 254.2 356.849 250.697Z" fill="#57464E"/>
<path d="M472.07 190.566L436.104 187.73C436.104 187.73 435.895 206.266 439.586 211.687C443.276 217.108 443.088 214.543 443.088 214.543L472.07 190.566Z" fill="#A8A8A8"/>
<path d="M449.09 144.841C449.09 144.841 421.172 152.91 415.626 161.521C410.08 170.132 409.704 206.87 415.626 216.565C421.547 226.261 440.062 243.524 440.062 243.524C440.062 243.524 451.092 233.996 452.03 229.388C452.03 229.388 439.666 208.976 438.185 203.743C436.705 198.509 449.09 144.841 449.09 144.841Z" fill="white"/>
<path d="M415.625 216.461C415.625 216.461 429.261 208.934 439.686 207.266C439.686 207.266 426.384 202.951 415.625 216.461Z" fill="#57464E"/>
<path d="M463.159 165.024C463.159 165.024 483.467 165.9 491.515 151.284C499.563 136.668 488.596 117.215 470.915 115.631C453.235 114.046 443.227 130.226 443.227 136.981C443.227 143.736 448.272 161.209 463.159 165.024Z" fill="white"/>
<path d="M450.359 147.51C450.359 147.51 451.027 167.61 473.002 166.275C494.978 164.941 497.355 145.78 493.686 140.546C490.016 135.313 463.578 123.095 450.359 147.51Z" fill="url(#paint0_linear)"/>
<path opacity="0.54" d="M490.978 145.572C490.841 145.19 490.565 144.875 490.205 144.688C489.846 144.502 489.429 144.459 489.038 144.567C488.648 144.675 488.313 144.927 488.1 145.272C487.888 145.617 487.813 146.029 487.892 146.426C488.335 147.859 488.394 149.383 488.065 150.846C487.736 152.31 487.029 153.661 486.016 154.766C484.619 156.288 486.891 158.561 488.288 157.039C489.693 155.525 490.679 153.672 491.151 151.661C491.622 149.651 491.563 147.552 490.978 145.572Z" fill="white"/>
<path opacity="0.54" d="M482.652 157.894C482.227 157.894 481.818 158.063 481.517 158.364C481.216 158.665 481.047 159.073 481.047 159.499C481.047 159.925 481.216 160.333 481.517 160.634C481.818 160.935 482.227 161.104 482.652 161.104C483.078 161.104 483.486 160.935 483.788 160.634C484.089 160.333 484.258 159.925 484.258 159.499C484.258 159.073 484.089 158.665 483.788 158.364C483.486 158.063 483.078 157.894 482.652 157.894Z" fill="white"/>
<path d="M449.273 132.853L478.568 97.095C478.568 97.095 479.381 96.7405 479.089 97.6371L450.358 133.52L449.273 132.853Z" fill="#A8A8A8"/>
<path d="M454.086 132.853C454.086 132.853 450.834 128.891 449.291 129.037C447.748 129.183 443.953 133.895 444.641 135.126C445.329 136.356 447.477 138.628 448.561 138.357C449.645 138.086 454.086 132.853 454.086 132.853Z" fill="#A8A8A8"/>
<path d="M452.442 130.914C450.357 132.999 448.272 134.875 446.188 136.814C447.063 137.732 448.106 138.503 448.773 138.357C449.857 138.086 454.319 132.853 454.319 132.853C454.319 132.853 453.506 131.873 452.442 130.914Z" fill="#898989"/>
<path d="M441.147 216.461L435.977 220.152L438.562 223.321L443.587 219.902L441.147 216.461Z" fill="#57464E"/>
<path d="M444.812 224.134C444.536 224.134 444.27 224.244 444.075 224.439C443.879 224.635 443.77 224.9 443.77 225.177C443.77 225.453 443.879 225.718 444.075 225.914C444.27 226.109 444.536 226.219 444.812 226.219C445.089 226.219 445.354 226.109 445.549 225.914C445.745 225.718 445.855 225.453 445.855 225.177C445.855 224.9 445.745 224.635 445.549 224.439C445.354 224.244 445.089 224.134 444.812 224.134Z" fill="#777777"/>
<path d="M447.98 227.637C447.704 227.637 447.438 227.747 447.243 227.942C447.047 228.138 446.938 228.403 446.938 228.679C446.938 228.956 447.047 229.221 447.243 229.416C447.438 229.612 447.704 229.722 447.98 229.722C448.256 229.722 448.522 229.612 448.717 229.416C448.913 229.221 449.023 228.956 449.023 228.679C449.023 228.403 448.913 228.138 448.717 227.942C448.522 227.747 448.256 227.637 447.98 227.637Z" fill="#777777"/>
<path d="M337.769 218.254C337.769 218.254 325.968 227.908 326.051 233.6C326.135 239.292 329.763 250.968 329.763 250.968C329.763 250.968 330.909 238.062 332.536 234.1C335.154 229.126 338.071 224.314 341.272 219.693L337.769 218.254Z" fill="#57464E"/>
<path d="M347.591 260.059C347.591 260.059 344.651 269.128 346.048 272.569C347.445 276.009 354.076 286.538 354.076 286.538L358.975 286.038C358.975 286.038 349.989 273.674 349.426 271.026C348.863 268.378 347.591 260.059 347.591 260.059Z" fill="#57464E"/>
<path d="M320.941 209.351C321.17 208.976 316.437 217.691 317.25 218.275C320.466 219.354 323.737 220.259 327.05 220.985L332.158 212.395L320.941 209.351Z" fill="#2D1E45"/>
<path d="M415.622 161.417C415.622 161.417 409.929 195.736 411.326 201.512C412.723 207.287 421.397 224.134 421.397 224.134L421.043 236.644C421.043 236.644 407.136 217.232 406.239 206.682C405.342 196.132 415.622 161.417 415.622 161.417Z" fill="#A8A8A8"/>
<path d="M386.098 236.894C386.098 236.894 386.869 217.483 387.578 212.166C388.287 206.849 392.749 190.19 392.749 190.19L376.653 204.598L373.004 243.399L386.098 236.894Z" fill="#A8A8A8"/>
<path d="M599.939 134.229C601.724 134.229 603.171 132.782 603.171 130.997C603.171 129.213 601.724 127.766 599.939 127.766C598.154 127.766 596.707 129.213 596.707 130.997C596.707 132.782 598.154 134.229 599.939 134.229Z" fill="white"/>
<path d="M451.066 75.8909C450.789 75.8909 450.524 76.0007 450.329 76.1962C450.133 76.3917 450.023 76.6569 450.023 76.9334C450.023 77.2099 450.133 77.475 450.329 77.6705C450.524 77.866 450.789 77.9759 451.066 77.9759C451.342 77.9759 451.608 77.866 451.803 77.6705C451.999 77.475 452.108 77.2099 452.108 76.9334C452.108 76.6569 451.999 76.3917 451.803 76.1962C451.608 76.0007 451.342 75.8909 451.066 75.8909Z" fill="white"/>
<path d="M310.668 112.941C310.391 112.941 310.126 113.051 309.93 113.246C309.735 113.442 309.625 113.707 309.625 113.983C309.625 114.26 309.735 114.525 309.93 114.721C310.126 114.916 310.391 115.026 310.668 115.026C310.944 115.026 311.209 114.916 311.405 114.721C311.6 114.525 311.71 114.26 311.71 113.983C311.71 113.707 311.6 113.442 311.405 113.246C311.209 113.051 310.944 112.941 310.668 112.941Z" fill="white"/>
<path d="M250.199 212.041C249.922 212.041 249.657 212.151 249.462 212.346C249.266 212.542 249.156 212.807 249.156 213.084C249.156 213.36 249.266 213.625 249.462 213.821C249.657 214.016 249.922 214.126 250.199 214.126C250.475 214.126 250.74 214.016 250.936 213.821C251.131 213.625 251.241 213.36 251.241 213.084C251.241 212.807 251.131 212.542 250.936 212.346C250.74 212.151 250.475 212.041 250.199 212.041Z" fill="white"/>
<path d="M345.093 199.114C344.817 199.114 344.552 199.224 344.356 199.419C344.161 199.615 344.051 199.88 344.051 200.157C344.051 200.433 344.161 200.698 344.356 200.894C344.552 201.089 344.817 201.199 345.093 201.199C345.37 201.199 345.635 201.089 345.83 200.894C346.026 200.698 346.136 200.433 346.136 200.157C346.136 199.88 346.026 199.615 345.83 199.419C345.635 199.224 345.37 199.114 345.093 199.114Z" fill="white"/>
<path d="M322.679 137.919C322.403 137.919 322.138 138.029 321.942 138.225C321.747 138.42 321.637 138.685 321.637 138.962C321.637 139.238 321.747 139.504 321.942 139.699C322.138 139.895 322.403 140.004 322.679 140.004C322.956 140.004 323.221 139.895 323.416 139.699C323.612 139.504 323.722 139.238 323.722 138.962C323.722 138.685 323.612 138.42 323.416 138.225C323.221 138.029 322.956 137.919 322.679 137.919Z" fill="white"/>
<path d="M570.688 143.278V144.132C570.688 144.409 570.797 144.674 570.993 144.87C571.188 145.065 571.454 145.175 571.73 145.175C572.006 145.175 572.272 145.065 572.467 144.87C572.663 144.674 572.773 144.409 572.773 144.132V143.278C572.773 143.001 572.663 142.736 572.467 142.54C572.272 142.345 572.006 142.235 571.73 142.235C571.454 142.235 571.188 142.345 570.993 142.54C570.797 142.736 570.688 143.001 570.688 143.278Z" fill="white"/>
<path d="M656.175 226.677C655.899 226.677 655.634 226.787 655.438 226.983C655.243 227.178 655.133 227.444 655.133 227.72C655.133 227.996 655.243 228.262 655.438 228.457C655.634 228.653 655.899 228.762 656.175 228.762C656.452 228.762 656.717 228.653 656.913 228.457C657.108 228.262 657.218 227.996 657.218 227.72C657.218 227.444 657.108 227.178 656.913 226.983C656.717 226.787 656.452 226.677 656.175 226.677Z" fill="white"/>
<path d="M538.121 99.1594C537.844 99.1594 537.579 99.2693 537.383 99.4648C537.188 99.6603 537.078 99.9254 537.078 100.202C537.078 100.478 537.188 100.744 537.383 100.939C537.579 101.135 537.844 101.244 538.121 101.244C538.397 101.244 538.662 101.135 538.858 100.939C539.053 100.744 539.163 100.478 539.163 100.202C539.163 99.9254 539.053 99.6603 538.858 99.4648C538.662 99.2693 538.397 99.1594 538.121 99.1594Z" fill="white"/>
<path d="M571.73 267.189C571.454 267.189 571.188 267.299 570.993 267.495C570.797 267.69 570.688 267.955 570.688 268.232C570.688 268.508 570.797 268.774 570.993 268.969C571.188 269.165 571.454 269.274 571.73 269.274C572.006 269.274 572.272 269.165 572.467 268.969C572.663 268.774 572.773 268.508 572.773 268.232C572.773 267.955 572.663 267.69 572.467 267.495C572.272 267.299 572.006 267.189 571.73 267.189Z" fill="white"/>
<path d="M251.16 319.752C250.883 319.752 250.618 319.862 250.423 320.058C250.227 320.253 250.117 320.518 250.117 320.795C250.117 321.071 250.227 321.337 250.423 321.532C250.618 321.728 250.883 321.837 251.16 321.837C251.436 321.837 251.701 321.728 251.897 321.532C252.092 321.337 252.202 321.071 252.202 320.795C252.202 320.518 252.092 320.253 251.897 320.058C251.701 319.862 251.436 319.752 251.16 319.752Z" fill="white"/>
<path d="M222.595 204.598L221.74 203.743C221.544 203.547 221.278 203.436 221 203.436C220.722 203.436 220.456 203.547 220.26 203.743C220.063 203.939 219.953 204.205 219.953 204.483C219.953 204.761 220.063 205.027 220.26 205.223L221.115 206.078C221.311 206.274 221.577 206.385 221.855 206.385C222.132 206.385 222.399 206.274 222.595 206.078C222.791 205.882 222.902 205.616 222.902 205.338C222.902 205.06 222.791 204.794 222.595 204.598Z" fill="white"/>
<path d="M181.398 280.117C181.121 280.117 180.856 280.227 180.661 280.422C180.465 280.618 180.355 280.883 180.355 281.159C180.355 281.436 180.465 281.701 180.661 281.896C180.856 282.092 181.121 282.202 181.398 282.202C181.674 282.202 181.94 282.092 182.135 281.896C182.331 281.701 182.44 281.436 182.44 281.159C182.44 280.883 182.331 280.618 182.135 280.422C181.94 280.227 181.674 280.117 181.398 280.117Z" fill="white"/>
<path d="M381.285 399.024C381.008 399.024 380.743 399.134 380.548 399.33C380.352 399.525 380.242 399.79 380.242 400.067C380.242 400.343 380.352 400.608 380.548 400.804C380.743 400.999 381.008 401.109 381.285 401.109C381.561 401.109 381.826 400.999 382.022 400.804C382.217 400.608 382.327 400.343 382.327 400.067C382.327 399.79 382.217 399.525 382.022 399.33C381.826 399.134 381.561 399.024 381.285 399.024Z" fill="white"/>
<path d="M440.726 389.558C440.45 389.558 440.184 389.668 439.989 389.863C439.793 390.059 439.684 390.324 439.684 390.601C439.684 390.877 439.793 391.142 439.989 391.338C440.184 391.533 440.45 391.643 440.726 391.643C441.003 391.643 441.268 391.533 441.463 391.338C441.659 391.142 441.769 390.877 441.769 390.601C441.769 390.324 441.659 390.059 441.463 389.863C441.268 389.668 441.003 389.558 440.726 389.558Z" fill="white"/>
<path d="M588.089 350.777C587.813 350.777 587.548 350.887 587.352 351.082C587.157 351.278 587.047 351.543 587.047 351.819C587.047 352.096 587.157 352.361 587.352 352.557C587.548 352.752 587.813 352.862 588.089 352.862C588.366 352.862 588.631 352.752 588.827 352.557C589.022 352.361 589.132 352.096 589.132 351.819C589.132 351.543 589.022 351.278 588.827 351.082C588.631 350.887 588.366 350.777 588.089 350.777Z" fill="white"/>
<path d="M660.488 297.359C660.211 297.359 659.946 297.469 659.751 297.665C659.555 297.86 659.445 298.125 659.445 298.402C659.445 298.678 659.555 298.944 659.751 299.139C659.946 299.335 660.211 299.444 660.488 299.444C660.764 299.444 661.029 299.335 661.225 299.139C661.42 298.944 661.53 298.678 661.53 298.402C661.53 298.125 661.42 297.86 661.225 297.665C661.029 297.469 660.764 297.359 660.488 297.359Z" fill="white"/>
<path d="M557.07 218.067C556.793 218.067 556.528 218.177 556.333 218.372C556.137 218.568 556.027 218.833 556.027 219.109C556.027 219.386 556.137 219.651 556.333 219.847C556.528 220.042 556.793 220.152 557.07 220.152C557.346 220.152 557.611 220.042 557.807 219.847C558.002 219.651 558.112 219.386 558.112 219.109C558.112 218.833 558.002 218.568 557.807 218.372C557.611 218.177 557.346 218.067 557.07 218.067Z" fill="white"/>
<path d="M193.425 334.41C193.149 334.41 192.884 334.52 192.688 334.715C192.493 334.911 192.383 335.176 192.383 335.452C192.383 335.729 192.493 335.994 192.688 336.19C192.884 336.385 193.149 336.495 193.425 336.495C193.702 336.495 193.967 336.385 194.162 336.19C194.358 335.994 194.468 335.729 194.468 335.452C194.468 335.176 194.358 334.911 194.162 334.715C193.967 334.52 193.702 334.41 193.425 334.41Z" fill="white"/>
<path d="M368.356 69.99C361.642 69.99 361.642 80.415 368.356 80.415C375.069 80.415 375.069 69.99 368.356 69.99Z" fill="white"/>
<path d="M599.939 336.099C609.98 336.099 618.12 333.028 618.12 329.239C618.12 325.451 609.98 322.379 599.939 322.379C589.898 322.379 581.758 325.451 581.758 329.239C581.758 333.028 589.898 336.099 599.939 336.099Z" fill="#CC7A36"/>
<path d="M607.709 330.698V229.43H603.164V330.135C604.636 330.58 606.173 330.77 607.709 330.698Z" fill="#68E1FD"/>
<path d="M603.164 229.43C603.164 229.43 611.858 220.131 629.143 224.864C639.682 227.701 650.702 228.284 661.482 226.574V252.97C661.482 252.97 634.794 254.304 626.891 249.842C618.989 245.38 603.164 257.202 603.164 257.202" fill="#68E1FD"/>
<path d="M257.771 348.129C267.812 348.129 275.952 345.058 275.952 341.27C275.952 337.481 267.812 334.41 257.771 334.41C247.73 334.41 239.59 337.481 239.59 341.27C239.59 345.058 247.73 348.129 257.771 348.129Z" fill="#CC7A36"/>
<path d="M419.065 350.715C450.398 350.715 475.798 346.486 475.798 341.27C475.798 336.053 450.398 331.825 419.065 331.825C387.732 331.825 362.332 336.053 362.332 341.27C362.332 346.486 387.732 350.715 419.065 350.715Z" fill="#CC7A36"/>
</g>
<defs>
<linearGradient id="paint0_linear" x1="515.474" y1="148.803" x2="455.76" y2="149.95" gradientUnits="userSpaceOnUse">
<stop stop-color="white"/>
<stop offset="0.03" stop-color="#F7931E"/>
<stop offset="1" stop-color="#1B1464"/>
</linearGradient>
<clipPath id="clip0">
<rect width="834" height="526" fill="white"/>
</clipPath>
</defs>
</svg>
