<svg width="622" height="467" viewBox="0 0 622 467" fill="none" xmlns="http://www.w3.org/2000/svg">
<path d="M533.758 272.607L292.344 412.292C287.331 415.183 281.647 416.704 275.861 416.704C270.075 416.704 264.39 415.183 259.378 412.292L89.7272 314.903C87.4403 313.587 85.5406 311.692 84.2196 309.409C82.8987 307.125 82.2031 304.533 82.2031 301.895C82.2031 299.257 82.8987 296.665 84.2196 294.382C85.5406 292.098 87.4403 290.203 89.7272 288.888L342.104 143.137L533.524 249.515C535.58 250.65 537.298 252.311 538.502 254.328C539.706 256.344 540.353 258.644 540.377 260.993C540.4 263.341 539.8 265.654 538.637 267.695C537.474 269.735 535.79 271.43 533.758 272.607Z" fill="#FF8E31"/>
<path d="M267.148 254.103L199.848 294.642C199.848 294.642 285.373 343.655 318.696 363.45L388.547 323.891" fill="url(#paint0_linear)"/>
<path d="M204.422 299.26L137.137 339.783C137.137 339.783 158.02 353.483 191.266 373.2L262.501 329.458" fill="url(#paint1_linear)"/>
<path d="M215.457 250.386V254.973L217.79 257.835" fill="#ADCEE1"/>
<path d="M307.885 194.375L218.099 250.013C217.277 250.522 216.601 251.236 216.139 252.085C215.676 252.934 215.443 253.889 215.462 254.856C215.481 255.822 215.751 256.768 216.246 257.598C216.741 258.429 217.444 259.116 218.286 259.592L354.535 336.673C356.435 337.749 358.586 338.305 360.769 338.286C362.953 338.267 365.093 337.673 366.975 336.565L456.341 284.021C462.84 278.687 462.343 268.642 456.341 268.222L320.9 194.173C318.916 193.025 316.657 192.437 314.364 192.473C312.072 192.509 309.832 193.166 307.885 194.375Z" fill="#88D3D8"/>
<path d="M307.885 190.565L218.099 246.203C217.277 246.712 216.601 247.426 216.139 248.275C215.676 249.124 215.443 250.079 215.462 251.046C215.481 252.012 215.751 252.957 216.246 253.788C216.741 254.618 217.444 255.306 218.286 255.782L354.535 332.77C356.435 333.845 358.586 334.401 360.769 334.382C362.953 334.363 365.093 333.77 366.975 332.661L456.341 280.118C457.39 279.51 458.261 278.636 458.866 277.586C459.471 276.535 459.79 275.344 459.79 274.131C459.79 272.918 459.471 271.727 458.866 270.676C458.261 269.625 457.39 268.752 456.341 268.144L320.9 190.254C318.906 189.122 316.642 188.553 314.349 188.608C312.057 188.663 309.823 189.339 307.885 190.565Z" fill="white"/>
<path d="M311.542 182.962C311.542 182.962 348.862 62.6357 348.598 62.6357C348.334 62.6357 349.764 57.2865 356.373 60.3032L499.433 144.522C499.433 144.522 506.368 147.337 505.015 153.852C503.663 160.367 468.566 271.597 468.566 271.597C467.833 272.654 466.782 273.451 465.566 273.87C464.35 274.29 463.031 274.31 461.802 273.929C457.448 272.576 314.823 189.726 314.823 189.726C313.516 189.231 312.448 188.254 311.838 186.996C311.228 185.738 311.122 184.295 311.542 182.962Z" fill="#053855"/>
<path d="M350.962 71.3745L497.489 156.791L467.089 258.814L318.695 175.933L350.962 71.3745Z" fill="#68E1FD"/>
<path d="M302.37 203.316L269.544 223.764C268.965 224.129 268.49 224.637 268.166 225.239C267.841 225.842 267.678 226.518 267.692 227.202C267.706 227.886 267.897 228.554 268.246 229.143C268.595 229.731 269.091 230.219 269.684 230.56L387.506 297.72C389.267 298.737 391.265 299.272 393.299 299.272C395.332 299.272 397.33 298.737 399.091 297.72C406.664 293.304 419.71 285.28 427.688 280.46C428.414 280.03 429.015 279.418 429.43 278.683C429.845 277.949 430.061 277.118 430.054 276.274C430.048 275.431 429.82 274.603 429.394 273.875C428.968 273.147 428.358 272.544 427.625 272.125C403.803 258.27 326.053 213.035 309.026 203.176C308.01 202.588 306.852 202.289 305.678 202.314C304.505 202.339 303.36 202.685 302.37 203.316Z" fill="#68E1FD"/>
<path d="M304.126 258.814L345.287 281.968C345.918 282.327 346.442 282.846 346.807 283.473C347.171 284.099 347.363 284.812 347.363 285.537C347.363 286.262 347.171 286.974 346.807 287.601C346.442 288.228 345.918 288.747 345.287 289.106L321.154 303.225C320.322 303.707 319.378 303.961 318.417 303.961C317.456 303.961 316.512 303.707 315.68 303.225L273.555 279.278C273.028 278.978 272.59 278.543 272.285 278.019C271.981 277.495 271.82 276.899 271.82 276.292C271.82 275.686 271.981 275.09 272.285 274.566C272.59 274.042 273.028 273.607 273.555 273.307L298.731 258.845C299.55 258.373 300.478 258.122 301.424 258.116C302.37 258.111 303.301 258.351 304.126 258.814Z" fill="#68E1FD"/>
<path opacity="0.1" d="M302.37 203.316L269.544 223.764C268.965 224.129 268.49 224.637 268.166 225.239C267.841 225.842 267.678 226.518 267.692 227.202C267.706 227.886 267.897 228.554 268.246 229.143C268.595 229.731 269.091 230.219 269.684 230.56L387.506 297.72C389.267 298.737 391.265 299.272 393.299 299.272C395.332 299.272 397.33 298.737 399.091 297.72C406.664 293.304 419.71 285.28 427.688 280.46C428.414 280.03 429.015 279.418 429.43 278.683C429.845 277.949 430.061 277.118 430.054 276.274C430.048 275.431 429.82 274.603 429.394 273.875C428.968 273.147 428.358 272.544 427.625 272.125C403.803 258.27 326.053 213.035 309.026 203.176C308.01 202.588 306.852 202.289 305.678 202.314C304.505 202.339 303.36 202.685 302.37 203.316Z" fill="#053855"/>
<path opacity="0.1" d="M304.126 258.814L345.287 281.968C345.918 282.327 346.442 282.846 346.807 283.473C347.171 284.099 347.363 284.812 347.363 285.537C347.363 286.262 347.171 286.974 346.807 287.601C346.442 288.228 345.918 288.747 345.287 289.106L321.154 303.225C320.322 303.707 319.378 303.961 318.417 303.961C317.456 303.961 316.512 303.707 315.68 303.225L273.555 279.278C273.028 278.978 272.59 278.543 272.285 278.019C271.981 277.495 271.82 276.899 271.82 276.292C271.82 275.686 271.981 275.09 272.285 274.566C272.59 274.042 273.028 273.607 273.555 273.307L298.731 258.845C299.55 258.373 300.478 258.122 301.424 258.116C302.37 258.111 303.301 258.351 304.126 258.814Z" fill="#053855"/>
<path d="M301.775 121.694C300.518 120.781 299.186 119.975 297.794 119.284C293.704 117.2 292.476 114.93 294.14 110.607C297.483 101.884 285.23 85.634 275.48 89.5059C269.26 91.9939 264.175 98.9914 262.138 105.211C261.205 107.894 261.076 110.791 261.765 113.546C262.402 115.832 265.17 118.211 262.542 120.031C258.064 123.265 251.16 124.509 249.542 130.605C249.302 131.435 249.237 132.306 249.352 133.163C249.467 134.02 249.76 134.843 250.211 135.581C250.866 136.453 251.695 137.179 252.645 137.715C253.595 138.25 254.646 138.582 255.731 138.691C259.541 139.297 258.313 139.779 257.457 142.796C255.063 151.193 263.491 153.681 270.146 154.536C278.434 155.547 288.666 156.449 296.363 152.515C298.68 151.333 300.873 149.405 301.028 146.652C301.184 143.9 296.737 141.101 297.918 138.131C298.274 137.423 298.811 136.823 299.473 136.389C301.759 134.508 304.823 132.968 305.693 129.905C306.44 126.297 304.403 123.654 301.775 121.694Z" fill="#96D88D"/>
<path d="M301.777 121.709C300.519 120.796 299.188 119.99 297.796 119.299C293.706 117.216 292.478 114.945 294.141 110.622C295.805 106.299 293.566 99.9706 289.679 95.29C289.949 96.6052 289.991 97.957 289.803 99.2864C288.948 105.506 277.161 114.214 282.806 119.299C286.32 122.409 300.999 125.519 292.773 132.688C290.036 135.067 285.76 135.347 287.75 140.09C288.606 142.127 291.078 143.308 292.089 145.314C293.504 148.129 293.364 150.275 290.923 152.452C288.699 154.205 285.977 155.206 283.148 155.313C287.727 155.342 292.254 154.343 296.396 152.39C298.713 151.208 300.906 149.28 301.061 146.527C301.217 143.775 296.769 140.976 297.951 138.006C298.307 137.298 298.844 136.698 299.506 136.264C301.792 134.383 304.855 132.843 305.726 129.78C306.442 126.312 304.405 123.669 301.777 121.709Z" fill="#7EC971"/>
<path d="M273.022 143.993C269.026 140.183 263.568 139.219 258.25 139.421C258.32 139.544 258.357 139.684 258.359 139.825C258.386 139.948 258.386 140.076 258.359 140.199V140.292C263.428 140.105 268.637 140.96 272.447 144.599C275.316 147.531 277.262 151.24 278.045 155.266H279.009C278.171 151 276.087 147.077 273.022 143.993Z" fill="#378729"/>
<path d="M283.599 146.839C283.029 147.647 282.511 148.477 282.044 149.327C282.293 146.217 282.557 143.262 282.9 140.23C283.536 138.085 284.369 136.003 285.388 134.01C286.819 131.155 288.764 128.587 291.125 126.437C294.082 124.054 297.465 122.254 301.093 121.134C300.82 120.983 300.555 120.817 300.3 120.637L300.051 120.512C293.831 122.923 288.762 126.219 285.279 132.222C284.57 133.45 283.942 134.722 283.397 136.031C283.661 134.041 283.941 132.035 284.268 130.06C285.823 120.73 288.373 111.4 294.267 103.983C294.146 103.616 294.048 103.242 293.971 102.863C287.86 110.327 285.061 119.673 283.475 129.065C282.853 132.735 282.355 136.436 281.92 140.152C282.49 123.254 282.397 106.352 281.64 89.4436C281.318 89.3404 281.001 89.221 280.691 89.0859C281.386 104.356 281.526 119.636 281.111 134.927C280.905 134.967 280.721 135.084 280.598 135.254C280.318 132.797 279.945 130.356 279.432 127.945C277.41 118.351 273.103 106.3 263.338 102.148L263.213 102.366L262.949 103.003C272.932 107.311 276.944 119.999 278.857 129.827C279.482 133.27 279.887 136.75 280.069 140.245C279.8 143.698 279.608 147.15 279.494 150.602C278.676 145.33 277.192 140.183 275.078 135.285C272.543 129.656 267.629 121.725 260.85 121.088C260.204 121.465 259.527 121.787 258.828 122.052C267.241 120.855 272.963 132.004 275.404 138.504C277.33 143.937 278.634 149.571 279.292 155.298H279.401C279.248 166.736 279.929 178.169 281.438 189.508C281.562 190.487 283.117 190.503 282.993 189.508C281.484 178.169 280.803 166.736 280.956 155.298H281.609C281.609 154.1 281.749 152.903 281.842 151.706C282.361 150.639 282.937 149.601 283.568 148.596C285.379 145.503 287.9 142.886 290.923 140.961C293.071 139.786 295.399 138.977 297.812 138.566C297.861 138.199 297.994 137.847 298.201 137.54C295.749 137.93 293.369 138.684 291.141 139.779C288.095 141.49 285.508 143.912 283.599 146.839Z" fill="#378729"/>
<path d="M280.293 194.111C287.169 193.911 292.597 188.717 292.416 182.51C292.235 176.304 286.514 171.435 279.638 171.635C272.762 171.836 267.334 177.03 267.515 183.236C267.696 189.443 273.417 194.312 280.293 194.111Z" fill="#FFB339"/>
<path d="M278.346 194.095C269.871 188.59 274.77 175.995 283.726 172.232C282.387 171.851 280.997 171.678 279.606 171.719C272.732 171.921 267.306 177.115 267.477 183.319C267.663 188.933 272.375 193.442 278.346 194.095Z" fill="#FFA522"/>
<path d="M253.664 317.624L252 316.364L253.477 296.631L262.154 296.942C262.154 296.942 261.719 305.37 263.569 307.439C265.42 309.507 270.644 308.496 271.127 308.698C271.609 308.9 275.092 308.154 276.507 309.849C277.922 311.544 270.862 315.587 267.177 316.162C264.697 316.483 262.181 316.398 259.728 315.913C259.728 315.913 259.324 310.813 258.049 311.248C256.774 311.684 256.292 316.986 256.292 316.986L253.664 317.624Z" fill="#9C4100"/>
<path d="M250.106 255.518C249.391 276.152 248.629 303.038 248.629 303.038C248.629 303.038 253.294 309.445 266.123 306.708C267.491 306.413 270.539 273.524 272.032 256.419C264.885 254.468 257.389 254.159 250.106 255.518Z" fill="#7EC971"/>
<path d="M276.289 334.574L274.625 333.314L276.102 313.582L284.779 313.893C284.779 313.893 284.344 322.321 286.194 324.389C288.045 326.457 293.269 325.446 293.752 325.648C294.234 325.85 297.717 325.104 299.132 326.799C300.547 328.494 293.487 332.537 289.802 333.112C287.322 333.433 284.806 333.349 282.353 332.864C282.353 332.864 281.949 327.763 280.674 328.199C279.399 328.634 278.917 333.936 278.917 333.936L276.289 334.574Z" fill="#053855"/>
<path d="M280.022 259.265C274.317 256.679 268.189 255.151 261.938 254.756C262.995 262.531 263.975 267.833 264.146 268.222C264.565 269.202 272.512 318.231 272.512 318.231C281.842 322.009 292.975 318.853 292.975 318.853C292.975 318.853 289.15 280.6 288.839 274.209C288.839 273.524 288.803 272.835 288.73 272.141C288.589 269.405 287.704 266.76 286.169 264.49C284.634 262.221 282.509 260.414 280.022 259.265Z" fill="#7EC971"/>
<path d="M222.363 270.663C222.363 270.663 238.255 256.28 250.104 255.518C261.954 254.756 278.794 267.04 277.472 274.178C276.151 281.315 253.463 296.647 253.463 296.647" fill="#7EC971"/>
<path d="M254.861 244.99L242.203 236.033C241.694 235.673 241.326 235.148 241.162 234.547C240.997 233.945 241.047 233.306 241.302 232.737L250.274 212.786C250.431 212.436 250.661 212.125 250.949 211.871C251.237 211.618 251.575 211.429 251.942 211.317C252.309 211.205 252.695 211.173 253.075 211.222C253.455 211.272 253.82 211.402 254.146 211.604L268.296 220.421C268.873 220.779 269.292 221.342 269.471 221.997C269.65 222.651 269.575 223.349 269.261 223.951L258.795 244.026C258.619 244.367 258.372 244.666 258.07 244.903C257.768 245.14 257.42 245.31 257.047 245.401C256.675 245.492 256.287 245.503 255.91 245.432C255.533 245.361 255.175 245.21 254.861 244.99Z" fill="#1784AA"/>
<path d="M253.732 244.291L241.028 235.334C240.519 234.974 240.15 234.449 239.986 233.847C239.821 233.246 239.871 232.606 240.126 232.037L249.098 212.087C249.255 211.737 249.486 211.425 249.773 211.172C250.061 210.919 250.399 210.73 250.766 210.618C251.133 210.506 251.519 210.474 251.899 210.523C252.279 210.573 252.644 210.703 252.97 210.905L267.121 219.722C267.697 220.08 268.116 220.643 268.295 221.298C268.474 221.952 268.399 222.65 268.085 223.252L257.62 243.327C257.442 243.66 257.197 243.953 256.899 244.186C256.601 244.418 256.258 244.585 255.891 244.676C255.524 244.767 255.142 244.78 254.77 244.714C254.398 244.647 254.045 244.503 253.732 244.291Z" fill="#29ABE2"/>
<path d="M255.845 243.062L241.602 233.001L250.947 212.226L266.777 222.085L255.845 243.062Z" fill="#E4F5FD"/>
<path d="M250.902 215.487L262.698 222.499M249.608 218.759L258.024 223.434M248.209 221.564L258.024 227.173M246.697 224.369L251.013 226.706M243.893 230.913L251.013 235.587M245.404 227.641L257.199 234.652" stroke="#D4145A" stroke-width="1.75086" stroke-miterlimit="10"/>
<path d="M249.248 221.044C244.583 223.625 237.165 226.564 232.143 229.985C231.35 230.529 230.168 232.426 230.946 232.146C230.603 232.535 233.853 233.81 233.542 234.23C233.449 234.37 235.642 233.157 235.766 233.204C237.631 234.195 239.799 234.456 241.846 233.935L242.67 233.328L242.872 233.204C242.907 233.142 242.955 233.089 243.012 233.048L243.137 232.955C243.16 232.837 243.226 232.731 243.323 232.659C244.412 231.804 246.807 231.353 247.055 229.907C247.013 229.526 246.897 229.156 246.713 228.819C246.656 228.731 246.634 228.624 246.651 228.521C246.668 228.417 246.724 228.323 246.807 228.259C246.898 227.828 246.902 227.383 246.819 226.951C246.736 226.518 246.568 226.106 246.324 225.74L246.604 225.413C247.929 224.493 249.182 223.475 250.352 222.365C250.48 222.247 250.562 222.087 250.585 221.914V221.837C250.59 221.79 250.59 221.743 250.585 221.697C250.567 221.55 250.513 221.41 250.427 221.289C250.342 221.169 250.227 221.071 250.094 221.006C249.961 220.941 249.814 220.911 249.666 220.917C249.518 220.924 249.375 220.967 249.248 221.044Z" fill="#E85454"/>
<path d="M246.861 226.143C246.503 225.242 245.99 225.195 245.166 225.553C243.529 226.295 241.967 227.19 240.501 228.227C240.252 228.398 240.501 228.787 240.749 228.631C241.667 228.009 245.648 225.071 246.456 226.361C247.265 227.652 244.59 228.538 243.844 228.927L240.983 230.482C240.718 230.622 240.983 231.026 241.231 230.886L243.066 229.938C243.052 229.983 243.052 230.032 243.066 230.078C243.222 230.283 243.405 230.467 243.611 230.622C243.446 230.857 243.342 231.129 243.307 231.413C243.271 231.698 243.306 231.987 243.408 232.255L243.486 232.348C242.698 233.169 241.658 233.703 240.531 233.867C239.404 234.03 238.256 233.813 237.266 233.25C237.033 233.079 236.706 233.405 236.94 233.592C238.806 234.991 242.662 234.587 243.968 232.519C244.261 232.48 244.545 232.391 244.808 232.255C245.656 231.961 246.419 231.465 247.032 230.808C247.2 230.524 247.289 230.199 247.289 229.868C247.289 229.537 247.2 229.212 247.032 228.927V228.849C247.144 228.74 247.234 228.61 247.296 228.466C247.357 228.321 247.388 228.166 247.388 228.01C247.388 227.853 247.357 227.698 247.296 227.553C247.234 227.409 247.144 227.279 247.032 227.17C247.078 226.818 247.019 226.461 246.861 226.143ZM246.658 230.373C246.349 230.802 245.93 231.14 245.445 231.353C245.15 231.524 244.404 232.052 244.108 231.975C243.502 231.819 243.875 231.026 244.108 230.684C244.442 230.554 244.752 230.37 245.026 230.14L246.161 229.425L246.534 229.145C246.644 229.328 246.712 229.533 246.734 229.745C246.755 229.957 246.73 230.172 246.658 230.373ZM245.197 229.502C244.544 229.907 244.015 230.42 243.408 229.689C244.326 229.222 245.243 228.756 246.099 228.212C246.361 228.058 246.589 227.852 246.767 227.605C247.249 228.429 245.694 229.191 245.197 229.502Z" fill="#653200"/>
<path d="M235.161 226.423C235.161 226.423 238.271 227.139 238.582 233.81L236.203 239.734L223.25 233.017C223.25 233.017 226.344 229.129 235.161 226.423Z" fill="#88D3D8"/>
<path d="M265.908 229.549C264.944 231.68 263.98 233.608 263.171 235.769C262.58 234.323 262.036 233.141 261.305 231.757C261.273 231.708 261.237 231.661 261.196 231.617C261.064 231.403 260.863 231.24 260.627 231.154C260.39 231.067 260.131 231.064 259.892 231.143C259.653 231.222 259.448 231.379 259.309 231.59C259.17 231.8 259.107 232.051 259.128 232.302C259.367 233.625 259.899 234.879 260.683 235.971C260.574 236.028 260.474 236.101 260.388 236.189C258.522 238.257 258.973 241.43 259.19 243.964C259.199 244.133 259.251 244.296 259.341 244.438C259.431 244.581 259.557 244.697 259.705 244.777C259.854 244.857 260.021 244.897 260.189 244.894C260.358 244.89 260.523 244.843 260.668 244.757C260.842 244.76 261.013 244.717 261.165 244.633C262.842 243.479 264.041 241.754 264.54 239.781C265.582 236.562 266.95 232.986 265.908 229.549Z" fill="#E85454"/>
<path d="M217.511 229.378L222.176 227.978C223.342 228.149 233.465 232.286 237.726 239.501C238.235 241.701 238.578 243.936 238.752 246.187C239.141 249.188 239.452 252.205 239.592 255.222C239.788 258.513 239.736 261.813 239.437 265.096C239.297 266.496 239.203 267.211 238.955 268.595C238.411 269.066 237.791 269.44 237.12 269.699C223.125 274.566 212.768 266.682 212.349 265.532C211.929 264.381 211.26 248.209 210.918 238.568C210.859 236.525 211.472 234.52 212.663 232.86C213.854 231.2 215.557 229.976 217.511 229.378Z" fill="#88D3D8"/>
<path d="M229.906 212.693C229.906 212.693 233.016 228.554 227.216 230.265C221.415 231.975 214.496 225.366 213.998 222.101C213.5 218.835 221.711 207.406 229.906 212.693Z" fill="#E85454"/>
<path d="M227.633 219.037C227.804 218.773 231.179 217.886 231.878 215.056C232.578 212.226 230.028 208.51 224.181 207.981C218.334 207.452 208.522 210.64 210.031 226.034C211.539 241.429 227.027 234.805 228.037 229.891C228.575 226.279 228.438 222.599 227.633 219.037Z" fill="#653200"/>
<path d="M227.633 219.037C227.633 219.037 228.613 224.293 230.743 226.563C232.873 228.834 234.599 232.939 231.987 236.08C229.374 239.221 231.987 240.916 235.672 243.855C239.358 246.794 237.087 259.063 223.761 256.062C210.435 253.06 204.152 245.021 204.152 245.021C204.152 245.021 207.573 221.043 211.212 215.476" fill="#653200"/>
<path d="M237.727 239.734C237.727 239.734 240.743 249.842 243.76 250.153C246.777 250.464 251.348 246.001 254.567 240.17C255.719 240.05 256.884 240.168 257.989 240.516C259.094 240.865 260.115 241.437 260.99 242.196C261.865 242.956 262.574 243.887 263.074 244.932C263.574 245.977 263.854 247.114 263.897 248.271C263.897 248.271 253.277 269.793 237.789 264.537" fill="#88D3D8"/>
<path d="M182.108 316.816C172.591 304.951 168.221 289.759 168.408 274.566C168.538 262.248 173.378 250.446 181.937 241.585C189.789 233.53 201.638 229.565 212.15 235.023C220.874 239.548 225.103 248.24 228.136 257.15C231.774 267.818 233.003 281.486 246.003 284.783C251.041 286.058 256.343 285.187 261.553 284.783C270.603 284.161 280.213 287.1 282.949 296.741C287.988 314.001 264.771 328.743 251.725 334.309C240.427 338.955 227.984 340.06 216.043 337.478C204.103 334.896 193.229 328.748 184.86 319.848C183.875 318.884 182.958 317.873 182.108 316.816Z" fill="#FFDE47"/>
<path d="M282.416 297.005C273.179 313.705 243.121 321.231 226.731 320.33C211.85 319.568 202.442 310.486 203.406 295.45C203.966 287.177 206.516 278.935 205.848 270.57C204.588 256.388 191.122 244.741 177.375 247.509C171.486 255.661 168.275 265.442 168.185 275.499C167.999 290.691 172.353 305.868 181.885 317.748C182.735 318.785 183.621 319.822 184.544 320.858C192.913 329.758 203.787 335.906 215.727 338.488C227.668 341.071 240.111 339.966 251.409 335.32C264.471 329.753 287.672 315.011 282.633 297.751C282.602 297.487 282.493 297.253 282.416 297.005Z" fill="#FCC62D"/>
<path d="M334.684 151.449L442.361 212.633" stroke="#F7931E" stroke-width="4.77718" stroke-miterlimit="10"/>
<path d="M343.098 118.729L450.775 179.912" stroke="#00A99D" stroke-width="4.77718" stroke-miterlimit="10"/>
<path d="M348.707 96.2915L366.132 106.192" stroke="#D4145A" stroke-width="4.77718" stroke-miterlimit="10"/>
<path d="M352.445 85.0732L369.87 94.974" stroke="#29ABE2" stroke-width="4.77718" stroke-miterlimit="10"/>
<path d="M364.598 105.313L382.022 115.214M386.567 129.947L397.786 136.024" stroke="#D4145A" stroke-width="4.77718" stroke-miterlimit="10"/>
<path d="M340.156 129.969L437.05 183.234" stroke="#29ABE2" stroke-width="4.77718" stroke-miterlimit="10"/>
<path d="M345.617 107.547L382.831 128.077" stroke="#F7931E" stroke-width="4.77718" stroke-miterlimit="10"/>
<path d="M337.488 141.165L419.083 184.805" stroke="#00A99D" stroke-width="4.77718" stroke-miterlimit="10"/>
<defs>
<linearGradient id="paint0_linear" x1="279.324" y1="332.941" x2="308.713" y2="286.151" gradientUnits="userSpaceOnUse">
<stop stop-color="#FF8E31"/>
<stop offset="1" stop-color="#ED6B21"/>
</linearGradient>
<linearGradient id="paint1_linear" x1="14289.5" y1="17495.5" x2="15629.7" y2="14971.6" gradientUnits="userSpaceOnUse">
<stop stop-color="#FF8E31"/>
<stop offset="1" stop-color="#ED6B21"/>
</linearGradient>
</defs>
</svg>
