<svg width="503" height="378" viewBox="0 0 503 378" fill="none" xmlns="http://www.w3.org/2000/svg">
<g clip-path="url(#clip0)">
<path d="M32.5931 251.186L215.698 356.904C218.416 358.472 221.502 359.289 224.64 359.271C227.777 359.254 230.854 358.402 233.554 356.803C274.197 332.747 439.948 236.083 467.047 219.522C468.241 218.792 467.701 216.818 467.449 215.749C466.946 213.574 462.633 210.493 459.69 209.072C455.377 206.984 451.303 204.293 447.178 201.854L433.22 193.655L416.998 184.073L399.154 173.535L380.292 162.419L361.14 151.101L342.278 139.985L324.434 129.409L308.086 119.802L293.99 111.515L282.76 104.938L278.221 102.298C276.069 101.051 273.625 100.399 271.139 100.41C268.652 100.421 266.214 101.094 264.074 102.36L32.5302 239.717C31.5346 240.31 30.7111 241.153 30.1413 242.162C29.5714 243.17 29.275 244.311 29.2813 245.469C29.2877 246.628 29.5966 247.765 30.1775 248.768C30.7583 249.77 31.591 250.604 32.5931 251.186Z" fill="#FFD8BD"/>
<g clip-path="url(#clip1)">
<path d="M245.114 10.1355L253.501 13.8451L245.44 17.3913L243.504 13.2164" fill="#EF7F6C"/>
<path d="M168.691 256.53L238.369 215.925C241.165 214.295 243.486 211.963 245.103 209.159C246.72 206.356 247.576 203.179 247.587 199.943L249.838 15.5051C249.838 10.6637 242.293 8.19898 238.156 10.6637L166.076 53.1923C164.287 54.2484 162.805 55.7526 161.775 57.5564C160.745 59.3603 160.203 61.4015 160.203 63.4787V251.664C160.205 252.655 160.469 253.629 160.967 254.487C161.465 255.345 162.18 256.056 163.041 256.55C163.902 257.043 164.877 257.301 165.869 257.297C166.861 257.294 167.834 257.029 168.691 256.53Z" fill="#EF7F6C"/>
<path d="M163.113 256.593L172.23 261.409L171.174 255.059L164.849 253.914" fill="#EF7F6C"/>
<path d="M177.431 261.158L247.109 220.553C249.917 218.919 252.246 216.577 253.866 213.762C255.485 210.946 256.338 207.755 256.339 204.507V18.3091C256.341 17.438 256.112 16.5819 255.676 15.828C255.239 15.0741 254.611 14.4494 253.854 14.0175C253.098 13.5856 252.24 13.3618 251.369 13.3691C250.498 13.3763 249.644 13.6143 248.895 14.0588L174.791 57.8449C173.002 58.901 171.519 60.4052 170.49 62.209C169.46 64.0129 168.918 66.0541 168.918 68.1313V256.278C168.915 257.275 169.177 258.255 169.675 259.118C170.174 259.981 170.892 260.697 171.757 261.192C172.621 261.688 173.602 261.946 174.599 261.94C175.595 261.933 176.573 261.664 177.431 261.158Z" fill="#F4F4F4"/>
<path d="M173.359 79.4614L252.745 33.9399V196.824L173.359 242.723V79.4614Z" fill="#040505"/>
<path d="M224.024 227.409C224.658 224.755 223.578 222.222 221.613 221.753C219.647 221.283 217.54 223.055 216.906 225.71C216.272 228.364 217.351 230.897 219.317 231.366C221.283 231.836 223.39 230.064 224.024 227.409Z" fill="#BABABC"/>
<path d="M223.419 41.7743C223.418 42.0859 223.335 42.3918 223.178 42.6611C223.022 42.9305 222.797 43.1537 222.526 43.3084L207.185 52.1109C206.915 52.2649 206.61 52.3456 206.3 52.3449C205.99 52.3441 205.685 52.262 205.417 52.1068C205.148 51.9515 204.925 51.7285 204.77 51.46C204.614 51.1915 204.532 50.887 204.531 50.5768V50.1995C204.532 49.8833 204.618 49.5731 204.78 49.3011C204.941 49.0292 205.172 48.8053 205.449 48.6528L220.791 40.2401C221.059 40.0923 221.362 40.0166 221.668 40.0204C221.975 40.0242 222.275 40.1075 222.54 40.2621C222.805 40.4166 223.025 40.6372 223.179 40.9022C223.333 41.1673 223.416 41.4677 223.419 41.7743Z" fill="#CCCCCC"/>
<path d="M232.099 37.6953C232.552 36.4708 232.191 35.2085 231.292 34.8759C230.393 34.5432 229.297 35.2662 228.844 36.4906C228.391 37.7151 228.752 38.9774 229.651 39.3101C230.55 39.6428 231.646 38.9198 232.099 37.6953Z" fill="#CCCCCC"/>
<rect x="176.309" y="51.3157" width="75.7829" height="173.413"/>
</g>
<path d="M385.767 207.123L318.051 245.326C318.051 245.326 325.986 261.082 348.885 270.702L428.648 221.785" fill="url(#paint0_linear)"/>
<path d="M253.56 127.171L248.039 123.034C248.03 122.856 247.979 122.684 247.889 122.531C247.799 122.378 247.674 122.248 247.524 122.154C242.251 118.482 236.986 114.793 231.73 111.088C231.564 110.96 231.37 110.876 231.164 110.843C230.958 110.809 230.747 110.828 230.549 110.897C230.352 110.965 230.175 111.082 230.035 111.236C229.894 111.39 229.793 111.577 229.743 111.779C229.19 112.735 229.894 113.728 230.787 114.47C231.679 115.212 232.786 116.118 233.792 116.985C233.661 117.081 233.55 117.2 233.465 117.337C232.66 118.595 231.315 120.381 231.302 121.952C231.29 123.524 232.56 124.304 233.54 125.159V125.385C233.339 127.322 234.194 127.9 235.729 128.818C235.876 128.918 236.043 128.985 236.219 129.016C236.394 129.046 236.575 129.039 236.747 128.994C237.811 129.687 238.935 130.285 240.105 130.78L244.757 133.144C245.939 133.748 246.795 132.327 246.317 131.371C247.247 131.447 247.637 130.428 247.398 129.636C247.517 129.52 247.608 129.378 247.662 129.221V129.158L249.272 130.415C250.529 131.434 252.114 129.409 250.819 128.391L249.674 127.485L252.026 129.246C252.301 129.449 252.646 129.535 252.984 129.484C253.322 129.434 253.627 129.251 253.83 128.976C254.034 128.7 254.119 128.356 254.069 128.017C254.018 127.679 253.835 127.374 253.56 127.171Z" fill="#F04900"/>
<path d="M290.117 288.873L292.104 287.615V265.244L282.283 264.892C282.283 264.892 282.094 274.437 279.768 276.612C277.441 278.788 271.707 277.228 271.141 277.417C270.575 277.606 266.715 276.486 264.979 278.272C263.244 280.058 270.865 285.214 274.914 286.157C277.687 286.716 280.532 286.823 283.339 286.471C283.339 286.471 284.219 280.749 285.628 281.315C287.036 281.881 287.137 287.93 287.137 287.93L290.117 288.873Z" fill="#FF6753"/>
<path d="M297.51 170.442C298.891 178.109 299.707 185.868 299.949 193.655C300.113 202.458 297.007 272.802 297.007 272.802C297.007 272.802 291.172 279.643 276.962 275.518C274.9 274.927 274.246 206.871 274.246 206.871L279.163 175.66" fill="#A03DFF"/>
<path d="M290.972 134.917C290.192 134.917 264.049 134.238 246.381 118.406C246.381 118.406 237.918 126.705 241.351 133.056C241.351 133.056 266.4 157.187 285.502 152.245" fill="#FC9C54"/>
<path d="M270.259 127.448C270.224 127.393 270.175 127.348 270.118 127.317C270.061 127.286 269.997 127.27 269.932 127.27C269.867 127.27 269.803 127.286 269.746 127.317C269.689 127.348 269.64 127.393 269.605 127.448C267.087 131.258 266.183 135.911 267.09 140.387C267.191 140.865 267.92 140.664 267.832 140.186C267.029 136.134 267.778 131.928 269.932 128.403C272.084 132.424 273.191 136.921 273.151 141.481C273.151 141.583 273.192 141.681 273.264 141.752C273.336 141.824 273.433 141.865 273.535 141.865C273.637 141.865 273.734 141.824 273.806 141.752C273.878 141.681 273.918 141.583 273.918 141.481C273.951 136.563 272.689 131.723 270.259 127.448Z" fill="#42A200"/>
<path d="M263.218 306.138L265.205 304.881V282.51L255.384 282.158C255.384 282.158 255.196 291.702 252.869 293.878C250.543 296.053 244.809 294.494 244.243 294.682C243.677 294.871 239.816 293.752 238.081 295.538C236.346 297.323 243.966 302.479 248.015 303.422C250.788 303.982 253.634 304.088 256.44 303.736C256.44 303.736 257.321 298.015 258.729 298.581C260.138 299.147 260.238 305.195 260.238 305.195L263.218 306.138Z" fill="#FF6753"/>
<path d="M266.738 173.698C266.738 173.698 257.684 207.123 254 237.039C253.119 244.219 245.688 287.05 245.688 287.05C245.688 287.05 257.936 291.526 268.825 288.018C268.825 288.018 281.778 233.367 282.331 232.298C282.884 231.229 291.624 195.83 292.63 170.429" fill="#A03DFF"/>
<path d="M294.418 131.17L289.224 129.221C287.904 129.309 276.146 133.157 270.802 140.941C270.05 143.376 269.483 145.865 269.104 148.385C268.425 151.743 267.847 155.113 267.419 158.445C266.931 162.138 266.721 165.862 266.79 169.586C266.79 171.183 266.878 171.988 267.042 173.573C267.617 174.154 268.29 174.63 269.029 174.981C284.471 181.621 296.694 173.56 297.31 172.315C297.926 171.07 299.963 152.862 301.082 142.022C301.316 139.733 300.79 137.43 299.586 135.468C298.381 133.507 296.565 131.997 294.418 131.17Z" fill="#FFAF68"/>
<path d="M281.807 111.339C281.807 111.339 276.953 128.944 283.404 131.371C289.855 133.798 298.154 126.882 298.984 123.248C299.814 119.613 291.477 106.045 281.807 111.339Z" fill="#F04900"/>
<path d="M313.661 106.083C312.818 104.315 311.372 102.908 309.582 102.114C307.792 101.321 305.778 101.194 303.902 101.757C300.344 102.914 298.193 105.97 297.15 109.377C293.943 106.573 289.165 105.152 283.103 107.013C283.103 107.013 277.155 109.528 278.237 113.301C279.318 117.073 283.833 117.073 287.618 117.815C291.403 118.557 288.335 121.877 288.523 125.612C288.712 129.346 290.397 129.963 291.969 130.29C293.541 130.617 300.683 129.032 301.689 120.645C301.75 120.131 301.775 119.615 301.765 119.098C302.746 119.2 303.734 119.229 304.72 119.186C306.943 119.258 309.136 118.653 311.007 117.451C312.647 116.118 313.797 114.278 314.278 112.22C314.758 110.163 314.541 108.004 313.661 106.083Z" fill="#653200"/>
<path d="M275.595 130.642C276.087 129.949 276.298 129.095 276.186 128.252C276.15 128 276.04 127.765 275.868 127.577C275.696 127.389 275.471 127.258 275.223 127.201C274.975 127.144 274.715 127.163 274.479 127.257C274.242 127.35 274.039 127.513 273.897 127.724L273.344 128.479C273.256 127.51 273.155 126.542 273.017 125.574C273.005 125.24 272.861 124.925 272.617 124.698C272.373 124.47 272.049 124.349 271.715 124.36C271.382 124.372 271.067 124.516 270.839 124.76C270.611 125.004 270.49 125.328 270.502 125.662C270.502 125.964 270.426 126.278 270.401 126.58C270.297 126.903 270.225 127.236 270.187 127.573C268.817 127.749 267.182 128.252 266.943 129.824C266.943 129.824 266.943 129.9 266.943 129.925C265.887 129.925 264.856 130.34 264.818 131.597C264.799 131.836 264.799 132.076 264.818 132.314C263.749 132.628 262.969 133.169 263.12 134.565C263.349 136.19 263.771 137.781 264.378 139.306C264.465 139.495 264.598 139.66 264.765 139.785C264.932 139.91 265.127 139.992 265.333 140.023C265.484 140.702 265.66 141.368 265.849 142.035C265.988 142.321 266.198 142.567 266.458 142.75C266.718 142.934 267.02 143.048 267.337 143.083C267.653 143.118 267.973 143.073 268.267 142.951C268.561 142.829 268.819 142.635 269.018 142.387C269.146 142.378 269.273 142.353 269.395 142.311C269.546 142.415 269.717 142.484 269.898 142.514C270.078 142.545 270.263 142.536 270.439 142.487C270.595 142.598 270.773 142.672 270.962 142.703C271.15 142.734 271.343 142.722 271.526 142.667C271.709 142.613 271.877 142.517 272.018 142.388C272.159 142.259 272.268 142.099 272.338 141.921C272.485 141.79 272.599 141.626 272.671 141.443C272.743 141.259 272.771 141.061 272.753 140.865C272.753 140.576 272.753 140.287 272.753 140.01C273.759 136.891 274.706 133.769 275.595 130.642Z" fill="#F04900"/>
<path d="M273.442 137.156C273.04 137.256 267.381 132.063 263.093 133.848C263.093 133.848 246.746 161.413 261.999 168.706C269.544 172.328 275.417 161.161 275.417 161.161L271.078 152.585L273.442 137.156Z" fill="#FFAF68"/>
<path d="M272.088 138.325C268.499 144.172 266.034 150.637 264.82 157.389C264.681 158.181 265.888 158.521 266.077 157.728C267.266 151.083 269.689 144.72 273.22 138.966C273.597 138.225 272.516 137.596 272.088 138.325Z" fill="#F04900"/>
<path d="M275.127 162.218C273.87 164.67 272.26 167.248 269.745 168.505C268.261 169.2 266.604 169.437 264.985 169.186C263.365 168.935 261.858 168.208 260.653 167.097C255.296 162.482 256.101 154.522 257.17 148.322C257.308 147.53 256.101 147.19 255.913 147.983C254.655 154.949 254.014 164.003 260.59 168.669C261.855 169.603 263.332 170.207 264.889 170.426C266.446 170.646 268.033 170.474 269.506 169.926C272.65 168.669 274.649 165.676 276.158 162.771C276.586 162.142 275.492 161.513 275.127 162.218Z" fill="#F04900"/>
<path d="M288.836 195.026C288.031 211.009 283.315 226.325 279.316 241.717C275.317 257.108 271.91 272.437 268.992 287.968L270.35 287.59C273.31 271.905 276.805 256.333 280.838 240.874C284.799 225.784 289.301 210.694 290.093 195.026C290.131 194.221 288.873 194.221 288.836 195.026Z" fill="#653200"/>
<path d="M373.352 175.031V217.422L406.172 236.372L432.919 220.477V181.092" fill="#FFAF68"/>
<path d="M406.172 236.372V194.548L432.919 182.702V220.477L406.172 236.372Z" fill="#F49E5D"/>
<path d="M432.92 178.892V182.702L430.38 183.482L428.695 180.892" fill="#EA8E50"/>
<path d="M400.376 162.834L373.34 178.842L407.141 198.358C408.147 198.937 432.908 182.702 432.908 182.702L400.376 162.834Z" fill="#EA8E50"/>
<path d="M373.352 178.842V175.031L378.206 172.617L377.615 179.395" fill="#EA8E50"/>
<path d="M400.376 159.023L373.34 175.031L407.141 194.548C408.147 195.126 432.908 178.892 432.908 178.892L400.376 159.023Z" fill="#FFB883"/>
<path d="M378.066 186.99V195.755L402.663 209.789V201.187L378.066 186.99Z" fill="#EA8E50"/>
<path d="M377.742 200.094V208.871L402.339 222.905V214.291L377.742 200.094Z" fill="#EA8E50"/>
<path d="M389.408 199.506C390.016 199.448 390.443 198.7 390.36 197.836C390.278 196.972 389.718 196.318 389.109 196.376C388.501 196.434 388.075 197.182 388.157 198.046C388.24 198.91 388.8 199.564 389.408 199.506Z" fill="#FFB883"/>
<path d="M388.392 212.158C389.001 212.1 389.427 211.353 389.345 210.488C389.262 209.624 388.702 208.971 388.094 209.029C387.485 209.087 387.059 209.834 387.141 210.699C387.224 211.563 387.784 212.216 388.392 212.158Z" fill="#FFB883"/>
<path d="M105.126 205.337C89.6592 205.337 77.1094 209.437 77.1094 214.492H133.144C133.144 209.437 120.594 205.337 105.126 205.337Z" fill="#06489E"/>
<path d="M77.1974 215.209L77.1094 214.504C77.1117 214.742 77.1412 214.978 77.1974 215.209Z" fill="#06489E"/>
<path d="M133.144 214.504L133.031 215.309C133.104 215.047 133.142 214.776 133.144 214.504Z" fill="#06489E"/>
<path d="M105.126 223.659C119.776 223.659 131.785 219.987 133.03 215.297L133.144 214.492H77.1094L77.1974 215.196C78.304 219.937 90.376 223.659 105.126 223.659Z" fill="#06489E"/>
<path d="M115.831 167.21H109.531V232.235H115.831V167.21Z" fill="#25B000"/>
<path d="M112.688 168.543C114.431 168.543 115.844 167.946 115.844 167.21C115.844 166.473 114.431 165.877 112.688 165.877C110.944 165.877 109.531 166.473 109.531 167.21C109.531 167.946 110.944 168.543 112.688 168.543Z" fill="#25B000"/>
<path d="M129.845 179.627L123.672 178.366L110.663 242.077L116.836 243.338L129.845 179.627Z" fill="#FF8F02"/>
<path d="M129.842 179.628C129.99 178.906 128.724 178.039 127.016 177.69C125.309 177.342 123.805 177.644 123.657 178.365C123.51 179.086 124.775 179.954 126.483 180.302C128.191 180.651 129.695 180.349 129.842 179.628Z" fill="#FF8F02"/>
<path d="M97.5203 215.938L91.7987 219.22C91.685 219.26 91.561 219.258 91.4482 219.216C91.3355 219.174 91.241 219.094 91.1813 218.989C91.1215 218.885 91.1003 218.762 91.1212 218.644C91.1421 218.525 91.2038 218.418 91.2957 218.34L97.1431 215.033C97.1974 215.001 97.2571 214.98 97.3191 214.97L96.1622 208.682L90.3777 211.989C90.264 212.029 90.14 212.028 90.0273 211.986C89.9145 211.943 89.82 211.863 89.7603 211.758C89.7005 211.654 89.6793 211.532 89.7002 211.413C89.7211 211.295 89.7828 211.187 89.8747 211.109L95.7598 207.739C95.8257 207.703 95.8986 207.681 95.9736 207.676L94.9047 201.917L89.2837 205.161C89.17 205.201 89.046 205.199 88.9332 205.157C88.8205 205.115 88.726 205.035 88.6663 204.93C88.6065 204.826 88.5853 204.703 88.6062 204.585C88.6271 204.466 88.6888 204.359 88.7807 204.281L94.6658 200.911H94.779L93.5843 194.498L87.913 197.742C87.7993 197.782 87.6753 197.78 87.5626 197.738C87.4498 197.696 87.3553 197.616 87.2956 197.511C87.2358 197.406 87.2146 197.284 87.2355 197.166C87.2564 197.047 87.3181 196.94 87.41 196.862L93.2951 193.492H93.3832L92.2137 187.204L86.4543 190.499C86.3406 190.538 86.2166 190.537 86.1039 190.495C85.9911 190.453 85.8966 190.372 85.8369 190.268C85.7771 190.163 85.7559 190.041 85.7768 189.922C85.7977 189.804 85.8594 189.696 85.9513 189.619L91.7987 186.11C91.8531 186.079 91.9127 186.057 91.9748 186.047L90.9687 180.602L85.2094 183.897C85.0957 183.937 84.9717 183.935 84.8589 183.893C84.7462 183.851 84.6517 183.77 84.592 183.666C84.5322 183.561 84.511 183.439 84.5319 183.321C84.5528 183.202 84.6145 183.094 84.7064 183.017L90.5412 179.697C90.5994 179.664 90.6635 179.643 90.7298 179.634L89.7238 174.202L83.977 177.484C83.8634 177.523 83.7394 177.522 83.6266 177.48C83.5138 177.438 83.4194 177.357 83.3596 177.253C83.2999 177.148 83.2786 177.026 83.2995 176.907C83.3204 176.789 83.3822 176.681 83.474 176.603L89.3591 173.233C89.4174 173.223 89.4769 173.223 89.5352 173.233L88.4663 167.248L82.7698 170.505C82.6562 170.544 82.5322 170.543 82.4194 170.501C82.3066 170.458 82.2122 170.378 82.1524 170.274C82.0927 170.169 82.0714 170.047 82.0923 169.928C82.1132 169.81 82.175 169.702 82.2668 169.624L88.1519 166.254H88.2651L87.7495 163.475L75.25 171.221C75.25 171.221 84.128 220.654 84.3166 220.754C89.4975 223.458 98.9287 223.772 98.9287 223.772L97.5203 215.938Z" fill="#FFAF68"/>
<path d="M82.28 169.561C82.1881 169.639 82.1264 169.746 82.1055 169.865C82.0846 169.984 82.1058 170.106 82.1656 170.21C82.2253 170.315 82.3198 170.395 82.4326 170.437C82.5453 170.48 82.6693 170.481 82.783 170.441L88.4669 167.247L88.2783 166.204H88.1651L82.28 169.561Z" fill="#CA4300"/>
<path d="M83.5222 176.603C83.4303 176.681 83.3686 176.789 83.3477 176.907C83.3268 177.026 83.348 177.148 83.4078 177.253C83.4675 177.357 83.562 177.437 83.6747 177.48C83.7875 177.522 83.9115 177.523 84.0252 177.484L89.772 174.202L89.5834 173.17C89.5251 173.16 89.4656 173.16 89.4073 173.17L83.5222 176.603Z" fill="#CA4300"/>
<path d="M84.7058 183.067C84.6139 183.145 84.5522 183.252 84.5313 183.371C84.5104 183.49 84.5316 183.612 84.5914 183.716C84.6511 183.821 84.7456 183.901 84.8583 183.943C84.9711 183.986 85.0951 183.987 85.2088 183.947L90.9682 180.653L90.7795 179.634C90.7132 179.643 90.6491 179.664 90.5909 179.697L84.7058 183.067Z" fill="#CA4300"/>
<path d="M85.9128 189.53C85.821 189.608 85.7592 189.716 85.7383 189.834C85.7174 189.953 85.7387 190.075 85.7984 190.18C85.8581 190.284 85.9526 190.364 86.0654 190.407C86.1782 190.449 86.3021 190.45 86.4158 190.411L92.1752 187.116L91.9866 186.097C91.9235 186.09 91.8595 186.094 91.7979 186.11L85.9128 189.53Z" fill="#CA4300"/>
<path d="M87.3582 196.799C87.2663 196.877 87.2045 196.984 87.1836 197.103C87.1627 197.221 87.184 197.344 87.2437 197.448C87.3034 197.553 87.3979 197.633 87.5107 197.675C87.6235 197.717 87.7475 197.719 87.8612 197.679L93.5325 194.435L93.3313 193.378H93.2433L87.3582 196.799Z" fill="#CA4300"/>
<path d="M88.7175 204.281C88.6256 204.359 88.5639 204.466 88.543 204.585C88.5221 204.703 88.5433 204.825 88.6031 204.93C88.6628 205.035 88.7573 205.115 88.8701 205.157C88.9828 205.199 89.1068 205.201 89.2205 205.161L94.917 201.904L94.7284 200.86H94.6152L88.7175 204.281Z" fill="#CA4300"/>
<path d="M95.7589 207.739L89.8738 211.109C89.7819 211.187 89.7201 211.294 89.6992 211.413C89.6783 211.532 89.6996 211.654 89.7593 211.758C89.8191 211.863 89.9135 211.943 90.0263 211.985C90.1391 212.028 90.2631 212.029 90.3768 211.989L96.1613 208.682L95.9727 207.676C95.8977 207.681 95.8247 207.703 95.7589 207.739Z" fill="#CA4300"/>
<path d="M91.2566 218.34C91.1647 218.418 91.103 218.525 91.082 218.644C91.0611 218.762 91.0824 218.884 91.1422 218.989C91.2019 219.093 91.2963 219.174 91.4091 219.216C91.5219 219.258 91.6459 219.26 91.7596 219.22L97.5189 215.925L97.3303 214.907C97.2683 214.917 97.2086 214.938 97.1543 214.97L91.2566 218.34Z" fill="#CA4300"/>
<path d="M123.664 178.364C123.664 178.364 123.978 180.011 126.481 180.3C128.983 180.59 129.838 179.621 129.838 179.621L129.021 167.248L123.664 178.364Z" fill="#FFD8BD"/>
<path d="M129.023 167.248L126.508 172.428C126.863 172.817 127.342 173.069 127.863 173.143C128.384 173.216 128.914 173.106 129.362 172.831L129.023 167.248Z" fill="#653200"/>
<path d="M109.531 166.832C109.531 166.832 110.11 168.417 112.625 168.304C115.14 168.19 115.831 167.046 115.831 167.046L113.065 154.924L109.531 166.832Z" fill="#FFD8BD"/>
<path d="M113.073 154.987L111.426 160.495C111.831 160.829 112.34 161.012 112.866 161.012C113.391 161.012 113.9 160.829 114.305 160.495L113.073 154.987Z" fill="#653200"/>
<path d="M105.128 223.659C90.3904 223.659 78.3058 219.886 77.1992 215.208C77.9286 220.867 82.9711 259.737 83.1598 259.963C83.1598 259.963 85.6748 270.928 105.128 270.916C121.639 270.916 126.342 262.629 126.342 262.629L133.032 215.309C131.787 219.987 119.778 223.659 105.128 223.659Z" fill="#68E1FD"/>
</g>
<defs>
<linearGradient id="paint0_linear" x1="38605.7" y1="9464.89" x2="34330" y2="15518.6" gradientUnits="userSpaceOnUse">
<stop stop-color="#E3965D"/>
<stop offset="1" stop-color="#FFD8BD"/>
</linearGradient>
<clipPath id="clip0">
<rect width="503" height="377.25" fill="white"/>
</clipPath>
<clipPath id="clip1">
<rect width="503" height="377.25" fill="white" transform="translate(-21.3789 -30.1799)"/>
</clipPath>
</defs>
</svg>
