<svg width="963" height="722" viewBox="0 0 963 722" fill="none" xmlns="http://www.w3.org/2000/svg">
<path d="M529.572 211.352L105.977 483.885C104.415 484.884 103.136 486.268 102.263 487.904C101.391 489.54 100.954 491.373 100.995 493.226C101.036 495.08 101.553 496.892 102.498 498.488C103.442 500.084 104.781 501.41 106.386 502.338L392.44 668.34C396.824 670.886 401.826 672.172 406.894 672.058C411.962 671.943 416.901 670.432 421.165 667.691L841.176 397.997C842.737 396.996 844.014 395.611 844.885 393.974C845.755 392.336 846.19 390.503 846.146 388.649C846.103 386.795 845.583 384.984 844.636 383.389C843.69 381.794 842.349 380.47 840.742 379.544L548.53 210.895C545.633 209.223 542.331 208.381 538.987 208.462C535.643 208.542 532.385 209.542 529.572 211.352Z" fill="#E5E5E5"/>
<path d="M185.946 467.646C185.946 467.646 184.743 507.15 205.674 508.545C226.605 509.94 232.716 484.487 232.138 467.646" fill="#8DFCF3"/>
<path d="M629.392 138.239C629.392 138.239 626.144 130.685 625.326 130.685C624.508 130.685 602.23 131.527 602.23 131.527L612.624 146.996" fill="#662D91"/>
<path d="M279.342 256.438L239.309 296.928C229.06 307.297 216.526 317.57 211.931 332.005C211.473 333.497 213.783 334.122 214.336 332.655C219.148 317.45 233.583 306.19 244.433 295.316L281.122 258.218C282.133 257.039 280.425 255.355 279.342 256.438Z" fill="#FE65AB"/>
<path d="M645.285 212.339C645.093 212.531 639.174 199.179 638.669 197.904C637.065 193.429 635.622 188.882 634.339 184.263C631.791 174.805 630.06 165.146 629.166 155.393C629.022 153.853 626.616 153.853 626.76 155.393C627.837 167.149 630.11 178.766 633.545 190.061C635.278 195.671 637.302 201.188 639.607 206.589C640.979 209.813 641.748 213.542 645.189 214.913C645.395 214.973 645.614 214.976 645.822 214.921C646.03 214.866 646.218 214.755 646.368 214.6L646.993 213.999C648.124 212.988 646.416 211.28 645.285 212.339Z" fill="#31BE44"/>
<path d="M662.372 192.924C661.096 192.034 659.966 194.103 661.169 194.993C662.372 195.883 656.357 199.131 655.828 199.347L649.019 203.1C647.672 203.846 648.875 205.915 650.222 205.169L656.646 201.633C658.388 200.825 660.048 199.85 661.602 198.722C663.478 197.278 664.681 194.536 662.372 192.924Z" fill="#31BE44"/>
<path d="M630.329 225.186C622.882 225.28 615.526 226.833 608.676 229.757L597.128 168.12C596.839 166.604 594.53 167.254 594.722 168.769L606.27 230.768C604.365 231.67 602.51 232.673 600.713 233.775C599.39 234.593 600.713 236.662 601.916 235.844C610.442 230.521 620.277 227.665 630.329 227.592C630.648 227.592 630.954 227.465 631.179 227.24C631.405 227.014 631.532 226.708 631.532 226.389C631.532 226.07 631.405 225.764 631.179 225.538C630.954 225.313 630.648 225.186 630.329 225.186Z" fill="#31BE44"/>
<path d="M635.138 224.921C626.622 206.685 623.59 186.765 620.703 167.013C620.487 165.497 618.177 166.147 618.298 167.662C621.16 187.655 624.288 207.696 632.925 226.148C633.695 227.544 635.764 226.317 635.138 224.921Z" fill="#31BE44"/>
<path d="M639.498 242.316C638.03 238.033 631.751 235.098 627.853 233.655C622.667 231.831 617.073 231.506 611.71 232.716C610.195 233.029 610.844 235.363 612.36 235.122C616.029 234.306 619.83 234.281 623.509 235.048C627.189 235.816 630.663 237.358 633.7 239.573C634.561 240.127 635.367 240.764 636.105 241.474L635.937 245.082C635.287 245.78 630.115 245.78 628.84 245.804C624.587 245.841 620.351 245.274 616.257 244.12C615.938 244.034 615.598 244.078 615.312 244.243C615.025 244.407 614.816 244.679 614.73 244.998C614.644 245.317 614.688 245.657 614.852 245.944C615.017 246.23 615.289 246.44 615.608 246.526C619.505 247.464 642.697 251.626 639.498 242.316Z" fill="#31BE44"/>
<path d="M618.422 198.794L667.597 170.357V397.299L621.67 423.812L618.422 198.794Z" fill="#FFA75F"/>
<path d="M618.419 198.794L569.195 170.357L570.35 394.268L621.667 423.812L618.419 198.794Z" fill="#EF8A3F"/>
<path d="M569.195 170.357L618.419 141.559L667.594 170.357L618.419 198.794L569.195 170.357Z" fill="#FFB37B"/>
<path d="M529.961 289.446L579.136 261.033V448.183L532.631 474.527L529.961 289.446Z" fill="#68E1FD"/>
<path d="M529.954 289.446L480.707 261.033L481.669 444.598L532.625 474.527L529.954 289.446Z" fill="#68E1FD"/>
<path d="M480.707 261.033L529.954 232.211L579.13 261.033L529.954 289.446L480.707 261.033Z" fill="#68E1FD"/>
<path d="M529.961 289.446L579.136 261.033V448.183L532.631 474.527L529.961 289.446Z" fill="#68E1FD"/>
<path opacity="0.19" d="M529.954 289.446L480.707 261.033L481.669 444.598L532.625 474.527L529.954 289.446Z" fill="black"/>
<path opacity="0.53" d="M480.707 261.033L529.954 232.211L579.13 261.033L529.954 289.446L480.707 261.033Z" fill="white"/>
<path d="M434.008 376.778L483.183 348.341L485.565 502.242L434.008 532.483V376.778Z" fill="#68E1FD"/>
<path d="M434.008 376.778L384.785 348.341V503.493L434.008 532.483V376.778Z" fill="#68E1FD"/>
<path opacity="0.19" d="M434.008 376.778L384.785 348.341V503.493L434.008 532.483V376.778Z" fill="black"/>
<path d="M384.785 348.341L434.008 319.519L483.184 348.341L434.008 376.778L384.785 348.341Z" fill="#68E1FD"/>
<path opacity="0.53" d="M384.785 348.341L434.008 319.519L483.184 348.341L434.008 376.778L384.785 348.341Z" fill="white"/>
<path d="M333.07 477.895L382.246 449.482L383.954 560.319L333.07 589.116V477.895Z" fill="#ED7E7E"/>
<path d="M333.067 477.895L283.844 449.482V560.439L333.067 589.116V477.895Z" fill="#E26D6D"/>
<path d="M283.844 449.482L333.067 420.66L382.242 449.482L333.067 477.895L283.844 449.482Z" fill="#FC9D9D"/>
<path d="M209.086 480.229C221.868 480.229 232.23 474.595 232.23 467.646C232.23 460.697 221.868 455.063 209.086 455.063C196.303 455.063 185.941 460.697 185.941 467.646C185.941 474.595 196.303 480.229 209.086 480.229Z" fill="#662D91"/>
<path d="M203.369 464.326C203.369 464.326 220.739 450.059 213.449 441.567C206.159 433.074 199.303 434.205 201.829 425.76C204.355 417.316 217.034 413.034 207.05 403.627C197.065 394.22 188.958 400.643 190.377 388.446C191.797 376.248 186.119 364.388 175.798 369.32C165.477 374.251 165.477 394.22 172.766 399.08C180.056 403.939 191.532 404.83 181.692 411.662C171.852 418.495 163.167 419.625 172.766 430.259C182.366 440.893 198.581 435.793 194.611 445.055C190.642 454.318 192.975 458.143 203.369 464.326Z" fill="#31BE44"/>
<path d="M204.499 466.323C204.499 466.323 226.97 467.189 227.162 455.978C227.355 444.766 221.46 441.086 228.966 436.442C236.473 431.799 248.766 437.02 247.564 423.355C246.361 409.689 235.992 409.112 245.158 400.932C254.324 392.752 257.885 380.17 246.962 376.874C236.04 373.578 222.711 388.638 224.949 397.107C227.186 405.575 235.174 413.948 223.265 412.456C211.356 410.965 204.018 406.129 204.235 420.443C204.451 434.758 219.872 441.711 210.754 446.017C201.636 450.324 200.746 454.895 204.499 466.323Z" fill="#31BE44"/>
<path d="M205.699 466.323C205.699 466.323 197.399 441.109 182.29 444.935C167.182 448.76 205.699 466.323 205.699 466.323Z" fill="#31BE44"/>
<path d="M213.492 228.554V371.725C213.497 373.918 214.089 376.069 215.205 377.956C216.322 379.843 217.922 381.397 219.841 382.457C221.76 383.517 223.928 384.045 226.12 383.985C228.311 383.926 230.447 383.281 232.306 382.118L456.89 240.968C462.539 237.417 467.194 232.49 470.421 226.65C473.648 220.81 475.342 214.248 475.343 207.575V85.9604C475.342 83.7873 474.769 81.6527 473.682 79.7709C472.595 77.889 471.033 76.3262 469.151 75.2391C467.269 74.152 465.135 73.5789 462.962 73.5774C460.789 73.5759 458.653 74.146 456.77 75.2304C407.354 103.764 273.157 181.087 225.16 208.562C221.632 210.576 218.696 213.485 216.647 216.994C214.599 220.504 213.511 224.491 213.492 228.554Z" fill="#FC9D9D"/>
<path d="M251.984 341.388C253.284 340.57 305.851 245.756 305.851 245.756L380.119 256.101L425.83 152.193" stroke="#662D91" stroke-width="2.40583" stroke-miterlimit="10"/>
<path d="M425.949 158.737C428.526 158.737 430.616 156.346 430.616 153.396C430.616 150.446 428.526 148.055 425.949 148.055C423.371 148.055 421.281 150.446 421.281 153.396C421.281 156.346 423.371 158.737 425.949 158.737Z" fill="#662D91" stroke="#662D91" stroke-width="2.40583" stroke-miterlimit="10"/>
<path d="M378.781 259.469C381.358 259.469 383.448 257.078 383.448 254.128C383.448 251.179 381.358 248.787 378.781 248.787C376.203 248.787 374.113 251.179 374.113 254.128C374.113 257.078 376.203 259.469 378.781 259.469Z" fill="#662D91" stroke="#662D91" stroke-width="2.40583" stroke-miterlimit="10"/>
<path d="M305.855 252.131C308.432 252.131 310.522 249.74 310.522 246.79C310.522 243.841 308.432 241.449 305.855 241.449C303.277 241.449 301.188 243.841 301.188 246.79C301.188 249.74 303.277 252.131 305.855 252.131Z" fill="#662D91" stroke="#662D91" stroke-width="2.40583" stroke-miterlimit="10"/>
<path d="M254.609 346.729C257.186 346.729 259.276 344.337 259.276 341.388C259.276 338.438 257.186 336.047 254.609 336.047C252.031 336.047 249.941 338.438 249.941 341.388C249.941 344.337 252.031 346.729 254.609 346.729Z" fill="#662D91" stroke="#662D91" stroke-width="2.40583" stroke-miterlimit="10"/>
<path d="M656.029 204.64C656.029 204.64 657.063 215.707 659.926 219.58C662.789 223.454 669.02 226.293 668.828 228.482C668.635 230.671 668.298 231.994 664.954 231.994C661.61 231.994 650.688 225.619 650.688 225.619L648.426 217.391L647.368 225.451L644.625 224.32V203.461L656.029 204.64Z" fill="#68E1FD"/>
<path d="M637.181 213.686C637.181 213.686 638.216 224.753 641.078 228.626C643.941 232.5 650.173 235.339 649.98 237.528C649.788 239.717 649.451 241.04 646.107 241.04C642.763 241.04 631.84 234.665 631.84 234.665L629.579 226.437L628.52 234.497L625.777 233.366V212.483L637.181 213.686Z" fill="#68E1FD"/>
<path d="M642.741 213.782C646.272 214.878 650.034 214.99 653.624 214.109C657.214 213.227 660.497 211.384 663.118 208.778C664.514 193.501 666.366 168.048 663.624 162.875C659.678 155.393 629.365 138.215 629.365 138.215L610.695 146.034L644.521 178.393L642.741 213.782Z" fill="#662D91"/>
<path d="M593.239 127.509C593.239 127.509 586.286 153.059 592.373 158.785C598.459 164.511 621.507 179.018 621.507 179.018V223.021C624.625 224.391 628.107 224.693 631.414 223.88C634.721 223.066 637.666 221.183 639.792 218.522L647.346 176.54L618.307 141.535" fill="#662D91"/>
<path d="M648.828 41.7171L648.154 43.0404L647.793 42.8479C648.226 41.1157 648.659 39.4075 649.068 37.6753C649.477 35.9431 646.999 35.8229 646.662 37.3385C646.326 38.8542 645.916 40.3458 645.508 41.8615L644.762 41.6209L645.026 35.1252C645.026 34.7643 645.026 34.4034 645.026 34.0185C645.064 33.8605 645.071 33.6966 645.045 33.5362C645.02 33.3757 644.963 33.2218 644.878 33.0833C644.793 32.9448 644.682 32.8244 644.55 32.7289C644.419 32.6334 644.27 32.5648 644.112 32.5269C643.954 32.489 643.79 32.4825 643.63 32.508C643.469 32.5334 643.316 32.5902 643.177 32.675C643.038 32.7599 642.918 32.8713 642.823 33.0027C642.727 33.1342 642.658 33.2831 642.62 33.4411C642.475 33.6109 642.383 33.8203 642.356 34.0425C642.043 36.4484 641.778 38.8542 641.514 41.26H641.177C641.009 39.7203 640.816 38.1806 640.576 36.6649C640.534 36.4376 640.425 36.2281 640.263 36.0634C639.974 34.7402 637.857 35.1011 637.857 36.5687L638.29 44.1711C637.785 42.9922 637.183 41.7653 635.884 41.5728C635.67 41.5438 635.453 41.5716 635.253 41.6535C635.054 41.7354 634.879 41.8684 634.748 42.0392C634.616 42.21 634.532 42.4124 634.503 42.6262C634.474 42.84 634.503 43.0575 634.585 43.2569C635.487 45.0701 636.22 46.9627 636.774 48.9106L637.424 60.3383C637.424 60.5982 637.523 60.8481 637.703 61.0363C637.882 61.2245 638.127 61.3364 638.386 61.3487C638.455 61.6252 638.617 61.8694 638.845 62.0393C639.074 62.2092 639.354 62.2944 639.639 62.2802C639.923 62.2659 640.194 62.1532 640.404 61.9613C640.615 61.7695 640.752 61.5104 640.792 61.2285C641.249 61.878 642.163 62.2148 642.717 61.3487V61.2285C643.246 62.1667 644.906 62.2148 645.002 60.8916C645.171 58.4858 645.315 56.2243 645.339 53.8907V53.7223C647.055 49.9692 648.884 46.2562 650.824 42.5833C651.811 41.26 649.573 40.3458 648.828 41.7171Z" fill="#F7931E"/>
<path d="M648.542 43.8343C647.482 42.7056 646.165 41.8494 644.704 41.3385C643.242 40.8275 641.678 40.6768 640.146 40.8992C640.098 40.915 640.056 40.9456 640.026 40.9866C639.996 41.0277 639.98 41.0771 639.98 41.1277C639.98 41.1784 639.996 41.2278 640.026 41.2688C640.056 41.3098 640.098 41.3405 640.146 41.3563C641.59 41.1305 643.067 41.2552 644.453 41.72C645.839 42.1848 647.093 42.9759 648.109 44.0267C648.398 44.3636 648.759 44.0508 648.542 43.8343Z" fill="#7A4C1F"/>
<path d="M639.108 44.0028C638.651 44.0028 638.651 44.6764 639.108 44.7486C640.258 44.9822 641.272 45.6507 641.94 46.6145C642.608 47.5784 642.878 48.7631 642.693 49.9212C642.693 50.4023 643.391 50.4023 643.439 49.9212C643.634 48.5644 643.289 47.1854 642.48 46.0793C641.671 44.9732 640.46 44.2278 639.108 44.0028Z" fill="#7A4C1F"/>
<path d="M620.248 87.8851C620.248 87.8851 630.112 83.0734 631.892 76.8423C633.673 70.6112 635.621 50.3781 635.621 50.3781C640.156 50.0075 644.698 51.0047 648.661 53.2411C648.661 53.2411 647.963 77.7324 644.33 85.2146C640.698 92.6967 629.246 102.513 629.559 102.513C629.871 102.513 626.022 133.163 626.022 133.163C626.022 133.163 606.775 138.504 595.805 133.163C595.805 133.163 599.004 103.595 601.362 99.2887C603.72 94.9823 620.248 87.8851 620.248 87.8851Z" fill="#68E1FD"/>
<path d="M627.92 142.714C626.153 141.192 624.253 139.831 622.242 138.648L616.781 136.242C615.217 134.655 613.654 133.067 612.138 131.431C611.079 130.276 609.395 131.984 610.43 133.139C611.464 134.294 612.836 135.665 614.063 136.916C613.87 137.005 613.702 137.139 613.572 137.306C613.443 137.474 613.355 137.67 613.317 137.878C613.165 137.839 613.007 137.832 612.852 137.856C612.697 137.88 612.549 137.935 612.416 138.019C612.283 138.102 612.169 138.211 612.079 138.34C611.99 138.469 611.928 138.615 611.897 138.769C611.665 138.612 611.38 138.551 611.103 138.6C610.213 137.638 608.409 138.744 609.179 139.996C610.959 142.818 612.619 145.713 614.159 148.681C614.881 150.052 616.95 148.849 616.228 147.478L615.554 146.251C616.907 147.618 618.169 149.073 619.331 150.605C620.246 151.832 622.339 150.605 621.4 149.402C621.04 148.921 620.679 148.488 620.294 148.031C620.895 148.56 621.497 149.09 622.05 149.667C622.603 150.244 623.109 150.894 623.614 151.519C624.456 152.578 626.332 151.159 625.514 150.052L625.322 149.811C624.576 148.849 622.916 146.996 622.146 146.082C623.157 146.828 625.033 148.488 626.02 149.258C627.006 150.028 628.425 148.103 627.222 147.189C626.501 146.66 623.662 143.676 622.94 143.147C622.218 142.618 623.566 143.917 622.94 143.147C624.095 143.604 625.346 144.061 626.429 144.567C627.511 145.072 628.858 143.46 627.92 142.714Z" fill="#F7931E"/>
<path d="M613.485 89.9542C613.485 89.9542 598.785 94.7659 595.85 98.9761C592.915 103.186 587.189 117.453 587.021 122C586.852 126.547 608.023 143.652 608.023 143.652C608.023 143.652 619.86 136.122 620.798 134.39C621.737 132.658 606.917 118.824 606.917 118.824" fill="#68E1FD"/>
<path d="M605.648 67.7723C605.648 67.7723 597.107 72.584 596.963 89.9782C596.963 89.9782 595.784 99.6015 599.369 102.705C602.953 105.809 610.869 105.664 611.398 102.705C611.927 99.7458 607.645 79.7293 607.645 79.7293" fill="#662D91"/>
<path d="M622.416 72.3674C622.416 72.3674 626.217 98.3023 622.728 100.323C619.24 102.344 613.707 101.767 615.8 89.9541" fill="#662D91"/>
<path d="M622.408 72.3675C622.408 72.3675 624.814 92.3359 616.273 92.8892C606.65 93.5147 604.003 86.5619 604.725 82.2554C605.447 77.949 609.296 66.0882 622.408 72.3675Z" fill="#F7931E"/>
<path d="M607.668 79.7294C607.668 79.7294 611.133 81.3413 612.239 76.8665C612.756 77.4049 613.442 77.749 614.183 77.8411C614.923 77.9331 615.673 77.7673 616.305 77.3717C617.255 76.7925 618.074 76.0224 618.711 75.1102C618.711 75.1102 619.722 77.3717 623.523 76.1206C627.324 74.8696 627.925 69.7692 620.708 66.3048C613.49 62.8404 602.953 65.8959 601.197 75.1102C599.44 84.3245 601.197 90.0023 608.775 91.951C607.48 88.0146 607.102 83.8344 607.668 79.7294Z" fill="#662D91"/>
<path d="M616.734 128.736C614.641 126.45 612.163 124.43 610.262 122C609.036 120.509 608.286 118.684 608.11 116.762C607.935 114.84 608.341 112.91 609.276 111.222C608.063 111.773 607.054 112.69 606.389 113.844C605.842 115.135 605.682 116.557 605.93 117.937C606.178 119.317 606.822 120.595 607.784 121.615C610.908 125.676 614.36 129.474 618.106 132.97C618.26 133.109 618.448 133.205 618.651 133.252C618.853 133.298 619.064 133.292 619.264 133.234C619.463 133.176 619.645 133.069 619.791 132.922C619.938 132.775 620.045 132.593 620.102 132.393C618.948 131.238 617.889 129.915 616.734 128.736Z" fill="#662D91"/>
<path d="M645.078 165.329C639.81 160.277 634.276 155.489 628.887 150.581C627.732 149.547 626.048 151.231 627.179 152.289L640.146 164.078C641.723 165.336 643.21 166.703 644.597 168.168C648.086 172.45 646.618 176.588 645.92 181.352C644.317 192.579 642.64 203.806 640.892 215.033C640.676 216.549 642.985 217.199 643.298 215.683C645.295 202.403 648.326 188.834 649.289 175.433C649.521 173.529 649.255 171.597 648.517 169.826C647.779 168.054 646.594 166.505 645.078 165.329Z" fill="#260344"/>
</svg>
