<svg width="950" height="724" viewBox="0 0 950 724" fill="none" xmlns="http://www.w3.org/2000/svg">
<path d="M206.151 525.394L445.109 663.703C450.089 666.567 455.733 668.074 461.477 668.074C467.222 668.074 472.866 666.567 477.846 663.703L787.973 486.601C790.856 484.959 793.255 482.585 794.927 479.719C796.599 476.853 797.486 473.597 797.499 470.279C797.511 466.962 796.648 463.699 794.997 460.821C793.345 457.943 790.964 455.552 788.094 453.888L555.842 318.788C552.113 316.634 547.882 315.501 543.575 315.501C539.268 315.501 535.037 316.634 531.307 318.788L206.199 504.912C204.398 505.945 202.9 507.434 201.857 509.229C200.814 511.025 200.263 513.063 200.258 515.139C200.253 517.216 200.795 519.257 201.829 521.057C202.864 522.857 204.354 524.353 206.151 525.394Z" fill="#8EA3FF"/>
<path d="M479.224 501.052L384.172 552.535L424.991 580.568L523.035 527.3" fill="url(#paint0_linear)"/>
<path d="M664.362 465.009L569.285 516.492L610.129 544.501L712.901 485.443" fill="url(#paint1_linear)"/>
<path d="M256.266 270.345V447.205C256.263 448.937 256.717 450.639 257.581 452.14C258.445 453.641 259.689 454.888 261.188 455.756C262.687 456.624 264.387 457.082 266.119 457.084C267.851 457.087 269.553 456.633 271.054 455.769L517.322 314.156C518.827 313.29 520.077 312.042 520.946 310.538C521.814 309.034 522.27 307.328 522.268 305.591V126.367C522.27 124.635 521.816 122.933 520.952 121.432C520.088 119.931 518.844 118.684 517.346 117.816C515.847 116.948 514.146 116.49 512.414 116.487C510.682 116.485 508.98 116.938 507.479 117.802L263.165 258.427C261.067 259.63 259.325 261.365 258.113 263.458C256.901 265.551 256.264 267.926 256.266 270.345Z" fill="#68E1FD"/>
<path opacity="0.18" d="M256.266 270.345V447.205C256.263 448.937 256.717 450.639 257.581 452.14C258.445 453.641 259.689 454.888 261.188 455.756C262.687 456.624 264.387 457.082 266.119 457.084C267.851 457.087 269.553 456.633 271.054 455.769L517.322 314.156C518.827 313.29 520.077 312.042 520.946 310.538C521.814 309.034 522.27 307.328 522.268 305.591V126.367C522.27 124.635 521.816 122.933 520.952 121.432C520.088 119.931 518.844 118.684 517.346 117.816C515.847 116.948 514.146 116.49 512.414 116.487C510.682 116.485 508.98 116.938 507.479 117.802L263.165 258.427C261.067 259.63 259.325 261.365 258.113 263.458C256.901 265.551 256.264 267.926 256.266 270.345Z" fill="black"/>
<path d="M406.508 155.437V294.325C406.502 295.688 406.857 297.029 407.535 298.211C408.214 299.393 409.193 300.376 410.372 301.059C411.552 301.742 412.891 302.101 414.255 302.1C415.618 302.1 416.957 301.74 418.136 301.056L611.57 189.864C612.753 189.184 613.736 188.203 614.418 187.021C615.1 185.839 615.458 184.498 615.454 183.133V42.3635C615.46 41.0003 615.106 39.6598 614.427 38.4775C613.748 37.2952 612.77 36.3129 611.59 35.63C610.41 34.947 609.071 34.5877 607.708 34.5881C606.345 34.5886 605.006 34.9489 603.826 35.6327L412.008 146.101C410.349 147.033 408.966 148.388 408 150.028C407.034 151.668 406.519 153.534 406.508 155.437Z" fill="#68E1FD"/>
<path d="M222.333 350.926C235.676 327.813 234.567 302.191 219.855 293.697C205.143 285.203 182.4 297.054 169.056 320.166C155.712 343.278 156.821 368.9 171.533 377.394C186.245 385.888 208.989 374.038 222.333 350.926Z" fill="#F2696A"/>
<path d="M220.697 345.639C220.697 345.639 235.172 363.805 231.65 364.939C228.127 366.073 210.227 362.526 210.227 362.526" fill="#F2696A"/>
<path d="M504.467 278.74C513.261 286.287 519.917 296.012 523.767 306.942C530.522 325.591 513.634 356.109 513.634 356.109L487.266 335.337" fill="#FF8F6F"/>
<path d="M507.354 525.563L514.592 521.607L512.782 511.426C512.782 511.426 502.167 512.415 501.227 516.251" fill="#003B94"/>
<path d="M504.681 525.394C503.065 524.405 501.4 523.537 499.856 522.644C495.731 520.4 489.772 518.06 487.239 513.814C486.716 512.967 486.468 511.98 486.528 510.986C486.589 509.993 486.955 509.043 487.577 508.266C491.34 503.754 499.494 511.185 503.668 506.167C504.488 505.178 504.874 489.472 504.874 489.472L520.773 493.766C520.773 493.766 523.475 525.322 523.185 527.276C522.896 529.23 517.419 531.088 517.419 531.088C515.799 530.766 514.247 530.162 512.836 529.303C511.171 528.096 512.667 513.284 510.568 515.358C508.469 517.433 507.504 525.539 507.504 525.539C506.561 525.613 505.612 525.565 504.681 525.394Z" fill="#68E1FD"/>
<path d="M476.905 540.81L484.143 536.854L482.333 526.673C482.333 526.673 471.718 527.662 470.777 531.498" fill="#003B94"/>
<path d="M474.236 540.665C472.62 539.676 470.955 538.808 469.411 537.915C465.286 535.672 459.327 533.331 456.794 529.085C456.271 528.239 456.023 527.251 456.083 526.258C456.144 525.264 456.51 524.314 457.131 523.537C460.895 519.025 469.049 526.456 473.223 521.438C474.043 520.449 474.429 504.743 474.429 504.743L490.327 509.038C490.327 509.038 493.029 540.593 492.74 542.547C492.45 544.501 486.974 546.359 486.974 546.359C485.353 546.037 483.802 545.433 482.39 544.574C480.726 543.367 482.221 528.555 480.123 530.629C478.024 532.704 477.059 540.81 477.059 540.81C476.115 540.884 475.167 540.836 474.236 540.665Z" fill="#68E1FD"/>
<path d="M528.724 438.255L533.331 500.98C533.331 500.98 525.877 511.281 500.835 505.539L500.594 463.296" fill="#3E2928"/>
<path d="M499.729 450.655C500.259 456.059 499.729 515.575 499.729 515.575C499.729 515.575 492.805 528.531 462.648 515.575L463.083 464.913" fill="#3E2928"/>
<path d="M531.076 458.954C529.025 460.353 528.302 453.068 526.251 454.322C518.437 458.86 510.144 462.518 501.523 465.227H501.33C501.125 465.126 500.902 465.068 500.674 465.057C500.446 465.045 500.218 465.08 500.003 465.159C499.789 465.238 499.593 465.359 499.427 465.516C499.261 465.673 499.129 465.862 499.038 466.071C493.717 467.636 488.302 468.861 482.826 469.738C475.782 470.872 469.967 465.661 462.754 465.275C462.754 437.603 462.609 358.787 474.406 342.237L509.146 330.513C509.315 333.383 526.034 352.804 525.648 376.35C525.19 403.008 528.663 428.195 529.242 436.518C529.363 438.038 531.004 457.434 531.076 458.954Z" fill="#3E2928"/>
<path d="M471.094 310.344L474.302 342.092C474.302 342.092 500.309 343.154 511.527 335.41V308.462" fill="#FF8F6F"/>
<path d="M438.023 289.5L440.676 293.119C439.261 290.176 438.013 287.155 436.937 284.072C436.189 281.949 439.567 281.129 440.314 283.228L440.7 284.313C440.379 283.187 440.073 282.061 439.784 280.936C439.672 280.488 439.742 280.014 439.98 279.618C440.217 279.222 440.602 278.937 441.05 278.825C441.498 278.713 441.972 278.783 442.368 279.021C442.764 279.258 443.049 279.643 443.161 280.091C443.893 283.02 444.77 285.911 445.791 288.752C445.22 286.223 444.809 283.661 444.561 281.08C444.343 278.861 447.817 278.957 448.034 281.08C448.324 284.013 448.849 286.917 449.603 289.765C449.603 288.768 449.691 287.779 449.868 286.798C449.893 286.55 449.97 286.309 450.095 286.093C450.22 285.877 450.389 285.689 450.592 285.544C450.592 285.158 450.809 284.771 450.93 284.385C451.049 283.982 451.311 283.637 451.667 283.412C452.022 283.187 452.447 283.099 452.862 283.164C453.278 283.229 453.655 283.442 453.926 283.764C454.196 284.087 454.34 284.496 454.331 284.916L454.548 298.04C455.17 299.395 455.982 300.655 456.961 301.78C455.29 302.96 453.679 304.224 452.136 305.567C450.749 306.757 449.428 308.021 448.179 309.355C447.07 307.972 445.992 306.556 444.946 305.109C444.818 305.004 444.705 304.882 444.609 304.747C441.489 300.147 438.272 295.62 434.959 291.165C433.728 289.355 436.72 287.667 438.023 289.5Z" fill="#FFB5A9"/>
<path d="M487.596 281.394C487.596 281.394 475.316 284.699 470.346 292.66C467.23 298.1 464.482 303.741 462.12 309.548L453.025 295.531C453.025 295.531 442.024 298.909 437.633 304.337C437.633 304.337 450.709 332.901 462.096 335.338C473.483 337.774 485.545 318.45 485.545 318.45C485.545 318.45 487.958 326.484 487.547 317.919" fill="#FF8F6F"/>
<path d="M479.787 311.912C483.348 309.009 486.037 305.176 487.555 300.839C489.027 295.821 487.169 291.406 485.456 286.75C483.601 282.133 482.517 277.243 482.247 272.275C482.103 267.45 482.658 262.504 482.995 257.631C483.043 257.425 483.043 257.21 482.995 257.004C484.636 251.503 487.989 246.847 494.624 246.268C511.776 244.796 512.741 263.807 512.621 271.527C512.5 279.247 511.68 284.482 517.446 287.715C523.212 290.948 527.241 299.415 521.812 306.267C516.384 313.118 521.258 310.609 524.876 316.713C528.495 322.817 527.554 330.392 520.051 333.142C512.548 335.892 478.098 330.73 474.914 327.521C473.792 326.237 473.213 324.568 473.297 322.865C474.062 318.548 476.368 314.656 479.787 311.912Z" fill="#007F68"/>
<path d="M656.454 417.604C656.454 417.604 649.458 477.723 681.255 489.351C713.051 500.98 730.084 470.727 730.566 417.604" fill="#06577A"/>
<path d="M693.501 439.027C713.967 439.027 730.557 429.435 730.557 417.604C730.557 405.772 713.967 396.181 693.501 396.181C673.036 396.181 656.445 405.772 656.445 417.604C656.445 429.435 673.036 439.027 693.501 439.027Z" fill="#F2696A"/>
<path d="M703.005 369.957C703.005 369.957 688.53 348.944 694.803 334.445C694.803 334.445 700.038 325.109 707.444 323.637C707.444 323.637 706.696 343.54 714.127 341.007C721.557 338.474 714.127 320.163 714.127 320.163C714.127 320.163 721.919 309.62 730.435 309.958C738.951 310.296 730.435 328.583 736.37 325.543C742.305 322.503 736.732 306.942 743.414 305.085C749.517 303.683 755.707 302.691 761.942 302.117C761.942 302.117 768.239 320.284 761.942 322.865C755.646 325.446 746.382 326.339 750.821 330.344C755.26 334.348 767.877 329.741 767.877 329.741C767.877 329.741 768.673 339.97 764.379 344.384C760.085 348.799 734.898 339.029 739.337 347.81C743.776 356.592 760.471 352.201 760.471 352.201C760.471 352.201 751.955 364.384 741.943 369.933C731.931 375.482 703.005 369.957 703.005 369.957Z" fill="#8CCC00"/>
<path d="M706.342 422.525C706.342 422.525 695.848 412.152 697.898 403.225C697.898 403.225 699.877 397.363 703.93 395.746C703.93 395.746 705.643 407.134 709.575 404.89C713.507 402.646 707.355 393.069 707.355 393.069C707.355 393.069 710.661 386.241 715.534 385.542C720.407 384.842 717.512 396.108 720.576 393.768C723.64 391.428 718.791 383.177 722.385 381.416C725.701 379.967 729.11 378.742 732.59 377.749C732.59 377.749 738.115 387.399 734.81 389.522C731.505 391.645 726.342 393.165 729.285 394.95C732.228 396.736 738.935 392.803 738.935 392.803C738.935 392.803 740.479 398.521 738.501 401.488C736.523 404.456 721.179 401.488 724.653 406.096C728.127 410.704 737.126 406.337 737.126 406.337C735.036 410.868 732.105 414.962 728.489 418.4C723.423 422.598 706.342 422.525 706.342 422.525Z" fill="#8CCC00"/>
<path d="M667.736 400.113C667.736 400.113 642.212 401.102 633.382 388.051C633.382 388.051 628.316 378.618 630.97 371.573C630.97 371.573 647.375 382.888 649.208 375.288C651.042 367.689 631.645 364.094 631.645 364.094C631.645 364.094 626.82 351.863 631.79 344.794C636.76 337.726 647.495 354.806 648.123 348.172C648.75 341.538 632.634 337.871 634.661 331.284C636.758 325.383 639.248 319.628 642.115 314.059C642.115 314.059 660.812 318.498 659.63 325.205C658.448 331.912 654.202 340.211 659.968 338.594C665.734 336.978 668.629 323.902 668.629 323.902C668.629 323.902 677.676 328.727 679.099 334.71C680.522 340.693 658.737 356.712 668.532 357.677C678.327 358.642 683.586 342.213 683.586 342.213C683.586 342.213 689.28 355.94 688.604 367.375C687.929 378.811 667.736 400.113 667.736 400.113Z" fill="#8CCC00"/>
<path d="M756.395 310.175C753.693 312.459 750.975 314.791 748.241 317.171C748.53 314.276 748.868 311.405 749.326 308.535C749.568 307.015 747.252 306.363 746.914 307.883C746.303 311.727 745.836 315.587 745.515 319.463C738.277 325.736 731.257 332.298 724.647 339.27C724.08 334.378 723.935 329.446 724.212 324.53C724.212 322.986 721.8 322.986 721.8 324.53C721.493 330.217 721.735 335.921 722.524 341.562C718.304 346.114 714.341 350.898 710.654 355.892C706.499 350.152 703.672 343.559 702.379 336.592C702.09 335.072 699.774 335.723 699.967 337.243C701.34 344.644 704.384 351.632 708.869 357.677C708.939 357.76 709.02 357.833 709.11 357.894C698.495 372.924 691.209 389.788 690.582 409.329C690.582 410.873 692.995 410.873 692.995 409.329C693.598 390.511 700.57 374.203 710.75 359.656C720.49 362.241 730.585 363.227 740.641 362.575C742.185 362.575 742.185 360.162 740.641 360.162C731.097 360.781 721.515 359.893 712.246 357.532C717.387 350.62 723.032 344.097 729.134 338.015H729.351C734.972 338.522 740.617 339.004 746.238 339.222C749.782 339.737 753.399 339.322 756.733 338.015C758.132 337.316 756.902 335.241 755.527 335.941C751.618 337.895 746.19 336.857 742.017 336.616C738.446 336.399 734.779 336.11 731.305 335.796C739.918 327.28 749.109 319.367 758.011 311.816C759.411 310.875 757.577 309.186 756.395 310.175Z" fill="#06577A"/>
<path d="M681.661 357.05C681.748 356.73 681.704 356.389 681.538 356.102C681.373 355.814 681.101 355.604 680.781 355.518C680.461 355.432 680.12 355.476 679.833 355.641C679.545 355.806 679.335 356.079 679.249 356.399C676.637 365.297 671.201 373.105 663.761 378.642C661.027 371.05 658.526 363.387 656.258 355.651C662.083 349.849 666.873 343.093 670.419 335.675C671.095 334.276 668.996 333.046 668.344 334.469C665.083 341.289 660.74 347.537 655.486 352.973C653.073 344.095 650.661 335.144 648.876 326.073C648.562 324.554 646.246 325.205 646.463 326.725C649.02 339.109 652.189 351.332 655.968 363.395C651.418 362.508 646.994 361.066 642.796 359.101C641.397 358.449 640.166 360.524 641.59 361.175C646.423 363.464 651.544 365.087 656.813 366C659.346 373.937 662.217 381.778 665.256 389.546C658.034 389.316 650.917 387.745 644.268 384.914C642.844 384.311 641.614 386.386 643.061 386.989C650.378 390.135 658.235 391.831 666.197 391.983C670.073 401.633 674.335 411.146 678.984 420.523C679.683 421.922 681.758 420.692 681.058 419.317C674.909 406.913 669.448 394.18 664.702 381.175C672.883 375.246 678.852 366.755 681.661 357.05Z" fill="#06577A"/>
<path d="M725.318 388.413L718.684 399.534C717.872 398.447 717.17 397.284 716.585 396.06C715.909 394.661 713.835 395.891 714.51 397.266C715.266 398.83 716.197 400.303 717.285 401.657L710.047 413.72C709.237 412.954 708.717 411.931 708.575 410.825C708.382 409.305 705.97 409.281 706.163 410.825C706.378 412.76 707.328 414.539 708.817 415.794L699.818 430.897C699.695 431.169 699.677 431.477 699.768 431.761C699.859 432.046 700.053 432.286 700.311 432.436C700.569 432.586 700.874 432.635 701.166 432.574C701.458 432.512 701.717 432.344 701.893 432.103L713.762 412.2C715.752 412.228 717.733 411.926 719.625 411.307C721.096 410.825 720.469 408.485 718.973 408.895C717.759 409.275 716.504 409.51 715.234 409.594L727.296 389.426C727.314 389.189 727.261 388.953 727.145 388.746C727.029 388.539 726.854 388.371 726.643 388.263C726.432 388.155 726.194 388.111 725.958 388.138C725.722 388.165 725.5 388.26 725.318 388.413Z" fill="#06577A"/>
<path d="M437.648 153.628V275.652L598.466 183.181V61.0603L437.648 153.628Z" fill="white"/>
<path opacity="0.52" d="M310.73 263.928L373.094 227.837V365.06L310.73 403.105V263.928Z" fill="white"/>
<path d="M171.629 453.719V502.813C171.625 503.633 171.839 504.439 172.248 505.149C172.658 505.859 173.248 506.448 173.96 506.855C174.671 507.262 175.478 507.473 176.297 507.467C177.117 507.46 177.92 507.236 178.625 506.818L298.454 436.856C299.175 436.462 299.779 435.884 300.203 435.18C300.627 434.476 300.856 433.672 300.867 432.851V384.601C300.872 383.783 300.661 382.978 300.254 382.268C299.848 381.558 299.261 380.968 298.552 380.559C297.844 380.149 297.04 379.935 296.222 379.937C295.403 379.94 294.6 380.159 293.894 380.572L173.969 449.714C173.261 450.117 172.672 450.699 172.262 451.403C171.851 452.106 171.633 452.905 171.629 453.719Z" fill="#68E1FD"/>
<path d="M174.091 341.489C180.871 336.52 189.676 333.359 197.179 329.692C204.191 326.266 211.212 322.873 218.24 319.511C221.039 318.185 218.602 314.011 215.828 315.338C208.799 318.699 201.779 322.093 194.767 325.519C187.24 329.186 178.458 332.346 171.679 337.316C169.266 339.125 171.679 343.323 174.091 341.489Z" fill="#F2F2F2"/>
<path d="M174.478 359.945C181.523 354.71 190.232 351.043 197.928 346.918C205.053 343.09 212.194 339.286 219.351 335.506C222.101 334.059 219.664 329.885 216.938 331.333C209.781 335.112 202.64 338.916 195.515 342.744C187.819 346.869 179.11 350.536 172.066 355.771C169.653 357.605 172.066 361.803 174.478 359.945Z" fill="#F2F2F2"/>
<path d="M225 451L294 410" stroke="#F7931E" stroke-width="9.18667" stroke-miterlimit="10"/>
<path d="M582.329 106L533 133.933V188.797C540.517 184.766 569.082 168.577 582.351 161.038L582.329 106Z" fill="#FE9881"/>
<path d="M551.351 141.035C551.866 140.911 552.404 140.911 552.919 141.035C553.3 141.17 553.666 141.345 554.009 141.558C554.266 141.714 554.495 141.913 554.684 142.147L554.902 142.43L553.072 146.156L552.919 145.938C552.79 145.784 552.644 145.645 552.484 145.524C552.264 145.342 552.013 145.202 551.743 145.11C551.39 145.04 551.028 145.04 550.675 145.11C550.209 145.156 549.756 145.297 549.346 145.524C547.976 146.317 546.881 147.511 546.208 148.945C545.383 150.479 544.949 152.193 544.945 153.934C544.876 154.606 544.953 155.285 545.171 155.925C545.389 156.564 545.743 157.149 546.208 157.638C546.643 158.009 547.186 158.228 547.755 158.263C548.325 158.299 548.891 158.148 549.368 157.835C549.877 157.575 550.346 157.245 550.762 156.854C551.173 156.486 551.545 156.077 551.874 155.634C552.164 155.227 552.426 154.835 552.658 154.457C552.84 154.157 553 153.844 553.137 153.52L553.29 153.172L555.033 154.893L554.815 155.416C554.713 155.634 554.488 156.048 554.14 156.658C553.799 157.248 553.42 157.816 553.007 158.357C552.528 158.964 551.996 159.525 551.416 160.035C550.81 160.593 550.128 161.063 549.39 161.43C548.607 161.942 547.68 162.189 546.746 162.134C545.812 162.079 544.921 161.725 544.204 161.125C543.435 160.398 542.84 159.507 542.463 158.519C542.085 157.531 541.936 156.47 542.025 155.416C542.081 152.653 542.83 149.948 544.204 147.55C545.294 145.162 547.079 143.158 549.324 141.798C549.947 141.421 550.634 141.163 551.351 141.035Z" fill="black"/>
<path d="M559.542 154.239V149.577L556.273 151.211V147.812L559.52 146.134V141.471L561.699 140.316V145.023L564.967 143.345V146.831L561.699 148.465V153.172L559.542 154.239Z" fill="black"/>
<path d="M569.612 149.293V144.5L566.344 146.134V142.626L569.59 140.948V136.155L571.769 135V139.815L575.037 138.138V141.798L571.769 143.432V148.247L569.612 149.293Z" fill="black"/>
<path d="M506.329 149L457 176.998V231.753C464.517 227.722 493.082 211.533 506.351 203.994L506.329 149Z" fill="#FE9881"/>
<path d="M474.588 189.722C475.01 189.632 475.45 189.67 475.851 189.831C476.161 189.971 476.454 190.146 476.723 190.354C476.935 190.511 477.119 190.702 477.268 190.921L477.442 191.204L475.96 194.668L475.808 194.385C475.707 194.235 475.59 194.096 475.459 193.971C475.285 193.794 475.078 193.653 474.849 193.557C474.57 193.49 474.279 193.49 473.999 193.557C473.61 193.598 473.236 193.732 472.91 193.949C471.747 194.772 470.859 195.926 470.361 197.261C469.683 198.807 469.335 200.476 469.337 202.163C469.215 203.468 469.58 204.772 470.361 205.824C470.672 206.18 471.109 206.401 471.58 206.442C472.052 206.482 472.52 206.339 472.888 206.042C473.31 205.788 473.692 205.472 474.021 205.105C474.357 204.735 474.656 204.334 474.914 203.907C475.147 203.514 475.357 203.137 475.546 202.774C475.696 202.477 475.827 202.171 475.938 201.858L476.069 201.51L477.464 203.209L477.268 203.732C477.18 203.95 476.999 204.357 476.723 204.952C476.45 205.522 476.145 206.075 475.808 206.608C475.428 207.19 474.998 207.737 474.522 208.242C474.049 208.772 473.498 209.228 472.888 209.593C472.278 210.07 471.511 210.3 470.739 210.235C469.967 210.17 469.248 209.817 468.726 209.245C467.456 207.652 466.848 205.631 467.027 203.601C467.039 200.932 467.618 198.295 468.726 195.867C469.567 193.679 471.028 191.786 472.932 190.419C473.427 190.07 473.992 189.833 474.588 189.722Z" fill="black"/>
<path d="M483.519 195.91C483.098 195.739 482.638 195.686 482.19 195.758C481.668 195.805 481.143 195.805 480.621 195.758C480.341 195.727 480.073 195.628 479.841 195.468C479.609 195.308 479.42 195.093 479.292 194.843C478.868 194.008 478.68 193.074 478.747 192.141C478.769 190.563 479.133 189.01 479.815 187.587C480.394 186.219 481.354 185.046 482.582 184.21C482.973 183.951 483.409 183.766 483.868 183.665C484.204 183.584 484.555 183.584 484.892 183.665C485.138 183.732 485.373 183.835 485.589 183.97C485.753 184.07 485.894 184.204 486.003 184.362L486.134 184.537L484.717 188.023L484.478 187.718C484.283 187.559 484.05 187.454 483.802 187.413C483.619 187.374 483.429 187.374 483.246 187.411C483.062 187.449 482.888 187.523 482.735 187.631C482.266 187.942 481.896 188.38 481.667 188.894C481.403 189.422 481.261 190.003 481.253 190.594C481.253 191.233 481.434 191.625 481.798 191.77C482.22 191.936 482.678 191.988 483.127 191.923C483.649 191.879 484.174 191.879 484.696 191.923C484.978 191.956 485.247 192.058 485.479 192.222C485.712 192.386 485.899 192.605 486.025 192.86C486.442 193.727 486.623 194.689 486.548 195.649C486.542 197.375 486.155 199.079 485.415 200.638C484.769 202.069 483.696 203.264 482.342 204.059C481.896 204.331 481.4 204.508 480.883 204.582C480.504 204.678 480.107 204.678 479.728 204.582C479.441 204.473 479.17 204.326 478.922 204.146C478.728 204.016 478.559 203.854 478.42 203.667L478.246 203.449L479.662 200.203L479.967 200.573C480.275 200.811 480.648 200.951 481.037 200.974C481.425 200.997 481.812 200.903 482.146 200.704C482.717 200.357 483.172 199.849 483.454 199.244C483.765 198.613 483.929 197.921 483.933 197.218C484.02 196.506 483.882 196.07 483.519 195.91Z" fill="black"/>
<path d="M492.781 190.311C492.365 190.121 491.905 190.053 491.452 190.115C490.93 190.163 490.405 190.163 489.883 190.115C489.599 190.078 489.329 189.971 489.097 189.804C488.865 189.636 488.678 189.414 488.554 189.156C488.138 188.288 487.958 187.326 488.031 186.367C488.057 184.753 488.428 183.163 489.121 181.704C489.692 180.32 490.654 179.132 491.888 178.283C492.278 178.022 492.714 177.837 493.173 177.739C493.51 177.657 493.861 177.657 494.197 177.739C494.445 177.812 494.68 177.923 494.895 178.066C495.06 178.173 495.201 178.314 495.309 178.48L495.439 178.676L494.023 182.227L493.783 181.922C493.589 181.763 493.356 181.658 493.108 181.617C492.925 181.576 492.735 181.574 492.551 181.612C492.367 181.649 492.193 181.725 492.04 181.835C491.568 182.152 491.198 182.598 490.973 183.121C490.711 183.657 490.57 184.245 490.559 184.842C490.559 185.495 490.74 185.902 491.103 186.062C491.523 186.238 491.982 186.298 492.432 186.236C492.954 186.191 493.479 186.191 494.001 186.236C494.287 186.275 494.559 186.385 494.791 186.557C495.023 186.728 495.209 186.955 495.33 187.217C495.748 188.115 495.928 189.105 495.853 190.093C495.849 191.861 495.463 193.608 494.72 195.213C494.098 196.662 493.039 197.881 491.692 198.699C491.247 198.974 490.75 199.152 490.232 199.222C489.844 199.286 489.446 199.248 489.077 199.113C488.797 198.995 488.533 198.842 488.293 198.656C488.099 198.517 487.93 198.348 487.792 198.155L487.617 197.915L489.033 194.603L489.317 194.995C489.557 195.208 489.851 195.351 490.166 195.409C490.399 195.467 490.642 195.476 490.878 195.435C491.115 195.393 491.34 195.303 491.539 195.17C492.113 194.817 492.568 194.301 492.846 193.688C493.173 193.009 493.337 192.263 493.326 191.509C493.268 190.885 493.086 190.485 492.781 190.311Z" fill="black"/>
<path d="M315 276L330 267" stroke="#00A99D" stroke-width="9.18667" stroke-miterlimit="10"/>
<path d="M315 290L359 265" stroke="#F7931E" stroke-width="9.18667" stroke-miterlimit="10"/>
<path d="M315 304L349 285" stroke="#29ABE2" stroke-width="9.18667" stroke-miterlimit="10"/>
<path d="M315 318L330 309" stroke="#00A99D" stroke-width="9.18667" stroke-miterlimit="10"/>
<path d="M315 332L367 300" stroke="#D4145A" stroke-width="9.18667" stroke-miterlimit="10"/>
<path d="M179 461L291 394" stroke="#00A99D" stroke-width="9.18667" stroke-miterlimit="10"/>
<path d="M315 346L357 320" stroke="#FE9881" stroke-width="9.18667" stroke-miterlimit="10"/>
<path d="M315 360L349 339" stroke="#29ABE2" stroke-width="9.18667" stroke-miterlimit="10"/>
<path d="M315 374L347 355" stroke="#00A99D" stroke-width="9.18667" stroke-miterlimit="10"/>
<path d="M315 388L330 379" stroke="#D4145A" stroke-width="9.18667" stroke-miterlimit="10"/>
<path d="M180.492 475.96L220 453" stroke="#D4145A" stroke-width="9.18667" stroke-miterlimit="10"/>
<path d="M180.5 493L296 426" stroke="#29ABE2" stroke-width="9.18667" stroke-miterlimit="10"/>
<defs>
<linearGradient id="paint0_linear" x1="426.005" y1="567.516" x2="535.363" y2="458.158" gradientUnits="userSpaceOnUse">
<stop stop-opacity="0"/>
<stop offset="1" stop-color="#F15A24"/>
</linearGradient>
<linearGradient id="paint1_linear" x1="37877.9" y1="17940.5" x2="41128" y2="12068.5" gradientUnits="userSpaceOnUse">
<stop stop-opacity="0"/>
<stop offset="1" stop-color="#F15A24"/>
</linearGradient>
</defs>
</svg>
