<svg width="888" height="666" viewBox="0 0 888 666" fill="none" xmlns="http://www.w3.org/2000/svg">
<path d="M82.3806 467.09L392.931 651.126C398.104 654.19 404.006 655.806 410.018 655.806C416.031 655.806 421.933 654.19 427.106 651.126L817.457 420.332C819.668 419.026 821.493 417.156 822.745 414.914C823.998 412.672 824.633 410.137 824.585 407.569C824.538 405.002 823.81 402.492 822.476 400.298C821.142 398.103 819.249 396.302 816.991 395.078L478.923 211.864L82.4028 446.474C80.6124 447.533 79.1285 449.04 78.0969 450.846C77.0654 452.652 76.5218 454.696 76.5195 456.776C76.5173 458.856 77.0565 460.901 78.0842 462.709C79.1118 464.518 80.5925 466.027 82.3806 467.09Z" fill="#7CE0C3"/>
<path d="M426.352 254.96V354.068L432.454 358.395L441.886 352.204V253.162L429.015 247.237L426.352 254.96Z" fill="#56403D"/>
<path d="M660.093 310.106L472.307 436.133L395.523 375.061L565.378 258.71L660.093 310.106Z" fill="url(#paint0_linear)"/>
<path d="M429.273 261.862L518.794 313.923C519.721 314.483 520.784 314.779 521.867 314.779C522.951 314.779 524.013 314.483 524.941 313.923L653.83 232.879C654.712 232.327 655.433 231.553 655.922 230.635C656.412 229.717 656.651 228.686 656.618 227.646C656.584 226.606 656.278 225.593 655.73 224.709C655.183 223.824 654.413 223.098 653.497 222.604L566.572 175.558C565.687 175.065 564.69 174.805 563.676 174.805C562.663 174.805 561.666 175.065 560.78 175.558L429.317 251.454C428.385 251.964 427.607 252.715 427.064 253.627C426.52 254.54 426.231 255.582 426.227 256.645C426.222 257.707 426.502 258.751 427.038 259.669C427.574 260.586 428.345 261.343 429.273 261.862Z" fill="#56403D"/>
<path d="M68.7861 241.828L74.5254 403.415C74.5818 405.362 75.1495 407.259 76.1714 408.917C77.1934 410.574 78.6337 411.934 80.3475 412.859C82.0613 413.784 83.9884 414.241 85.935 414.185C87.8816 414.129 89.7792 413.562 91.4371 412.54L341.895 260.64C344.335 259.159 346.335 257.055 347.69 254.544C349.045 252.033 349.706 249.206 349.604 246.354L343.933 86.6751C343.859 84.8554 343.318 83.0853 342.362 81.5351C341.407 79.985 340.068 78.7071 338.475 77.8245C336.882 76.9418 335.088 76.4842 333.267 76.4956C331.446 76.507 329.658 76.9871 328.077 77.8897L78.7988 223.642C75.643 225.486 73.0458 228.151 71.2828 231.353C69.5199 234.555 68.6571 238.175 68.7861 241.828Z" fill="#68E1FD"/>
<path d="M500.203 145.355C496.342 143.136 491.327 143.846 486.733 145.355C468.292 151.813 441.64 164.618 441.928 187.52C442.122 199.807 443.354 212.056 445.612 224.136C446.5 228.885 447.232 234.832 450.05 238.916C454.289 245.04 472.952 231.215 476.503 228.907C482.561 224.957 488.442 220.718 494.256 216.391C498.583 213.173 508.192 208.091 509.923 203.076C510.25 201.929 510.4 200.739 510.367 199.547C510.656 188.79 510.054 178.028 508.57 167.37C507.571 160.401 507.061 149.394 500.203 145.355Z" fill="#6DE2FC"/>
<path d="M535.528 165.75L600.749 128.024C601.274 127.731 601.866 127.582 602.466 127.591C603.066 127.6 603.654 127.767 604.169 128.075C604.684 128.384 605.109 128.822 605.401 129.347C605.693 129.871 605.841 130.464 605.831 131.064V180.84C605.831 181.801 605.576 182.744 605.093 183.574C604.61 184.405 603.915 185.092 603.08 185.567L538.901 221.917C538.282 222.295 537.574 222.502 536.848 222.516C536.123 222.529 535.407 222.35 534.774 221.995C534.141 221.64 533.614 221.123 533.247 220.497C532.881 219.871 532.687 219.158 532.688 218.433V170.676C532.686 169.678 532.948 168.697 533.447 167.832C533.946 166.967 534.663 166.249 535.528 165.75Z" fill="#6DE2FC"/>
<path d="M500.203 145.355C496.342 143.136 491.327 143.846 486.733 145.355C468.292 151.813 441.64 164.618 441.928 187.52C442.122 199.807 443.354 212.056 445.612 224.136C446.5 228.885 447.232 234.832 450.05 238.916C454.289 245.04 472.952 231.215 476.503 228.907C482.561 224.957 488.442 220.718 494.256 216.391C498.583 213.173 508.192 208.091 509.923 203.076C510.25 201.929 510.4 200.739 510.367 199.547C510.656 188.79 510.054 178.028 508.57 167.37C507.571 160.401 507.061 149.394 500.203 145.355Z" fill="#2C858D"/>
<path d="M643.387 220.785V312.392L649.512 316.719L658.921 310.528V219.009C653.706 219.231 648.535 220.052 643.387 220.785Z" fill="#56403D"/>
<path d="M515.559 302.805V401.913L521.683 406.241L531.093 400.049V301.008L518.244 295.083L515.559 302.805Z" fill="#56403D"/>
<path d="M187.182 317.576L339.481 234.393C340.232 233.975 340.785 233.275 341.02 232.449C341.254 231.622 341.151 230.737 340.733 229.986C340.525 229.615 340.247 229.288 339.914 229.024C339.58 228.76 339.198 228.564 338.788 228.448C337.962 228.213 337.076 228.316 336.326 228.735L184.026 311.918C183.276 312.336 182.723 313.036 182.488 313.862C182.253 314.689 182.357 315.574 182.775 316.325C183.193 317.075 183.893 317.629 184.719 317.863C185.546 318.098 186.431 317.995 187.182 317.576Z" fill="white"/>
<path d="M184.881 297.016L337.18 213.833C337.931 213.415 338.484 212.715 338.719 211.889C338.954 211.062 338.85 210.177 338.432 209.426C338.013 208.676 337.314 208.123 336.488 207.888C335.661 207.653 334.775 207.756 334.025 208.175L181.726 291.358C180.975 291.776 180.422 292.476 180.187 293.302C179.953 294.129 180.056 295.014 180.474 295.765C180.893 296.515 181.592 297.068 182.418 297.303C183.245 297.538 184.131 297.435 184.881 297.016Z" fill="white"/>
<path d="M185.822 275.376L338.122 192.192C338.872 191.774 339.426 191.075 339.66 190.248C339.895 189.422 339.792 188.536 339.373 187.786C338.955 187.035 338.256 186.482 337.429 186.247C336.603 186.013 335.717 186.116 334.967 186.534L182.667 269.717C181.917 270.136 181.363 270.835 181.129 271.662C180.894 272.488 180.997 273.374 181.416 274.124C181.834 274.874 182.533 275.428 183.36 275.663C184.186 275.897 185.072 275.794 185.822 275.376Z" fill="white"/>
<path d="M426.352 247.237L426.418 259.531L432.765 260.552L426.352 247.237Z" fill="#56403D"/>
<path d="M428.745 252.719L520.419 305.979C521.182 306.441 522.057 306.685 522.949 306.685C523.841 306.685 524.716 306.441 525.479 305.979L656.41 223.625C657.132 223.171 657.723 222.534 658.123 221.78C658.523 221.026 658.718 220.179 658.689 219.326C658.66 218.473 658.408 217.642 657.957 216.916C657.506 216.191 656.873 215.597 656.121 215.192L567.11 167.081C566.384 166.677 565.567 166.465 564.736 166.465C563.905 166.465 563.088 166.677 562.361 167.081L428.768 244.197C428.009 244.619 427.376 245.236 426.935 245.983C426.494 246.731 426.26 247.583 426.258 248.451C426.256 249.32 426.485 250.173 426.922 250.923C427.359 251.673 427.989 252.293 428.745 252.719Z" fill="#FFC050"/>
<path d="M535.528 165.75L600.749 128.024C601.274 127.731 601.866 127.582 602.466 127.591C603.066 127.6 603.654 127.767 604.169 128.075C604.684 128.384 605.109 128.822 605.401 129.347C605.693 129.871 605.841 130.464 605.831 131.064V180.84C605.831 181.801 605.576 182.744 605.093 183.574C604.61 184.405 603.915 185.092 603.08 185.567L538.901 221.917C538.282 222.295 537.574 222.502 536.848 222.516C536.123 222.529 535.407 222.35 534.774 221.995C534.141 221.64 533.614 221.123 533.247 220.497C532.881 219.871 532.687 219.158 532.688 218.433V170.676C532.686 169.678 532.948 168.697 533.447 167.832C533.946 166.967 534.663 166.249 535.528 165.75Z" fill="#56403D"/>
<path d="M567.797 197.129V218.433L582.576 210.488V189.561" fill="#56403D"/>
<path d="M574.401 220.503C586.836 214.406 595.74 207.063 594.288 204.103C592.837 201.143 581.58 203.686 569.144 209.783C556.709 215.881 547.806 223.223 549.257 226.183C550.708 229.144 561.966 226.6 574.401 220.503Z" fill="#56403D"/>
<path d="M545.881 272.799C546.018 272.795 547.321 272.23 546.204 271.421C545.458 270.869 544.679 270.364 543.871 269.907" fill="#9A433A"/>
<path d="M364.98 393L236 452.357L281.116 472L382 408.065L364.98 393Z" fill="url(#paint1_linear)"/>
<path d="M545.703 265.957C545.703 265.957 544.715 270.074 545.867 272.217L531.096 281.419L516.49 290.361L516.323 284.014" fill="#FFE8BC"/>
<path d="M546.185 265.276C546.193 265.561 546.166 265.847 546.105 266.134L516.344 284.031L516.511 290.377L546.241 271.985C546.248 272.241 546.254 272.481 546.261 272.738L515.381 291.673L515.154 283.035L546.185 265.276Z" fill="#9A433A"/>
<path d="M546.009 265.383L515.327 284.04L470.933 259.527L500.958 241.247C501.41 240.967 501.929 240.813 502.461 240.799C502.993 240.785 503.519 240.912 503.985 241.167L545.988 264.597C546.061 264.633 546.122 264.688 546.166 264.756C546.21 264.824 546.234 264.903 546.236 264.984C546.238 265.065 546.218 265.145 546.178 265.215C546.138 265.286 546.08 265.344 546.009 265.383Z" fill="#F26250"/>
<path d="M515.377 291.673C515.377 291.673 471.085 267.088 471.082 266.968C471.078 266.849 470.887 259.528 470.887 259.528L515.28 284.041L515.377 291.673Z" fill="#9A433A"/>
<path d="M96.8741 252.423L169.066 211.036C169.807 210.602 170.346 209.892 170.564 209.061C170.782 208.23 170.661 207.346 170.227 206.604C169.794 205.863 169.083 205.324 168.252 205.106C167.421 204.888 166.538 205.009 165.796 205.443L93.6044 246.83C92.8628 247.264 92.3237 247.974 92.1059 248.805C91.888 249.636 92.0092 250.52 92.4428 251.262C92.8764 252.003 93.5869 252.542 94.4179 252.76C95.2489 252.978 96.1325 252.857 96.8741 252.423Z" fill="white"/>
<path d="M96.882 275.834L169.073 234.446C169.815 234.013 170.354 233.302 170.572 232.471C170.79 231.64 170.669 230.757 170.235 230.015C169.801 229.273 169.091 228.734 168.26 228.517C167.429 228.299 166.545 228.42 165.804 228.853L93.6122 270.241C92.8706 270.675 92.3315 271.385 92.1137 272.216C91.8959 273.047 92.017 273.931 92.4506 274.672C92.8842 275.414 93.5947 275.953 94.4257 276.171C95.2567 276.389 96.1403 276.267 96.882 275.834Z" fill="white"/>
<path d="M96.2444 301.121L96.9996 385.699L166.006 345.605L165.265 262.077L96.2444 301.121Z" fill="white"/>
<path d="M183.75 185.849L183.498 249.365L235.702 219.928L235.954 157.201L183.75 185.849Z" fill="white"/>
<path d="M233.762 158.514L234.926 220.355L287.13 190.917L287.382 128.19L233.762 158.514Z" fill="white"/>
<path d="M279.589 132.473L279.63 195.12L331.834 165.683L332.085 102.956L279.589 132.473Z" fill="white"/>
<path d="M374.752 393.565C374.752 393.565 361.492 387.669 358.292 387.428C355.092 387.187 349.767 388.283 354.413 394.135C354.413 394.135 368.352 403.252 370.193 403.537C372.034 403.822 376.506 402.419 376.615 402.901C376.725 403.384 377.141 406.912 377.141 406.912C377.141 406.912 388.801 411.296 389.305 403.559C389.305 402.551 387.618 388.064 387.618 388.064" fill="#42210B"/>
<path d="M389.962 359.396C387.661 344.404 383.387 329.873 381.678 314.707C380.582 305.173 379.793 295.573 378.609 286.039C377.426 276.505 373.875 267.278 371.596 257.831C371.537 257.612 371.552 257.379 371.639 257.169C371.726 256.958 371.881 256.783 372.078 256.67C372.078 256.341 371.881 256.012 371.771 255.684C370.588 254.566 369.382 253.492 368.22 252.484L351.914 263.442C351.914 263.442 351.914 273.415 352.528 287.902C354.413 296.34 355.859 303.858 358.007 311.857C357.78 312.114 357.616 312.42 357.528 312.751C357.441 313.082 357.432 313.429 357.503 313.764C362.806 338.948 366.67 364.413 369.075 390.036C369.106 390.46 369.258 390.866 369.515 391.204C369.772 391.543 370.122 391.799 370.522 391.943L370.982 395.888C385.162 401.367 388.275 391.833 388.275 391.833C388.275 391.833 388.91 383.702 389.721 372.436C389.984 367.987 390.05 363.713 389.962 359.396Z" fill="#3363A8"/>
<path d="M296.201 215.904L295.85 216.101C295.978 215.844 296.043 215.561 296.04 215.274C296.037 214.988 295.967 214.706 295.834 214.451C295.702 214.197 295.511 213.978 295.278 213.811C295.044 213.645 294.775 213.536 294.491 213.493C293.659 213.383 292.826 213.339 291.993 213.23C291.913 213.148 291.825 213.074 291.73 213.011C291.425 212.83 291.102 212.683 290.765 212.572C290.584 212.386 290.358 212.248 290.109 212.172C289.86 212.095 289.596 212.082 289.341 212.134H288.727C288.026 212.134 287.303 212.134 286.535 212.134H283.993C283.878 211.922 283.722 211.736 283.533 211.586C279.387 208.219 275.49 204.557 271.873 200.628C270.58 199.334 267.972 200.759 269.024 202.512C270.083 204.527 271.323 206.442 272.728 208.233C268.344 205.274 266.306 204.836 262.251 201.526C260.542 200.123 258.635 202.995 260.344 204.397C261.374 205.23 265.188 207.159 266.24 207.97C264.333 206.808 259.665 204.551 257.714 203.411C255.764 202.271 253.879 205.142 255.807 206.282C258.876 208.079 261.9 209.942 264.925 211.827C262.339 210.863 259.796 209.811 257.298 208.649C255.282 207.707 254.186 210.972 256.18 211.915C259.051 213.252 261.988 214.435 264.947 215.509C263.199 215.487 261.455 215.333 259.731 215.049C257.539 214.655 257.298 218.096 259.468 218.49C261.265 218.819 263.062 219.016 264.881 219.213L267.599 219.52C268.659 219.596 269.701 219.832 270.689 220.222C274.398 221.621 278.302 222.435 282.262 222.632L283.051 222.917C283.295 223.017 283.561 223.052 283.822 223.017C284.083 222.982 284.331 222.88 284.541 222.72C289.182 222.722 293.733 221.44 297.691 219.016C299.576 217.833 298.086 214.742 296.201 215.904Z" fill="#FCBF81"/>
<path d="M324.942 189.67C325.139 188.968 314.816 189.67 313.983 189.67C308.491 189.653 303.003 189.339 297.545 188.727C297.38 188.686 297.206 188.686 297.041 188.727C296.001 188.598 294.955 188.532 293.907 188.53C293.655 188.537 293.411 188.622 293.209 188.773C293.007 188.923 292.856 189.133 292.777 189.372C292.698 189.612 292.694 189.87 292.767 190.111C292.84 190.353 292.985 190.566 293.184 190.722C295.474 192.357 298.196 193.279 301.008 193.374C301.249 194.228 301.49 195.171 301.819 196.048C301.918 196.01 302.026 196.005 302.129 196.032C302.231 196.06 302.322 196.119 302.389 196.201C302.656 196.535 302.864 196.914 303.003 197.319C303.133 197.573 303.222 197.847 303.266 198.13C303.301 198.244 303.301 198.366 303.266 198.48C303.677 198.885 304.174 199.192 304.721 199.378C305.267 199.564 305.849 199.624 306.422 199.554C307.078 200.566 308.085 201.3 309.249 201.615H309.424H309.6C311.168 200.809 312.795 200.12 314.465 199.554C314.552 199.536 314.641 199.538 314.726 199.562C314.811 199.585 314.89 199.629 314.954 199.69C315.019 199.75 315.068 199.825 315.097 199.908C315.127 199.991 315.135 200.081 315.123 200.168C316.218 199.501 317.272 198.769 318.279 197.976C318.395 197.892 318.492 197.783 318.564 197.659C318.635 197.534 318.68 197.396 318.695 197.253L319.331 197.1C319.537 197.049 319.727 196.946 319.882 196.802C320.038 196.657 320.154 196.476 320.219 196.274C320.285 196.072 320.299 195.857 320.258 195.649C320.218 195.44 320.125 195.246 319.988 195.083C319.894 194.972 319.783 194.876 319.66 194.798H320.317C320.457 194.957 320.63 195.081 320.824 195.163C321.018 195.245 321.229 195.282 321.439 195.272C321.65 195.261 321.856 195.203 322.041 195.102C322.226 195.001 322.386 194.86 322.509 194.689C322.751 194.426 322.885 194.082 322.885 193.724C322.885 193.367 322.751 193.023 322.509 192.76C322.375 192.625 322.22 192.514 322.049 192.431H323.758C323.826 192.435 323.893 192.418 323.95 192.382C324.008 192.346 324.053 192.293 324.079 192.231C324.105 192.169 324.112 192.1 324.098 192.034C324.083 191.967 324.049 191.907 323.999 191.861C324.013 191.811 324.013 191.758 323.999 191.708C324.954 191.724 325.907 191.812 326.848 191.971C337.697 191.642 325.314 189.714 324.942 189.67ZM321.829 194.053C321.725 194.216 321.564 194.333 321.377 194.382C321.19 194.431 320.991 194.407 320.821 194.316C320.954 194.19 321.058 194.036 321.126 193.866C321.194 193.696 321.225 193.513 321.216 193.33C321.262 193.32 321.306 193.301 321.345 193.272C321.383 193.244 321.414 193.208 321.437 193.166C321.46 193.125 321.474 193.079 321.477 193.031C321.481 192.984 321.474 192.936 321.457 192.892C321.579 192.927 321.69 192.993 321.78 193.083C321.871 193.172 321.937 193.283 321.974 193.405C322.011 193.526 322.017 193.655 321.992 193.78C321.967 193.905 321.911 194.021 321.829 194.119V194.053Z" fill="#FCBF81"/>
<path d="M323.881 190.941C322.307 191.503 320.642 191.763 318.972 191.708C318.629 191.684 318.286 191.729 317.962 191.841C317.637 191.952 317.338 192.128 317.083 192.356C316.828 192.585 316.621 192.863 316.474 193.173C316.328 193.484 316.246 193.82 316.232 194.163C315.612 193.883 315.011 193.56 314.435 193.198C311.498 191.401 308.561 195.916 311.52 197.735C313.749 199.292 316.406 200.119 319.125 200.102C321.742 199.829 324.289 199.087 326.643 197.911C327.084 196.329 327.225 194.679 327.059 193.045C326.911 192.348 326.495 191.736 325.901 191.343C325.306 190.949 324.581 190.805 323.881 190.941Z" fill="#FCBF81"/>
<path d="M320.711 198.721C318.873 199.6 316.801 199.862 314.802 199.467C312.803 199.072 310.986 198.042 309.621 196.529C309.592 196.494 309.555 196.466 309.513 196.447C309.471 196.428 309.426 196.419 309.38 196.42L305.72 196.244C305.172 196.244 304.624 196.244 304.076 196.244C303.155 196.113 300.109 194.732 302.542 193.461C303.759 193.206 305.007 193.133 306.246 193.242C307.451 193.242 308.657 193.242 309.862 193.242C310.3 193.242 310.322 192.562 309.862 192.562C307.67 192.562 305.479 192.562 303.177 192.76C302.147 192.76 300.986 192.891 300.986 194.14C300.944 194.592 301.045 195.046 301.272 195.438C301.5 195.831 301.844 196.143 302.257 196.332C302.695 197.121 302.761 198.195 303.462 198.809C304.256 199.326 305.189 199.587 306.136 199.554H306.728C306.708 199.618 306.708 199.687 306.728 199.751C307.407 200.628 307.977 201.833 309.248 201.702C309.76 201.618 310.255 201.455 310.717 201.22L313.084 200.189C313.125 200.173 313.162 200.148 313.192 200.117C313.223 200.085 313.246 200.047 313.261 200.005C313.275 199.964 313.281 199.92 313.277 199.876C313.273 199.832 313.259 199.789 313.237 199.751C315.81 200.574 318.597 200.418 321.062 199.313C321.412 199.225 321.106 198.568 320.711 198.721ZM305.15 198.721C304.747 198.708 304.358 198.576 304.03 198.342C303.702 198.108 303.451 197.782 303.309 197.406C303.199 197.143 303.112 196.88 303.024 196.639C305.065 197.044 307.148 197.199 309.226 197.099L309.38 197.274C309.318 197.293 309.264 197.33 309.224 197.381C309.185 197.433 309.163 197.495 309.161 197.559C309.073 199.225 306.246 198.962 305.106 198.787L305.15 198.721ZM309.862 200.803C309.603 200.949 309.303 201.008 309.008 200.973C308.712 200.937 308.436 200.809 308.218 200.606C307.891 200.262 307.597 199.888 307.342 199.488C308.525 199.488 309.687 198.962 309.818 197.691C310.668 198.479 311.656 199.103 312.733 199.532C311.681 200.014 310.826 200.474 309.862 200.869V200.803Z" fill="#34323D"/>
<path d="M360.153 186.228C358.312 185.593 317.831 190.502 314.543 189.735C314.542 193.399 315.646 196.977 317.71 200.003C319.775 203.03 322.704 205.363 326.115 206.699C326.115 206.699 355.638 212.66 364.887 207.97" fill="#3363A8"/>
<path d="M345.733 415.373L337.843 418.2C337.606 418.915 337.189 419.556 336.633 420.063C336.076 420.57 335.398 420.925 334.665 421.093C334.388 421.426 333.997 421.645 333.569 421.707C330.374 421.936 327.17 421.418 324.21 420.195C320.44 419.011 305.712 413.379 309.789 423.943C312.484 425.828 315.487 427.471 318.227 429.137C319.783 430.079 321.317 431.022 322.917 431.899C323.762 432.471 324.695 432.9 325.679 433.17C327.87 433.499 332.933 431.899 333.065 432.447C333.196 432.994 333.678 437.049 333.678 437.049C333.678 437.049 347.092 442.178 347.683 433.192C347.749 432.008 345.733 415.373 345.733 415.373Z" fill="#42210B"/>
<path d="M356.806 334.762C358.45 308.264 359.348 281.591 364.959 255.553C365.2 248.781 369.584 253.098 369.343 250.424C366.954 228.617 335.196 254.567 335.196 254.567C333.903 255.619 333.749 262.304 333.486 263.816C332.025 272.188 330.798 280.59 329.804 289.021C324.544 331.584 326.495 373.95 328.642 416.644C335.393 423.548 339.798 425.609 350.669 421.159C352.861 393.215 354.899 365.271 356.696 337.282L356.806 334.762Z" fill="#3363A8"/>
<path d="M373.572 233C373.572 220 372.911 210.5 372 197.5C371.759 194.059 367.941 182.494 364.5 180.5C356.939 176.117 352.969 180.727 346.591 185.417C338.088 191.686 326.522 283.166 326.5 297.5C338.204 302.125 368.533 297.953 380.5 293C381.552 292.562 375.347 259.775 375.5 258C375.5 253 373.572 237.5 373.572 233Z" fill="#3363A8"/>
<path d="M350.579 215.531C350.22 219.656 348.601 223.571 345.944 226.747C343.286 229.922 339.717 232.204 335.719 233.284C335.719 234.095 335.456 239.136 335.391 239.859C344.947 237.668 351.982 225.591 352.924 215.444C353.122 213.997 350.711 213.997 350.579 215.531Z" fill="#34323D"/>
<path d="M343.304 161.966C342.559 162.316 338.92 178.645 343.172 187.346C347.424 196.047 361.276 183.642 363.862 175.927C366.448 168.212 357.331 155.39 343.304 161.966Z" fill="#FCBF81"/>
<path d="M343.916 164.026C344.191 165.427 344.868 166.718 345.864 167.742C346.861 168.765 348.133 169.477 349.526 169.79C354.195 170.579 358.008 170.974 358.162 173.034C358.315 175.094 350.228 174.239 351.082 178.864C351.667 181.973 352.67 184.988 354.063 187.828C354.962 190.02 366.731 180.595 368.813 167.949C370.896 155.303 359.499 154.229 358.951 154.229C356.916 152.216 354.185 151.063 351.324 151.007C345.8 150.854 344.748 153.199 344.748 153.199C343.406 152.706 341.939 152.663 340.571 153.079C339.203 153.494 338.007 154.344 337.165 155.5C333.023 160.3 335.609 167.138 341.658 168.979L343.916 164.026Z" fill="#56403D"/>
<path d="M350.602 193.681C350.602 193.681 323.184 209.395 313.343 209.395C303.777 208.828 294.258 207.627 284.851 205.801C278.056 211.565 277.618 221.625 281.826 229.34C293.793 231.291 329.255 236.397 340.389 230.874C353.846 224.299 368.662 215.269 368.662 215.269C368.662 215.269 381.966 202.141 350.602 193.681Z" fill="#3363A8"/>
<path d="M470.369 448L463.754 444.774V441.428L471.254 439.25" fill="#665265"/>
<path d="M463.754 570.5H461.254V439.25H463.754V570.5Z" fill="#42210B"/>
<path d="M463.594 508.878L437.52 562.288C436.73 563.902 434.374 562.486 435.163 560.872L461.238 507.462C462.028 505.848 464.384 507.264 463.594 508.878Z" fill="#42210B"/>
<path d="M463.712 508.469L441.458 603.252C441.053 605.002 438.391 604.257 438.796 602.507L461.05 507.748C461.455 505.998 464.117 506.743 463.712 508.493V508.469Z" fill="#42210B"/>
<path d="M463.799 507.323L499.905 567.314C500.03 567.632 500.037 567.985 499.923 568.307C499.809 568.629 499.583 568.899 499.286 569.067C498.989 569.235 498.642 569.29 498.308 569.221C497.974 569.152 497.677 568.964 497.47 568.692L461.364 508.713C461.23 508.394 461.218 508.037 461.329 507.71C461.44 507.382 461.667 507.107 461.967 506.935C462.267 506.764 462.619 506.709 462.956 506.781C463.294 506.852 463.593 507.045 463.799 507.323Z" fill="#42210B"/>
<path d="M470.004 441.584V448L480.004 442.354V426.75" fill="#42210B"/>
<path d="M434.409 421.195C431.975 420.742 430.495 417.731 431.105 414.469C431.714 411.207 434.181 408.93 436.616 409.383C439.05 409.835 440.53 412.847 439.92 416.109C439.311 419.371 436.844 421.648 434.409 421.195Z" fill="#42210B"/>
<path d="M435.004 421.716C435.553 421.761 436.104 421.761 436.653 421.716C437.061 421.701 437.462 421.599 437.833 421.416C438.203 421.234 438.536 420.974 438.812 420.652C439.168 420.36 439.488 419.499 439.844 419.207L443.996 421.742L445.004 416.026L440.472 415.088L438.646 410.5" fill="#42210B"/>
<path d="M466.324 444.25L480.004 436.363V416.75L466.254 425.025L466.324 444.25Z" fill="#42210B"/>
<path d="M466.254 417.677L441.254 410.5V431.164L466.254 444.25V417.677Z" fill="#5E3A26"/>
<path d="M480.004 417.234L454.502 403L441.254 411.116L465.415 425.5L480.004 417.234Z" fill="#5E3A26"/>
<path d="M472.504 424.202V445.5L478.754 441.575V420.5L472.504 424.202Z" fill="#5E3A26"/>
<path d="M435.44 421.602C433.006 421.149 431.527 418.137 432.136 414.876C432.745 411.614 435.213 409.336 437.647 409.789C440.081 410.242 441.561 413.254 440.951 416.516C440.342 419.778 437.875 422.055 435.44 421.602Z" fill="#42210B"/>
<path d="M462.504 496.75C459.742 496.75 457.504 496.19 457.504 495.5C457.504 494.81 459.742 494.25 462.504 494.25C465.265 494.25 467.504 494.81 467.504 495.5C467.504 496.19 465.265 496.75 462.504 496.75Z" fill="#42210B"/>
<path d="M462.504 508C459.742 508 457.504 507.44 457.504 506.75C457.504 506.06 459.742 505.5 462.504 505.5C465.265 505.5 467.504 506.06 467.504 506.75C467.504 507.44 465.265 508 462.504 508Z" fill="#42210B"/>
<path d="M467.504 495.5V506.75H457.504V495.5" fill="#42210B"/>
<path d="M363.691 180L365.191 181L366.052 181.865C366.052 181.865 360.555 186.365 360.053 186.865C359.473 186.805 358.055 187.865 358.055 187.865C358.055 187.865 353.372 188.795 353.052 188.365C352.732 187.935 358.553 184.365 358.553 184.365L363.691 180Z" fill="#CACCCC"/>
<path d="M356.274 172.102L347.202 172.884C345.641 172.93 345.604 173.59 347.164 173.544L358.561 172.438C360.059 172.395 358.02 172.072 356.274 172.102Z" fill="#333333"/>
<path d="M341.34 171L346 173.246C346 173.246 346 178.82 342.95 177.897C339.899 176.973 341.34 171 341.34 171Z" stroke="#333333" stroke-width="1.18189" stroke-miterlimit="10"/>
<defs>
<linearGradient id="paint0_linear" x1="83446.4" y1="20376.6" x2="66086.9" y2="34325.1" gradientUnits="userSpaceOnUse">
<stop stop-color="#00C1A5"/>
<stop offset="0.99" stop-color="#7CE0C3"/>
</linearGradient>
<linearGradient id="paint1_linear" x1="390.335" y1="374.567" x2="312.035" y2="451.921" gradientUnits="userSpaceOnUse">
<stop stop-color="#00C1A5"/>
<stop offset="0.99" stop-color="#7CE0C3"/>
</linearGradient>
</defs>
</svg>
