<svg width="34" height="35" viewBox="0 0 34 35" fill="none" xmlns="http://www.w3.org/2000/svg">
<path d="M6.2082 0.967041C2.76913 0.967041 0 3.73617 0 7.17522V28.7588C0 32.1979 2.76913 34.967 6.2082 34.967H17.9063V21.6751H14.3916V16.8897H17.9063V12.8012C17.9063 9.58902 19.983 6.63973 24.7669 6.63973C26.7038 6.63973 28.1361 6.82567 28.1361 6.82567L28.0234 11.2946C28.0234 11.2946 26.5627 11.2808 24.9688 11.2808C23.2436 11.2808 22.967 12.0756 22.967 13.3951V16.8897H28.1605L27.9342 21.6752H22.967V34.967H27.7918C31.2309 34.967 34 32.1979 34 28.7589V7.17526C34 3.7362 31.2309 0.967075 27.7918 0.967075H6.20816L6.2082 0.967041Z" fill="#DDE3E2"/>
</svg>
