<svg width="472" height="354" viewBox="0 0 472 354" fill="none" xmlns="http://www.w3.org/2000/svg">
<path d="M262.928 69.2778L447.516 176.658C449.298 177.709 450.773 179.21 451.793 181.011C452.812 182.812 453.34 184.849 453.323 186.918C453.306 188.988 452.746 191.016 451.697 192.8C450.649 194.585 449.15 196.062 447.351 197.084L221.392 323.532C218.662 325.061 215.591 325.876 212.462 325.903C209.333 325.93 206.248 325.167 203.492 323.686L29.8785 230.312C27.6715 229.114 25.8231 227.35 24.5227 225.201C23.2222 223.053 22.5167 220.597 22.4782 218.086C22.4398 215.575 23.0699 213.099 24.304 210.911C25.538 208.724 27.3316 206.904 29.5009 205.639L262.928 69.2778Z" fill="#AAACF9"/>
<path d="M188.624 144.302L199.904 149.73C200.328 149.935 200.688 150.252 200.945 150.646C201.203 151.04 201.349 151.496 201.367 151.966C201.385 152.437 201.275 152.903 201.049 153.316C200.822 153.728 200.488 154.071 200.081 154.309L173.343 169.92C172.76 170.272 172.063 170.382 171.401 170.225C170.739 170.068 170.165 169.658 169.803 169.082L163.301 158.981" fill="#56403D"/>
<path d="M132.49 115.074L222.465 63.248C223.084 62.8906 223.786 62.703 224.501 62.7041C225.215 62.7052 225.917 62.8949 226.535 63.2541C227.153 63.6133 227.665 64.1292 228.019 64.7497C228.374 65.3702 228.558 66.0733 228.554 66.788V120.714C228.554 121.307 228.399 121.89 228.103 122.403C227.806 122.917 227.38 123.344 226.866 123.64L130.98 178.959C130.649 179.153 130.272 179.255 129.889 179.257C129.505 179.258 129.128 179.157 128.796 178.965C128.464 178.774 128.189 178.497 127.998 178.164C127.807 177.832 127.708 177.454 127.711 177.071V123.381C127.708 121.698 128.148 120.045 128.987 118.587C129.826 117.128 131.034 115.917 132.49 115.074Z" fill="#68E1FD"/>
<path d="M222.45 67.3189L135.213 117.516C134.28 118.051 133.506 118.823 132.967 119.753C132.429 120.684 132.145 121.739 132.145 122.814V163.241C132.145 163.628 132.247 164.007 132.44 164.342C132.634 164.677 132.912 164.955 133.246 165.148C133.581 165.342 133.96 165.444 134.347 165.445C134.733 165.446 135.113 165.345 135.449 165.153L224.421 114.094C224.753 113.903 225.03 113.629 225.222 113.297C225.415 112.966 225.517 112.589 225.518 112.206V69.1007C225.517 68.7417 225.423 68.3891 225.243 68.0781C225.064 67.7671 224.806 67.5085 224.496 67.3282C224.185 67.148 223.833 67.0522 223.474 67.0506C223.115 67.0489 222.762 67.1414 222.45 67.3189Z" fill="white"/>
<path d="M188.009 141.77C188.236 140.592 187.584 139.477 186.554 139.278C185.524 139.08 184.504 139.874 184.278 141.051C184.051 142.229 184.702 143.344 185.733 143.542C186.763 143.741 187.782 142.947 188.009 141.77Z" fill="#AB643C"/>
<path d="M138.768 119.782C139.296 119.782 139.724 119.322 139.724 118.755C139.724 118.188 139.296 117.729 138.768 117.729C138.24 117.729 137.812 118.188 137.812 118.755C137.812 119.322 138.24 119.782 138.768 119.782Z" fill="#659FE4"/>
<path d="M141.8 118.271C142.327 118.271 142.755 117.812 142.755 117.245C142.755 116.678 142.327 116.218 141.8 116.218C141.272 116.218 140.844 116.678 140.844 117.245C140.844 117.812 141.272 118.271 141.8 118.271Z" fill="#C5E9FF"/>
<path opacity="0.32" d="M264.131 86.9304L216.766 115.38L239.858 128.986L284.793 102.86C276.887 97.5032 270.975 93.5384 264.131 86.9304Z" fill="url(#paint0_linear)"/>
<path opacity="0.32" d="M306.196 176.386L248.223 204.411L313.016 248.661L357.951 222.536C350.045 217.179 313.028 182.994 306.196 176.386Z" fill="url(#paint1_linear)"/>
<path d="M295.53 138.709C282.267 134.945 265.086 143.795 253.451 149.116C236.211 157.217 219.476 166.351 203.337 176.469C189.826 184.729 180.445 193.166 177.117 209.355C176.539 216.565 176.232 223.775 177.117 225.875C178.934 230.595 231.267 277.111 257.428 279.66C283.589 282.209 247.764 218.607 250.961 213.521C254.159 208.435 282.822 192.446 287.223 193.897C291.624 195.349 350.86 230.206 355.545 222.973C370.519 199.75 322.422 146.32 295.53 138.709Z" fill="#68E1FD"/>
<path d="M358.104 208.919C358.104 208.919 356.075 219.716 346.67 217.757C337.265 215.799 295.222 182.298 287.304 184.198C279.386 186.098 248.223 204.412 248.223 204.412L251.031 216.79L289.853 197.06C289.853 197.06 334.693 226.855 349.832 225.852C364.972 224.849 358.104 208.919 358.104 208.919Z" fill="#68E1FD"/>
<path d="M261.51 271.837C257.581 271.542 253.864 269.831 250.418 268.013C245.958 265.653 241.533 263.199 237.131 260.745C227.629 255.488 218.505 249.573 209.826 243.045C202.97 237.853 195.938 232.838 189.235 227.445C184.574 223.693 179.972 219.527 176.739 214.465C176.444 219.716 176.409 224.271 177.046 225.911C178.863 230.631 231.196 277.147 257.357 279.695C264.024 280.344 266.655 276.698 266.95 270.822C265.26 271.641 263.382 271.992 261.51 271.837Z" fill="#68E1FD"/>
<path opacity="0.52" d="M358.104 208.919C358.104 208.919 356.075 219.716 346.67 217.757C337.265 215.799 295.222 182.298 287.304 184.198C279.386 186.098 248.223 204.412 248.223 204.412L251.031 216.79L289.853 197.06C289.853 197.06 334.693 226.855 349.832 225.852C364.972 224.849 358.104 208.919 358.104 208.919Z" fill="#505A63"/>
<path opacity="0.52" d="M261.51 271.837C257.581 271.542 253.864 269.831 250.418 268.013C245.958 265.653 241.533 263.199 237.131 260.745C227.629 255.488 218.505 249.573 209.826 243.045C202.97 237.853 195.938 232.838 189.235 227.445C184.574 223.693 179.972 219.527 176.739 214.465C176.444 219.716 176.409 224.271 177.046 225.911C178.863 230.631 231.196 277.147 257.357 279.695C264.024 280.344 266.655 276.698 266.95 270.822C265.26 271.641 263.382 271.992 261.51 271.837Z" fill="#505A63"/>
<path d="M290.684 172.976C301.711 172.976 310.65 166.494 310.65 158.498C310.65 150.501 301.711 144.019 290.684 144.019C279.658 144.019 270.719 150.501 270.719 158.498C270.719 166.494 279.658 172.976 290.684 172.976Z" fill="#505A63"/>
<path d="M213.215 220.176C225.095 220.176 234.726 213.197 234.726 204.588C234.726 195.979 225.095 189 213.215 189C201.334 189 191.703 195.979 191.703 204.588C191.703 213.197 201.334 220.176 213.215 220.176Z" fill="#505A63"/>
<path d="M248.223 196.517C253.926 196.517 258.548 193.918 258.548 190.712C258.548 187.505 253.926 184.906 248.223 184.906C242.521 184.906 237.898 187.505 237.898 190.712C237.898 193.918 242.521 196.517 248.223 196.517Z" fill="#757575"/>
<path d="M238.859 193.142C238.859 193.142 240.877 188.706 244.122 188.234C247.367 187.762 253.81 186.688 256.182 188.694C258.554 190.7 258.365 191.785 258.365 191.785C257.411 193.234 256.113 194.423 254.587 195.246C253.061 196.07 251.355 196.503 249.621 196.505C243.273 196.824 239.603 194.429 238.859 193.142Z" fill="#494949"/>
<path d="M248.604 193.886C252.227 193.886 255.165 191.699 255.165 189.001C255.165 186.303 252.227 184.115 248.604 184.115C244.98 184.115 242.043 186.303 242.043 189.001C242.043 191.699 244.98 193.886 248.604 193.886Z" fill="#090502"/>
<path d="M248.224 190.298C252.401 190.298 255.788 187.884 255.788 184.906C255.788 181.928 252.401 179.513 248.224 179.513C244.047 179.513 240.66 181.928 240.66 184.906C240.66 187.884 244.047 190.298 248.224 190.298Z" fill="#757575"/>
<path d="M240.719 185.154C240.908 188.021 244.259 190.298 248.271 190.298C252.283 190.298 255.835 187.938 255.835 184.906C255.825 184.504 255.753 184.106 255.622 183.726C252.259 187.761 245.781 187.183 240.719 185.154Z" fill="#494949"/>
<path d="M268.876 187.998C274.578 187.998 279.201 185.398 279.201 182.192C279.201 178.986 274.578 176.386 268.876 176.386C263.173 176.386 258.551 178.986 258.551 182.192C258.551 185.398 263.173 187.998 268.876 187.998Z" fill="#757575"/>
<path d="M259.508 184.635C259.508 184.635 261.526 180.198 264.771 179.726C268.016 179.254 274.458 178.18 276.83 180.186C279.202 182.192 279.013 183.278 279.013 183.278C278.059 184.726 276.762 185.915 275.236 186.739C273.71 187.562 272.003 187.995 270.269 187.998C263.921 188.304 260.251 185.909 259.508 184.635Z" fill="#494949"/>
<path d="M269.252 185.366C272.876 185.366 275.813 183.179 275.813 180.481C275.813 177.783 272.876 175.596 269.252 175.596C265.629 175.596 262.691 177.783 262.691 180.481C262.691 183.179 265.629 185.366 269.252 185.366Z" fill="#090502"/>
<path d="M268.872 181.779C273.05 181.779 276.436 179.364 276.436 176.386C276.436 173.408 273.05 170.994 268.872 170.994C264.695 170.994 261.309 173.408 261.309 176.386C261.309 179.364 264.695 181.779 268.872 181.779Z" fill="#757575"/>
<path d="M261.309 176.646C261.497 179.513 264.849 181.791 268.861 181.791C272.873 181.791 276.424 179.431 276.424 176.398C276.414 175.996 276.343 175.598 276.212 175.218C272.908 179.242 266.43 178.676 261.309 176.646Z" fill="#494949"/>
<path d="M226.392 175.065L234.062 170.569C234.486 170.313 234.971 170.177 235.466 170.177C235.961 170.177 236.447 170.313 236.87 170.569L236.977 170.628C237.373 170.877 237.697 171.225 237.919 171.637C238.141 172.049 238.253 172.511 238.243 172.979C238.234 173.447 238.103 173.905 237.865 174.307C237.626 174.71 237.288 175.044 236.882 175.277L229.106 179.714C228.677 179.957 228.191 180.079 227.698 180.067C227.205 180.054 226.725 179.908 226.309 179.643C225.929 179.391 225.618 179.047 225.405 178.643C225.193 178.239 225.086 177.788 225.094 177.331C225.102 176.875 225.226 176.428 225.453 176.032C225.679 175.636 226.003 175.303 226.392 175.065Z" fill="#505A63"/>
<path d="M245.513 163.701L253.183 159.205C253.607 158.949 254.092 158.814 254.587 158.814C255.082 158.814 255.568 158.949 255.991 159.205L256.098 159.264C256.494 159.514 256.818 159.862 257.04 160.274C257.262 160.686 257.374 161.148 257.364 161.616C257.355 162.084 257.224 162.541 256.986 162.944C256.748 163.346 256.409 163.68 256.003 163.914L248.227 168.35C247.798 168.594 247.312 168.716 246.819 168.703C246.326 168.691 245.846 168.544 245.431 168.28C245.05 168.028 244.739 167.684 244.527 167.28C244.314 166.875 244.207 166.424 244.215 165.968C244.224 165.511 244.347 165.064 244.574 164.668C244.8 164.272 245.124 163.939 245.513 163.701Z" fill="#505A63"/>
<path d="M276.227 163.359C276.675 163.43 285.501 168.409 285.501 168.409L306.328 155.76L296.888 150.037L276.227 163.335" fill="#090502"/>
<path d="M277.23 156.114L296.512 167.336C296.512 167.336 304.878 161.99 304.654 161.731C304.429 161.471 285.774 151.111 285.774 151.111L277.23 156.114Z" fill="#090502"/>
<path d="M277.23 154.202V156.114L280.133 155.524L277.23 154.202Z" fill="#090502"/>
<path d="M306.329 153.86V155.784L303.969 155.3L306.329 153.86Z" fill="#090502"/>
<path d="M304.652 159.807V161.719L303.413 162.557L303.012 161.188L304.652 159.807Z" fill="#090502"/>
<path d="M276.227 163.371V161.448L278.917 161.825L277.749 162.876L276.227 163.371Z" fill="#090502"/>
<path d="M276.227 161.448C276.675 161.518 285.501 166.498 285.501 166.498L306.328 153.86L296.888 148.137L276.227 161.436" fill="#757575"/>
<path d="M277.23 154.202L296.512 165.424C296.512 165.424 304.878 160.079 304.654 159.819C304.429 159.56 285.774 149.199 285.774 149.199L277.23 154.202Z" fill="#757575"/>
<path d="M204.803 213.934C207.448 213.934 209.593 212.661 209.593 211.09C209.593 209.52 207.448 208.246 204.803 208.246C202.157 208.246 200.012 209.52 200.012 211.09C200.012 212.661 202.157 213.934 204.803 213.934Z" fill="#C6172B"/>
<path d="M200.012 211.09V207.633H209.593V211.09" fill="#C6172B"/>
<path d="M204.803 210.477C207.448 210.477 209.593 209.203 209.593 207.633C209.593 206.062 207.448 204.789 204.803 204.789C202.157 204.789 200.012 206.062 200.012 207.633C200.012 209.203 202.157 210.477 204.803 210.477Z" fill="#F62435"/>
<path d="M206.154 203.031C208.8 203.031 210.945 201.758 210.945 200.187C210.945 198.616 208.8 197.343 206.154 197.343C203.508 197.343 201.363 198.616 201.363 200.187C201.363 201.758 203.508 203.031 206.154 203.031Z" fill="#D38A09"/>
<path d="M201.363 200.187V196.729H210.945V200.187" fill="#D38A09"/>
<path d="M206.154 199.573C208.8 199.573 210.945 198.3 210.945 196.73C210.945 195.159 208.8 193.886 206.154 193.886C203.508 193.886 201.363 195.159 201.363 196.73C201.363 198.3 203.508 199.573 206.154 199.573Z" fill="#F4BD21"/>
<path d="M220.92 203.031C223.566 203.031 225.711 201.758 225.711 200.187C225.711 198.616 223.566 197.343 220.92 197.343C218.274 197.343 216.129 198.616 216.129 200.187C216.129 201.758 218.274 203.031 220.92 203.031Z" fill="#0071BC"/>
<path d="M216.129 200.187V196.729H225.711V200.187" fill="#0071BC"/>
<path d="M220.92 199.573C223.566 199.573 225.711 198.3 225.711 196.73C225.711 195.159 223.566 193.886 220.92 193.886C218.274 193.886 216.129 195.159 216.129 196.73C216.129 198.3 218.274 199.573 220.92 199.573Z" fill="#29ABE2"/>
<path d="M219.361 212.825C222.007 212.825 224.152 211.552 224.152 209.981C224.152 208.41 222.007 207.137 219.361 207.137C216.715 207.137 214.57 208.41 214.57 209.981C214.57 211.552 216.715 212.825 219.361 212.825Z" fill="#39B54A"/>
<path d="M214.57 209.981V206.512H224.152V209.981" fill="#39B54A"/>
<path d="M219.361 209.356C222.007 209.356 224.152 208.083 224.152 206.512C224.152 204.941 222.007 203.668 219.361 203.668C216.715 203.668 214.57 204.941 214.57 206.512C214.57 208.083 216.715 209.356 219.361 209.356Z" fill="#3AD84A"/>
<path d="M268.83 108.253C279.342 108.253 287.864 102.252 287.864 94.8484C287.864 87.4451 279.342 81.4436 268.83 81.4436C258.318 81.4436 249.797 87.4451 249.797 94.8484C249.797 102.252 258.318 108.253 268.83 108.253Z" fill="#68E1FD"/>
<path d="M268.84 92.7716C276.713 92.7716 283.095 90.1565 283.095 86.9306C283.095 83.7047 276.713 81.0896 268.84 81.0896C260.968 81.0896 254.586 83.7047 254.586 86.9306C254.586 90.1565 260.968 92.7716 268.84 92.7716Z" fill="#974C26"/>
<path d="M269.793 87.0721C270.973 85.5027 272.035 83.8507 273.215 81.9981C274.725 79.6381 276.141 77.2191 277.428 74.7293C278.633 72.5166 279.663 70.2124 280.507 67.8381C281.446 65.2638 282.199 62.6257 282.761 59.9439C282.903 59.2359 283.033 58.5279 283.151 57.8199C283.151 57.4895 283.21 57.5249 283.21 57.5721C283.21 57.6193 283.21 57.3479 283.21 56.9585C283.339 55.5189 283.434 54.0793 283.446 52.6279C283.513 47.6273 282.549 42.6664 280.614 38.0549C275.467 45.5194 271.997 54.009 270.442 62.9411C270.34 63.4761 270.245 64.011 270.159 64.5459C270.159 64.5459 270.017 65.5253 269.958 65.9147L269.852 67.2599C269.781 67.9365 269.718 68.6169 269.663 69.3013C269.451 71.9209 269.356 74.5641 269.368 77.1955C269.368 80.4877 269.533 83.7799 269.793 87.0721ZM275.858 47.7309C276.204 47.3376 276.558 46.9443 276.92 46.5509C276.821 46.8838 276.797 47.2343 276.849 47.5775C276.513 47.5774 276.179 47.6291 275.858 47.7309Z" fill="#999A1C"/>
<path d="M270.149 87.32C270.244 85.3966 270.291 83.3906 270.291 81.2076C270.291 78.411 270.161 75.6026 269.902 72.8178C269.705 70.3049 269.31 67.8113 268.722 65.3602C268.123 62.6878 267.334 60.0615 266.362 57.5014C266.102 56.8288 265.831 56.168 265.547 55.5072C265.418 55.2004 265.441 55.224 265.465 55.2712L265.17 54.7284C264.497 53.454 263.801 52.1796 263.034 50.9642C260.389 46.7225 256.898 43.0712 252.78 40.238C252.483 49.2979 254.149 58.3149 257.665 66.67C257.87 67.1735 258.078 67.673 258.29 68.1686L258.857 69.4312L259.459 70.6112C259.765 71.2248 260.08 71.8306 260.403 72.4284C261.642 74.7884 262.987 77.0186 264.415 79.2252C266.244 81.9982 268.155 84.6886 270.149 87.32ZM253.983 50.9524C254.062 50.4332 254.157 49.918 254.267 49.4066C254.364 49.7383 254.533 50.0444 254.762 50.3034C254.476 50.4718 254.218 50.6827 253.995 50.9288L253.983 50.9524Z" fill="#999A1C"/>
<path d="M270.22 88.3111C269.653 87.2373 269.04 86.1399 268.32 84.9599C267.411 83.4495 266.444 81.9745 265.405 80.5585C264.496 79.2619 263.486 78.0388 262.385 76.9005C261.195 75.6505 259.917 74.4872 258.561 73.4195L257.476 72.6053C257.311 72.4873 257.334 72.4873 257.358 72.4991L257.027 72.2985C256.249 71.8265 255.47 71.3663 254.667 70.9533C251.875 69.5064 248.814 68.6508 245.676 68.4399C248.442 73.4248 252.254 77.7521 256.85 81.1249L257.676 81.7267L258.384 82.2223L259.104 82.6825L260.202 83.3551C261.625 84.2047 263.081 84.9914 264.568 85.7151C266.42 86.7063 268.32 87.5441 270.22 88.3111ZM249.782 73.9033C249.656 73.5965 249.542 73.2897 249.44 72.9829C249.6 73.1281 249.789 73.2368 249.995 73.3015C249.893 73.4898 249.821 73.6929 249.782 73.9033Z" fill="#999A1C"/>
<path d="M269.793 87.0721C270.973 85.5027 272.035 83.8507 273.215 81.9981C274.725 79.6381 276.141 77.2191 277.428 74.7293C278.633 72.5166 279.663 70.2124 280.507 67.8381C281.446 65.2638 282.199 62.6257 282.761 59.9439C282.903 59.2359 283.033 58.5279 283.151 57.8199C283.151 57.4895 283.21 57.5249 283.21 57.5721C283.21 57.6193 283.21 57.3479 283.21 56.9585C283.339 55.5189 283.434 54.0793 283.446 52.6279C283.513 47.6273 282.549 42.6664 280.614 38.0549C275.467 45.5194 271.997 54.009 270.442 62.9411C270.34 63.4761 270.245 64.011 270.159 64.5459C270.159 64.5459 270.017 65.5253 269.958 65.9147L269.852 67.2599C269.781 67.9365 269.718 68.6169 269.663 69.3013C269.451 71.9209 269.356 74.5641 269.368 77.1955C269.368 80.4877 269.533 83.7799 269.793 87.0721ZM275.858 47.7309C276.204 47.3376 276.558 46.9443 276.92 46.5509C276.821 46.8838 276.797 47.2343 276.849 47.5775C276.513 47.5774 276.179 47.6291 275.858 47.7309Z" fill="#999A1C"/>
<path d="M270.149 87.32C270.244 85.3966 270.291 83.3906 270.291 81.2076C270.291 78.411 270.161 75.6026 269.902 72.8178C269.705 70.3049 269.31 67.8113 268.722 65.3602C268.123 62.6878 267.334 60.0615 266.362 57.5014C266.102 56.8288 265.831 56.168 265.547 55.5072C265.418 55.2004 265.441 55.224 265.465 55.2712L265.17 54.7284C264.497 53.454 263.801 52.1796 263.034 50.9642C260.389 46.7225 256.898 43.0712 252.78 40.238C252.483 49.2979 254.149 58.3149 257.665 66.67C257.87 67.1735 258.078 67.673 258.29 68.1686L258.857 69.4312L259.459 70.6112C259.765 71.2248 260.08 71.8306 260.403 72.4284C261.642 74.7884 262.987 77.0186 264.415 79.2252C266.244 81.9982 268.155 84.6886 270.149 87.32ZM253.983 50.9524C254.062 50.4332 254.157 49.918 254.267 49.4066C254.364 49.7383 254.533 50.0444 254.762 50.3034C254.476 50.4718 254.218 50.6827 253.995 50.9288L253.983 50.9524Z" fill="#999A1C"/>
<path d="M270.22 88.3111C269.653 87.2373 269.04 86.1399 268.32 84.9599C267.411 83.4495 266.444 81.9745 265.405 80.5585C264.496 79.2619 263.486 78.0388 262.385 76.9005C261.195 75.6505 259.917 74.4872 258.561 73.4195L257.476 72.6053C257.311 72.4873 257.334 72.4873 257.358 72.4991L257.027 72.2985C256.249 71.8265 255.47 71.3663 254.667 70.9533C251.875 69.5064 248.814 68.6508 245.676 68.4399C248.442 73.4248 252.254 77.7521 256.85 81.1249L257.676 81.7267L258.384 82.2223L259.104 82.6825L260.202 83.3551C261.625 84.2047 263.081 84.9914 264.568 85.7151C266.42 86.7063 268.32 87.5441 270.22 88.3111ZM249.782 73.9033C249.656 73.5965 249.542 73.2897 249.44 72.9829C249.6 73.1281 249.789 73.2368 249.995 73.3015C249.893 73.4898 249.821 73.6929 249.782 73.9033Z" fill="#999A1C"/>
<path d="M290.977 136.609L292.64 139.7L296.9 137.506L295.909 134.331L290.977 136.609Z" fill="#F4C2AE"/>
<path d="M298.707 134.048C298.707 134.048 308.56 141.128 310.991 148.031C313.422 154.934 307.451 162.474 307.451 162.474" fill="#F7734F"/>
<path d="M309.487 237.345L314.431 234.985L312.425 229.746L308.555 231.327" fill="#1E3180"/>
<path d="M315.863 223.657H310.341C310.223 225.911 309.715 228.672 307.768 229.557C307.001 230.017 304.016 230.926 303.048 230.56C302.081 230.194 299.036 229.439 298.671 229.722C298.305 230.006 296.889 230.843 299.744 233.404C302.6 235.965 308.748 237.664 309.574 237.392C310.4 237.121 308.559 232.023 310.86 232.802C313.373 233.652 311.922 239.233 312.3 239.682C313.076 240.152 313.926 240.491 314.813 240.685C315.454 240.361 316.076 240.003 316.677 239.611C316.666 234.265 316.241 228.92 315.863 223.657Z" fill="#1E3180"/>
<path d="M280.25 249.665L285.088 247.069L282.846 241.936L279.047 243.682" fill="#1E3180"/>
<path d="M286.657 233.958L280.427 236C280.427 239.54 279.341 242.112 275.707 242.962C274.173 243.316 272.969 242.808 271.483 242.608C271.084 242.523 270.669 242.547 270.283 242.678C269.897 242.809 269.553 243.041 269.288 243.351C268.474 244.425 269.441 245.463 270.291 246.16C273.253 248.602 279.483 250.006 280.297 249.7C281.111 249.393 279.035 244.378 281.383 245.05C283.932 245.782 282.74 251.422 283.129 251.859C283.924 252.292 284.786 252.591 285.678 252.744C286.305 252.385 286.912 251.991 287.495 251.564C287.283 246.254 287.295 239.245 286.657 233.958Z" fill="#1E3180"/>
<path d="M305.192 156.775C307.908 167.312 309.969 178.008 311.364 188.8C313.582 206.099 318.526 227.079 318.102 227.74C317.677 228.401 313.736 232.861 304.673 230.596L294.266 167.891" fill="#BF4225"/>
<path d="M290.114 170.805C290.114 170.805 279.86 191.549 277.582 204.104C275.305 216.66 277.582 237.345 277.582 237.345C277.582 237.345 285.547 240.696 292.179 238.525C292.179 238.525 293.158 207.845 294.256 205.001C295.353 202.157 302.905 190.499 303.236 178.357C303.566 166.215 300.675 159.477 300.675 159.477" fill="#BF4225"/>
<path d="M287.592 156.562C287.026 152.385 286.495 147.937 287.746 143.842C289.775 141.533 292.063 139.466 294.566 137.682C294.566 137.682 297.976 133.588 301.068 135.912C304.502 138.485 308.738 154.722 307.806 161.105C306.944 167.005 301.906 168.362 296.112 169.873C294.148 170.375 292.141 170.688 290.118 170.805C289.103 166.085 288.241 161.341 287.592 156.562Z" fill="#FFB93E"/>
<path d="M285.816 124.95C285.816 124.95 286.843 136.255 288.825 137.14C290.808 138.025 294.312 135.641 294.891 133.694C295.469 131.747 294.891 131.405 292.873 131.334C290.855 131.263 292.283 131.251 291.056 130.779C288.46 129.8 292.165 123.381 285.816 124.95Z" fill="#FFE4D7"/>
<path d="M288.841 119.947C289.838 119.474 290.888 119.122 291.968 118.897C293.186 118.566 294.467 118.535 295.699 118.806C296.932 119.077 298.081 119.643 299.048 120.455C301.101 122.287 302.418 124.803 302.753 127.535C302.954 129.895 302.435 132.821 300.452 134.402C297.986 136.373 293.644 137.942 291.779 135.016C291.443 134.545 291.177 134.028 290.989 133.482C290.068 131.276 288.792 129.235 287.213 127.44C286.627 126.772 286.232 125.956 286.072 125.082C285.912 124.207 285.993 123.305 286.304 122.472C286.813 121.349 287.716 120.451 288.841 119.947Z" fill="#F7734F"/>
<path d="M269.833 144.373C270.145 144.083 270.536 143.893 270.956 143.826C271.376 143.758 271.807 143.818 272.193 143.995L271.957 143.547C271.95 143.492 271.95 143.437 271.957 143.382C271.45 143.122 271.769 142.202 272.441 142.308C273.621 142.497 274.365 142.627 274.896 143.807C275.275 144.753 275.563 145.733 275.757 146.733C277.317 148.549 279.061 150.198 280.961 151.654C281.551 152.137 280.713 152.963 280.123 152.491L279.887 152.303C279.847 152.389 279.788 152.466 279.714 152.527C279.641 152.588 279.555 152.633 279.462 152.657C279.504 152.74 279.527 152.831 279.528 152.925C279.53 153.018 279.511 153.11 279.473 153.195C279.434 153.28 279.377 153.355 279.306 153.415C279.235 153.475 279.151 153.518 279.061 153.542C279.439 153.907 279.828 154.25 280.241 154.615C280.796 155.17 279.993 155.902 279.403 155.453C278.813 155.005 278.082 154.474 277.433 153.978C277.716 154.273 278.023 154.568 278.306 154.875C278.825 155.43 277.987 156.267 277.468 155.713C276.052 154.167 274.553 152.704 273.019 151.276C272.183 151.004 271.37 150.665 270.589 150.261C269.715 149.813 268.512 149.187 268.488 148.055C268.612 146.732 269.075 145.464 269.833 144.373Z" fill="#FFE4D7"/>
<path d="M266.68 142.497C267.093 141.883 267.553 141.871 268.155 141.588L267.635 141.187C267.009 140.786 266.481 140.25 266.09 139.618C265.877 139.205 266.243 138.544 266.75 138.756C268.182 139.311 269.538 140.045 270.786 140.939C271.966 141.624 272.768 143.559 273.288 144.479C273.653 145.14 272.639 145.742 272.273 145.069L271.978 144.479C271.902 144.584 271.794 144.663 271.671 144.703C271.671 144.81 271.765 144.904 271.824 145.01C271.887 145.117 271.912 145.242 271.895 145.364C271.933 145.429 271.957 145.502 271.966 145.577C272.049 146.178 272.556 147.229 271.801 147.618C271.695 147.671 271.577 147.695 271.459 147.689L272.414 148.692C272.489 148.766 272.543 148.86 272.568 148.963C272.593 149.066 272.59 149.174 272.558 149.275C272.527 149.376 272.468 149.466 272.388 149.536C272.309 149.606 272.212 149.653 272.108 149.671C272.103 149.75 272.08 149.826 272.039 149.894C271.998 149.961 271.942 150.018 271.874 150.058C271.807 150.099 271.731 150.123 271.652 150.127C271.573 150.132 271.495 150.117 271.423 150.084C269.771 149.388 267.364 148.373 266.29 146.827C266.003 146.127 265.889 145.368 265.956 144.615C266.024 143.861 266.272 143.135 266.68 142.497Z" fill="#FFE4D7"/>
<path d="M276.486 146.875L284.852 154.25L285.336 150.851C285.691 148.81 286.318 146.826 287.201 144.951C292.676 147.677 296.393 154.616 294.104 160.185C292.074 163.088 289.384 165.967 286.316 166.368C279.991 167.194 271.117 154.875 271.117 154.875C271.507 151.748 276.486 146.875 276.486 146.875Z" fill="#F7734F"/>
<path d="M297.641 120.36C297.641 112.489 310.975 111.144 312.981 118.437C313.24 119.424 313.263 120.458 313.047 121.456C312.831 122.454 312.384 123.387 311.74 124.179C311.096 124.971 310.274 125.6 309.342 126.015C308.409 126.43 307.392 126.619 306.373 126.567C303.682 126.384 301.057 125.658 298.655 124.431" fill="#F7734F"/>
<defs>
<linearGradient id="paint0_linear" x1="13280" y1="4582.63" x2="14226.8" y2="3504.8" gradientUnits="userSpaceOnUse">
<stop stop-color="white" stop-opacity="0"/>
<stop offset="0.98" stop-color="#0800BF"/>
</linearGradient>
<linearGradient id="paint1_linear" x1="27508" y1="14059.7" x2="28799.8" y2="11454.1" gradientUnits="userSpaceOnUse">
<stop stop-color="white" stop-opacity="0"/>
<stop offset="0.98" stop-color="#0800BF"/>
</linearGradient>
</defs>
</svg>
