<svg width="876" height="660" viewBox="0 0 876 660" fill="none" xmlns="http://www.w3.org/2000/svg">
<g clip-path="url(#clip0)">
<path d="M155.766 520.454C197.566 545.644 300.438 605.264 348.376 633.006C356.071 637.45 364.804 639.78 373.69 639.761C382.577 639.742 391.3 637.373 398.976 632.896L731.176 438.834C733.12 437.695 734.732 436.068 735.852 434.113C736.973 432.158 737.562 429.944 737.562 427.691C737.562 425.438 736.973 423.224 735.852 421.269C734.732 419.314 733.12 417.687 731.176 416.548L523.034 294.448C521.063 293.302 518.823 292.699 516.544 292.699C514.264 292.699 512.025 293.302 510.054 294.448L155.854 498.278C153.93 499.416 152.335 501.034 151.224 502.973C150.113 504.912 149.525 507.106 149.516 509.341C149.507 511.576 150.078 513.775 151.174 515.723C152.269 517.671 153.851 519.301 155.766 520.454Z" fill="#62A8FE"/>
<path d="M294.951 148.83L264.723 458.04L388.165 382.404L294.951 148.83Z" fill="#06577A"/>
<path d="M529.429 377.85L525.117 15.95L294.953 148.83L310.551 499.532L529.429 377.85Z" fill="#68E1FD"/>
<path d="M240.793 421.696C213.733 421.696 191.777 428.868 191.777 437.712H289.809C289.809 428.868 267.875 421.696 240.793 421.696Z" fill="#06489E"/>
<path d="M191.951 438.966L191.797 437.734C191.801 438.149 191.853 438.563 191.951 438.966Z" fill="#06489E"/>
<path d="M289.807 437.8L289.609 439.208C289.737 438.749 289.803 438.276 289.807 437.8Z" fill="#06489E"/>
<path d="M240.793 453.75C266.423 453.75 287.433 447.326 289.611 439.12L289.809 437.712H191.777L191.931 438.944C193.889 447.238 215.009 453.75 240.793 453.75Z" fill="#06489E"/>
<path d="M259.538 354.992H248.516V468.754H259.538V354.992Z" fill="#25B000"/>
<path d="M254.01 357.324C257.06 357.324 259.532 356.28 259.532 354.992C259.532 353.704 257.06 352.66 254.01 352.66C250.961 352.66 248.488 353.704 248.488 354.992C248.488 356.28 250.961 357.324 254.01 357.324Z" fill="#25B000"/>
<path d="M284.03 376.688L273.23 374.483L250.472 485.946L261.271 488.151L284.03 376.688Z" fill="#FF8F02"/>
<path d="M284.026 376.673C284.283 375.412 282.07 373.894 279.082 373.284C276.094 372.674 273.462 373.202 273.205 374.464C272.947 375.726 275.161 377.244 278.149 377.854C281.137 378.464 283.768 377.935 284.026 376.673Z" fill="#FF8F02"/>
<path d="M227.477 440.22L217.401 445.984C217.202 446.053 216.985 446.051 216.788 445.977C216.591 445.903 216.425 445.763 216.321 445.58C216.216 445.397 216.179 445.183 216.216 444.976C216.252 444.768 216.36 444.58 216.521 444.444L226.817 438.548C226.912 438.493 227.016 438.456 227.125 438.438L225.101 427.438L215.003 433.4C214.804 433.469 214.587 433.467 214.39 433.393C214.193 433.319 214.027 433.179 213.923 432.996C213.818 432.813 213.781 432.599 213.818 432.392C213.854 432.184 213.962 431.996 214.123 431.86L224.419 425.964C224.534 425.9 224.662 425.863 224.793 425.854L222.923 415.778L212.957 421.476C212.758 421.545 212.541 421.543 212.344 421.469C212.147 421.395 211.981 421.255 211.877 421.072C211.772 420.889 211.735 420.675 211.772 420.468C211.808 420.26 211.916 420.072 212.077 419.936L222.373 414.04H222.571L220.481 402.82L210.559 408.496C210.36 408.565 210.143 408.563 209.946 408.489C209.749 408.415 209.583 408.275 209.479 408.092C209.374 407.909 209.337 407.695 209.374 407.488C209.41 407.28 209.518 407.092 209.679 406.956L219.975 401.06H220.129L218.083 390.06L208.007 395.824C207.808 395.893 207.591 395.891 207.394 395.817C207.197 395.743 207.031 395.603 206.927 395.42C206.822 395.237 206.785 395.023 206.822 394.816C206.858 394.608 206.966 394.42 207.127 394.284L217.423 388.388C217.518 388.333 217.622 388.296 217.731 388.278L216.037 378.4L205.961 384.164C205.762 384.233 205.545 384.231 205.348 384.157C205.151 384.083 204.985 383.943 204.881 383.76C204.776 383.577 204.739 383.363 204.776 383.156C204.812 382.948 204.92 382.76 205.081 382.624L215.377 376.728C215.479 376.67 215.591 376.633 215.707 376.618L213.947 367.114L203.893 372.856C203.694 372.925 203.477 372.923 203.28 372.849C203.083 372.775 202.917 372.635 202.813 372.452C202.708 372.269 202.671 372.055 202.708 371.848C202.744 371.64 202.852 371.452 203.013 371.316L213.397 365.53C213.499 365.512 213.603 365.512 213.705 365.53L211.769 355.058L201.803 360.756C201.604 360.825 201.387 360.823 201.19 360.749C200.993 360.675 200.827 360.535 200.723 360.352C200.618 360.169 200.581 359.955 200.618 359.748C200.654 359.54 200.762 359.352 200.923 359.216L211.197 353.21H211.395L210.493 348.348L188.625 361.9C188.625 361.9 204.157 448.382 204.487 448.558C213.551 453.288 230.051 453.838 230.051 453.838L227.477 440.22Z" fill="#FFAF68"/>
<path d="M200.819 359.084C200.658 359.22 200.55 359.408 200.514 359.616C200.477 359.823 200.514 360.037 200.619 360.22C200.723 360.403 200.889 360.543 201.086 360.617C201.283 360.691 201.5 360.693 201.699 360.624L211.665 354.926L211.335 353.1H211.137L200.819 359.084Z" fill="#CA4300"/>
<path d="M202.995 371.404C202.834 371.54 202.726 371.728 202.689 371.936C202.653 372.143 202.69 372.357 202.795 372.54C202.899 372.723 203.064 372.863 203.262 372.937C203.459 373.011 203.676 373.013 203.875 372.944L213.929 367.202L213.599 365.398C213.497 365.38 213.393 365.38 213.291 365.398L202.995 371.404Z" fill="#CA4300"/>
<path d="M205.065 382.8C204.904 382.936 204.796 383.124 204.76 383.332C204.723 383.539 204.76 383.753 204.865 383.936C204.969 384.119 205.135 384.259 205.332 384.333C205.529 384.407 205.746 384.409 205.945 384.34L216.043 378.4L215.713 376.618C215.597 376.633 215.485 376.67 215.383 376.728L205.065 382.8Z" fill="#CA4300"/>
<path d="M207.171 394.02C207.01 394.156 206.902 394.344 206.865 394.552C206.829 394.759 206.866 394.973 206.97 395.156C207.075 395.339 207.24 395.479 207.437 395.553C207.635 395.627 207.852 395.629 208.051 395.56L218.127 389.796L217.797 388.014C217.688 388.032 217.584 388.069 217.489 388.124L207.171 394.02Z" fill="#CA4300"/>
<path d="M209.706 406.758C209.545 406.894 209.437 407.082 209.4 407.29C209.364 407.497 209.401 407.711 209.506 407.894C209.61 408.077 209.775 408.217 209.973 408.291C210.17 408.365 210.387 408.367 210.586 408.298L220.508 402.622L220.156 400.774H220.002L209.706 406.758Z" fill="#CA4300"/>
<path d="M212.077 419.826C211.916 419.962 211.808 420.15 211.772 420.358C211.735 420.565 211.772 420.779 211.877 420.962C211.981 421.145 212.146 421.285 212.344 421.359C212.541 421.433 212.758 421.435 212.957 421.366L222.923 415.668L222.593 413.842H222.395L212.077 419.826Z" fill="#CA4300"/>
<path d="M224.4 425.898L214.104 431.794C213.943 431.93 213.835 432.118 213.799 432.326C213.762 432.533 213.799 432.747 213.904 432.93C214.009 433.113 214.174 433.253 214.371 433.327C214.568 433.401 214.785 433.403 214.984 433.334L225.104 427.548L224.774 425.788C224.643 425.797 224.515 425.835 224.4 425.898Z" fill="#CA4300"/>
<path d="M216.522 444.4C216.361 444.536 216.253 444.724 216.217 444.932C216.18 445.139 216.217 445.353 216.322 445.536C216.426 445.719 216.592 445.859 216.789 445.933C216.986 446.007 217.203 446.009 217.402 445.94L227.478 440.176L227.148 438.394C227.04 438.412 226.935 438.449 226.84 438.504L216.522 444.4Z" fill="#CA4300"/>
<path d="M273.223 374.484C273.223 374.484 273.773 377.366 278.151 377.872C282.529 378.378 284.025 376.684 284.025 376.684L282.595 354.97L273.223 374.484Z" fill="#FFD8BD"/>
<path d="M282.615 354.992L278.215 364.056C278.836 364.735 279.674 365.177 280.585 365.306C281.497 365.434 282.424 365.241 283.209 364.76L282.615 354.992Z" fill="#653200"/>
<path d="M248.602 354.332C248.602 354.332 249.614 357.104 254.014 356.906C258.414 356.708 259.624 354.706 259.624 354.706L254.784 333.498L248.602 354.332Z" fill="#FFD8BD"/>
<path d="M254.694 333.586L251.812 343.2C252.522 343.785 253.412 344.104 254.332 344.104C255.251 344.104 256.141 343.785 256.851 343.2L254.694 333.586Z" fill="#653200"/>
<path d="M240.788 453.75C215.004 453.75 193.862 447.15 191.926 438.966C193.202 448.866 202.024 516.868 202.354 517.264C202.354 517.264 206.754 536.448 240.788 536.426C269.674 536.426 277.902 521.928 277.902 521.928L289.606 439.142C287.428 447.304 266.418 453.75 240.788 453.75Z" fill="#68E1FD"/>
<path d="M512.193 372.724L335.282 463.526C330.864 465.794 327.135 466.169 324.47 464.613C321.804 463.058 320.296 459.627 320.098 454.665L309.089 179.928C309.012 177.919 309.466 175.363 310.406 172.517C311.346 169.671 312.739 166.634 314.444 163.712C316.15 160.79 318.108 158.084 320.124 155.866C322.14 153.647 324.141 151.995 325.929 151.073L508.006 57.0782C510.33 55.8824 512.291 55.6834 513.693 56.5011C515.094 57.3188 515.885 59.1244 515.987 61.7357L527.39 346.67C527.46 348.483 527.051 350.789 526.203 353.358C525.355 355.927 524.099 358.667 522.561 361.306C521.022 363.944 519.254 366.388 517.434 368.392C515.615 370.396 513.808 371.89 512.193 372.724Z" fill="#FFC963"/>
<path d="M532.069 199.606L522.411 192.368C522.396 192.058 522.305 191.756 522.148 191.488C521.991 191.22 521.772 190.993 521.509 190.828C512.284 184.404 503.073 177.951 493.877 171.468C493.588 171.245 493.248 171.098 492.887 171.04C492.527 170.981 492.157 171.014 491.812 171.134C491.468 171.254 491.158 171.458 490.912 171.727C490.665 171.997 490.49 172.324 490.401 172.678C489.433 174.35 490.665 176.088 492.227 177.386C493.789 178.684 495.725 180.268 497.485 181.786C497.257 181.953 497.063 182.162 496.913 182.402C495.505 184.602 493.151 187.726 493.129 190.476C493.107 193.226 495.329 194.59 497.045 196.086V196.482C496.693 199.87 498.189 200.882 500.873 202.488C501.132 202.663 501.424 202.78 501.731 202.834C502.039 202.887 502.353 202.874 502.655 202.796C504.517 204.009 506.483 205.054 508.529 205.92L516.669 210.056C518.737 211.112 520.233 208.626 519.397 206.954C521.025 207.086 521.707 205.304 521.289 203.918C521.498 203.715 521.656 203.467 521.751 203.192V203.082L524.567 205.282C526.767 207.064 529.539 203.522 527.273 201.74L525.271 200.156L529.385 203.236C529.867 203.592 530.47 203.742 531.062 203.653C531.654 203.565 532.186 203.244 532.542 202.763C532.898 202.282 533.048 201.679 532.96 201.087C532.871 200.494 532.551 199.962 532.069 199.606Z" fill="#F04900"/>
<path d="M596.045 482.504L599.521 480.304V441.166L582.339 440.55C582.339 440.55 582.009 457.248 577.939 461.054C573.869 464.86 563.837 462.132 562.847 462.462C561.857 462.792 555.103 460.834 552.067 463.958C549.031 467.082 562.363 476.102 569.447 477.752C574.299 478.731 579.277 478.917 584.187 478.302C584.187 478.302 585.727 468.292 588.191 469.282C590.655 470.272 590.831 480.854 590.831 480.854L596.045 482.504Z" fill="#006BA4"/>
<path d="M608.977 275.308C611.398 288.744 612.824 302.34 613.245 315.986C613.531 331.386 608.097 454.454 608.097 454.454C608.097 454.454 597.889 466.422 573.029 459.206C569.421 458.172 568.277 339.108 568.277 339.108L576.769 284.46" fill="#FC9C54"/>
<path d="M597.547 213.136C596.183 213.136 550.445 211.948 519.535 184.25C519.535 184.25 504.729 198.77 510.735 209.88C510.735 209.88 554.559 252.098 587.977 243.452" fill="#006BA4"/>
<path d="M561.31 200.09C561.248 199.995 561.163 199.916 561.063 199.862C560.963 199.808 560.852 199.779 560.738 199.779C560.624 199.779 560.512 199.808 560.412 199.862C560.313 199.916 560.228 199.995 560.166 200.09C555.761 206.756 554.178 214.897 555.766 222.728C555.942 223.564 557.218 223.212 557.064 222.376C555.659 215.287 556.97 207.929 560.738 201.762C564.503 208.796 566.439 216.664 566.37 224.642C566.37 224.82 566.441 224.991 566.566 225.116C566.692 225.242 566.863 225.313 567.041 225.313C567.219 225.313 567.39 225.242 567.515 225.116C567.641 224.991 567.712 224.82 567.712 224.642C567.769 216.038 565.561 207.571 561.31 200.09Z" fill="#42A200"/>
<path d="M548.967 512.6L552.443 510.4V471.262L535.261 470.646C535.261 470.646 534.931 487.344 530.861 491.15C526.791 494.956 516.759 492.228 515.769 492.558C514.779 492.888 508.025 490.93 504.989 494.054C501.953 497.178 515.285 506.198 522.369 507.848C527.221 508.827 532.199 509.013 537.109 508.398C537.109 508.398 538.649 498.388 541.113 499.378C543.577 500.368 543.753 510.95 543.753 510.95L548.967 512.6Z" fill="#006BA4"/>
<path d="M555.125 281.006C555.125 281.006 539.285 339.482 532.839 391.82C531.299 404.382 518.297 479.314 518.297 479.314C518.297 479.314 539.725 487.146 558.777 481.008C558.777 481.008 581.437 385.396 582.405 383.526C583.373 381.656 598.663 319.726 600.423 275.286" fill="#FC9C54"/>
<path d="M603.569 206.602L594.527 203.192C592.217 203.346 571.647 210.078 562.297 223.696C560.974 227.964 559.974 232.325 559.305 236.742C558.117 242.616 557.105 248.512 556.357 254.342C555.503 260.803 555.136 267.318 555.257 273.834C555.257 276.628 555.411 278.036 555.697 280.808C556.704 281.825 557.88 282.658 559.173 283.272C586.189 294.888 607.573 280.786 608.651 278.608C609.729 276.43 613.293 244.574 615.251 225.61C615.663 221.598 614.743 217.562 612.631 214.126C610.519 210.691 607.335 208.046 603.569 206.602Z" fill="#006BA4"/>
<path d="M581.483 171.908C581.483 171.908 572.991 202.708 584.277 206.954C595.563 211.2 610.083 199.1 611.601 192.742C613.119 186.384 598.401 162.646 581.483 171.908Z" fill="#F04900"/>
<path d="M637.227 162.8C635.754 159.708 633.223 157.245 630.092 155.857C626.96 154.469 623.436 154.247 620.155 155.232C613.929 157.256 610.167 162.602 608.341 168.564C602.731 163.658 594.371 161.172 583.767 164.428C583.767 164.428 573.361 168.828 575.253 175.428C577.145 182.028 585.043 182.028 591.665 183.326C598.287 184.624 592.919 190.432 593.249 196.966C593.579 203.5 596.527 204.578 599.277 205.15C602.027 205.722 614.523 202.95 616.283 188.276C616.39 187.378 616.434 186.474 616.415 185.57C618.133 185.749 619.861 185.8 621.585 185.724C625.475 185.85 629.311 184.791 632.585 182.688C635.454 180.356 637.467 177.138 638.307 173.538C639.147 169.938 638.767 166.161 637.227 162.8Z" fill="#FC9C54"/>
<path d="M570.638 205.656C571.499 204.444 571.869 202.95 571.672 201.476C571.61 201.035 571.416 200.623 571.116 200.295C570.815 199.966 570.422 199.737 569.988 199.637C569.554 199.537 569.1 199.57 568.686 199.734C568.271 199.897 567.917 200.183 567.668 200.552L566.7 201.872C566.546 200.178 566.37 198.484 566.128 196.79C566.108 196.207 565.856 195.655 565.429 195.257C565.002 194.859 564.434 194.647 563.851 194.667C563.268 194.687 562.716 194.939 562.318 195.366C561.92 195.793 561.708 196.361 561.728 196.944C561.728 197.472 561.596 198.022 561.552 198.55C561.369 199.115 561.244 199.698 561.178 200.288C558.78 200.596 555.92 201.476 555.502 204.226C555.502 204.226 555.502 204.358 555.502 204.402C553.654 204.402 551.85 205.128 551.784 207.328C551.752 207.745 551.752 208.165 551.784 208.582C549.914 209.132 548.55 210.078 548.814 212.52C549.214 215.363 549.952 218.147 551.014 220.814C551.167 221.145 551.4 221.433 551.692 221.652C551.983 221.871 552.325 222.014 552.686 222.068C552.95 223.256 553.258 224.422 553.588 225.588C553.832 226.089 554.198 226.519 554.653 226.84C555.108 227.161 555.637 227.361 556.19 227.423C556.744 227.484 557.304 227.405 557.818 227.192C558.332 226.979 558.784 226.639 559.132 226.204C559.357 226.189 559.579 226.144 559.792 226.072C560.056 226.253 560.356 226.374 560.671 226.427C560.986 226.481 561.31 226.464 561.618 226.38C561.89 226.573 562.203 226.702 562.533 226.757C562.862 226.811 563.2 226.79 563.52 226.695C563.84 226.599 564.135 226.432 564.381 226.206C564.627 225.98 564.818 225.701 564.94 225.39C565.197 225.16 565.397 224.874 565.523 224.553C565.649 224.232 565.698 223.885 565.666 223.542C565.666 223.036 565.666 222.53 565.666 222.046C567.426 216.605 569.083 211.141 570.638 205.656Z" fill="#F04900"/>
<path d="M566.853 217.074C566.149 217.25 556.249 208.164 548.747 211.288C548.747 211.288 520.147 259.512 546.833 272.272C560.033 278.608 570.307 259.072 570.307 259.072L562.717 244.2L566.853 217.074Z" fill="#006BA4"/>
<path d="M564.497 219.032C558.218 229.26 553.906 240.572 551.781 252.384C551.539 253.77 553.651 254.364 553.981 252.978C556.061 241.353 560.299 230.219 566.477 220.154C567.137 218.922 565.245 217.8 564.497 219.032Z" fill="#653200"/>
<path d="M569.796 260.92C567.596 265.21 564.78 269.72 560.38 271.92C557.784 273.135 554.885 273.55 552.052 273.111C549.219 272.672 546.581 271.4 544.474 269.456C535.102 261.382 536.51 247.456 538.38 236.61C538.622 235.224 536.51 234.63 536.18 236.016C533.98 248.204 532.858 264.044 544.364 272.206C546.577 273.84 549.161 274.897 551.885 275.282C554.608 275.666 557.385 275.365 559.962 274.406C565.462 272.206 568.96 266.97 571.6 261.888C572.348 260.788 570.456 259.6 569.796 260.92Z" fill="#653200"/>
<path d="M593.782 318.318C592.374 346.28 584.124 373.076 577.128 400.004C570.132 426.932 564.17 453.75 559.066 480.92L561.442 480.26C566.62 452.819 572.736 425.575 579.79 398.53C586.72 372.13 594.596 345.73 595.982 318.318C596.048 316.8 593.848 316.8 593.782 318.318Z" fill="#653200"/>
<path d="M387.054 320.141C380.523 318.066 377.492 309.265 380.282 300.483C383.073 291.702 390.629 286.265 397.16 288.341C403.69 290.416 406.722 299.217 403.931 307.999C401.141 316.78 393.584 322.217 387.054 320.141Z" fill="#F2F2F2"/>
<path d="M391.446 306.482C389.03 305.956 387.69 302.685 388.454 299.175C389.217 295.665 391.795 293.245 394.211 293.771C396.627 294.296 397.967 297.568 397.204 301.078C396.44 304.588 393.863 307.007 391.446 306.482Z" fill="#C4B7B3"/>
<path d="M384.058 318.539C384.058 318.539 386.731 306.778 393.503 305.352C400.275 303.927 401.945 312.525 401.945 312.525C401.048 314.325 399.796 315.926 398.265 317.232C396.734 318.537 394.955 319.519 393.035 320.121C386.219 322.415 384.058 318.539 384.058 318.539Z" fill="#C4B7B3"/>
<path d="M465.074 182.106C465.074 182.106 453.179 177.651 442.911 190.325C444.548 191.617 446.496 192.457 448.559 192.762C450.623 193.067 452.73 192.826 454.672 192.063C459.049 189.847 462.669 186.382 465.074 182.106Z" fill="#BF34AC"/>
<path d="M434.22 162.124C435.601 165.131 438.831 173.039 440.301 175.868C441.771 178.697 441.103 179.098 442.529 182.038C443.041 183.107 447.162 197.229 448.053 197.63C448.454 205.649 446.36 196.561 446.36 196.606C446.85 198.477 446.36 195.692 446.939 197.564C447.106 198.274 447.516 198.904 448.097 199.346C448.298 200.081 447.206 193.131 447.34 193.888C447.429 194.505 447.759 195.062 448.258 195.436C448.757 195.81 449.384 195.97 450.002 195.882C450.619 195.793 451.176 195.463 451.55 194.964C451.924 194.465 452.084 193.837 451.995 193.22C451.995 192.886 452.463 197.43 452.419 197.096C453.131 196.962 452.976 196.405 453.376 195.737C453.889 195.737 454.579 196.583 455.003 196.294C456.205 196.494 456.45 196.45 456.584 194.868C456.584 194.356 457.564 193.599 457.586 193.064C458.366 193.064 459.302 193.309 459.569 192.44C460.349 192.44 460.928 190.391 461.195 189.366C463.559 179.005 464.74 168.408 464.714 157.78C464.714 155.063 460.772 154.328 460.148 156.555C459.792 154.61 459.376 152.679 458.901 150.764C458.816 150.4 458.647 150.061 458.407 149.775C458.167 149.489 457.863 149.263 457.52 149.115C457.148 148.807 456.69 148.621 456.208 148.581C455.727 148.541 455.245 148.65 454.827 148.893C454.409 149.136 454.076 149.501 453.873 149.939C453.669 150.377 453.605 150.867 453.688 151.343C453.688 151.788 453.822 152.256 453.911 152.702C453.51 150.586 453.065 148.492 452.508 146.398C452.419 145.78 452.089 145.224 451.59 144.85C451.091 144.476 450.463 144.316 449.846 144.404C449.229 144.493 448.672 144.823 448.298 145.322C447.924 145.821 447.764 146.449 447.852 147.066L448.142 151.521C447.652 150.764 446.649 148.113 445.758 148.291C440.435 149.405 442.952 158.961 443.375 162.681L443.798 166.267C441.97 164.478 440.259 162.573 438.675 160.565C436.915 158.515 433.262 160.052 434.22 162.124Z" fill="#FFDDB0"/>
<path d="M459.35 155.33C459.217 159.295 458.972 163.252 458.615 167.202C458.62 167.374 458.687 167.539 458.803 167.665C458.92 167.792 459.078 167.872 459.249 167.891C459.42 167.91 459.592 167.866 459.733 167.769C459.875 167.671 459.976 167.525 460.019 167.358C460.375 163.408 460.62 159.451 460.754 155.486C460.776 154.595 459.373 154.416 459.35 155.33Z" fill="#603813"/>
<path d="M453.217 151.276L454.264 166.868C454.264 167.781 455.712 167.559 455.667 166.668L454.62 151.075C454.553 150.162 453.15 150.385 453.217 151.276Z" fill="#603813"/>
<path d="M445.14 166.802C446.278 166.662 447.431 166.723 448.548 166.98C448.073 161.352 447.33 155.746 446.321 150.162C446.165 149.271 447.546 149.071 447.724 149.962C448.748 155.724 449.491 161.523 449.951 167.359C451.641 167.94 453.161 168.93 454.377 170.239C455.593 171.548 456.468 173.137 456.923 174.865C456.937 175.026 456.892 175.186 456.796 175.317C456.701 175.447 456.561 175.538 456.404 175.573C456.246 175.608 456.081 175.586 455.939 175.509C455.797 175.432 455.688 175.306 455.631 175.155C454.972 172.997 453.594 171.13 451.725 169.866C449.856 168.601 447.611 168.015 445.363 168.205C444.583 168.205 444.293 166.913 445.14 166.802Z" fill="#603813"/>
<path d="M442.906 190.324C442.906 190.324 456.271 189.344 465.07 182.105C465.07 182.105 484.761 241.134 466.094 254.008C447.428 266.883 424.061 242.871 435.199 242.359C436.246 242.359 432.726 200.883 432.726 200.883L442.505 217.054L442.906 190.324Z" fill="#E26D6D"/>
<path d="M375.081 219.594C376.752 212.599 379.893 203.667 387.132 200.86C393.385 198.833 399.752 197.174 406.2 195.893C413.149 194.111 420.522 193.131 427.205 196.428C432.885 199.234 438.855 208.233 440.102 214.604C441.951 221.999 441.439 233.449 441.55 234.785C443.778 261.805 442.419 285.193 443.332 312.235C443.332 313.416 441.105 315.198 441.105 315.198C430.947 322.192 427.74 322.571 416.892 328.362C410.699 331.659 404.685 335.312 398.537 338.698C394.416 340.926 390.273 343.153 386.13 345.381C384.459 346.16 376.173 351.551 374.525 352.33C373.311 342.812 372.612 333.234 372.431 323.64C370.56 289.002 366.929 253.741 375.081 219.594Z" fill="#E26D6D"/>
<path d="M394.124 189.923L395.372 200.504C395.372 200.504 405.752 203.489 410.185 202.353C414.617 201.217 394.124 189.923 394.124 189.923Z" fill="#FFDDB0"/>
<path d="M424.754 158.961C425.6 159.808 425.311 163.06 425.377 164.107C425.556 167.715 425.578 171.368 425.377 174.977C425.11 183.486 425.377 195.158 417.158 200.326C407.067 206.696 396.91 196.985 393.925 187.919C392.678 184.087 390.517 165.287 394.304 161.456C398.091 157.625 408.916 143.413 424.754 158.961Z" fill="#FFDDB0"/>
<path d="M395.252 185.713C394.94 187.183 394.985 189.522 394.16 189.945C393.336 190.368 389.705 184.8 389.371 184.265C387.056 181.174 385.105 177.825 383.558 174.286C381.865 170.588 379.414 166.512 380.417 162.28C381.054 159.937 382.488 157.889 384.471 156.488C385.072 156.02 386.698 155.152 386.943 154.461C388.356 150.876 390.847 147.817 394.071 145.707C399.462 142.165 407.771 145.484 407.771 145.484C408.916 144.306 410.22 143.293 411.646 142.477C417.861 139.916 425.702 143.413 429.021 149.962C432.34 156.51 431.605 167.002 425.501 171.813C425.501 170.276 425.1 166.289 425.1 164.752C421.937 165.599 418.552 164.997 415.233 165.465C412.918 165.781 410.707 166.627 408.773 167.938C407.949 168.513 407.161 169.138 406.412 169.809C405.031 172.548 403.004 176.135 399.841 176.692C394.762 177.583 396.143 176.38 393.782 176.87C391.421 177.36 395.809 182.995 395.252 185.713Z" fill="#603813"/>
<path d="M414.856 179.632L413.386 173.952C413.347 173.693 413.405 173.429 413.548 173.209C413.692 172.99 413.91 172.831 414.163 172.763C414.416 172.694 414.685 172.72 414.919 172.837C415.154 172.953 415.337 173.152 415.435 173.395C416.627 177.038 417.564 180.759 418.242 184.532C418.465 186.448 417.106 188.675 414.901 187.807C413.653 187.317 414.188 185.267 415.457 185.757C416.727 186.247 415.591 182.483 415.457 182.372L414.856 179.632Z" fill="#603813"/>
<path d="M408.984 189.455C409.504 190.236 410.288 190.803 411.192 191.053C412.096 191.302 413.06 191.217 413.907 190.814C415.132 190.212 416.135 192.039 414.976 192.64C413.641 193.309 412.105 193.464 410.663 193.073C409.221 192.683 407.973 191.776 407.158 190.524C406.4 189.388 408.227 188.252 408.984 189.455Z" fill="#603813"/>
<path d="M422.034 175.177C422.288 175.213 422.521 175.341 422.689 175.535C422.857 175.729 422.949 175.978 422.949 176.235C422.949 176.491 422.857 176.74 422.689 176.934C422.521 177.128 422.288 177.256 422.034 177.293C421.78 177.256 421.547 177.128 421.379 176.934C421.211 176.74 421.119 176.491 421.119 176.235C421.119 175.978 421.211 175.729 421.379 175.535C421.547 175.341 421.78 175.213 422.034 175.177Z" fill="#603813"/>
<path d="M406.655 178.229C406.909 178.265 407.142 178.393 407.31 178.587C407.478 178.781 407.57 179.03 407.57 179.287C407.57 179.543 407.478 179.792 407.31 179.986C407.142 180.18 406.909 180.308 406.655 180.345C406.401 180.308 406.168 180.18 406 179.986C405.832 179.792 405.74 179.543 405.74 179.287C405.74 179.03 405.832 178.781 406 178.587C406.168 178.393 406.401 178.265 406.655 178.229Z" fill="#603813"/>
<path d="M397.398 193.443C399.626 196.762 401.853 200.37 405.662 201.929C407.583 202.65 409.655 202.877 411.686 202.589C413.718 202.301 415.645 201.508 417.29 200.281C417.735 199.969 418.159 200.704 417.713 201.016C416.003 202.275 414.014 203.101 411.915 203.423C409.816 203.745 407.671 203.553 405.662 202.865C401.519 201.283 398.98 197.452 396.752 193.955C396.351 193.398 397.109 192.975 397.398 193.443Z" fill="#603813"/>
<path d="M402.504 277.174V335.646C402.504 335.959 402.38 336.26 402.158 336.481C401.937 336.702 401.636 336.827 401.323 336.827C401.01 336.827 400.71 336.702 400.489 336.481C400.267 336.26 400.143 335.959 400.143 335.646V277.174C400.143 276.861 400.267 276.561 400.489 276.339C400.71 276.118 401.01 275.994 401.323 275.994C401.636 275.994 401.937 276.118 402.158 276.339C402.38 276.561 402.504 276.861 402.504 277.174Z" fill="#751968"/>
<path d="M320.051 386.797L497.864 284.139L523.197 269.517C523.35 269.427 523.484 269.309 523.591 269.167C523.698 269.026 523.777 268.865 523.822 268.693C523.866 268.522 523.877 268.343 523.853 268.167C523.829 267.991 523.771 267.822 523.681 267.669C523.591 267.516 523.473 267.382 523.331 267.275C523.19 267.167 523.029 267.089 522.857 267.044C522.686 266.999 522.507 266.988 522.331 267.013C522.156 267.037 521.986 267.095 521.833 267.185L344.02 369.843L318.669 384.483C318.36 384.664 318.135 384.96 318.044 385.307C317.953 385.653 318.004 386.022 318.185 386.331C318.365 386.64 318.662 386.865 319.008 386.956C319.355 387.047 319.723 386.996 320.033 386.815L320.051 386.797Z" fill="#B3B3B3"/>
<path d="M327 426L489 331" stroke="#00A99D" stroke-width="9.18667" stroke-miterlimit="10"/>
<path d="M325 404L432 342" stroke="#F7931E" stroke-width="9.18667" stroke-miterlimit="10"/>
<path d="M331 446L401 404" stroke="#29ABE2" stroke-width="9.18667" stroke-miterlimit="10"/>
</g>
<defs>
<clipPath id="clip0">
<rect width="880" height="660" fill="white"/>
</clipPath>
</defs>
</svg>
