<svg width="53" height="54" viewBox="0 0 53 54" fill="none" xmlns="http://www.w3.org/2000/svg">
<path d="M11.2833 52.6468C12.3783 53.7418 13.2664 54.6299 14.9338 52.964C16.5998 51.2981 13.9295 48.6277 15.5969 46.9603L16.4306 46.1266C18.098 44.4592 20.7684 47.1295 22.4328 45.4651C24.1002 43.7976 23.2121 42.9095 22.1156 41.8145L18.0724 37.7728C16.9774 36.6778 15.3416 36.5358 14.4218 37.4571L6.92441 44.9545C6.0031 45.8744 6.14507 47.5101 7.24008 48.6051L11.2833 52.6468Z" fill="#31373D"/>
<path d="M0.884693 50.9916C2.06428 52.1712 3.9764 52.1712 5.1575 50.9916L33.96 22.1906C33.8075 18.0719 41.4363 14.7143 39.3007 12.5787C38.1211 11.3991 32.8922 21.1228 28.772 18.8346L0.884693 46.7203C-0.294898 47.9014 -0.294898 49.8136 0.884693 50.9916Z" fill="#67757F"/>
<path d="M24.883 5.6368C21.6387 8.87954 21.6372 14.1401 24.883 17.3844C28.1272 20.6286 33.3863 20.6286 36.6305 17.3844C39.8733 14.1401 39.8733 8.88105 36.6305 5.6368C33.3863 2.39255 28.1257 2.39255 24.883 5.6368ZM34.4934 15.2487C32.4302 17.3134 29.0818 17.3134 27.0171 15.2487C24.9524 13.1841 24.9524 9.83711 27.0171 7.77245C29.0818 5.70779 32.4287 5.70779 34.4934 7.77245C36.558 9.83711 36.558 13.1841 34.4934 15.2487Z" fill="#31373D"/>
<path d="M38.7691 2.43319C35.5249 5.67593 35.5249 10.9365 38.7691 14.1808C42.0134 17.425 47.2724 17.425 50.5152 14.1808C53.7594 10.9365 53.7594 5.67593 50.5152 2.43319C47.2724 -0.811063 42.0134 -0.811063 38.7691 2.43319ZM48.381 12.0451C46.3179 14.1083 42.9694 14.1083 40.9063 12.0451C38.8416 9.97894 38.8416 6.6335 40.9063 4.56884C42.9694 2.50417 46.3164 2.50266 48.381 4.56884C50.4457 6.63199 50.4457 9.98045 48.381 12.0451Z" fill="#31373D"/>
<path d="M35.561 16.3168C32.3182 19.5596 32.3182 24.8201 35.561 28.0644C38.8037 31.3086 44.0658 31.3086 47.3085 28.0644C50.5513 24.8201 50.5513 19.5611 47.3085 16.3168C44.0658 13.0741 38.8052 13.0741 35.561 16.3168ZM45.1744 25.9287C43.1112 27.9934 39.7628 27.9934 37.6981 25.9287C35.6335 23.8641 35.635 20.5171 37.6981 18.454C39.7628 16.3893 43.1097 16.3878 45.1744 18.454C47.2375 20.5171 47.2375 23.8641 45.1744 25.9287Z" fill="#31373D"/>
<path d="M28.6178 27.5295C29.7974 28.7091 29.7974 30.6227 28.6178 31.8023C27.4382 32.9804 25.5246 32.9804 24.345 31.8023L20.0722 27.5295C18.8926 26.3514 18.8926 24.4378 20.0722 23.2582C21.2518 22.0786 23.1654 22.0786 24.345 23.2582L28.6178 27.5295Z" fill="#67757F"/>
<path d="M38.6002 15.0866C39.4344 15.0866 40.1106 14.4104 40.1106 13.5763C40.1106 12.7421 39.4344 12.0659 38.6002 12.0659C37.7661 12.0659 37.0898 12.7421 37.0898 13.5763C37.0898 14.4104 37.7661 15.0866 38.6002 15.0866Z" fill="#31373D"/>
</svg>
