<svg width="937" height="638" viewBox="0 0 937 638" fill="none" xmlns="http://www.w3.org/2000/svg">
<path d="M715.01 211.602C671.511 185.833 561.665 121.107 519.445 96.2595C514.325 93.2463 508.512 91.6716 502.601 91.696C496.69 91.7204 490.89 93.3431 485.794 96.3985L226.625 251.775C224.755 252.893 223.206 254.495 222.135 256.418C221.065 258.341 220.51 260.518 220.528 262.729C220.545 264.94 221.133 267.108 222.234 269.013C223.334 270.919 224.908 272.495 226.796 273.582L441.035 397.3L715.061 233.2C716.907 232.093 718.437 230.512 719.498 228.615C720.559 226.718 721.115 224.57 721.109 222.386C721.104 220.202 720.538 218.057 719.468 216.165C718.398 214.273 716.861 212.7 715.01 211.602Z" fill="#76DDBD"/>
<path d="M309.493 201.235L527.971 323.278C530.081 324.473 531.84 326.201 533.071 328.291C534.303 330.38 534.963 332.756 534.985 335.181C535.008 337.606 534.393 339.994 533.201 342.106C532.009 344.218 530.283 345.98 528.195 347.214L266.025 499.996C262.857 501.843 259.275 502.861 255.609 502.957C251.944 503.052 248.313 502.222 245.054 500.542L39.7203 394.687C37.1099 393.327 34.908 391.298 33.3403 388.807C31.7727 386.317 30.8957 383.454 30.7993 380.512C30.7029 377.571 31.3906 374.656 32.7918 372.068C34.193 369.48 36.2574 367.311 38.7732 365.784L309.493 201.235Z" fill="#AAACF9"/>
<path opacity="0.32" d="M214.601 285.279L133.08 338.054L150.457 357.445L239.071 300.577C229.768 294.488 222.755 292.881 214.601 285.279Z" fill="url(#paint0_linear)"/>
<path d="M223.964 290.662L237.293 296.791C237.793 297.023 238.221 297.386 238.531 297.842C238.841 298.298 239.021 298.83 239.052 299.381C239.083 299.932 238.963 300.48 238.707 300.968C238.45 301.456 238.065 301.865 237.594 302.152L206.583 320.991C205.908 321.415 205.093 321.558 204.315 321.387C203.536 321.217 202.855 320.748 202.418 320.081L194.593 308.379" fill="#56403D"/>
<path d="M157.593 257.562L261.957 194.998C262.675 194.566 263.494 194.332 264.331 194.319C265.168 194.305 265.995 194.513 266.726 194.922C267.457 195.33 268.068 195.924 268.496 196.644C268.924 197.363 269.154 198.184 269.164 199.021L270.266 262.206C270.279 262.901 270.109 263.587 269.772 264.195C269.436 264.803 268.945 265.312 268.349 265.67L157.129 332.448C156.746 332.682 156.307 332.81 155.857 332.819C155.408 332.828 154.964 332.718 154.571 332.5C154.178 332.282 153.85 331.964 153.62 331.578C153.39 331.192 153.266 330.752 153.261 330.302L152.163 267.394C152.125 265.422 152.607 263.476 153.56 261.75C154.513 260.024 155.904 258.58 157.593 257.562Z" fill="#68E1FD"/>
<path d="M262.028 199.768L160.838 260.368C159.757 261.015 158.865 261.935 158.253 263.036C157.641 264.137 157.33 265.38 157.351 266.639L158.178 314.007C158.187 314.46 158.314 314.903 158.547 315.291C158.781 315.679 159.112 315.999 159.508 316.219C159.904 316.439 160.351 316.552 160.804 316.545C161.257 316.538 161.7 316.412 162.089 316.18L265.293 254.534C265.679 254.304 265.998 253.976 266.217 253.584C266.436 253.192 266.547 252.749 266.541 252.3L265.659 201.793C265.651 201.372 265.533 200.961 265.316 200.6C265.1 200.239 264.793 199.942 264.425 199.737C264.058 199.532 263.643 199.427 263.222 199.432C262.802 199.438 262.39 199.553 262.028 199.768Z" fill="white"/>
<path d="M223.191 287.707C223.433 286.322 222.647 285.029 221.435 284.817C220.224 284.606 219.046 285.557 218.805 286.941C218.563 288.325 219.349 289.619 220.56 289.83C221.772 290.042 222.949 289.091 223.191 287.707Z" fill="#AB643C"/>
<path d="M165.045 262.95C165.663 262.94 166.155 262.392 166.144 261.728C166.132 261.064 165.621 260.534 165.003 260.545C164.384 260.555 163.892 261.103 163.904 261.767C163.915 262.431 164.426 262.961 165.045 262.95Z" fill="#659FE4"/>
<path d="M168.568 261.119C169.187 261.108 169.679 260.561 169.667 259.896C169.655 259.232 169.145 258.702 168.526 258.713C167.908 258.724 167.416 259.271 167.427 259.935C167.439 260.6 167.95 261.129 168.568 261.119Z" fill="#C5E9FF"/>
<path opacity="0.32" d="M311.26 221.895L256.344 256.198L283.68 271.667L335.795 240.137C326.422 234.022 319.414 229.497 311.26 221.895Z" fill="url(#paint1_linear)"/>
<path opacity="0.32" d="M362.381 325.85L295.026 359.873L371.851 410.396L423.966 378.865C414.593 372.75 370.521 333.453 362.381 325.85Z" fill="url(#paint2_linear)"/>
<path opacity="0.32" d="M220.305 375.132L141.171 426.856L246.424 491.238L313.991 444.834C304.618 438.718 228.445 382.735 220.305 375.132Z" fill="url(#paint3_linear)"/>
<path opacity="0.32" d="M129.564 375.872L74.6483 410.176L101.984 425.645L154.058 394.116C144.727 387.999 137.719 383.475 129.564 375.872Z" fill="url(#paint4_linear)"/>
<path d="M99.7886 384.704C100.144 385.251 127.215 399.798 127.215 399.798L145.588 389.063L153.909 384.022L143.462 378.202L126.591 368.815L99.7886 384.704Z" fill="#967371"/>
<path d="M127.216 399.798L127.398 410.195L154.086 394.115L153.91 384.022L127.216 399.798Z" fill="#56403D"/>
<path d="M99.793 384.704L99.974 395.074L127.401 410.196L127.219 399.798L99.793 384.704Z" fill="#56403D"/>
<path d="M127.651 390.013C133.371 389.913 137.962 387.244 137.906 384.053C137.85 380.861 133.169 378.354 127.45 378.454C121.73 378.554 117.139 381.222 117.195 384.414C117.25 387.606 121.932 390.112 127.651 390.013Z" fill="#56403D"/>
<path d="M129.175 353.792C129.156 352.685 128.246 351.803 127.142 351.822C126.039 351.841 125.16 352.754 125.18 353.861L125.705 383.961C125.724 385.068 126.634 385.95 127.738 385.931C128.841 385.912 129.72 384.998 129.701 383.891L129.175 353.792Z" fill="#6D5351"/>
<path d="M127.311 360.643C133.282 360.539 138.038 355.613 137.934 349.642C137.83 343.671 132.904 338.915 126.933 339.019C120.962 339.123 116.206 344.048 116.31 350.02C116.414 355.991 121.339 360.747 127.311 360.643Z" fill="#ED1C24"/>
<path d="M127.262 338.971C128.692 340.255 129.849 341.815 130.661 343.558C131.473 345.3 131.925 347.188 131.989 349.11C132.182 351.596 131.479 354.07 130.007 356.084C128.536 358.098 126.393 359.52 123.965 360.093C125.446 360.548 127.007 360.68 128.543 360.479C130.079 360.278 131.554 359.749 132.867 358.928C134.181 358.107 135.302 357.013 136.155 355.72C137.009 354.428 137.574 352.967 137.813 351.436C138.052 349.906 137.959 348.342 137.54 346.85C137.121 345.359 136.386 343.975 135.385 342.793C134.384 341.611 133.141 340.657 131.739 339.998C130.338 339.339 128.811 338.989 127.262 338.971Z" fill="#E01B2A"/>
<path d="M122.293 344.286C121.223 345.223 120.409 346.418 119.929 347.758C119.449 349.097 119.319 350.537 119.55 351.94C118.547 349.937 118.339 347.629 118.967 345.478C119.952 341.699 122.293 344.286 122.293 344.286Z" fill="white"/>
<path d="M349.109 281.921C333.491 277.782 313.541 288.503 300.018 294.977C279.983 304.821 260.561 315.866 241.858 328.051C226.196 338.005 215.376 348.083 211.809 367.12C211.279 375.58 211.066 384.034 212.146 386.477C214.372 391.97 276.642 445.402 307.347 447.854C338.052 450.305 294.775 376.515 298.418 370.491C302.061 364.466 335.317 345.146 340.504 346.756C345.691 348.367 415.811 387.998 421.152 379.426C438.222 351.91 380.774 290.289 349.109 281.921Z" fill="#68E1FD"/>
<path d="M423.869 362.907C423.869 362.907 421.712 375.6 410.653 373.497C399.593 371.394 349.645 333.002 340.407 335.39C331.169 337.777 295.028 359.873 295.028 359.873L298.572 374.319L343.657 350.408C343.657 350.408 396.805 384.402 414.524 382.917C432.242 381.432 423.869 362.907 423.869 362.907Z" fill="#68E1FD"/>
<path d="M311.977 438.604C307.367 438.338 302.977 436.41 298.903 434.351C293.628 431.677 288.393 428.891 283.186 426.106C271.944 420.14 261.132 413.397 250.83 405.925C242.691 399.982 234.348 394.249 226.384 388.068C220.846 383.767 215.369 378.98 211.477 373.115C211.239 379.273 211.29 384.611 212.071 386.52C214.296 392.013 276.567 445.445 307.271 447.897C315.096 448.521 318.105 444.195 318.33 437.303C316.368 438.298 314.173 438.747 311.977 438.604Z" fill="#68E1FD"/>
<path opacity="0.52" d="M423.869 362.907C423.869 362.907 421.712 375.6 410.653 373.497C399.593 371.394 349.645 333.002 340.407 335.39C331.169 337.777 295.028 359.873 295.028 359.873L298.572 374.319L343.657 350.408C343.657 350.408 396.805 384.402 414.524 382.917C432.242 381.432 423.869 362.907 423.869 362.907Z" fill="#505A63"/>
<path opacity="0.52" d="M311.977 438.604C307.367 438.338 302.977 436.41 298.903 434.351C293.628 431.677 288.393 428.891 283.186 426.106C271.944 420.14 261.132 413.397 250.83 405.925C242.691 399.982 234.348 394.249 226.384 388.068C220.846 383.767 215.369 378.98 211.477 373.115C211.239 379.273 211.29 384.611 212.071 386.52C214.296 392.013 276.567 445.445 307.271 447.897C315.096 448.521 318.105 444.195 318.33 437.303C316.368 438.298 314.173 438.747 311.977 438.604Z" fill="#505A63"/>
<path d="M344.131 322.172C357.051 321.946 367.392 314.168 367.228 304.799C367.065 295.43 356.458 288.017 343.538 288.243C330.618 288.468 320.277 296.246 320.441 305.616C320.604 314.985 331.211 322.397 344.131 322.172Z" fill="#505A63"/>
<path d="M254.327 379.061C268.247 378.818 279.389 370.443 279.213 360.356C279.037 350.269 267.61 342.289 253.689 342.532C239.769 342.775 228.627 351.149 228.803 361.236C228.979 371.323 240.407 379.304 254.327 379.061Z" fill="#505A63"/>
<path d="M294.863 350.623C301.544 350.506 306.907 347.366 306.842 343.609C306.776 339.852 301.307 336.901 294.625 337.018C287.944 337.135 282.581 340.275 282.646 344.032C282.712 347.789 288.181 350.74 294.863 350.623Z" fill="#757575"/>
<path d="M283.822 346.86C283.822 346.86 286.096 341.62 289.888 341.001C293.681 340.382 301.208 338.992 304.028 341.294C306.848 343.596 306.649 344.871 306.649 344.871C305.561 346.588 304.064 348.008 302.293 349.004C300.522 350 298.532 350.542 296.5 350.581C289.068 351.084 284.719 348.352 283.822 346.86Z" fill="#494949"/>
<path d="M295.258 347.532C299.504 347.458 302.901 344.835 302.846 341.674C302.791 338.513 299.304 336.01 295.058 336.084C290.813 336.158 287.416 338.781 287.471 341.942C287.526 345.104 291.013 347.606 295.258 347.532Z" fill="#090502"/>
<path d="M294.735 343.337C299.63 343.251 303.549 340.353 303.488 336.863C303.427 333.374 299.41 330.614 294.515 330.7C289.62 330.785 285.702 333.683 285.763 337.173C285.824 340.662 289.841 343.422 294.735 343.337Z" fill="#757575"/>
<path d="M285.842 337.462C286.122 340.818 290.095 343.418 294.796 343.336C299.497 343.254 303.61 340.416 303.548 336.863C303.528 336.392 303.436 335.927 303.275 335.484C299.417 340.282 291.815 339.737 285.842 337.462Z" fill="#494949"/>
<path d="M318.886 340.218C325.568 340.102 330.931 336.961 330.865 333.205C330.8 329.448 325.33 326.497 318.649 326.613C311.967 326.73 306.604 329.87 306.67 333.627C306.735 337.384 312.205 340.335 318.886 340.218Z" fill="#757575"/>
<path d="M307.842 336.47C307.842 336.47 310.115 331.23 313.908 330.61C317.7 329.991 325.227 328.601 328.047 330.903C330.867 333.205 330.668 334.481 330.668 334.481C329.58 336.197 328.084 337.617 326.313 338.613C324.542 339.61 322.551 340.151 320.52 340.19C313.088 340.679 308.739 337.948 307.842 336.47Z" fill="#494949"/>
<path d="M319.278 337.127C323.523 337.053 326.92 334.43 326.865 331.269C326.81 328.108 323.324 325.605 319.078 325.679C314.832 325.753 311.435 328.376 311.491 331.537C311.546 334.699 315.032 337.201 319.278 337.127Z" fill="#090502"/>
<path d="M318.759 332.932C323.654 332.847 327.572 329.948 327.511 326.459C327.45 322.969 323.433 320.21 318.538 320.295C313.644 320.38 309.725 323.279 309.786 326.768C309.847 330.258 313.864 333.018 318.759 332.932Z" fill="#757575"/>
<path d="M309.795 327.072C310.075 330.428 314.048 333.028 318.749 332.946C323.45 332.864 327.563 330.026 327.501 326.473C327.481 326.002 327.389 325.537 327.228 325.094C323.439 329.877 315.837 329.345 309.795 327.072Z" fill="#494949"/>
<path d="M268.848 325.934L277.743 320.509C278.234 320.2 278.8 320.032 279.38 320.022C279.96 320.011 280.532 320.16 281.033 320.452L281.159 320.518C281.628 320.803 282.016 321.203 282.284 321.682C282.552 322.16 282.693 322.699 282.691 323.248C282.69 323.796 282.546 324.335 282.275 324.811C282.004 325.288 281.614 325.686 281.143 325.968L272.123 331.326C271.626 331.619 271.058 331.772 270.48 331.768C269.903 331.763 269.337 331.601 268.845 331.3C268.393 331.012 268.022 330.616 267.765 330.146C267.508 329.677 267.373 329.151 267.373 328.616C267.374 328.081 267.509 327.555 267.767 327.086C268.024 326.617 268.396 326.221 268.848 325.934Z" fill="#505A63"/>
<path d="M291.016 312.228L299.911 306.804C300.402 306.495 300.968 306.326 301.548 306.316C302.128 306.306 302.7 306.455 303.201 306.746L303.327 306.813C303.796 307.097 304.183 307.498 304.452 307.976C304.72 308.454 304.861 308.994 304.859 309.542C304.858 310.091 304.714 310.629 304.443 311.106C304.172 311.583 303.782 311.981 303.311 312.263L294.291 317.62C293.793 317.914 293.226 318.067 292.648 318.062C292.071 318.058 291.505 317.896 291.013 317.594C290.561 317.307 290.19 316.91 289.933 316.441C289.676 315.972 289.541 315.445 289.541 314.91C289.542 314.375 289.677 313.849 289.935 313.38C290.192 312.912 290.564 312.515 291.016 312.228Z" fill="#505A63"/>
<path d="M326.995 311.199C327.522 311.273 337.966 316.927 337.966 316.927L362.11 301.679L350.932 295.167L326.995 311.171" fill="#090502"/>
<path d="M328.028 302.689L350.85 315.443C350.85 315.443 360.543 309.009 360.275 308.71C360.007 308.41 337.936 296.652 337.936 296.652L328.028 302.689Z" fill="#090502"/>
<path d="M327.984 300.449L328.023 302.689L331.413 301.939L327.984 300.449Z" fill="#090502"/>
<path d="M362.074 299.453L362.113 301.707L359.338 301.188L362.074 299.453Z" fill="#090502"/>
<path d="M360.23 306.456L360.27 308.696L358.835 309.703L358.337 308.107L360.23 306.456Z" fill="#090502"/>
<path d="M326.996 311.213L326.957 308.959L330.117 309.346L328.77 310.601L326.996 311.213Z" fill="#090502"/>
<path d="M326.96 308.959C327.487 309.033 337.93 314.687 337.93 314.687L362.075 299.454L350.897 292.941L326.959 308.946" fill="#757575"/>
<path d="M327.981 300.449L350.803 313.204C350.803 313.204 360.496 306.769 360.228 306.47C359.96 306.17 337.889 294.412 337.889 294.412L327.981 300.449Z" fill="#757575"/>
<path d="M244.343 371.919C247.443 371.864 249.93 370.329 249.898 368.488C249.866 366.648 247.327 365.2 244.227 365.254C241.126 365.308 238.639 366.844 238.671 368.684C238.704 370.525 241.243 371.973 244.343 371.919Z" fill="#C6172B"/>
<path d="M238.672 368.685L238.602 364.634L249.828 364.438L249.899 368.489" fill="#C6172B"/>
<path d="M244.269 367.868C247.369 367.814 249.856 366.278 249.824 364.438C249.792 362.597 247.253 361.149 244.152 361.204C241.052 361.258 238.565 362.793 238.597 364.634C238.629 366.474 241.169 367.922 244.269 367.868Z" fill="#F62435"/>
<path d="M245.71 359.116C248.81 359.061 251.298 357.526 251.265 355.685C251.233 353.845 248.694 352.397 245.594 352.451C242.494 352.505 240.007 354.041 240.039 355.881C240.071 357.722 242.61 359.17 245.71 359.116Z" fill="#D38A09"/>
<path d="M240.039 355.881L239.969 351.83L251.196 351.634L251.266 355.685" fill="#D38A09"/>
<path d="M245.64 355.064C248.74 355.01 251.227 353.474 251.195 351.634C251.163 349.794 248.624 348.346 245.524 348.4C242.423 348.454 239.936 349.99 239.968 351.83C240 353.67 242.54 355.118 245.64 355.064Z" fill="#F4BD21"/>
<path d="M263.007 358.814C266.107 358.76 268.594 357.224 268.562 355.384C268.53 353.543 265.991 352.095 262.891 352.15C259.791 352.204 257.303 353.739 257.336 355.58C257.368 357.42 259.907 358.868 263.007 358.814Z" fill="#0071BC"/>
<path d="M257.336 355.579L257.266 351.528L268.492 351.332L268.563 355.383" fill="#0071BC"/>
<path d="M262.937 354.763C266.037 354.708 268.524 353.173 268.492 351.332C268.46 349.492 265.921 348.044 262.82 348.098C259.72 348.152 257.233 349.688 257.265 351.528C257.297 353.369 259.837 354.817 262.937 354.763Z" fill="#29ABE2"/>
<path d="M261.382 370.321C264.482 370.267 266.969 368.731 266.937 366.891C266.905 365.051 264.366 363.603 261.266 363.657C258.166 363.711 255.678 365.247 255.711 367.087C255.743 368.927 258.282 370.375 261.382 370.321Z" fill="#39B54A"/>
<path d="M255.708 367.087L255.637 363.022L266.864 362.826L266.935 366.891" fill="#39B54A"/>
<path d="M261.312 366.256C264.412 366.202 266.899 364.666 266.867 362.826C266.835 360.986 264.296 359.538 261.195 359.592C258.095 359.646 255.608 361.182 255.64 363.022C255.672 364.862 258.212 366.31 261.312 366.256Z" fill="#3AD84A"/>
<path d="M317.201 246.782C329.518 246.567 339.38 239.361 339.229 230.686C339.077 222.012 328.97 215.154 316.653 215.369C304.336 215.584 294.474 222.791 294.626 231.465C294.777 240.139 304.885 246.997 317.201 246.782Z" fill="#68E1FD"/>
<path d="M316.898 228.642C326.122 228.481 333.546 225.286 333.48 221.506C333.414 217.727 325.883 214.793 316.659 214.954C307.435 215.115 300.011 218.31 300.076 222.09C300.142 225.869 307.674 228.803 316.898 228.642Z" fill="#974C26"/>
<path d="M317.904 221.945C319.254 220.082 320.465 218.124 321.81 215.929C323.531 213.133 325.141 210.27 326.597 207.326C327.964 204.709 329.124 201.988 330.064 199.189C331.111 196.153 331.94 193.047 332.544 189.893C332.695 189.061 332.833 188.228 332.957 187.396C332.95 187.009 333.02 187.05 333.021 187.105C333.022 187.16 333.016 186.842 333.008 186.386C333.131 184.696 333.212 183.008 333.196 181.307C333.173 175.446 331.942 169.653 329.58 164.29C323.703 173.141 319.81 183.159 318.171 193.657C318.062 194.286 317.962 194.914 317.872 195.543C317.872 195.543 317.726 196.693 317.665 197.151L317.568 198.729C317.499 199.523 317.439 200.322 317.388 201.125C317.193 204.199 317.136 207.298 317.204 210.381C317.271 214.238 317.532 218.092 317.904 221.945ZM324.206 175.724C324.603 175.256 325.01 174.788 325.426 174.32C325.317 174.712 325.296 175.123 325.364 175.524C324.97 175.531 324.579 175.598 324.206 175.724Z" fill="#999A1C"/>
<path d="M318.323 222.228C318.395 219.972 318.409 217.621 318.364 215.063C318.307 211.786 318.098 208.498 317.736 205.241C317.454 202.3 316.941 199.386 316.201 196.527C315.445 193.407 314.467 190.346 313.275 187.367C312.957 186.584 312.626 185.815 312.281 185.047C312.122 184.69 312.15 184.717 312.179 184.772L311.822 184.142C311.008 182.662 310.166 181.183 309.243 179.775C306.057 174.859 301.892 170.652 297.008 167.417C296.845 178.038 298.982 188.57 303.273 198.287C303.523 198.873 303.777 199.454 304.036 200.031L304.726 201.498L305.455 202.869C305.827 203.581 306.208 204.285 306.598 204.979C308.098 207.718 309.72 210.304 311.438 212.86C313.638 216.072 315.933 219.185 318.323 222.228ZM298.638 179.946C298.719 179.336 298.819 178.731 298.938 178.129C299.059 178.516 299.264 178.871 299.537 179.17C299.205 179.373 298.907 179.625 298.651 179.918L298.638 179.946Z" fill="#999A1C"/>
<path d="M318.426 223.388C317.741 222.141 316.999 220.868 316.132 219.5C315.036 217.749 313.873 216.041 312.627 214.403C311.535 212.902 310.326 211.489 309.013 210.178C307.593 208.738 306.072 207.401 304.462 206.178L303.173 205.246C302.977 205.111 303.005 205.111 303.033 205.124L302.641 204.896C301.719 204.359 300.797 203.835 299.849 203.368C296.547 201.73 292.943 200.79 289.262 200.607C292.605 206.391 297.16 211.383 302.615 215.241L303.595 215.929L304.434 216.496L305.287 217.02L306.587 217.786C308.272 218.752 309.994 219.644 311.751 220.462C313.942 221.585 316.185 222.528 318.426 223.388ZM294.185 206.924C294.031 206.567 293.891 206.21 293.765 205.853C293.955 206.02 294.179 206.143 294.422 206.215C294.306 206.437 294.226 206.677 294.185 206.924Z" fill="#999A1C"/>
<path d="M317.904 221.945C319.254 220.082 320.465 218.124 321.81 215.929C323.531 213.133 325.141 210.27 326.597 207.326C327.964 204.709 329.124 201.988 330.064 199.189C331.111 196.153 331.94 193.047 332.544 189.893C332.695 189.061 332.833 188.228 332.957 187.396C332.95 187.009 333.02 187.05 333.021 187.105C333.022 187.16 333.016 186.842 333.008 186.386C333.131 184.696 333.212 183.008 333.196 181.307C333.173 175.446 331.942 169.653 329.58 164.29C323.703 173.141 319.81 183.159 318.171 193.657C318.062 194.286 317.962 194.914 317.872 195.543C317.872 195.543 317.726 196.693 317.665 197.151L317.568 198.729C317.499 199.523 317.439 200.322 317.388 201.125C317.193 204.199 317.136 207.298 317.204 210.381C317.271 214.238 317.532 218.092 317.904 221.945ZM324.206 175.724C324.603 175.256 325.01 174.788 325.426 174.32C325.317 174.712 325.296 175.123 325.364 175.524C324.97 175.531 324.579 175.598 324.206 175.724Z" fill="#999A1C"/>
<path d="M318.323 222.228C318.395 219.972 318.409 217.621 318.364 215.063C318.307 211.786 318.098 208.498 317.736 205.241C317.454 202.3 316.941 199.386 316.201 196.527C315.445 193.407 314.467 190.346 313.275 187.367C312.957 186.584 312.626 185.815 312.281 185.047C312.122 184.69 312.15 184.717 312.179 184.772L311.822 184.142C311.008 182.662 310.166 181.183 309.243 179.775C306.057 174.859 301.892 170.652 297.008 167.417C296.845 178.038 298.982 188.57 303.273 198.287C303.523 198.873 303.777 199.454 304.036 200.031L304.726 201.498L305.455 202.869C305.827 203.581 306.208 204.285 306.598 204.979C308.098 207.718 309.72 210.304 311.438 212.86C313.638 216.072 315.933 219.185 318.323 222.228ZM298.638 179.946C298.719 179.336 298.819 178.731 298.938 178.129C299.059 178.516 299.264 178.871 299.537 179.17C299.205 179.373 298.907 179.625 298.651 179.918L298.638 179.946Z" fill="#999A1C"/>
<path d="M318.426 223.388C317.741 222.141 316.999 220.868 316.132 219.5C315.036 217.749 313.873 216.041 312.627 214.403C311.535 212.902 310.326 211.489 309.013 210.178C307.593 208.738 306.072 207.401 304.462 206.178L303.173 205.246C302.977 205.111 303.005 205.111 303.033 205.124L302.641 204.896C301.719 204.359 300.797 203.835 299.849 203.368C296.547 201.73 292.943 200.79 289.262 200.607C292.605 206.391 297.16 211.383 302.615 215.241L303.595 215.929L304.434 216.496L305.287 217.02L306.587 217.786C308.272 218.752 309.994 219.644 311.751 220.462C313.942 221.585 316.185 222.528 318.426 223.388ZM294.185 206.924C294.031 206.567 293.891 206.21 293.765 205.853C293.955 206.02 294.179 206.143 294.422 206.215C294.306 206.437 294.226 206.677 294.185 206.924Z" fill="#999A1C"/>
<path d="M343.734 279.553L345.747 283.142L350.693 280.483L349.467 276.784L343.734 279.553Z" fill="#F4C2AE"/>
<path d="M352.738 276.395C352.738 276.395 364.428 284.489 367.417 292.528C370.407 300.567 363.565 309.524 363.565 309.524" fill="#F7734F"/>
<path d="M367.486 397.208L373.231 394.342L370.773 388.244L366.271 390.176" fill="#1E3180"/>
<path d="M374.673 381.04L368.203 381.153C368.11 383.796 367.572 387.042 365.309 388.118C364.42 388.673 360.94 389.799 359.799 389.39C358.658 388.981 355.075 388.159 354.653 388.498C354.23 388.837 352.588 389.848 355.986 392.79C359.384 395.732 366.623 397.597 367.585 397.262C368.547 396.927 366.286 390.992 368.998 391.857C371.96 392.802 370.374 399.371 370.825 399.889C371.745 400.424 372.747 400.803 373.791 401.012C374.535 400.62 375.257 400.188 375.953 399.716C375.83 393.453 375.223 387.199 374.673 381.04Z" fill="#1E3180"/>
<path d="M333.479 412.241L339.094 409.1L336.362 403.132L331.946 405.256" fill="#1E3180"/>
<path d="M340.665 393.707L333.407 396.227C333.479 400.374 332.26 403.411 328.019 404.481C326.229 404.927 324.808 404.357 323.062 404.152C322.593 404.061 322.107 404.097 321.658 404.259C321.208 404.42 320.809 404.7 320.505 405.068C319.573 406.343 320.728 407.54 321.738 408.338C325.258 411.14 332.587 412.658 333.535 412.281C334.483 411.905 331.947 406.072 334.712 406.812C337.713 407.617 336.432 414.25 336.897 414.754C337.838 415.244 338.853 415.577 339.902 415.739C340.629 415.305 341.332 414.831 342.007 414.319C341.649 408.101 341.52 399.888 340.665 393.707Z" fill="#1E3180"/>
<path d="M360.807 302.892C364.204 315.183 366.838 327.673 368.693 340.289C371.646 360.513 377.868 384.995 377.384 385.778C376.9 386.561 372.373 391.868 361.708 389.398L348.231 316.139" fill="#BF4225"/>
<path d="M343.425 319.639C343.425 319.639 331.835 344.155 329.423 358.913C327.011 373.67 330.103 397.861 330.103 397.861C330.103 397.861 339.504 401.625 347.23 398.945C347.23 398.945 347.75 362.977 348.978 359.623C350.205 356.268 358.816 342.453 358.954 328.22C359.093 313.986 355.568 306.15 355.568 306.15" fill="#BF4225"/>
<path d="M340.173 303.003C339.424 298.12 338.711 292.918 340.093 288.095C342.423 285.348 345.062 282.88 347.959 280.738C347.959 280.738 351.871 275.871 355.541 278.532C359.617 281.475 364.912 300.414 363.951 307.913C363.062 314.843 357.186 316.536 350.428 318.425C348.138 319.054 345.792 319.461 343.423 319.639C342.138 314.13 341.032 308.589 340.173 303.003Z" fill="#FFB93E"/>
<path d="M337.45 265.999C337.45 265.999 338.884 279.223 341.225 280.22C343.566 281.216 347.624 278.351 348.261 276.058C348.899 273.765 348.215 273.376 345.849 273.334C343.483 273.293 345.156 273.25 343.708 272.722C340.647 271.627 344.857 264.03 337.45 265.999Z" fill="#FFE4D7"/>
<path d="M340.889 260.075C342.047 259.5 343.27 259.065 344.531 258.78C345.952 258.368 347.451 258.305 348.901 258.598C350.351 258.89 351.709 259.529 352.859 260.46C355.302 262.565 356.896 265.487 357.345 268.68C357.628 271.441 357.08 274.881 354.789 276.774C351.94 279.134 346.884 281.061 344.64 277.671C344.236 277.126 343.914 276.526 343.682 275.889C342.557 273.323 341.021 270.958 339.134 268.888C338.433 268.116 337.955 267.169 337.75 266.148C337.544 265.126 337.62 264.068 337.968 263.085C338.541 261.759 339.58 260.688 340.889 260.075Z" fill="#F7734F"/>
<path d="M319.119 289.084C319.478 288.738 319.932 288.507 320.423 288.419C320.914 288.332 321.42 288.392 321.876 288.593L321.59 288.072C321.58 288.008 321.579 287.943 321.587 287.879C320.987 287.585 321.342 286.5 322.132 286.611C323.518 286.808 324.392 286.945 325.038 288.316C325.502 289.417 325.86 290.559 326.108 291.728C327.973 293.823 330.05 295.72 332.306 297.387C333.007 297.942 332.042 298.927 331.341 298.386L331.061 298.169C331.015 298.272 330.948 298.363 330.863 298.436C330.778 298.509 330.678 298.563 330.57 298.593C330.621 298.689 330.649 298.796 330.653 298.905C330.657 299.014 330.637 299.123 330.593 299.223C330.55 299.323 330.485 299.412 330.403 299.484C330.32 299.556 330.223 299.608 330.118 299.638C330.568 300.059 331.031 300.452 331.523 300.872C332.184 301.51 331.259 302.384 330.558 301.871C329.858 301.357 328.99 300.75 328.219 300.183C328.557 300.523 328.922 300.862 329.261 301.216C329.88 301.855 328.916 302.854 328.296 302.214C326.605 300.432 324.819 298.748 322.993 297.107C322.007 296.806 321.048 296.425 320.124 295.967C319.092 295.46 317.669 294.752 317.618 293.425C317.735 291.873 318.252 290.377 319.119 289.084Z" fill="#FFE4D7"/>
<path d="M315.384 286.95C315.856 286.222 316.395 286.199 317.094 285.855L316.477 285.395C315.736 284.938 315.106 284.32 314.634 283.588C314.377 283.108 314.792 282.327 315.391 282.565C317.08 283.186 318.683 284.018 320.164 285.04C321.561 285.818 322.54 288.069 323.167 289.137C323.61 289.904 322.433 290.63 321.99 289.849L321.633 289.164C321.546 289.289 321.422 289.383 321.278 289.433C321.28 289.557 321.393 289.666 321.464 289.789C321.539 289.913 321.571 290.059 321.554 290.203C321.6 290.278 321.63 290.362 321.641 290.45C321.75 291.153 322.366 292.374 321.49 292.845C321.366 292.909 321.229 292.94 321.09 292.935L322.23 294.091C322.32 294.177 322.384 294.286 322.416 294.406C322.448 294.526 322.446 294.652 322.411 294.771C322.376 294.89 322.309 294.997 322.217 295.081C322.126 295.164 322.013 295.221 321.891 295.245C321.888 295.337 321.862 295.427 321.815 295.507C321.769 295.587 321.704 295.654 321.626 295.703C321.548 295.752 321.459 295.782 321.367 295.789C321.275 295.795 321.182 295.78 321.098 295.743C319.148 294.961 316.306 293.821 315.017 292.032C314.666 291.217 314.516 290.33 314.58 289.446C314.644 288.561 314.92 287.705 315.384 286.95Z" fill="#FFE4D7"/>
<path d="M326.963 291.879L336.917 300.349L337.414 296.357C337.788 293.958 338.482 291.62 339.478 289.406C345.949 292.488 350.446 300.542 347.878 307.114C345.559 310.557 342.465 313.986 338.879 314.518C331.485 315.616 320.836 301.363 320.836 301.363C321.228 297.691 326.963 291.879 326.963 291.879Z" fill="#F7734F"/>
<path d="M351.212 260.379C351.051 251.156 366.647 249.308 369.146 257.811C369.47 258.963 369.518 260.174 369.286 261.348C369.054 262.521 368.548 263.623 367.81 264.564C367.072 265.506 366.122 266.26 365.038 266.765C363.953 267.27 362.765 267.513 361.57 267.472C358.414 267.314 355.323 266.516 352.484 265.128" fill="#F7734F"/>
<path d="M577.738 68.98L577.738 118.68L622.488 144.08L622.488 94.38L577.738 68.98Z" fill="#68E1FD"/>
<path opacity="0.22" d="M578 68.5201C578 68.5201 528.71 40.6001 529.22 41.9301C529.73 43.2601 527.66 138 527.66 138L607.12 188.6L622.72 143.6L622.72 93.9101L578 68.5201Z" fill="#68E1FD"/>
<path d="M534.422 124.23C534.733 124.57 535.132 124.817 535.575 124.944C536.018 125.071 536.488 125.073 536.932 124.95C538.272 124.41 545.522 120.24 547.932 115.03C548.025 114.264 547.854 113.49 547.447 112.835C547.039 112.18 546.42 111.684 545.692 111.43" fill="black"/>
<path d="M517.098 124.25C516.858 123.79 517.978 113 527.458 106.06C536.938 99.1201 548.458 102.9 548.458 102.9C548.458 102.9 551.238 94.1801 553.388 95.4501C555.538 96.7201 556.798 106.45 555.028 107.71C553.258 108.97 549.598 107.96 549.598 107.96C549.598 107.96 546.438 116.55 539.998 121.35C533.558 126.15 520.638 130.94 517.098 124.25Z" fill="#2B68E0"/>
<path d="M523.859 109.26C523.639 109.45 524.539 105.34 528.419 102.45C532.299 99.5601 542.569 97.5701 544.359 98.4501C546.149 99.3301 546.229 102.34 546.229 102.34C546.229 102.34 532.949 101.72 523.859 109.26Z" fill="black"/>
<path d="M534.999 115.1C535.509 115.1 539.939 114.75 540.169 115.57C540.399 116.39 536.359 119.42 534.999 119.65C533.639 119.88 534.999 115.1 534.999 115.1Z" fill="black"/>
<path d="M524.8 118.46C525.342 118.46 525.78 118.021 525.78 117.48C525.78 116.939 525.342 116.5 524.8 116.5C524.259 116.5 523.82 116.939 523.82 117.48C523.82 118.021 524.259 118.46 524.8 118.46Z" fill="black"/>
<path d="M581.002 202.23C577.188 199.391 574.582 195.222 573.702 190.55C572.482 183.01 564.212 157.94 548.392 153.55C532.572 149.16 527.222 156.71 530.392 165.23C533.562 173.75 536.472 176.43 532.582 179.35C528.692 182.27 525.002 182 529.522 188.6C534.042 195.2 551.322 203.69 561.052 203.45C570.782 203.21 576.142 202.72 579.792 205.4C579.792 205.39 582.472 205.88 581.002 202.23Z" fill="#FDD400"/>
<path d="M536.461 174.16C535.091 173.82 528.661 170.41 527.461 165.29C526.261 160.17 526.461 151.37 522.141 152.29C517.821 153.21 516.511 176.06 519.411 177.08C522.311 178.1 524.701 172.3 527.171 174.18C529.641 176.06 536.471 181.35 536.471 181.35" fill="#FDD400"/>
<path d="M563.091 189.11C563.953 189.11 564.651 187.767 564.651 186.11C564.651 184.453 563.953 183.11 563.091 183.11C562.23 183.11 561.531 184.453 561.531 186.11C561.531 187.767 562.23 189.11 563.091 189.11Z" fill="#606060"/>
<path d="M554.509 177.28C554.435 176.366 554.301 175.457 554.109 174.56C553.716 172.74 553.313 170.92 552.899 169.1C552.899 169.1 553.749 179.1 552.899 183.1C552.103 186.036 550.763 188.797 548.949 191.24C551.099 188.93 554.469 186.38 554.559 183.05C554.651 181.127 554.634 179.201 554.509 177.28Z" fill="#43C9AF"/>
<path d="M550.482 176C550.407 175.086 550.274 174.177 550.082 173.28C549.689 171.46 549.285 169.64 548.872 167.82C548.872 167.82 549.722 177.82 548.872 181.82C548.075 184.756 546.736 187.517 544.922 189.96C547.072 187.65 550.442 185.1 550.532 181.77C550.624 179.847 550.607 177.921 550.482 176Z" fill="#43C9AF"/>
<path d="M545.41 173.75C545.333 172.825 545.196 171.907 545 171C544.607 169.18 544.203 167.36 543.79 165.54C543.79 165.54 544.64 175.54 543.79 179.54C542.993 182.476 541.653 185.237 539.84 187.68C541.99 185.37 545.36 182.82 545.45 179.49C545.544 177.577 545.531 175.661 545.41 173.75Z" fill="#43C9AF"/>
<path d="M598.13 111.77L590 121C590.311 121.34 590.711 121.587 591.154 121.714C591.596 121.841 592.066 121.843 592.51 121.72C594.533 120.725 596.433 119.497 598.17 118.06L598.13 111.77Z" fill="#B31327"/>
<path d="M598.129 98.6901C593.035 98.4465 588.007 99.9184 583.849 102.87C574.369 109.82 573.249 120.6 573.489 121.06C577.029 127.76 589.919 122.96 596.359 118.15C596.976 117.683 597.567 117.182 598.129 116.65L598.129 98.6901Z" fill="#ED4049"/>
<path d="M598.131 95.0701C594.531 95.1501 587.131 96.9101 583.951 99.2701C580.061 102.16 579.131 107.27 579.361 107.09C585.491 102 593.541 100.18 598.141 99.5301L598.131 95.0701Z" fill="#B31327"/>
<path d="M590.561 111.92C591.071 111.92 595.501 111.57 595.731 112.39C595.961 113.21 591.921 116.24 590.561 116.47C589.201 116.7 590.561 111.92 590.561 111.92Z" fill="#B31327"/>
<path d="M580.332 115.27C580.873 115.27 581.312 114.831 581.312 114.29C581.312 113.749 580.873 113.31 580.332 113.31C579.79 113.31 579.352 113.749 579.352 114.29C579.352 114.831 579.79 115.27 580.332 115.27Z" fill="#B31327"/>
<path d="M606.889 169.84C610.634 169.84 613.669 166.805 613.669 163.06C613.669 159.316 610.634 156.28 606.889 156.28C603.145 156.28 600.109 159.316 600.109 163.06C600.109 166.805 603.145 169.84 606.889 169.84Z" fill="#68E1FD"/>
<path d="M551.059 76.12C556.278 76.12 560.509 71.8891 560.509 66.67C560.509 61.4509 556.278 57.22 551.059 57.22C545.84 57.22 541.609 61.4509 541.609 66.67C541.609 71.8891 545.84 76.12 551.059 76.12Z" fill="#68E1FD"/>
<path d="M506.641 80.32L498.701 76.07C498.283 75.9026 497.827 75.8532 497.382 75.9273C496.938 76.0013 496.523 76.196 496.181 76.49C495.911 76.67 495.921 76.72 495.991 76.97L496.291 78.1L497.441 82.4101L499.001 88.35L500.661 94.57L502.041 99.74L502.791 102.54C502.795 102.6 502.795 102.66 502.791 102.72L505.071 101.31C505.212 101.227 505.33 101.111 505.416 100.971C505.501 100.832 505.551 100.673 505.561 100.51L507.101 81.31C507.129 81.1182 507.1 80.9225 507.018 80.7467C506.937 80.571 506.806 80.4227 506.641 80.32Z" fill="#653200"/>
<path d="M497.249 76.52L505.339 81C505.532 81.1065 505.691 81.2675 505.794 81.4631C505.897 81.6586 505.94 81.88 505.919 82.1L503.999 101.9C503.981 102.09 503.915 102.273 503.807 102.431C503.699 102.589 503.552 102.717 503.381 102.803C503.211 102.889 503.021 102.93 502.83 102.922C502.638 102.915 502.452 102.859 502.289 102.76L494.869 98.25C494.698 98.1459 494.559 97.9985 494.464 97.8228C494.369 97.6472 494.322 97.4495 494.329 97.25L495.569 77.48C495.573 77.2854 495.628 77.0953 495.728 76.9282C495.828 76.761 495.969 76.6224 496.138 76.5258C496.307 76.4293 496.498 76.378 496.692 76.377C496.887 76.3759 497.079 76.4252 497.249 76.52Z" fill="#844308"/>
<path d="M496.81 78.23L504.32 82.53L502.6 101.52L495.57 97.58L496.81 78.23Z" fill="#68E1FD"/>
<path d="M494.779 90.1101C494.779 90.1101 497.219 86.5001 497.219 84.7501C497.219 83.0001 495.079 85.3001 495.079 85.3001L495.359 80.8701C495.359 80.8701 493.709 83.4501 492.869 84.6601C492.029 85.8701 489.349 91.6001 488.869 92.6601C488.389 93.7201 484.059 96.4501 484.059 96.4501C484.059 96.4501 485.309 100.52 486.629 100.8C487.949 101.08 494.439 95.2301 494.439 95.2301L494.779 90.1101Z" fill="#F04900"/>
<path d="M486.659 91.6201C486.659 91.6201 491.489 95.9001 490.659 100.76C490.659 100.76 484.579 112.84 478.009 114.83C471.439 116.82 467.689 103.88 469.489 101.98C471.289 100.08 486.659 91.6201 486.659 91.6201Z" fill="#F7944B"/>
<path d="M501.91 104.14C501.91 104.14 504.16 102.07 503.77 101.44C503.38 100.81 502.38 95.01 502.86 93.85C503.71 91.78 505.86 96.38 505.86 96.38L506.47 88.29C506.47 88.29 508.83 90.85 508.72 92.29C508.61 93.73 508.84 103.42 508.72 104.14C508.6 104.86 506.58 110.08 506.58 110.08" fill="#F04900"/>
<path d="M448.222 209.81C447.692 211.07 445.322 228.58 445.472 232.01C445.622 235.44 450.812 235.77 452.402 235.64C453.992 235.51 457.112 234.06 459.092 233.99C461.072 233.92 472.012 231.85 471.702 228.99C471.392 226.13 469.492 223.3 467.032 223.15C464.572 223 457.892 223.43 457.892 223.43L458.562 207.56" fill="#FF6753"/>
<path d="M450.49 127.15C448.882 135.027 447.899 143.018 447.55 151.05C447.38 159.34 444.84 221.11 444.84 221.11C444.84 221.11 451.84 225.25 465.12 221.39C467.05 220.83 469.49 164.17 469.49 164.17L464.95 134.94" fill="#ED4049"/>
<path d="M475.281 229.9C474.811 231.18 473.331 248.79 473.661 252.21C473.991 255.63 479.181 255.69 480.761 255.48C482.341 255.27 485.381 253.66 487.351 253.48C489.321 253.3 500.141 250.69 499.691 247.81C499.241 244.93 497.201 242.24 494.691 242.22C492.181 242.2 485.581 242.96 485.581 242.96L485.441 227.08" fill="#FF6753"/>
<path d="M475.618 133.34C475.618 133.34 484.988 164.34 488.448 192.34C489.278 199.06 490.318 235.62 490.318 235.62C490.318 235.62 481.888 241.43 471.698 238.15C471.698 238.15 469.308 191.86 469.038 190.77C465.118 175.05 459.528 156.19 458.578 132.43" fill="#ED4049"/>
<path d="M476.63 116.09C477.08 109.52 479.46 106.09 477.95 99.6901C473.22 94.5401 464.3 88.3201 463.35 88.1201L458.35 89.2901C456.236 89.7806 454.343 90.9586 452.97 92.6397C451.596 94.3209 450.819 96.4101 450.76 98.5801C450.49 108.77 450.11 125.79 450.52 127.15C450.93 128.51 460.92 137.07 475.65 133.34C476 127.59 476.23 121.83 476.63 116.09Z" fill="#FDD400"/>
<path d="M474.002 74.4499C474.002 74.4499 476.082 89.7299 470.422 91.0199C464.762 92.3099 458.602 85.6099 458.312 82.4799C458.022 79.3499 466.502 68.9399 474.002 74.4499Z" fill="#F04900"/>
<path d="M476.999 77.7199C477.221 77.7037 477.436 77.6412 477.632 77.5364C477.828 77.4316 478 77.287 478.137 77.1117C478.273 76.9365 478.372 76.7345 478.426 76.5189C478.479 76.3033 478.487 76.0788 478.449 75.8599C477.869 72.6899 475.699 66.2699 467.639 66.1199C461.479 66.0099 457.639 68.7399 455.789 72.8699L455.679 73.1099L455.219 74.4499C454.642 76.4421 454.452 78.5262 454.659 80.5899C454.919 86.3999 459.309 89.6599 464.889 90.3299C464.889 90.3299 462.609 81.7499 466.319 83.1199C470.029 84.4899 473.149 84.0499 471.979 78.1199L476.999 77.7199Z" fill="#844308"/>
<path d="M461.762 73.6699L462.302 74.2599C462.302 74.2599 462.322 73.9299 461.762 73.6699Z" fill="#844308"/>
<path d="M459.74 71.4399C458.65 71.1099 446.06 66.3799 442.41 72.4399C438.76 78.4999 441.92 87.7099 437.48 88.9499C433.04 90.1899 420.23 89.4399 419 95.1599C417.85 100.7 423.65 103.91 422.28 106.45C418.79 108.65 416.03 111.56 417.6 116.01C418.51 118.327 420.201 120.255 422.38 121.46C427.66 124.58 434.83 122.18 439.18 118.46C442.99 115.23 442.65 111.46 441.18 107.07C440.04 103.75 438.07 99.7099 441.78 97.2799C447.3 93.6599 453.71 97.7999 455.58 93.6599C457.45 89.5199 449.37 75.1299 455.88 73.8499C459.48 73.1399 461.04 73.3399 461.73 73.6499L459.74 71.4399Z" fill="#844308"/>
<path d="M507.332 109.75C506.928 108.424 506.232 107.207 505.293 106.187C504.355 105.167 503.199 104.372 501.912 103.86C497.132 108.39 491.272 113.31 489.352 112.54C486.532 111.41 480.902 98.27 472.902 97.61C464.902 96.95 465.122 108 465.122 108C465.122 108 479.122 129.55 486.662 129.92C492.762 130.22 503.852 119.51 508.202 114.34C508.077 112.783 507.786 111.244 507.332 109.75Z" fill="#FDD400"/>
<path d="M499.688 247.83C499.556 246.836 499.221 245.88 498.705 245.02C498.189 244.16 497.503 243.415 496.688 242.83C494.807 245.547 491.991 247.477 488.778 248.25C483.745 249.34 478.501 248.915 473.708 247.03C473.59 248.744 473.566 250.463 473.638 252.18C473.968 255.6 479.158 255.66 480.738 255.45C482.318 255.24 485.358 253.63 487.328 253.45C489.298 253.27 500.148 250.71 499.688 247.83Z" fill="#42210B"/>
<path d="M468.541 223.52C467.009 225.219 465.145 226.586 463.064 227.537C460.983 228.488 458.729 229.003 456.441 229.05C453.957 229.023 451.48 228.772 449.041 228.3C447.87 228.168 446.737 227.801 445.711 227.22C445.532 228.83 445.442 230.45 445.441 232.07C445.621 235.5 450.801 235.79 452.441 235.65C454.081 235.51 457.141 234.04 459.111 233.95C461.081 233.86 472.011 231.72 471.681 228.83C471.59 227.766 471.26 226.736 470.716 225.817C470.173 224.898 469.429 224.113 468.541 223.52Z" fill="#42210B"/>
<path d="M619.23 89.2101L622.8 91.2101C623.19 91.4301 624.25 92.3301 624.69 92.2801C625.31 92.2101 624.45 93.3301 624.63 91.8401C624.642 91.9865 624.642 92.1336 624.63 92.2801C624.23 93.5701 624.63 95.6101 624.63 96.9501L624.63 100.29C624.63 100.489 624.709 100.68 624.85 100.82C624.99 100.961 625.181 101.04 625.38 101.04C625.579 101.04 625.77 100.961 625.91 100.82C626.051 100.68 626.13 100.489 626.13 100.29L626.13 91.8301C626.131 91.6988 626.097 91.5697 626.032 91.4557C625.967 91.3416 625.873 91.2466 625.76 91.1801L620 87.9201C619.828 87.8193 619.622 87.7911 619.429 87.8417C619.236 87.8924 619.071 88.0177 618.97 88.1901C618.869 88.3625 618.841 88.5678 618.892 88.761C618.942 88.9541 619.068 89.1193 619.24 89.2201L619.23 89.2101Z" fill="#F7931E"/>
<path d="M582.5 67.6099L575.56 63.6699C575.445 63.606 575.316 63.5729 575.184 63.5737C575.053 63.5746 574.924 63.6095 574.811 63.6749C574.697 63.7404 574.602 63.8342 574.535 63.9473C574.468 64.0603 574.432 64.1887 574.43 64.3199L574.43 73.6399C574.43 73.8389 574.509 74.0296 574.649 74.1703C574.79 74.3109 574.981 74.3899 575.18 74.3899C575.379 74.3899 575.569 74.3109 575.71 74.1703C575.851 74.0296 575.93 73.8389 575.93 73.6399L575.93 64.3199L574.8 64.9999L581.74 68.94C581.912 69.0407 582.117 69.0689 582.311 69.0183C582.504 68.9676 582.669 68.8423 582.77 68.6699C582.87 68.4976 582.899 68.2922 582.848 68.099C582.797 67.9059 582.672 67.7407 582.5 67.6399L582.5 67.6099Z" fill="#F7931E"/>
<path d="M624.182 141.85L624.182 149.68L625.312 149.03L618.182 145.12C617.332 144.66 616.582 145.95 617.422 146.42L624.552 150.33C624.667 150.394 624.796 150.427 624.927 150.426C625.058 150.425 625.187 150.391 625.301 150.325C625.415 150.26 625.51 150.166 625.576 150.053C625.643 149.94 625.679 149.811 625.682 149.68L625.682 141.85C625.682 141.651 625.603 141.46 625.462 141.32C625.322 141.179 625.131 141.1 624.932 141.1C624.733 141.1 624.542 141.179 624.402 141.32C624.261 141.46 624.182 141.651 624.182 141.85Z" fill="#F7931E"/>
<path d="M724.876 486.456L931.954 370.299C933.453 369.455 934.706 368.236 935.591 366.761C936.475 365.286 936.96 363.606 936.997 361.887C937.035 360.168 936.624 358.468 935.806 356.956C934.987 355.444 933.788 354.171 932.328 353.262L731.583 228.822C730.059 227.878 728.308 227.365 726.515 227.338C724.723 227.311 722.957 227.772 721.406 228.67L502.366 355.807C500.868 356.678 499.625 357.927 498.76 359.429C497.896 360.931 497.441 362.634 497.441 364.366C497.441 366.099 497.896 367.802 498.76 369.304C499.625 370.806 500.868 372.055 502.366 372.926L697.69 486.318C701.819 488.701 706.498 489.967 711.265 489.991C716.032 490.015 720.724 488.797 724.876 486.456Z" fill="#B4EE73"/>
<path style="mix-blend-mode:multiply" d="M736.92 343.251C715.763 357.259 646.055 410.553 625.133 424.838C660.727 444.488 679.893 454.79 683.834 457.624L811.316 385.358L736.92 343.251Z" fill="url(#paint5_linear)"/>
<path d="M628.43 319.605C628.43 319.605 631.085 343.998 646.31 349.598C661.534 355.199 682.567 333.627 682.567 333.627L650.292 309.87" fill="#56403D"/>
<path d="M667.476 253.118C664.71 251.21 661.059 251.86 657.796 253.118C644.604 258.567 625.535 269.367 625.756 288.643C625.89 298.99 626.768 309.314 628.383 319.535C629.005 323.546 629.545 328.551 631.578 331.981C634.606 337.153 647.964 325.495 650.495 323.532C654.823 320.185 659.027 316.618 663.175 312.981C666.259 310.215 673.145 305.97 674.39 301.683C674.624 300.71 674.731 299.711 674.708 298.71C674.915 289.638 674.486 280.563 673.422 271.552C672.744 265.813 672.398 256.52 667.476 253.118Z" fill="#56403D"/>
<path d="M699.402 389.396C700.135 390.419 698.365 400.196 701.878 403.224C705.39 406.252 714.434 411.383 711.668 413.512C703.537 419.79 685.062 403.832 685.062 403.832V386.893" fill="#FF666D"/>
<path d="M720.4 380.711C721.132 381.735 719.362 391.511 722.875 394.54C726.387 397.568 735.182 402.422 732.665 404.828C725.917 411.286 703.543 397.291 703.543 397.291L706.06 378.208" fill="#FF666D"/>
<path d="M654.749 325.039C654.749 325.039 653.629 337.153 659.327 342.02C665.024 346.888 685.379 352.709 685.379 352.709C685.379 352.709 678.465 385.966 679.751 388.912C681.037 391.857 695.792 393.53 703.535 388.912C703.535 388.912 714.875 391.843 722.383 384.915C722.383 384.915 736.903 343.818 732.284 330.432C727.666 317.046 702.305 313.244 702.305 313.244L654.749 325.039Z" fill="#FFE0DE"/>
<path d="M646.254 346.321V417.218L650.637 420.315L657.372 415.89V345.035L648.176 340.789L646.254 346.321Z" fill="#56403D"/>
<path d="M646.254 340.789L646.309 349.598L650.859 350.317L646.254 340.789Z" fill="#56403D"/>
<path d="M648.367 351.243L712.392 388.428C713.062 388.817 713.825 389.017 714.6 389.004C715.375 388.992 716.132 388.769 716.789 388.358L808.996 330.39C809.624 329.993 810.136 329.439 810.483 328.782C810.83 328.126 810.999 327.39 810.974 326.648C810.949 325.906 810.73 325.183 810.34 324.551C809.949 323.92 809.4 323.401 808.747 323.048L746.52 289.486C745.886 289.133 745.172 288.947 744.446 288.947C743.72 288.947 743.006 289.133 742.372 289.486L648.34 343.79C647.675 344.161 647.122 344.703 646.738 345.36C646.354 346.016 646.153 346.764 646.156 347.525C646.159 348.286 646.366 349.032 646.754 349.686C647.143 350.34 647.7 350.878 648.367 351.243Z" fill="#56403D"/>
<path d="M724.367 282.503L771.01 255.566C771.383 255.349 771.806 255.234 772.238 255.234C772.669 255.233 773.093 255.347 773.467 255.563C773.84 255.779 774.15 256.091 774.364 256.465C774.579 256.839 774.69 257.264 774.688 257.695V293.303C774.686 293.99 774.502 294.664 774.155 295.257C773.807 295.85 773.309 296.34 772.71 296.677L726.759 322.66C726.317 322.931 725.811 323.078 725.293 323.088C724.774 323.097 724.263 322.969 723.811 322.715C723.359 322.462 722.983 322.093 722.721 321.646C722.459 321.198 722.32 320.69 722.32 320.171V286.016C722.323 285.302 722.514 284.602 722.873 283.985C723.232 283.369 723.748 282.858 724.367 282.503Z" fill="#6DE2FC"/>
<path d="M801.512 321.872V387.404L805.895 390.488L812.63 386.063V320.669C808.896 320.766 805.204 321.347 801.512 321.872Z" fill="#56403D"/>
<path d="M705.227 374.295V445.193L709.61 448.276L716.344 443.851V372.995L707.135 368.764L705.227 374.295Z" fill="#56403D"/>
<path d="M647.981 344.717L713.554 382.896C714.099 383.226 714.723 383.4 715.359 383.4C715.995 383.4 716.619 383.226 717.164 382.896L810.864 323.988C811.383 323.665 811.807 323.211 812.095 322.673C812.384 322.134 812.525 321.528 812.505 320.918C812.486 320.307 812.306 319.712 811.984 319.193C811.662 318.673 811.209 318.248 810.67 317.959L746.95 283.457C746.43 283.167 745.844 283.014 745.249 283.014C744.653 283.014 744.068 283.167 743.548 283.457L647.995 338.646C647.456 338.948 647.007 339.388 646.695 339.921C646.382 340.453 646.216 341.06 646.215 341.677C646.213 342.295 646.376 342.902 646.687 343.436C646.997 343.97 647.444 344.412 647.981 344.717Z" fill="#FFC050"/>
<path d="M724.367 282.503L771.01 255.566C771.383 255.349 771.806 255.234 772.238 255.234C772.669 255.233 773.093 255.347 773.467 255.563C773.84 255.779 774.15 256.091 774.364 256.465C774.579 256.839 774.69 257.264 774.688 257.695V293.303C774.686 293.99 774.502 294.664 774.155 295.257C773.807 295.85 773.309 296.34 772.71 296.677L726.759 322.66C726.317 322.931 725.811 323.078 725.293 323.088C724.774 323.097 724.263 322.969 723.811 322.715C723.359 322.462 722.983 322.093 722.721 321.646C722.459 321.198 722.32 320.69 722.32 320.171V286.016C722.323 285.302 722.514 284.602 722.873 283.985C723.232 283.369 723.748 282.858 724.367 282.503Z" fill="#56403D"/>
<path d="M718.682 357.992L740.212 345.159L714.907 330.225L692.754 343.057L718.682 357.992Z" fill="#56403D"/>
<path d="M728.098 357.01L749.642 344.191L724.323 329.243L702.184 342.075L728.098 357.01Z" fill="#68E1FD"/>
<path d="M745.676 305.583V320.822L756.241 315.152V300.176" fill="#56403D"/>
<path d="M750.41 322.315C759.31 317.951 765.683 312.695 764.644 310.576C763.605 308.458 755.548 310.278 746.647 314.642C737.747 319.006 731.373 324.262 732.412 326.381C733.451 328.5 741.509 326.679 750.41 322.315Z" fill="#56403D"/>
<path d="M678.555 343.624C679.647 345.007 678.776 348.035 684.446 350.538C690.115 353.041 703.805 353.691 701.634 348.201C699.463 342.712 688.635 340.803 688.635 340.803" fill="#5ED18D"/>
<path d="M681.577 331.483C684.236 334.145 687.033 336.665 689.957 339.033C692.003 340.416 699.872 342.891 699.291 345.56C698.71 348.229 691.754 343.348 691.298 343.624C690.842 343.901 690.676 345.961 686.541 346.39C682.407 346.818 680.65 346.321 679.627 345.007C678.604 343.693 673.529 337.609 675.271 335.424C677.014 333.239 681.577 331.483 681.577 331.483Z" fill="#FBB5AD"/>
<path d="M732.04 265.218C732.04 265.218 738.484 259.369 740.406 255.69C742.328 252.012 743.877 255.469 743.725 257.267C743.573 259.064 740.406 262.646 740.406 262.646C740.406 262.646 741.415 266.117 741.415 266.573C741.415 267.03 742.37 272.105 739.438 273.778C736.506 275.451 730.381 275.7 730.381 275.7L729.371 267.541L732.04 265.218Z" fill="#FBB5AD"/>
<path d="M732.273 262.439C717.353 270.445 698.961 271.026 682.851 266.076C682.631 266.052 682.408 266.052 682.188 266.076L682.976 287.302C709.139 294.493 733.933 277.028 733.933 277.028C731.637 273.391 731.762 267.099 732.273 262.439Z" fill="#F47A63"/>
<path d="M686.043 271.247C684.085 267.888 681.47 264.958 678.354 262.632C673.888 265.246 666.891 266.781 662.784 270.016C651.154 279.143 651.721 295.156 652.924 308.417C653.436 313.852 654.75 319.604 654.75 325.011C658.64 326.679 662.79 327.661 667.015 327.915C674.159 323.434 681.013 318.506 687.536 313.16C687.315 299.194 686.9 285.214 686.043 271.247Z" fill="#F47A63"/>
<path d="M685.822 253.865C685.822 253.865 686.624 275.838 679.156 277.29C671.689 278.742 665.453 272.602 664.927 268.385C664.402 264.167 666.227 258.207 666.227 258.207C666.227 258.207 672.699 251.625 685.822 253.865Z" fill="#FBB5AD"/>
<path d="M687.211 250.214C688.359 245.112 681.68 240.535 677.656 244.351C676.953 243.496 676.071 242.805 675.073 242.327C674.074 241.849 672.983 241.596 671.876 241.585C668.737 241.585 667.299 243.535 667.036 246.453C666.164 246.282 665.265 246.318 664.41 246.558C663.555 246.798 662.768 247.236 662.113 247.836C661.365 248.569 660.862 249.514 660.671 250.544C660.481 251.573 660.612 252.636 661.048 253.588C659.893 253.827 658.853 254.45 658.099 255.358C657.346 256.265 656.923 257.401 656.9 258.58C656.806 259.671 656.997 260.766 657.453 261.761C657.256 262.064 657.094 262.389 656.969 262.729C656.652 263.656 656.613 264.656 656.859 265.605C657.105 266.554 657.624 267.41 658.352 268.067C659.193 268.884 660.264 269.424 661.422 269.615C661.669 270.415 662.139 271.127 662.775 271.671C663.411 272.214 664.189 272.566 665.017 272.685C666.056 272.826 667.111 272.58 667.981 271.993C668.85 271.407 669.474 270.521 669.732 269.505C669.881 268.931 669.904 268.332 669.802 267.748C671.145 265.79 671.752 263.419 671.516 261.056C671.845 261.011 672.166 260.923 672.47 260.793C673.409 260.363 674.153 259.599 674.558 258.649C675.468 259.17 676.498 259.442 677.545 259.438C678.041 259.423 678.524 259.279 678.946 259.019C679.368 258.759 679.715 258.394 679.951 257.958C682.316 259.051 685.981 258.719 687.654 256.7C688.389 255.753 688.751 254.569 688.669 253.373C688.588 252.177 688.069 251.052 687.211 250.214Z" fill="#D86212"/>
<path d="M671.999 266.407C671.999 265.709 671.857 265.017 671.582 264.376C671.306 263.734 670.902 263.155 670.395 262.674C669.921 262.122 669.249 261.78 668.524 261.72C667.8 261.661 667.081 261.889 666.523 262.356C666.085 262.829 665.806 263.427 665.724 264.067C665.642 264.706 665.762 265.355 666.067 265.923C666.786 267.306 668.307 267.597 669.538 268.371C670.271 268.841 670.921 268.122 670.838 267.431C670.983 267.448 671.13 267.435 671.27 267.392C671.409 267.348 671.538 267.276 671.648 267.179C671.757 267.083 671.845 266.964 671.906 266.831C671.967 266.698 671.998 266.554 671.999 266.407Z" fill="#FBB5AD"/>
<path d="M682.67 262.826C682.67 262.314 681.868 262.397 681.882 262.895V266.324C681.928 266.849 681.928 267.376 681.882 267.901C681.73 268.813 681.246 268.91 680.499 269.2C680.412 269.245 680.344 269.32 680.308 269.412C680.273 269.503 680.272 269.604 680.306 269.696C680.34 269.788 680.407 269.865 680.493 269.911C680.58 269.957 680.68 269.97 680.776 269.947C681.771 269.56 682.573 269.436 682.698 268.288C682.801 266.468 682.792 264.644 682.67 262.826Z" fill="#56403D"/>
<path d="M684.635 262.245C684.543 262.247 684.453 262.281 684.383 262.341C684.312 262.401 684.265 262.484 684.248 262.575C684.232 262.667 684.248 262.761 684.293 262.842C684.339 262.923 684.411 262.985 684.497 263.019C684.59 263.017 684.679 262.984 684.75 262.923C684.82 262.863 684.868 262.78 684.884 262.689C684.9 262.597 684.884 262.503 684.839 262.422C684.794 262.341 684.722 262.279 684.635 262.245Z" fill="#56403D"/>
<path d="M676.655 263.448C676.562 263.45 676.473 263.484 676.402 263.544C676.332 263.604 676.284 263.687 676.268 263.778C676.252 263.87 676.268 263.964 676.313 264.045C676.358 264.126 676.43 264.189 676.517 264.222C676.609 264.221 676.699 264.187 676.769 264.126C676.84 264.066 676.887 263.983 676.903 263.892C676.92 263.801 676.904 263.706 676.859 263.625C676.813 263.545 676.741 263.482 676.655 263.448Z" fill="#56403D"/>
<path d="M656.79 276.986C652.744 281.484 650.443 287.283 650.304 293.331C649.903 303.771 653.83 326.422 672.194 339.033C672.194 339.033 679.648 332.617 685.677 332.119C685.677 332.119 671.641 313.907 671.932 305.721" fill="#F47A63"/>
<path d="M685.01 332.064C676.271 319.203 668.707 305.168 667.172 289.445C667.089 288.574 665.706 288.56 665.789 289.445C667.351 305.43 674.915 319.673 683.765 332.755C684.305 333.488 685.508 332.796 685.01 332.064Z" fill="#56403D"/>
<path d="M741.654 239.871L769.864 223.581C770.089 223.449 770.346 223.38 770.607 223.379C770.868 223.378 771.125 223.447 771.351 223.577C771.577 223.708 771.764 223.896 771.894 224.123C772.024 224.349 772.092 224.606 772.09 224.867V246.412C772.091 246.827 771.981 247.236 771.772 247.595C771.563 247.955 771.263 248.253 770.901 248.458L743.12 264.167C742.852 264.328 742.547 264.416 742.234 264.42C741.921 264.425 741.613 264.347 741.34 264.194C741.068 264.04 740.841 263.818 740.682 263.548C740.524 263.279 740.439 262.972 740.438 262.66V242C740.436 241.57 740.548 241.147 740.762 240.773C740.975 240.4 741.283 240.088 741.654 239.871Z" fill="#68E1FD"/>
<path style="mix-blend-mode:multiply" d="M553.516 378.638C553.453 378.579 553.403 378.509 553.369 378.43C553.335 378.352 553.317 378.267 553.317 378.181C553.317 378.095 553.335 378.011 553.369 377.932C553.403 377.854 553.453 377.783 553.516 377.725L554.346 376.895C554.456 376.779 554.602 376.706 554.761 376.688C555.065 376.43 555.378 376.185 555.701 375.955C555.781 374.291 555.956 372.634 556.227 370.99C556.245 370.89 556.288 370.795 556.351 370.714L529.289 355.378C524.629 358.462 514.59 365.902 504.578 373.355C513.47 380.269 523.938 384.68 533.825 389.949L553.447 378.886L553.516 378.638Z" fill="url(#paint6_linear)"/>
<path d="M537.866 347.855C530.73 347.233 523.222 345.09 517.953 340.208V361.352C517.953 367.172 520.265 372.754 524.381 376.87C528.496 380.985 534.078 383.297 539.899 383.297C545.719 383.297 551.301 380.985 555.416 376.87C559.532 372.754 561.844 367.172 561.844 361.352V339.849C554.391 342.891 545.886 348.547 537.866 347.855Z" fill="#68E1FD"/>
<path d="M539.922 351.7C552.042 351.7 561.867 346.493 561.867 340.07C561.867 333.648 552.042 328.441 539.922 328.441C527.802 328.441 517.977 333.648 517.977 340.07C517.977 346.493 527.802 351.7 539.922 351.7Z" fill="#5ED18D"/>
<path d="M539.924 342.034C539.924 342.034 525.004 339.835 521.062 315.76C521.062 315.705 533.715 322.73 539.924 342.034Z" fill="#5ED18D"/>
<path d="M542.12 338.964C542.12 338.964 525.001 308.251 542.12 287.62C547.345 304.336 547.345 322.248 542.12 338.964Z" fill="#5ED18D"/>
<path d="M539.924 319.66C539.924 319.66 525.004 317.461 521.062 293.386C521.062 293.331 533.715 300.355 539.924 319.66Z" fill="#5ED18D"/>
<path d="M541.735 329.492C541.735 329.492 538.001 314.889 558.729 301.918C558.743 301.932 557.222 316.369 541.735 329.492Z" fill="#5ED18D"/>
<path d="M539.922 351.7C552.042 351.7 561.867 346.493 561.867 340.07C561.867 333.648 552.042 328.441 539.922 328.441C527.802 328.441 517.977 333.648 517.977 340.07C517.977 346.493 527.802 351.7 539.922 351.7Z" fill="#146666"/>
<path d="M539.924 342.034C539.924 342.034 525.004 339.835 521.062 315.76C521.062 315.705 533.715 322.73 539.924 342.034Z" fill="#5ED18D"/>
<path d="M542.12 338.964C542.12 338.964 525.001 308.251 542.12 287.62C547.345 304.336 547.345 322.248 542.12 338.964Z" fill="#5ED18D"/>
<path d="M539.924 319.66C539.924 319.66 525.004 317.461 521.062 293.386C521.062 293.331 533.715 300.355 539.924 319.66Z" fill="#5ED18D"/>
<path d="M541.735 329.492C541.735 329.492 538.001 314.889 558.729 301.918C558.743 301.932 557.222 316.369 541.735 329.492Z" fill="#5ED18D"/>
<path d="M493.089 621.764L697.056 500.226C698.532 499.343 699.753 498.092 700.598 496.594C701.443 495.097 701.884 493.405 701.877 491.685C701.869 489.965 701.414 488.277 700.556 486.787C699.698 485.296 698.466 484.055 696.983 483.185L493.05 364.043C491.502 363.138 489.737 362.672 487.945 362.692C486.152 362.712 484.399 363.218 482.872 364.157L267.235 496.984C265.76 497.894 264.55 499.175 263.726 500.699C262.901 502.223 262.491 503.937 262.536 505.67C262.582 507.402 263.081 509.092 263.984 510.571C264.887 512.05 266.163 513.266 267.683 514.097L465.909 622.337C470.099 624.611 474.809 625.754 479.575 625.654C484.341 625.553 488.999 624.213 493.089 621.764Z" fill="#E0B290"/>
<path opacity="0.32" d="M483.177 519.515C489.189 515.605 495.153 511.621 501.068 507.566C511.164 500.62 522.43 493.976 531.773 485.749L480.187 459.213L432.88 501.536C442.969 506.486 456.705 513.361 476.631 523.615C478.767 522.245 481.015 520.928 483.177 519.515Z" fill="url(#paint7_linear)"/>
<path opacity="0.32" d="M590.1 523.494C596.112 519.583 602.076 515.6 607.992 511.544C618.088 504.598 629.354 497.954 638.697 489.728L590.307 478.033L539.845 505.513C549.934 510.464 563.67 517.339 583.596 527.593C585.718 526.223 587.938 524.906 590.1 523.494Z" fill="url(#paint8_linear)"/>
<path opacity="0.32" d="M430.934 586.687C451.377 574.989 499.695 549.073 519.938 537.117L373.534 489.769L315.939 526.399C337.883 537.167 400.479 568.935 430.934 586.687Z" fill="url(#paint9_linear)"/>
<path d="M463.391 455.517L495.16 471.188L496.303 478.904L462.637 461.056" fill="#E27623"/>
<path d="M461.778 442.902L450.086 489.798L452.486 491.118C453.092 490.78 453.674 490.4 454.226 489.98C454.918 489.436 469.714 440.633 469.714 440.633" fill="#E27623"/>
<path d="M491.331 433.04L500.856 460.304L501.55 515.327L499.607 516.679L496.84 515.05L493.363 460.473L484.695 433.214" fill="#E27623"/>
<path d="M456.643 430.656C456.643 430.656 455.821 436.778 458.011 440.109C460.201 443.441 465.537 434.863 465.537 434.863" fill="#FFB469"/>
<path d="M484.982 396.645L484.322 418.961L490.234 421.822L490.701 397.934" fill="#CA6B00"/>
<path d="M522.087 412.093L526.787 442.099L531.914 486.271L529.396 487.845L526.839 486.335L520.045 442.967L515.438 412.268" fill="#E27623"/>
<path d="M518.216 415.944C519.874 416.398 523.332 413.721 524.352 412.02C529.906 402.773 527.937 390.458 517.336 384.967C512.652 382.531 507.83 380.125 503.172 377.619C499.033 375.39 494.655 373.526 490.647 371.031C490.122 370.689 489.563 370.402 488.978 370.175C487.894 369.912 486.755 369.979 485.708 370.366C484.661 370.753 483.754 371.443 483.101 372.349" fill="#FFB469"/>
<path d="M518.633 415.546C521.395 415.376 522.916 411.643 523.689 409.451C525.799 403.42 525.999 392.044 518.999 388.824C518.867 388.771 518.751 388.684 518.664 388.573C518.576 388.461 518.519 388.328 518.498 388.187L505.237 380.982L494.979 375.413C493.183 374.436 491.48 373.319 489.684 372.342C487.888 371.366 486.115 370.223 484.21 371.434C482.305 372.646 481.874 375.203 481.601 377.465C480.86 382.691 481.273 388.015 482.812 393.064C484.119 396.266 486.588 398.855 489.725 400.312L499.253 405.498L516.92 415.079C517.204 415.249 517.51 415.381 517.829 415.47C518.091 415.537 518.363 415.562 518.633 415.546Z" fill="#FCBD4C"/>
<path d="M521.161 439.604L521.694 439.894C523.186 440.583 524.535 441.548 525.669 442.737C528.396 445.971 525.938 449.826 523.386 452.217C516.473 458.692 505.881 464.115 496.226 462.044C487.856 460.024 479.841 456.745 472.456 452.319C466.362 448.868 458.742 444.71 456.971 437.301C456.643 435.647 456.708 433.94 457.16 432.316C457.613 430.692 458.44 429.197 459.575 427.951C474.186 410.097 495.807 425.937 510.918 434.09L521.161 439.604Z" fill="#FFB469"/>
<path d="M526.416 440.158C526.915 442.245 527.074 444.399 526.888 446.536C525.964 448.904 524.549 451.048 522.736 452.829C521.017 454.257 521.811 444.415 521.811 444.415" fill="#FFB469"/>
<path d="M521.051 435.415L521.584 435.706C523.077 436.395 524.425 437.359 525.56 438.548C528.287 441.783 525.828 445.637 523.277 448.028C516.364 454.503 505.771 459.926 496.117 457.855C487.747 455.835 479.732 452.557 472.346 448.131C466.252 444.68 458.632 440.522 456.861 433.112C456.534 431.459 456.598 429.751 457.051 428.127C457.503 426.503 458.33 425.008 459.466 423.762C474.076 405.909 495.697 421.748 510.809 429.901L521.051 435.415Z" fill="#FCBD4C"/>
<path d="M610.988 420.528C592.106 421.022 576.92 426.427 577.082 432.606L645.481 430.815C645.319 424.636 629.871 420.033 610.988 420.528Z" fill="#0A1D23"/>
<path d="M577.212 433.461L577.078 432.593C577.089 432.886 577.134 433.177 577.212 433.461Z" fill="#06489E"/>
<path d="M645.482 430.815L645.369 431.8C645.45 431.478 645.487 431.147 645.482 430.815Z" fill="#06489E"/>
<path d="M611.57 442.88C629.444 442.412 643.994 437.549 645.364 431.787L645.477 430.801L577.078 432.593L577.212 433.461C578.703 439.162 593.572 443.351 611.57 442.88Z" fill="#0A1D23"/>
<path d="M622.844 373.641L615.145 373.843L617.223 453.218L624.923 453.016L622.844 373.641Z" fill="#25B000"/>
<path d="M619.034 375.374C621.156 375.318 622.858 374.543 622.834 373.642C622.81 372.741 621.071 372.056 618.948 372.112C616.826 372.167 615.125 372.942 615.148 373.843C615.172 374.744 616.911 375.429 619.034 375.374Z" fill="#25B000"/>
<path d="M640.323 388.332L632.738 386.99L618.896 465.175L626.48 466.518L640.323 388.332Z" fill="#FF8F02"/>
<path d="M640.324 388.34C640.481 387.453 638.914 386.433 636.823 386.063C634.732 385.693 632.91 386.112 632.753 387C632.596 387.887 634.164 388.907 636.254 389.277C638.345 389.647 640.167 389.227 640.324 388.34Z" fill="#FF8F02"/>
<path d="M602.024 433.696L595.107 437.903C594.966 437.989 594.797 438.016 594.636 437.977C594.475 437.938 594.337 437.838 594.251 437.697C594.164 437.556 594.138 437.387 594.176 437.226C594.215 437.066 594.316 436.927 594.456 436.841L601.536 432.505C601.603 432.462 601.677 432.432 601.755 432.417L600.174 424.85L593.202 429.099C593.133 429.142 593.055 429.171 592.974 429.183C592.894 429.196 592.811 429.193 592.732 429.174C592.652 429.155 592.577 429.12 592.511 429.072C592.445 429.024 592.389 428.963 592.346 428.894C592.304 428.824 592.275 428.746 592.262 428.666C592.249 428.585 592.253 428.502 592.272 428.423C592.291 428.343 592.325 428.268 592.374 428.202C592.422 428.136 592.482 428.08 592.552 428.037L599.632 423.702C599.711 423.653 599.8 423.622 599.892 423.612L598.408 416.61L591.601 420.759C591.46 420.845 591.29 420.872 591.13 420.833C590.969 420.794 590.831 420.694 590.745 420.553C590.658 420.412 590.632 420.243 590.67 420.082C590.709 419.922 590.81 419.783 590.95 419.697L598.03 415.361L598.168 415.358L596.511 407.558L589.703 411.692C589.562 411.779 589.393 411.805 589.233 411.767C589.072 411.728 588.933 411.627 588.847 411.486C588.761 411.346 588.734 411.176 588.773 411.016C588.811 410.855 588.912 410.717 589.053 410.63L596.133 406.295L596.243 406.292L594.66 398.67L587.69 402.961C587.549 403.047 587.38 403.074 587.219 403.035C587.059 402.997 586.92 402.896 586.834 402.755C586.748 402.614 586.721 402.445 586.76 402.285C586.798 402.124 586.899 401.985 587.04 401.899L594.119 397.564C594.186 397.521 594.261 397.491 594.339 397.475L592.934 390.858L586.003 395.065C585.862 395.151 585.693 395.178 585.533 395.14C585.372 395.101 585.233 395 585.147 394.859C585.061 394.718 585.034 394.549 585.073 394.389C585.111 394.228 585.212 394.089 585.353 394.003L592.433 389.668C592.504 389.623 592.583 389.593 592.665 389.579L591.261 382.976L584.344 387.168C584.203 387.255 584.034 387.281 583.873 387.243C583.713 387.204 583.574 387.103 583.488 386.963C583.402 386.822 583.375 386.652 583.414 386.492C583.452 386.331 583.553 386.193 583.694 386.106L590.773 381.771C590.837 381.735 590.907 381.709 590.979 381.697L589.405 374.434L582.598 378.582C582.457 378.669 582.287 378.695 582.127 378.657C581.966 378.618 581.828 378.517 581.741 378.377C581.655 378.236 581.628 378.066 581.667 377.906C581.706 377.745 581.806 377.607 581.947 377.52L589.027 373.185L589.165 373.182L588.44 369.798L573.482 379.651C573.482 379.651 585.9 439.707 586.124 439.825C592.542 442.964 604.067 443.049 604.067 443.049L602.024 433.696Z" fill="#68E1FD"/>
<path d="M581.948 377.576C581.807 377.662 581.706 377.801 581.667 377.961C581.629 378.122 581.656 378.291 581.742 378.432C581.828 378.573 581.967 378.674 582.127 378.712C582.288 378.751 582.457 378.724 582.598 378.638L589.406 374.489L589.138 373.224L588.999 373.227L581.948 377.576Z" fill="#CA4300"/>
<path d="M583.698 386.134C583.558 386.22 583.457 386.359 583.418 386.52C583.38 386.68 583.406 386.85 583.493 386.99C583.579 387.131 583.717 387.232 583.878 387.271C584.039 387.309 584.208 387.282 584.349 387.196L591.266 383.003L590.998 381.752C590.926 381.764 590.856 381.79 590.793 381.826L583.698 386.134Z" fill="#CA4300"/>
<path d="M585.343 393.99C585.202 394.076 585.101 394.215 585.063 394.375C585.024 394.536 585.051 394.705 585.137 394.846C585.223 394.987 585.362 395.087 585.523 395.126C585.683 395.165 585.852 395.138 585.993 395.052L592.924 390.845L592.656 389.607C592.574 389.621 592.495 389.651 592.424 389.696L585.343 393.99Z" fill="#CA4300"/>
<path d="M587.027 401.831C586.886 401.917 586.785 402.055 586.746 402.216C586.708 402.377 586.734 402.546 586.821 402.687C586.907 402.827 587.046 402.928 587.206 402.967C587.367 403.005 587.536 402.979 587.677 402.892L594.594 398.686L594.326 397.448C594.248 397.464 594.174 397.494 594.107 397.537L587.027 401.831Z" fill="#CA4300"/>
<path d="M589.014 410.673C588.944 410.716 588.884 410.772 588.836 410.838C588.788 410.904 588.753 410.979 588.734 411.058C588.715 411.138 588.711 411.22 588.724 411.301C588.737 411.382 588.766 411.459 588.808 411.529C588.851 411.599 588.907 411.659 588.973 411.708C589.039 411.756 589.114 411.79 589.194 411.809C589.273 411.828 589.356 411.832 589.436 411.819C589.517 411.806 589.595 411.778 589.664 411.735L596.473 407.6L596.204 406.321L596.093 406.324L589.014 410.673Z" fill="#CA4300"/>
<path d="M590.897 419.754C590.756 419.84 590.655 419.978 590.617 420.139C590.578 420.3 590.605 420.469 590.691 420.61C590.777 420.75 590.916 420.851 591.077 420.89C591.237 420.928 591.406 420.902 591.547 420.815L598.355 416.667L598.087 415.402L597.949 415.405L590.897 419.754Z" fill="#CA4300"/>
<path d="M599.634 423.758L592.554 428.093C592.484 428.136 592.424 428.192 592.375 428.258C592.327 428.324 592.293 428.399 592.274 428.478C592.255 428.558 592.251 428.64 592.264 428.721C592.277 428.802 592.305 428.879 592.348 428.949C592.391 429.019 592.447 429.079 592.513 429.127C592.579 429.175 592.654 429.21 592.733 429.229C592.813 429.248 592.896 429.252 592.976 429.239C593.057 429.226 593.134 429.197 593.204 429.155L600.162 424.933L599.895 423.709C599.805 423.706 599.716 423.723 599.634 423.758Z" fill="#CA4300"/>
<path d="M594.468 436.84C594.398 436.883 594.338 436.939 594.289 437.005C594.241 437.071 594.207 437.146 594.188 437.226C594.169 437.305 594.165 437.388 594.178 437.468C594.191 437.549 594.219 437.627 594.262 437.696C594.305 437.766 594.361 437.827 594.427 437.875C594.493 437.923 594.568 437.958 594.648 437.977C594.727 437.996 594.81 437.999 594.89 437.986C594.971 437.973 595.048 437.945 595.118 437.902L602.035 433.696L601.768 432.458C601.69 432.473 601.615 432.503 601.549 432.546L594.468 436.84Z" fill="#CA4300"/>
<path d="M632.741 386.994C632.741 386.994 633.181 389.002 636.245 389.268C639.309 389.533 640.37 388.33 640.37 388.33L638.977 373.15L632.741 386.994Z" fill="#FFD8BD"/>
<path d="M638.936 373.22L636.06 379.617C636.507 380.078 637.1 380.369 637.738 380.441C638.375 380.513 639.018 380.36 639.556 380.01L638.936 373.22Z" fill="#653200"/>
<path d="M615.137 373.387C615.137 373.387 615.892 375.303 618.958 375.085C622.023 374.866 622.831 373.517 622.831 373.517L619.071 358.8L615.137 373.387Z" fill="#FFD8BD"/>
<path d="M619.067 358.801L617.238 365.571C617.753 365.959 618.386 366.154 619.029 366.125C619.672 366.096 620.285 365.843 620.762 365.41L619.067 358.801Z" fill="#653200"/>
<path d="M611.574 442.88C593.603 443.351 578.72 439.189 577.215 433.46C578.294 440.349 585.674 487.63 585.917 487.901C585.917 487.901 589.405 501.199 613.084 500.566C633.225 500.038 638.711 489.769 638.711 489.769L645.368 431.786C643.928 437.551 629.447 442.412 611.574 442.88Z" fill="#173743"/>
<path d="M489.329 519.424L483.537 516.947C483.537 516.947 482.854 511.999 484.762 510.898C486.67 509.796 489.329 519.424 489.329 519.424Z" fill="#196132"/>
<path d="M474.886 505.969C474.886 505.969 474.694 518.203 473.857 519.497C473.019 520.792 462.503 527.001 461.661 529.181C460.819 531.361 473.759 528.422 477.972 527.136C482.185 525.85 486.053 523.535 486.135 521.928C486.217 520.322 484.082 512.216 485.66 512.258C487.238 512.299 489.208 519.358 489.208 519.358L492.852 516.952L483.165 488.793" fill="#196132"/>
<path d="M463.04 508.589L457.248 506.113C457.248 506.113 456.565 501.165 458.473 500.063C460.381 498.962 463.04 508.589 463.04 508.589Z" fill="#196132"/>
<path d="M448.597 495.135C448.597 495.135 448.405 507.368 447.568 508.662C446.73 509.957 436.214 516.167 435.372 518.347C434.53 520.527 447.469 517.587 451.682 516.301C455.896 515.015 459.763 512.7 459.846 511.094C459.928 509.487 457.793 501.381 459.371 501.423C460.949 501.465 462.919 508.523 462.919 508.523L466.563 506.118L456.876 477.958" fill="#196132"/>
<path d="M486.197 401.469C488.278 403.282 494.211 429.617 491.741 442.532C489.271 455.448 458.533 462.27 458.533 462.27L467.384 494.421C467.384 494.421 455.945 503.975 444.437 500.846C440.258 499.71 428.687 453.507 431.956 446.823C435.226 440.139 475.64 415.634 475.64 415.634" fill="#FFF0D7"/>
<path d="M511.114 410.002C513.195 411.815 519.624 426.475 512.824 445.189C508.333 457.535 481.092 467.42 481.092 467.42L492.301 502.954C492.301 502.954 480.426 513.806 469.354 509.378C458.282 504.951 453.102 460.863 456.386 454.179C459.669 447.494 494.533 422.858 494.533 422.858" fill="#FFF0D7"/>
<path d="M499.528 374.768C499.528 374.768 520.474 382.284 516.123 411.586C513.081 432.235 492.928 435.474 492.928 435.474C492.928 435.474 479.239 427.768 480.602 424.882L498.178 414.615L477.184 405.274L463.248 421.436L452.313 413.741C452.313 413.741 466.372 389.109 472.51 378.92C478.648 368.73 499.528 374.768 499.528 374.768Z" fill="#FF9A22"/>
<path d="M475.445 425.432L478.921 422.409C478.921 422.409 470.521 415.436 459.591 416.939C456.477 412.624 451.969 409.517 446.828 408.144L442.452 411.633" fill="#FFE8BC"/>
<path d="M478.904 422.354L482.768 443.099L476.492 446.957L470.493 428.121" fill="#FFE8BC"/>
<path d="M475.442 425.433L479.373 445.069L476.49 446.957C476.49 446.957 444.964 431.598 445.245 431.258C445.527 430.919 442.434 411.579 442.434 411.579" fill="#68E1FD"/>
<path d="M444.575 409.863L475.443 425.433L472.694 427.165L442.434 411.579L444.575 409.863Z" fill="#68E1FD"/>
<path opacity="0.42" d="M444.575 409.863L475.443 425.433L472.694 427.165L442.434 411.579L444.575 409.863Z" fill="#1371A5"/>
<path d="M471.722 428.366C471.637 428.092 471.625 427.801 471.687 427.521C471.75 427.242 471.884 426.983 472.077 426.771C472.27 426.559 472.514 426.402 472.787 426.313C473.06 426.225 473.351 426.21 473.631 426.268C476.011 427.015 478.51 427.311 480.999 427.141C481.267 427.12 481.535 427.17 481.778 427.286L481.847 427.284C484.304 429.524 487.005 431.48 489.898 433.119L489.08 433.555C488.068 435.792 486.89 437.95 485.555 440.01C485.245 440.477 484.829 440.863 484.341 441.138C483.853 441.413 483.307 441.568 482.747 441.592C482.389 441.894 482.007 442.168 481.606 442.41C481.033 442.766 480.367 442.942 479.693 442.915C479.019 442.888 478.369 442.66 477.826 442.26C477.449 442.52 476.987 442.626 476.534 442.557C476.248 442.722 475.922 442.801 475.592 442.785C475.263 442.769 474.946 442.659 474.678 442.467C473.909 442.079 473.323 441.406 473.043 440.591C472.764 439.777 472.813 438.886 473.18 438.107C472.628 437.534 472.293 436.787 472.232 435.993C472.171 435.2 472.388 434.41 472.845 433.759C473.477 432.752 474.277 431.861 475.211 431.124C474.431 431.032 473.692 430.725 473.076 430.238C472.46 429.751 471.991 429.103 471.722 428.366Z" fill="#FDBA45"/>
<path d="M441.844 422.868C441.657 422.596 441.47 422.338 441.283 422.053C441.155 421.867 441.069 421.655 441.032 421.432C440.995 421.209 441.006 420.981 441.067 420.763C441.127 420.545 441.234 420.344 441.38 420.172C441.527 420 441.709 419.862 441.915 419.768L442.13 419.541C441.952 419.181 441.911 418.769 442.016 418.382C442.12 417.994 442.363 417.658 442.697 417.437C442.926 417.298 443.184 417.215 443.45 417.196C443.717 417.177 443.984 417.222 444.23 417.328C444.377 417.356 444.519 417.409 444.649 417.483C445.839 418.156 446.775 419.201 447.314 420.456C447.425 420.797 447.421 421.165 447.302 421.503C447.184 421.841 446.957 422.131 446.657 422.327C446.484 422.429 446.294 422.499 446.096 422.536C446.687 423.263 447.174 424.07 447.542 424.932C448.027 426.054 446.893 427.107 445.841 427.066L446.098 427.391C447.054 428.514 445.645 430.169 444.379 429.87C443.928 429.745 443.509 429.528 443.146 429.233C442.784 428.938 442.486 428.571 442.273 428.155C441.695 427.229 441.144 426.276 440.608 425.335C440.486 425.096 440.423 424.831 440.422 424.563C440.421 424.295 440.483 424.03 440.603 423.79C440.723 423.55 440.898 423.341 441.114 423.181C441.329 423.021 441.579 422.914 441.844 422.868Z" fill="#FDBA45"/>
<path d="M476.247 397.939C476.247 397.939 476.648 416.396 477.833 418.357C479.019 420.318 498.909 427.654 498.909 427.654L510.227 411.906L476.247 397.939Z" fill="#FF9A22"/>
<path d="M484.616 365.904C484.616 365.904 481.552 373.551 483.003 376.169C484.455 378.787 491.591 376.594 491.591 376.594" fill="#1B6333"/>
<path d="M483.815 362.108C483.815 362.108 484.337 377.31 490.666 378.652C496.995 379.994 499.915 372.116 499.915 372.116C499.915 372.116 500.683 361.804 498.553 359.702C496.423 357.6 486.907 357.642 483.815 362.108Z" fill="#FDBA45"/>
<path d="M481.325 360.54C481.325 360.54 485.819 366.288 488.428 367.672C491.037 369.056 493.75 368.058 494.716 370.08C495.682 372.102 493.17 384.452 496.132 386.643C499.094 388.834 504.308 381.905 506.961 384.976C509.614 388.046 508.583 394.105 512.458 395.22C516.333 396.336 520.626 390.165 516.716 385.592C512.806 381.019 512.385 378.706 514.375 377.035C517.409 374.549 513.743 366.11 509.985 364.7C506.227 363.291 504.834 354.972 498.135 353.239C491.436 351.505 482.514 355.764 481.325 360.54Z" fill="#1B6333"/>
<path d="M477.417 392.016C477.815 400.526 478.397 409.023 479.164 417.506C479.189 418.473 477.807 418.537 477.657 417.545C476.9 409.062 476.318 400.566 475.91 392.055C475.905 391.855 475.979 391.662 476.117 391.517C476.255 391.372 476.444 391.287 476.644 391.282C476.844 391.277 477.038 391.351 477.183 391.489C477.327 391.626 477.412 391.816 477.417 392.016Z" fill="#F26250"/>
<path d="M480.867 424.35C485.624 421.921 489.747 418.414 492.907 414.109C496.068 409.804 498.179 404.82 499.072 399.555C499.241 398.596 500.702 398.931 500.548 399.89C499.623 405.34 497.444 410.501 494.183 414.965C490.922 419.429 486.669 423.074 481.758 425.613C480.829 426.066 480.008 424.801 480.867 424.35Z" fill="#F26250"/>
<path d="M327.858 464.53C328.673 491.926 329.456 516.569 329.456 516.569C329.456 516.569 330.095 518.78 334.167 516.847L332.751 462.797C331.135 463.393 329.49 463.962 327.858 464.53Z" fill="#5B434D"/>
<path d="M444.143 528.146C444.957 555.542 445.741 580.185 445.741 580.185C445.741 580.185 446.38 582.396 450.452 580.463L449.037 526.427C447.419 526.981 445.775 527.592 444.143 528.146Z" fill="#5B434D"/>
<path d="M513.616 484.8C514.43 512.196 515.214 536.84 515.214 536.84C515.214 536.84 515.853 539.05 519.925 537.117L518.509 483.068C516.893 483.663 515.261 484.232 513.616 484.8Z" fill="#5B434D"/>
<path d="M326.848 462.952L326.97 467.61L446.965 532.914L518.413 483.264L518.387 478.049" fill="#68E1FD"/>
<path opacity="0.36" d="M326.848 462.952L326.97 467.61L446.965 532.914L518.413 483.264L518.387 478.049" fill="#06489E"/>
<path d="M326.851 462.952L401.772 417.568L518.391 478.049L446.431 528.238L326.851 462.952Z" fill="#68E1FD"/>
<path d="M431.531 461.677C431.641 461.674 432.694 461.218 431.792 460.563C431.189 460.117 430.559 459.709 429.906 459.34" fill="#E27825"/>
<path d="M431.382 456.051C431.382 456.051 430.583 459.378 431.514 461.11L419.577 468.547L407.773 475.772L407.639 470.644" fill="#FFE8BC"/>
<path d="M431.73 455.53C431.736 455.76 431.715 455.991 431.665 456.223L407.615 470.686L407.749 475.814L431.763 460.993C431.768 461.2 431.773 461.394 431.779 461.601L406.822 476.862L406.641 469.95L431.73 455.53Z" fill="#E27825"/>
<path d="M431.595 455.63L406.786 470.707L370.91 450.897L395.173 436.125C395.539 435.899 395.958 435.774 396.388 435.763C396.818 435.751 397.243 435.854 397.62 436.061L431.564 454.994C431.623 455.022 431.674 455.065 431.711 455.12C431.747 455.174 431.768 455.237 431.771 455.303C431.774 455.368 431.759 455.433 431.728 455.491C431.697 455.549 431.651 455.597 431.595 455.63Z" fill="#FDBA45"/>
<path d="M406.824 476.862C406.824 476.862 370.975 457.052 371.068 456.883C371.16 456.715 370.91 450.87 370.91 450.87L406.786 470.68L406.824 476.862Z" fill="#E27825"/>
<path d="M431.578 454.994C431.684 455.065 431.773 455.158 431.841 455.266C431.908 455.373 431.951 455.494 431.968 455.62C431.98 456.049 431.57 456.267 431.407 456.368" fill="#FDBA45"/>
<path d="M448.8 455.013C448.911 455.011 449.964 454.554 449.061 453.9C448.459 453.454 447.829 453.046 447.176 452.677" fill="#9A433A"/>
<path d="M448.655 449.484C448.655 449.484 447.857 452.811 448.788 454.544L436.851 461.98L425.047 469.206L424.912 464.077" fill="#FFE8BC"/>
<path d="M449.045 448.935C449.051 449.165 449.029 449.396 448.98 449.628L424.929 464.091L425.064 469.219L449.09 454.356C449.095 454.563 449.1 454.757 449.106 454.964L424.151 470.267L423.968 463.286L449.045 448.935Z" fill="#9A433A"/>
<path d="M448.905 449.021L424.11 464.098L388.234 444.288L412.498 429.515C412.863 429.29 413.283 429.165 413.712 429.153C414.142 429.142 414.567 429.245 414.944 429.451L448.888 448.385C448.947 448.414 448.997 448.459 449.032 448.514C449.067 448.569 449.087 448.633 449.088 448.698C449.09 448.764 449.074 448.828 449.042 448.885C449.009 448.942 448.962 448.989 448.905 449.021Z" fill="#F26250"/>
<path d="M424.15 470.267C424.15 470.267 388.355 450.399 388.353 450.302C388.35 450.206 388.195 444.289 388.195 444.289L424.071 464.099L424.15 470.267Z" fill="#9A433A"/>
<path d="M448.907 448.385C449.012 448.456 449.101 448.548 449.169 448.656C449.236 448.764 449.279 448.885 449.296 449.011C449.308 449.44 448.898 449.658 448.735 449.759" fill="#F26250"/>
<path d="M686.066 199.312C685.116 197.268 680.897 195.725 675.847 195.725C670.797 195.725 666.38 197.347 665.576 199.47C659.63 207.79 653.789 221.331 661.093 230.402C662.863 232.47 665.064 234.125 667.543 235.251C670.021 236.376 672.717 236.944 675.438 236.915H676.322C679.042 236.948 681.736 236.384 684.214 235.263C686.692 234.142 688.895 232.492 690.667 230.428C698.011 221.265 692.038 207.605 686.066 199.312Z" fill="#AAACF9"/>
<path opacity="0.5" d="M675.854 204.652C681.606 204.652 686.27 202.65 686.27 200.182C686.27 197.713 681.606 195.712 675.854 195.712C670.101 195.712 665.438 197.713 665.438 200.182C665.438 202.65 670.101 204.652 675.854 204.652Z" fill="black"/>
<path d="M688.022 162.275C681.569 173.177 677.599 185.368 676.393 197.98C676.41 182.736 675.028 167.523 672.266 152.531C672.161 152.004 671.356 152.228 671.449 152.755C674.559 169.521 675.933 186.562 675.549 203.61C675.547 203.675 675.561 203.741 675.59 203.8C675.619 203.859 675.663 203.909 675.716 203.947C675.77 203.985 675.832 204.009 675.897 204.017C675.963 204.025 676.029 204.016 676.09 203.992C676.09 204.111 676.09 204.243 676.09 204.361C676.09 204.473 676.134 204.581 676.213 204.66C676.293 204.739 676.4 204.783 676.512 204.783C676.624 204.783 676.731 204.739 676.81 204.66C676.889 204.581 676.934 204.473 676.934 204.361C677.239 189.683 681.326 175.333 688.8 162.697C688.856 162.594 688.869 162.472 688.835 162.36C688.802 162.247 688.725 162.153 688.622 162.097C688.519 162.041 688.398 162.028 688.285 162.062C688.173 162.095 688.078 162.172 688.022 162.275Z" fill="#FE6162"/>
<path d="M681.428 176.146C681.428 176.146 687.876 155.406 701.72 147.745C701.72 147.745 698.912 151.859 700.23 155.221C701.549 158.583 703.592 164.569 697.052 167.945C690.513 171.32 686.768 167.945 687.322 174.537C687.876 181.13 690.473 184.268 686.28 187.445C682.087 190.623 678.501 193.392 677.051 200.235C677.104 200.182 678.686 183.041 681.428 176.146Z" fill="#FE6162"/>
<path d="M675.282 173.957C675.282 173.957 672.645 142.102 667.002 134.046C667.433 137.125 666.884 140.262 665.433 143.011C663.007 147.613 660.396 149.222 661.794 155.221C663.191 161.22 668.887 160.02 668.386 166.032C667.885 172.045 663.112 170.911 665.472 178.479C667.833 186.047 675.928 191.044 675.928 191.044" fill="#FE6162"/>
<defs>
<linearGradient id="paint0_linear" x1="145.155" y1="349.225" x2="187.83" y2="318.04" gradientUnits="userSpaceOnUse">
<stop stop-color="white" stop-opacity="0"/>
<stop offset="0.98" stop-color="#0800BF"/>
</linearGradient>
<linearGradient id="paint1_linear" x1="15654" y1="5223.33" x2="16741.3" y2="3941.07" gradientUnits="userSpaceOnUse">
<stop stop-color="white" stop-opacity="0"/>
<stop offset="0.98" stop-color="#0800BF"/>
</linearGradient>
<linearGradient id="paint2_linear" x1="32518.8" y1="16036.7" x2="33979.2" y2="12957.2" gradientUnits="userSpaceOnUse">
<stop stop-color="white" stop-opacity="0"/>
<stop offset="0.98" stop-color="#0800BF"/>
</linearGradient>
<linearGradient id="paint3_linear" x1="22952.6" y1="30426.7" x2="27545" y2="22802" gradientUnits="userSpaceOnUse">
<stop stop-color="white" stop-opacity="0"/>
<stop offset="0.98" stop-color="#0800BF"/>
</linearGradient>
<linearGradient id="paint4_linear" x1="4937" y1="10935.9" x2="6024.38" y2="9654.24" gradientUnits="userSpaceOnUse">
<stop stop-color="white" stop-opacity="0"/>
<stop offset="0.98" stop-color="#0800BF"/>
</linearGradient>
<linearGradient id="paint5_linear" x1="768.297" y1="336.406" x2="707.231" y2="420.233" gradientUnits="userSpaceOnUse">
<stop offset="0.01" stop-color="#88A80D"/>
<stop offset="1" stop-color="white"/>
</linearGradient>
<linearGradient id="paint6_linear" x1="4456.92" y1="6545.24" x2="3901.42" y2="7687" gradientUnits="userSpaceOnUse">
<stop offset="0.01" stop-color="#88A80D"/>
<stop offset="1" stop-color="white"/>
</linearGradient>
<linearGradient id="paint7_linear" x1="463.387" y1="502.258" x2="519.222" y2="463.89" gradientUnits="userSpaceOnUse">
<stop stop-color="#FFD555" stop-opacity="0.03"/>
<stop offset="1" stop-color="#942500"/>
</linearGradient>
<linearGradient id="paint8_linear" x1="27220.3" y1="10659.9" x2="28104.4" y2="8666.2" gradientUnits="userSpaceOnUse">
<stop stop-color="#FFD555" stop-opacity="0.03"/>
<stop offset="1" stop-color="#942500"/>
</linearGradient>
<linearGradient id="paint9_linear" x1="30898.4" y1="24419.9" x2="31632.8" y2="18953.4" gradientUnits="userSpaceOnUse">
<stop stop-color="#FFD555" stop-opacity="0.03"/>
<stop offset="1" stop-color="#942500"/>
</linearGradient>
</defs>
</svg>
