<svg width="637" height="671" viewBox="0 0 637 671" fill="none" xmlns="http://www.w3.org/2000/svg">
<path d="M247.377 484.576H254.923C258.815 485.779 261.269 488.329 262.286 492.226C263.304 496.123 260.849 499.862 254.923 503.443L254.862 503.429L254.868 503.443H161.645C155.719 499.862 153.265 496.123 154.282 492.226C155.299 488.329 157.754 485.779 161.645 484.576H247.377Z" fill="#3ABF7C"/>
<path d="M480.768 474.287H524.633C525.964 474.287 527.129 473.175 527.129 471.841V471.563C527.129 470.23 525.964 469.118 524.522 469.118H483.874C459.252 469.118 434.63 469.118 410.064 469.118H372.355C371.024 469.118 369.86 470.23 369.86 471.563V471.841C369.86 473.175 370.969 474.287 372.355 474.287H425.869L411.118 501.408C400.637 520.749 390.156 540.034 379.62 559.375L362.262 591.276C361.652 592.388 362.151 593.833 363.316 594.5L363.538 594.611C364.702 595.222 366.2 594.889 366.754 593.833L431.691 474.287H474.946L539.883 593.833C540.438 594.889 541.935 595.278 543.1 594.611L543.321 594.5C544.486 593.833 544.985 592.388 544.375 591.276L527.018 559.375C516.537 540.034 506.056 520.749 495.52 501.408L480.768 474.287ZM526.962 452.507V420.193C526.962 395.548 526.962 370.959 526.962 346.37V317.004C526.962 312.4 523.238 308.667 518.644 308.667H428.142C423.548 308.667 419.824 312.4 419.824 317.004V452.603C419.824 457.207 423.548 460.939 428.142 460.939C428.145 460.939 428.148 460.939 428.151 460.939L518.653 460.844C523.243 460.839 526.962 457.108 526.962 452.507Z" fill="#D8DEED"/>
<g clip-path="url(#clip0)">
<path d="M320.168 587.012H410.724C412.104 587.012 413.224 588.128 413.224 589.506C413.224 590.883 412.104 592 410.724 592H320.168C318.787 592 317.668 590.883 317.668 589.506C317.668 588.128 318.787 587.012 320.168 587.012ZM421.835 587.012H479.057C480.438 587.012 481.557 588.128 481.557 589.506C481.557 590.883 480.438 592 479.057 592H421.835C420.454 592 419.335 590.883 419.335 589.506C419.335 588.128 420.454 587.012 421.835 587.012Z" fill="#FF5645"/>
<path d="M478.461 587.012H421.911L426.445 556.737H466.745L478.461 587.012ZM412.29 587.561C411.862 587.217 411.317 587.012 410.725 587.012H320.169C320.065 587.012 319.963 587.018 319.862 587.03C319.83 586.775 319.815 586.471 319.822 586.107C319.884 585.72 319.892 585.276 320.011 584.835C320.724 582.187 321.588 580.428 324.116 578.864C326.644 577.301 329.224 575.905 331.912 574.676C341.829 570.027 345.217 570.086 351.737 565.82C354.435 564.038 356.916 561.975 359.233 559.742C360.778 558.254 364.117 555.836 369.251 552.489L409.033 552.61L412.29 587.561Z" fill="#474961"/>
<path d="M477.994 456.736C477.903 483.854 476.985 519.879 476.668 532.272C476.613 533.998 476.835 538.668 473.502 541.613C472.557 542.476 471.613 542.831 469.835 543.592C468.446 544.202 462.224 546.029 449.78 547.045C449.002 547.095 448.168 547.146 447.335 547.095C434.502 546.638 431.335 545.826 426.391 544.405C423.113 543.491 420.724 540.648 420.391 537.298C418.835 522.525 414.557 482.268 414.224 478.714C413.78 474.196 413.391 469.069 413.057 463.231L412.881 460.498L397.506 454.347C403.927 479.295 410.156 505.136 415.724 530.825C416.002 532.084 416.502 534.917 415.057 537.592C412.391 542.68 405.446 542.418 388.835 544.411C369.28 546.771 361.113 549.237 356.668 544.201C355.168 542.575 354.668 540.896 354.502 540.11C350.446 519.705 330.335 460.484 322.502 417.996C322.502 417.892 322.446 417.839 322.446 417.734C319.946 404.044 329.335 391.14 343.28 389.409C347.891 388.832 352.057 388.276 356.668 387.699C358.065 387.533 359.459 387.486 360.838 387.548L429.673 386.337C470.498 385.976 464.877 381.166 477.643 387.128C486.154 391.102 491.948 402.417 495.027 421.072C496.129 435.256 490.452 447.144 477.994 456.736Z" fill="#A339FF"/>
<path opacity="0.176986" d="M478.061 456.682C478.066 455.266 478.068 453.873 478.068 452.51C478.068 441.951 478.124 432.864 478.235 427.026C478.346 422.406 479.179 397.023 468.402 391.744C467.457 391.287 466.513 390.932 464.624 390.272C463.124 389.764 455.346 387.124 445.346 387.53C438.846 387.784 429.068 388.19 421.013 394.536C409.902 403.318 410.179 417.177 410.291 419.411L412.95 460.527L397.583 454.379C393.303 437.745 388.937 421.507 384.624 405.975C381.678 395.404 371.83 388.087 361.027 387.545L429.669 386.337C470.495 385.976 464.874 381.166 477.64 387.128C486.15 391.102 491.945 402.417 495.023 421.072C496.124 435.23 490.47 447.1 478.061 456.682Z" fill="#444444"/>
<path d="M419.516 282.969C420.185 282.676 420.868 282.416 421.567 282.189L433.423 278.171C434.11 278.044 434.794 277.932 435.475 277.837C436.409 276.749 438.313 275.826 441.613 274.798C453.333 271.081 468.291 277.262 473.619 291.111C478.262 303.18 484.43 316.812 483.856 316.991C483.733 317.03 481.041 318.984 477.353 320.195C482.687 340.627 485.561 354.304 485.975 361.228C486.799 375.017 482.23 384.259 466.745 385.43C451.261 386.601 429.709 388.251 427.176 383.679C425.548 380.739 417.895 362.587 404.217 329.223C399.104 330.903 396.433 331.763 396.206 331.804C395.493 331.929 393.066 323.815 391.485 310.984C389.672 296.261 398.47 283.982 413.05 281.47C415.46 281.045 417.616 281.544 419.516 282.969Z" fill="#FF5645"/>
<path opacity="0.176986" d="M419.552 282.995C405.05 289.1 397.851 310.008 402.679 325.469C403.213 326.737 403.739 327.984 404.256 329.211C399.117 330.899 396.434 331.763 396.206 331.803C395.493 331.929 393.066 323.815 391.485 310.984C389.672 296.261 398.47 283.982 413.05 281.47C415.475 281.042 417.642 281.55 419.552 282.995V282.995Z" fill="#444444"/>
<path d="M395.614 284.717C395.614 284.717 394.558 288.929 400.17 287.765C405.781 286.601 407.392 286.047 407.392 286.047L405.947 282.223L395.614 284.717Z" fill="#482D1F"/>
<path d="M427.334 281.754L437.667 330.718L440.123 317.426C453.071 320 463.608 321.288 471.734 321.287C471.778 321.287 471.822 321.287 471.865 321.287C470.034 328.395 465.696 359.242 458.945 371.177C450.411 386.264 445.431 387.921 432.829 386.688C431.539 386.562 430.322 386.331 429.173 385.994C429.724 386.176 430.292 386.329 430.877 386.453L365.684 387.47L365.678 387.488L365.48 387.473L365.209 387.478C365.088 387.48 364.971 387.462 364.859 387.427L338.023 385.425C333.864 385.115 330.042 383.026 327.541 379.696L324.032 375.025C323.363 374.134 322.929 373.091 322.769 371.99C322.241 368.355 324.767 364.981 328.411 364.454L337.008 363.211C342.361 362.437 347.799 362.447 353.149 363.241L369.768 365.707C382.261 361.722 398.932 356.488 403.094 355.586L397.926 331.243L404.035 328.808C405.953 333.253 407.758 337.427 409.45 341.332C407.534 322.78 407.749 302.292 405.445 284.092L399.667 284.218C396.223 285.603 389.001 287.931 388.223 282.999C388.223 282.999 397.778 279.063 404.501 276.181L405.001 275.738C405.445 275.35 405.834 275.128 406.389 274.962C406.501 274.907 406.612 274.907 406.723 274.907L407.092 274.853C406.091 274.929 405.389 274.911 405.145 274.884C400.498 274.678 394.803 266.329 392.063 254.161C391.809 253.182 391.722 252.188 391.58 251.199L390.879 241.302C390.685 239.093 391.105 236.887 392.048 234.913C392.139 234.682 392.235 234.507 392.331 234.332C392.67 233.746 393.009 233.16 393.358 232.684C394.697 230.787 396.357 229.363 398.106 228.32C402.268 226.176 407.128 225.641 409.869 225.735C410.261 225.757 411.493 225.816 413.228 225.887C414.867 226.134 416.436 226.219 418.046 226.134C418.937 226.112 419.668 226.827 419.746 227.711L420.432 241.893C420.437 241.998 420.464 242.146 420.513 242.337C426.108 240.028 430.113 241.346 432.529 246.29C436.153 253.706 432.871 252.102 431.26 254.078C430.098 255.459 428.653 256.142 427.681 256.505C427.499 256.544 427.314 256.65 427.151 256.797L431.502 256.839L432.271 259.887L432.555 263.757L435.414 277.917C435.414 277.917 431.381 280.161 427.334 281.754ZM417.618 273.328L417.291 271.737C417.154 271.795 417.016 271.854 416.874 271.913C412.25 273.874 412.517 273.74 412.195 273.879C411.502 274.095 410.828 274.267 410.188 274.404L415.167 273.687L417.618 273.328ZM463.053 556.898H426.546L427.332 544.654C431.818 545.922 435.34 546.666 447.404 547.095C448.237 547.146 449.07 547.095 449.848 547.045C455.786 546.56 460.307 545.891 463.563 545.257L466.743 556.738L463.053 556.898ZM407.44 542.123L409.031 552.611H369.039L371.677 546.667C376.152 546.147 381.77 545.272 388.904 544.411C397.341 543.398 403.285 542.968 407.44 542.123Z" fill="#DB9E75"/>
<path d="M421.012 272.904L418.912 273.197L417.737 273.369C417.698 273.358 417.658 273.347 417.618 273.335L417.289 271.734L423.252 269.169C422.449 271.014 421.702 272.259 421.012 272.904Z" fill="#482D1F"/>
<path d="M395.586 252.964C395.784 253.948 396.146 255.53 395.766 256.286C395.148 257.508 392.978 255.027 393.146 253.121C393.244 252.334 393.603 251.968 394.045 251.93C394.76 251.812 395.412 252.256 395.586 252.964ZM407.393 250.876C407.591 251.86 407.953 253.442 407.573 254.198C406.955 255.421 404.785 252.94 404.953 251.033C405.051 250.246 405.41 249.881 405.852 249.842C406.567 249.724 407.219 250.168 407.393 250.876Z" fill="#482D1F"/>
<path d="M398.308 252.843L398.294 258.408C398.352 259.091 398.918 259.683 399.57 259.626C399.955 259.624 400.2 259.602 401.184 259.498C401.624 259.451 401.925 259.421 402.281 259.39C402.587 259.363 402.813 259.094 402.786 258.789C402.76 258.484 402.49 258.259 402.185 258.285C401.82 258.317 401.512 258.348 401.066 258.395C400.123 258.496 399.893 258.516 399.515 258.52C399.494 258.52 399.409 258.432 399.403 258.361L399.419 252.846C399.42 252.54 399.172 252.291 398.865 252.291C398.558 252.29 398.309 252.537 398.308 252.843Z" fill="#482D1F"/>
<path d="M403.392 262.519C403.77 262.375 404.677 261.906 404.739 261.345C404.729 261.234 404.77 261.064 404.71 261.013C404.464 260.757 403.764 261.04 402.783 261.293C401.036 261.723 399.541 261.854 399.541 261.854C399.541 261.854 400.122 262.749 400.423 263.001C401.09 263.61 402.803 262.793 403.392 262.519Z" fill="#482D1F"/>
<path d="M416.814 246.776L418.655 246.152C419.707 245.795 420.244 247.369 419.192 247.726L417.35 248.351L415.962 248.822C416.119 249.337 416.225 249.877 416.274 250.435C416.654 254.765 413.443 258.582 409.103 258.961C405.327 259.29 401.939 256.909 400.873 253.432L399.9 253.585L399.097 253.711C399.261 257.88 396.113 261.485 391.901 261.853C387.561 262.232 383.734 259.029 383.355 254.699C382.975 250.369 386.186 246.551 390.526 246.173C394.419 245.833 397.92 248.38 398.858 252.065L399.641 251.942L399.9 253.585C398.945 252.88 398.942 252.856 398.94 252.832L398.068 252.189L398.858 252.065C398.898 252.219 398.932 252.375 398.962 252.533C399.034 252.249 399.252 252.004 399.641 251.942L400.556 251.799C400.18 247.472 403.39 243.659 407.728 243.28C410.923 243.002 413.839 244.664 415.307 247.287L416.814 246.776ZM398.327 253.832C397.868 253.904 397.438 253.587 397.373 253.128C397.308 252.678 397.618 252.26 398.068 252.189L399.641 251.942L400.556 251.799C400.556 251.801 400.556 251.804 400.556 251.807C400.606 252.369 400.713 252.913 400.873 253.432L399.9 253.585L398.327 253.832ZM399.9 253.585C399.502 253.647 399.215 253.471 399.062 253.213L399.9 253.585ZM408.958 257.304C412.381 257.006 414.913 253.995 414.614 250.58C414.314 247.164 411.296 244.638 407.873 244.937C404.45 245.236 401.917 248.246 402.217 251.662C402.516 255.077 405.534 257.603 408.958 257.304ZM390.671 247.829C387.248 248.128 384.716 251.139 385.015 254.554C385.315 257.969 388.333 260.495 391.756 260.197C395.179 259.898 397.712 256.887 397.412 253.472C397.402 253.357 397.389 253.242 397.373 253.128C396.907 249.877 393.966 247.541 390.671 247.829Z" fill="#482D1F"/>
<path opacity="0.2" d="M430.846 386.454L365.652 387.47L365.647 387.488L365.449 387.474L365.178 387.478C365.057 387.48 364.939 387.462 364.828 387.427L337.992 385.425C333.833 385.115 330.011 383.026 327.51 379.697L324 375.025C323.332 374.135 322.898 373.091 322.738 371.991C322.21 368.355 324.735 364.981 328.379 364.455L336.977 363.211C342.33 362.437 347.768 362.448 353.118 363.241L369.737 365.707C382.23 361.722 398.901 356.488 403.063 355.586L397.895 331.243L404.004 328.809C406.034 333.512 407.937 337.914 409.714 342.013C410.024 344.453 410.382 346.88 410.803 349.294C414.905 371.068 419.659 384.082 430.846 386.454Z" fill="#8C2A00"/>
<path d="M437.089 331.01C436.958 330.569 437.21 330.107 437.651 329.976C438.093 329.846 438.556 330.097 438.687 330.537L444.187 349.048C444.318 349.489 444.066 349.951 443.625 350.082C443.184 350.212 442.72 349.961 442.589 349.521L437.089 331.01ZM471.897 321.966C471.437 321.962 471.067 321.587 471.07 321.128C471.074 320.669 471.45 320.3 471.91 320.303C474.229 320.321 476.405 319.983 478.443 319.293C478.878 319.145 479.352 319.377 479.5 319.812C479.648 320.247 479.415 320.719 478.979 320.867C476.762 321.619 474.4 321.985 471.897 321.966Z" fill="#482D1F"/>
<path d="M425.785 256.304C426.629 256.059 429.128 255.511 430.662 253.63C432.278 251.708 433.073 248.69 431.881 245.901C430.808 243.213 427.953 241.181 425.302 241.468C423.812 241.654 422.658 242.478 422.501 242.603C420.675 244.042 419.945 245.886 419.945 245.886L419.504 247.173C419.284 246.886 419.073 246.617 418.872 246.369C414.62 242.401 412.165 239.647 407.858 235.684C405.693 236.429 391.791 241.366 390.746 240.9C390.746 235.269 392.81 233.456 393.159 232.981C394.498 231.084 396.457 229.243 398.206 228.2C402.368 226.056 407.228 225.521 409.969 225.615C410.362 225.637 411.594 225.696 413.329 225.767C413.832 225.779 414.335 225.791 414.948 225.793C416.397 225.778 417.513 225.791 418.182 225.789C426.643 225.607 429.831 224.438 434.236 226.335C434.493 226.453 434.855 226.623 435.282 226.857C435.574 226.091 435.916 225.377 436.256 224.717C445.57 206.712 456.883 210.788 456.883 210.855C456.883 210.921 465.455 210.921 467.648 219.643C467.866 220.51 469.403 226.631 466.946 231.679C463.65 238.283 453.819 242.349 442.633 239.573C442.771 241.505 442.638 243.086 442.581 243.91C441.97 250.306 438.476 254.338 437.454 256.041C436.092 258.311 434.409 260.596 432.405 262.894C429.906 261.397 427.993 259.649 426.665 257.65C426.378 257.211 426.084 256.76 425.785 256.304Z" fill="#482D1F"/>
</g>
<path d="M257.893 438.185C261.892 440.165 263.257 442.125 263.47 443.839C263.782 446.723 263.106 449.041 261.493 452.852C258.372 460.474 255.719 468.199 253.586 476.131C252.961 475.997 252.338 475.855 251.717 475.707C253.02 480.659 252.974 484.445 252.974 484.445C194.525 484.445 165.787 484.445 166.762 484.445C168.225 484.445 178.794 455.927 216.091 453.029C217.163 452.944 218.203 452.89 219.214 452.865C219.442 451.919 219.834 451.065 220.545 449.774C218.982 445.957 217.779 437.012 217.371 433.287C217.371 433.134 217.423 432.981 217.476 432.827C217.685 432.419 218.262 432.215 218.734 432.419L230.541 438.185C232.557 437.45 234.69 436.782 236.939 436.114C239.07 435.465 241.2 434.911 243.204 434.404L247.43 423.461C247.586 423.042 248.106 422.78 248.522 422.989C248.678 423.042 248.782 423.146 248.886 423.303C251.073 426.379 256.448 434.22 257.893 438.185Z" fill="#FFCB3D"/>
<path d="M164.524 480.932C164.083 478.158 165.258 476.47 168.046 475.868C179.546 475.233 189.778 476.084 198.743 478.419C207.708 480.755 212.929 482.793 214.407 484.535H168.046C166.078 484.535 164.524 482.946 164.524 480.932ZM255.855 462.164C257.196 460.615 261.321 453.958 261.321 453.958C261.321 453.958 256.783 467.686 254.05 476.201C254.205 475.479 252.039 481.259 251.781 479.762V479.711C251.42 478.008 250.028 476.769 248.275 476.666C246.625 476.563 244.872 476.511 243.015 476.511C240.643 476.511 238.22 476.666 235.848 476.975L232.393 466.499C235.745 468.202 239.56 468.821 243.273 468.512C244.562 468.408 245.8 468.15 247.037 467.789C250.441 466.808 253.483 464.796 255.855 462.164ZM243.45 449.496C244.182 450.313 245.374 450.595 246.408 450.13C247.348 449.584 247.847 448.529 247.648 447.457C247.564 447.006 247.863 446.572 248.316 446.488C248.77 446.405 249.205 446.703 249.289 447.155C249.62 448.941 248.774 450.706 247.201 451.593L247.144 451.623C245.745 452.274 244.168 452.092 242.972 451.276C242.599 452.169 241.855 452.932 240.852 453.383C238.837 454.146 236.579 453.395 235.562 451.621C235.334 451.223 235.473 450.715 235.873 450.487C236.274 450.259 236.783 450.398 237.012 450.797C237.613 451.845 238.998 452.306 240.212 451.849C241.13 451.434 241.656 450.586 241.561 449.755C241.558 449.75 241.555 449.745 241.552 449.739C241.311 449.321 241.262 448.798 241.311 448.327C241.359 447.961 241.552 447.647 241.794 447.49C242.277 447.124 243.001 447.333 243.291 447.856C243.547 448.36 243.568 448.972 243.45 449.496ZM229.358 449.519C229.944 450.618 229.407 452.187 228.82 452.291C228.381 452.344 227.843 451.768 227.648 451.402C227.403 450.984 227.354 450.461 227.403 449.99C227.452 449.624 227.648 449.31 227.892 449.153C228.381 448.787 229.065 448.996 229.358 449.519ZM254.411 440.65C254.954 441.748 254.46 443.213 253.868 443.422C253.424 443.475 252.881 442.899 252.684 442.533C252.437 442.115 252.388 441.592 252.437 441.121C252.487 440.755 252.684 440.441 252.931 440.284C253.424 439.918 254.115 440.127 254.411 440.65Z" fill="#DE6903"/>
<path d="M218.943 372.712L224.295 351.269H184.121C179.948 351.269 176.497 348.119 176.497 344.305V283.571C176.442 279.703 179.836 276.553 184.066 276.553H306.328C310.502 276.553 313.952 279.703 313.952 283.516V344.305C313.952 348.119 310.502 351.269 306.328 351.269H257.37L255.161 372.712H269.656C271.882 372.712 273.607 374.48 273.607 376.635C273.607 378.846 271.826 380.559 269.656 380.559H207.606C205.38 380.559 203.655 378.791 203.655 376.635C203.544 374.48 205.38 372.712 207.606 372.712H218.943Z" fill="#474961"/>
<path fill-rule="evenodd" clip-rule="evenodd" d="M259.028 335.639L259.193 372.767H255.203L259.028 335.639Z" fill="white"/>
<g clip-path="url(#clip1)">
<path d="M317.704 373.262C323.724 367.5 336.012 362.984 356.316 374.366C359.412 376.045 358.283 381.323 354.85 381.314L319.474 381.08C316.816 381.098 315.697 375.2 317.704 373.262Z" fill="#474961"/>
</g>
<path d="M284.421 248.555H115.102C108.453 248.555 103.023 243.612 103.023 237.56V136.037C103.023 129.985 108.453 125.042 115.102 125.042H284.421C291.069 125.042 296.499 129.985 296.499 136.037V237.51C296.499 243.612 291.069 248.555 284.421 248.555Z" fill="#F2F6FB"/>
<path d="M103.082 124.378C103.082 118.231 108.044 113.248 114.164 113.248H285.365C291.485 113.248 296.447 118.234 296.447 124.378V137.171H103.082V124.378Z" fill="#E1E5F0"/>
<path d="M132.862 182.236H154.193C155.952 182.236 157.378 183.669 157.378 185.435C157.378 187.202 155.952 188.634 154.193 188.634H132.862C131.102 188.634 129.676 187.202 129.676 185.435C129.676 183.669 131.102 182.236 132.862 182.236ZM132.862 217.844H154.193C155.952 217.844 157.378 219.276 157.378 221.043C157.378 222.809 155.952 224.242 154.193 224.242H132.862C131.102 224.242 129.676 222.809 129.676 221.043C129.676 219.276 131.102 217.844 132.862 217.844ZM165.551 182.236H186.882C188.641 182.236 190.068 183.669 190.068 185.435C190.068 187.202 188.641 188.634 186.882 188.634H165.551C163.791 188.634 162.365 187.202 162.365 185.435C162.365 183.669 163.791 182.236 165.551 182.236ZM165.551 217.844H186.882C188.641 217.844 190.068 219.276 190.068 221.043C190.068 222.809 188.641 224.242 186.882 224.242H165.551C163.791 224.242 162.365 222.809 162.365 221.043C162.365 219.276 163.791 217.844 165.551 217.844ZM198.24 182.236H219.571C221.331 182.236 222.757 183.669 222.757 185.435C222.757 187.202 221.331 188.634 219.571 188.634H198.24C196.481 188.634 195.054 187.202 195.054 185.435C195.054 183.669 196.481 182.236 198.24 182.236ZM198.24 217.844H219.571C221.331 217.844 222.757 219.276 222.757 221.043C222.757 222.809 221.331 224.242 219.571 224.242H198.24C196.481 224.242 195.054 222.809 195.054 221.043C195.054 219.276 196.481 217.844 198.24 217.844ZM132.862 164.433H172.476C174.236 164.433 175.662 165.865 175.662 167.632C175.662 169.399 174.236 170.831 172.476 170.831H132.862C131.102 170.831 129.676 169.399 129.676 167.632C129.676 165.865 131.102 164.433 132.862 164.433ZM222.618 164.433H267.22C268.979 164.433 270.406 165.865 270.406 167.632C270.406 169.399 268.979 170.831 267.22 170.831H222.618C220.859 170.831 219.433 169.399 219.433 167.632C219.433 165.865 220.859 164.433 222.618 164.433ZM222.618 200.04H267.22C268.979 200.04 270.406 201.472 270.406 203.239C270.406 205.006 268.979 206.438 267.22 206.438H222.618C220.859 206.438 219.433 205.006 219.433 203.239C219.433 201.472 220.859 200.04 222.618 200.04ZM183.835 200.04H191.868C193.628 200.04 195.054 201.472 195.054 203.239C195.054 205.006 193.628 206.438 191.868 206.438H183.835C182.075 206.438 180.649 205.006 180.649 203.239C180.649 201.472 182.075 200.04 183.835 200.04ZM203.226 164.433H211.26C213.02 164.433 214.446 165.865 214.446 167.632C214.446 169.399 213.02 170.831 211.26 170.831H203.226C201.467 170.831 200.041 169.399 200.041 167.632C200.041 165.865 201.467 164.433 203.226 164.433ZM230.929 182.236H267.22C268.979 182.236 270.406 183.669 270.406 185.435C270.406 187.202 268.979 188.634 267.22 188.634H230.929C229.17 188.634 227.743 187.202 227.743 185.435C227.743 183.669 229.17 182.236 230.929 182.236Z" fill="#E1E5F0"/>
<path d="M132.862 200.04H172.476C174.236 200.04 175.662 201.472 175.662 203.239C175.662 205.006 174.236 206.438 172.476 206.438H132.862C131.102 206.438 129.676 205.006 129.676 203.239C129.676 201.472 131.102 200.04 132.862 200.04ZM203.226 200.04H211.26C213.02 200.04 214.446 201.472 214.446 203.239C214.446 205.006 213.02 206.438 211.26 206.438H203.226C201.467 206.438 200.041 205.006 200.041 203.239C200.041 201.472 201.467 200.04 203.226 200.04Z" fill="#A339FF"/>
<path d="M183.834 164.433H191.868C193.628 164.433 195.054 165.865 195.054 167.632C195.054 169.399 193.628 170.831 191.868 170.831H183.834C182.075 170.831 180.648 169.399 180.648 167.632C180.648 165.865 182.075 164.433 183.834 164.433ZM230.929 217.844H267.219C268.979 217.844 270.405 219.276 270.405 221.043C270.405 222.809 268.979 224.242 267.219 224.242H230.929C229.169 224.242 227.743 222.809 227.743 221.043C227.743 219.276 229.169 217.844 230.929 217.844Z" fill="#FF5645"/>
<path d="M131.338 96H62.0811C55.9612 96 51 100.982 51 107.127V142.178C51 148.324 55.9612 153.305 62.0811 153.305H131.338C137.458 153.305 142.419 148.324 142.419 142.178V107.127C142.419 100.982 137.458 96 131.338 96Z" fill="#3ABF7C"/>
<path fill-rule="evenodd" clip-rule="evenodd" d="M82.713 109.834C83.6721 111.031 83.4833 112.783 82.2913 113.746L67.0474 126.062L82.8057 134.731C84.1475 135.47 84.6393 137.16 83.9042 138.508C83.1691 139.855 81.4854 140.349 80.1436 139.611L60.7517 128.942C59.9406 128.496 59.4047 127.673 59.3233 126.748C59.2418 125.823 59.6256 124.918 60.3462 124.335L78.818 109.411C80.01 108.448 81.7539 108.637 82.713 109.834Z" fill="white"/>
<path fill-rule="evenodd" clip-rule="evenodd" d="M107.969 110.048C108.81 108.765 110.528 108.41 111.806 109.255L131.198 122.079C131.968 122.588 132.436 123.45 132.444 124.376C132.453 125.302 132.002 126.172 131.241 126.696L112.702 139.465C111.44 140.334 109.716 140.011 108.85 138.744C107.985 137.477 108.306 135.746 109.568 134.877L124.708 124.449L108.759 113.901C107.481 113.056 107.127 111.331 107.969 110.048Z" fill="white"/>
<path fill-rule="evenodd" clip-rule="evenodd" d="M100.5 103.51C101.992 103.851 102.927 105.341 102.588 106.839L94.148 144.122C93.8089 145.62 92.3245 146.558 90.8326 146.218C89.3407 145.877 88.4062 144.387 88.7453 142.889L97.1849 105.606C97.524 104.108 99.0084 103.17 100.5 103.51Z" fill="white"/>
<path d="M536.017 34H331.555C326.83 34 323 37.8441 323 42.5861V192.414C323 197.156 326.83 201 331.555 201H536.017C540.742 201 544.572 197.156 544.572 192.414V42.5861C544.572 37.8441 540.742 34 536.017 34Z" fill="#F2F6FB"/>
<path d="M356.316 188.007C345.24 188.007 336.262 178.903 336.262 167.672C336.262 156.441 345.24 147.337 356.316 147.337C367.392 147.337 376.371 156.441 376.371 167.672C376.371 178.903 367.392 188.007 356.316 188.007ZM356.36 167.587C357.84 167.587 359.04 166.386 359.04 164.905C359.04 163.423 357.84 162.223 356.36 162.223C354.88 162.223 353.681 163.423 353.681 164.905C353.681 166.386 354.88 167.587 356.36 167.587ZM356.36 168.928C353.678 168.928 351.504 171.104 351.504 173.789H361.217C361.217 171.104 359.042 168.928 356.36 168.928Z" fill="#D8DEED"/>
<path d="M336.26 70.0646C336.26 69.1146 337.023 68.3445 337.971 68.3445H479.568C480.513 68.3445 481.278 69.1132 481.278 70.0646V131.56C481.278 132.51 480.515 133.28 479.568 133.28H337.971C337.026 133.28 336.26 132.511 336.26 131.56V70.0646ZM389.9 163.884H502.286C504.034 163.884 505.451 165.307 505.451 167.061V168.776C505.451 170.531 504.034 171.954 502.286 171.954H389.9C388.151 171.954 386.734 170.531 386.734 168.776V167.061C386.734 165.307 388.151 163.884 389.9 163.884ZM389.9 176.997H522.407C524.156 176.997 525.573 178.42 525.573 180.174V181.889C525.573 183.644 524.156 185.066 522.407 185.066H389.9C388.151 185.066 386.734 183.644 386.734 181.889V180.174C386.734 178.42 388.151 176.997 389.9 176.997ZM389.9 150.771H474.115C475.864 150.771 477.281 152.194 477.281 153.949V155.663C477.281 157.418 475.864 158.841 474.115 158.841H389.9C388.151 158.841 386.734 157.418 386.734 155.663V153.949C386.734 152.194 388.151 150.771 389.9 150.771ZM323 42.588C323 37.845 326.83 34 331.558 34H536.442C541.168 34 545 37.8453 545 42.588V52.8895H323V42.588Z" fill="#E1E5F0"/>
<path d="M498.413 119.075H524.565C526.033 119.075 527.303 119.374 528.348 119.935C529.394 120.497 530.214 121.32 530.773 122.37C531.333 123.419 531.63 124.693 531.63 126.166V126.189C531.63 127.662 531.333 128.936 530.773 129.986C530.214 131.035 529.394 131.859 528.348 132.42C527.303 132.981 526.033 133.28 524.565 133.28H498.413C496.945 133.28 495.676 132.981 494.63 132.42C493.584 131.859 492.764 131.035 492.205 129.986C491.645 128.936 491.348 127.662 491.348 126.189V126.166C491.348 124.693 491.645 123.419 492.205 122.37C492.764 121.32 493.584 120.497 494.63 119.935C495.676 119.374 496.945 119.075 498.413 119.075Z" fill="#A339FF"/>
<path d="M335.618 47.7379C337.863 47.7379 339.682 45.9119 339.682 43.6595C339.682 41.407 337.863 39.5811 335.618 39.5811C333.374 39.5811 331.555 41.407 331.555 43.6595C331.555 45.9119 333.374 47.7379 335.618 47.7379Z" fill="#FF5645"/>
<path d="M348.88 47.7379C351.124 47.7379 352.944 45.9119 352.944 43.6595C352.944 41.407 351.124 39.5811 348.88 39.5811C346.636 39.5811 344.816 41.407 344.816 43.6595C344.816 45.9119 346.636 47.7379 348.88 47.7379Z" fill="#FFCB3D"/>
<path d="M362.567 47.7379C364.812 47.7379 366.631 45.9119 366.631 43.6595C366.631 41.407 364.812 39.5811 362.567 39.5811C360.323 39.5811 358.504 41.407 358.504 43.6595C358.504 45.9119 360.323 47.7379 362.567 47.7379Z" fill="#3ABF7C"/>
<path d="M151.797 502.749C151.889 502.742 151.982 502.739 152.075 502.739H262.903C265.056 502.739 266.801 504.473 266.801 506.613C266.801 508.752 265.056 510.486 262.903 510.486H152.075C151.982 510.486 151.889 510.483 151.797 510.476V587.126C151.797 589.266 150.051 591 147.898 591C145.745 591 144 589.266 144 587.126L144 385.15C144 383.286 145.325 381.73 147.09 381.36C147.59 381.129 148.147 381 148.734 381H480.102C482.255 381 484 382.734 484 384.874C484 387.013 482.255 388.747 480.102 388.747H151.797V502.749Z" fill="#D8DEED"/>
<defs>
<clipPath id="clip0">
<rect width="290" height="419" fill="white" transform="translate(261 173)"/>
</clipPath>
<clipPath id="clip1">
<rect width="57" height="45" fill="white" transform="translate(309 336)"/>
</clipPath>
</defs>
</svg>
