<svg width="878" height="777" viewBox="0 0 878 777" fill="none" xmlns="http://www.w3.org/2000/svg">
<g clip-path="url(#clip0)">
<g clip-path="url(#clip1)">
<path d="M232.547 521.086H183.408C181.917 521.086 180.613 519.843 180.613 518.353V518.042C180.613 516.551 181.917 515.309 183.533 515.309H229.067C256.649 515.309 284.231 515.309 311.751 515.309H353.993C355.484 515.309 356.789 516.551 356.789 518.042V518.353C356.789 519.843 355.546 521.086 353.993 521.086H294.045L310.57 551.398C322.311 573.014 334.052 594.568 345.855 616.184L365.299 651.839C365.983 653.081 365.423 654.696 364.119 655.441L363.87 655.566C362.566 656.249 360.889 655.876 360.267 654.696L287.523 521.086H239.069L166.325 654.696C165.704 655.876 164.027 656.311 162.722 655.566L162.473 655.441C161.169 654.696 160.61 653.081 161.293 651.839L180.737 616.184C192.478 594.568 204.219 573.014 216.022 551.398L232.547 521.086ZM180.799 496.744V460.628C180.799 433.083 180.799 405.602 180.799 378.12V345.299C180.799 340.153 184.971 335.982 190.117 335.982H291.499C296.646 335.982 300.817 340.153 300.817 345.299V496.851C300.817 501.997 296.646 506.168 291.499 506.168C291.496 506.168 291.493 506.168 291.489 506.168L190.108 506.062C184.965 506.056 180.799 501.886 180.799 496.744Z" fill="#D8DEED"/>
</g>
<path d="M659.047 524.085H708.185C709.676 524.085 710.981 522.843 710.981 521.352V521.042C710.981 519.551 709.676 518.309 708.061 518.309H662.526C634.945 518.309 607.363 518.309 579.843 518.309H537.601C536.11 518.309 534.805 519.551 534.805 521.042V521.352C534.805 522.843 536.048 524.085 537.601 524.085H597.548L581.023 554.398C569.282 576.014 557.541 597.568 545.738 619.184L526.295 654.838C525.611 656.08 526.17 657.695 527.475 658.441L527.723 658.565C529.028 659.248 530.705 658.876 531.326 657.695L604.07 524.085H652.525L725.269 657.695C725.89 658.876 727.567 659.31 728.872 658.565L729.12 658.441C730.425 657.695 730.984 656.08 730.301 654.838L710.857 619.184C699.116 597.568 687.375 576.014 675.572 554.398L659.047 524.085ZM710.795 499.744V463.628C710.795 436.083 710.795 408.601 710.795 381.12V348.299C710.795 343.153 706.623 338.981 701.476 338.981H600.095C594.948 338.981 590.776 343.153 590.776 348.299V499.85C590.776 504.996 594.948 509.168 600.095 509.168C600.098 509.168 600.101 509.168 600.104 509.168L701.486 509.061C706.629 509.056 710.795 504.886 710.795 499.744Z" fill="#D8DEED"/>
<path d="M455.231 61H226.769C225.24 61 224 62.2361 224 63.7609V237.239C224 238.764 225.24 240 226.769 240H455.231C456.76 240 458 238.764 458 237.239V63.7609C458 62.2361 456.76 61 455.231 61Z" fill="#F2F6FB"/>
<mask id="mask0" mask-type="alpha" maskUnits="userSpaceOnUse" x="375" y="101" width="41" height="123">
<path d="M381.733 101.954H409.16C411.217 101.954 411.963 102.168 412.715 102.569C413.467 102.97 414.058 103.558 414.46 104.308C414.862 105.058 415.076 105.802 415.076 107.853V217.835C415.076 219.886 414.862 220.63 414.46 221.38C414.058 222.13 413.467 222.718 412.715 223.119C411.963 223.52 411.217 223.734 409.16 223.734H381.733C379.676 223.734 378.93 223.52 378.178 223.119C377.425 222.718 376.835 222.13 376.433 221.38C376.031 220.63 375.816 219.886 375.816 217.835V107.853C375.816 105.802 376.031 105.058 376.433 104.308C376.835 103.558 377.425 102.97 378.178 102.569C378.93 102.168 379.676 101.954 381.733 101.954Z" fill="white"/>
</mask>
<g mask="url(#mask0)">
<path d="M381.733 101.954H409.16C411.217 101.954 411.963 102.168 412.715 102.569C413.467 102.97 414.058 103.558 414.46 104.308C414.862 105.058 415.076 105.802 415.076 107.853V217.835C415.076 219.886 414.862 220.63 414.46 221.38C414.058 222.13 413.467 222.718 412.715 223.119C411.963 223.52 411.217 223.734 409.16 223.734H381.733C379.676 223.734 378.93 223.52 378.178 223.119C377.425 222.718 376.835 222.13 376.433 221.38C376.031 220.63 375.816 219.886 375.816 217.835V107.853C375.816 105.802 376.031 105.058 376.433 104.308C376.835 103.558 377.425 102.97 378.178 102.569C378.93 102.168 379.676 101.954 381.733 101.954Z" fill="#E1E5F0"/>
<path d="M377.139 170.921H413.754C414.214 170.921 414.381 170.969 414.549 171.059C414.717 171.148 414.849 171.28 414.939 171.447C415.028 171.615 415.076 171.781 415.076 172.24V223.734H375.816V172.24C375.816 171.781 375.864 171.615 375.954 171.447C376.044 171.28 376.176 171.148 376.344 171.059C376.512 170.969 376.679 170.921 377.139 170.921Z" fill="#D8DEED"/>
</g>
<mask id="mask1" mask-type="alpha" maskUnits="userSpaceOnUse" x="321" y="101" width="40" height="123">
<path d="M327.514 101.954H354.941C356.998 101.954 357.744 102.168 358.497 102.569C359.249 102.97 359.839 103.558 360.241 104.308C360.643 105.058 360.858 105.802 360.858 107.853V217.835C360.858 219.886 360.643 220.63 360.241 221.38C359.839 222.13 359.249 222.718 358.497 223.119C357.744 223.52 356.998 223.734 354.941 223.734H327.514C325.457 223.734 324.711 223.52 323.959 223.119C323.207 222.718 322.616 222.13 322.214 221.38C321.812 220.63 321.598 219.886 321.598 217.835V107.853C321.598 105.802 321.812 105.058 322.214 104.308C322.616 103.558 323.207 102.97 323.959 102.569C324.711 102.168 325.457 101.954 327.514 101.954Z" fill="white"/>
</mask>
<g mask="url(#mask1)">
<path d="M327.514 101.954H354.941C356.998 101.954 357.744 102.168 358.497 102.569C359.249 102.97 359.839 103.558 360.241 104.308C360.643 105.058 360.858 105.802 360.858 107.853V217.835C360.858 219.886 360.643 220.63 360.241 221.38C359.839 222.13 359.249 222.718 358.497 223.119C357.744 223.52 356.998 223.734 354.941 223.734H327.514C325.457 223.734 324.711 223.52 323.959 223.119C323.207 222.718 322.616 222.13 322.214 221.38C321.812 220.63 321.598 219.886 321.598 217.835V107.853C321.598 105.802 321.812 105.058 322.214 104.308C322.616 103.558 323.207 102.97 323.959 102.569C324.711 102.168 325.457 101.954 327.514 101.954Z" fill="#E1E5F0"/>
<path d="M322.92 128.671H359.535C359.995 128.671 360.162 128.719 360.33 128.808C360.498 128.898 360.63 129.029 360.72 129.197C360.81 129.365 360.858 129.531 360.858 129.989V223.734H321.598V129.989C321.598 129.531 321.646 129.365 321.735 129.197C321.825 129.029 321.957 128.898 322.125 128.808C322.293 128.719 322.46 128.671 322.92 128.671Z" fill="#D8DEED"/>
</g>
<mask id="mask2" mask-type="alpha" maskUnits="userSpaceOnUse" x="267" y="101" width="40" height="123">
<path d="M273.299 101.954H300.726C302.783 101.954 303.53 102.168 304.282 102.569C305.034 102.97 305.624 103.558 306.026 104.308C306.429 105.058 306.643 105.802 306.643 107.853V217.835C306.643 219.886 306.429 220.63 306.026 221.38C305.624 222.13 305.034 222.718 304.282 223.119C303.53 223.52 302.783 223.734 300.726 223.734H273.299C271.242 223.734 270.496 223.52 269.744 223.119C268.992 222.718 268.402 222.13 267.999 221.38C267.597 220.63 267.383 219.886 267.383 217.835V107.853C267.383 105.802 267.597 105.058 267.999 104.308C268.402 103.558 268.992 102.97 269.744 102.569C270.496 102.168 271.242 101.954 273.299 101.954Z" fill="white"/>
</mask>
<g mask="url(#mask2)">
<path d="M273.299 101.954H300.726C302.783 101.954 303.53 102.168 304.282 102.569C305.034 102.97 305.624 103.558 306.026 104.308C306.429 105.058 306.643 105.802 306.643 107.853V217.835C306.643 219.886 306.429 220.63 306.026 221.38C305.624 222.13 305.034 222.718 304.282 223.119C303.53 223.52 302.783 223.734 300.726 223.734H273.299C271.242 223.734 270.496 223.52 269.744 223.119C268.992 222.718 268.402 222.13 267.999 221.38C267.597 220.63 267.383 219.886 267.383 217.835V107.853C267.383 105.802 267.597 105.058 267.999 104.308C268.402 103.558 268.992 102.97 269.744 102.569C270.496 102.168 271.242 101.954 273.299 101.954Z" fill="#E1E5F0"/>
<path d="M268.705 149.796H305.321C305.78 149.796 305.947 149.844 306.115 149.933C306.283 150.023 306.415 150.154 306.505 150.322C306.595 150.49 306.643 150.656 306.643 151.114V223.734H267.383V151.114C267.383 150.656 267.431 150.49 267.521 150.322C267.61 150.154 267.742 150.023 267.91 149.933C268.079 149.844 268.245 149.796 268.705 149.796Z" fill="#D8DEED"/>
</g>
<path d="M224 70.2051C224 65.1213 228.136 61 233.227 61H448.773C453.869 61 458 65.1216 458 70.2051V81.2468H224V70.2051Z" fill="#E1E5F0"/>
<path d="M254.636 26H177.364C170.535 26 165 31.5638 165 38.4272V77.5728C165 84.4362 170.535 90 177.364 90H254.636C261.465 90 267 84.4362 267 77.5728V38.4272C267 31.5638 261.465 26 254.636 26Z" fill="#3ABF7C"/>
<path fill-rule="evenodd" clip-rule="evenodd" d="M201.218 41.1661C202.333 42.5107 202.113 44.4778 200.727 45.5597L182.997 59.3953L201.325 69.1339C202.886 69.9631 203.458 71.8623 202.603 73.3759C201.748 74.8895 199.79 75.4443 198.229 74.6151L175.674 62.631C174.731 62.1297 174.107 61.2048 174.013 60.1656C173.918 59.1263 174.364 58.1097 175.202 57.4557L196.687 40.6904C198.074 39.6085 200.102 39.8214 201.218 41.1661Z" fill="white"/>
<path fill-rule="evenodd" clip-rule="evenodd" d="M228.513 41.4066C229.458 39.9652 231.388 39.5662 232.823 40.5155L254.6 54.9212C255.465 55.4936 255.99 56.4611 256 57.5017C256.01 58.5423 255.503 59.5195 254.649 60.1081L233.828 74.4518C232.411 75.428 230.475 75.0655 229.503 73.6423C228.531 72.219 228.892 70.2739 230.309 69.2977L247.312 57.5838L229.4 45.7351C227.965 44.7859 227.568 42.8479 228.513 41.4066Z" fill="white"/>
<path fill-rule="evenodd" clip-rule="evenodd" d="M220.378 35.0782C222.192 35.4597 223.328 37.1295 222.915 38.8078L212.654 80.5737C212.241 82.252 210.437 83.3033 208.622 82.9218C206.808 82.5403 205.672 80.8705 206.085 79.1922L216.346 37.4263C216.759 35.748 218.563 34.6967 220.378 35.0782Z" fill="white"/>
<g clip-path="url(#clip2)">
<path d="M221.433 656.207C219.814 656.207 218.569 655.131 218.631 653.839V652.979C218.631 651.687 219.939 650.611 221.433 650.611H285.25C286.806 650.611 288.052 651.687 288.052 652.979V653.839C288.052 655.131 286.744 656.207 285.25 656.207H221.433ZM304.613 650.611H403.607C405.155 650.611 406.409 651.864 406.409 653.409C406.409 654.954 405.155 656.207 403.607 656.207H304.613C303.066 656.207 301.811 654.954 301.811 653.409C301.811 651.864 303.066 650.611 304.613 650.611Z" fill="#DE3190"/>
<path d="M300.992 504.23L295.673 507.046L295.595 509.494C295.445 515.78 295.206 521.304 294.881 526.176C294.643 530.007 291.392 573.427 290.215 589.36C289.97 592.973 287.403 596.119 283.767 597.226C278.283 598.944 274.768 599.938 260.412 600.921C259.48 601.008 258.545 600.985 257.672 600.96C243.695 600.347 236.656 598.622 235.078 598.02C233.057 597.27 231.986 596.925 230.895 596.034C227.049 592.998 227.119 587.971 226.991 586.119C226.23 573.898 224.137 540.268 222.918 512.29C221.801 511.892 220.75 511.324 219.842 510.514C216.113 507.159 210.944 503.287 208.114 496.691C200.107 478.026 199.252 457.192 205.549 434.189C210.479 423.544 213.793 417.766 215.492 416.854L345.893 425.748C347.094 425.722 348.297 425.696 349.503 425.67C365.255 425.387 378.018 437.663 377.645 452.654C377.645 452.767 377.645 452.823 377.645 452.937C376.649 499.437 365.006 565.68 364.197 588.082C364.134 588.93 363.885 590.797 362.578 592.777C358.531 598.83 349.067 597.472 326.965 597.982C308.162 598.434 300.566 599.792 296.706 594.814C294.589 592.098 294.652 588.987 294.714 587.573C296.227 559.665 298.42 531.499 300.992 504.23Z" fill="#3ABF7C"/>
<path opacity="0.176986" d="M301.214 504.207L295.9 507.021L297.322 462.205C297.297 459.748 297.08 444.901 284.362 435.888C275.097 429.379 264.13 429.318 256.84 429.294C252.714 429.275 237.995 429.011 232.185 435.888C222.201 447.704 221.325 469.859 221.515 472.993C221.863 479.262 222.273 489.024 222.677 500.37C222.812 504.169 222.973 508.178 223.154 512.31C222.016 511.911 220.944 511.338 220.022 510.514C216.293 507.159 211.123 503.287 208.294 496.691C200.286 478.026 199.431 457.192 205.729 434.189C210.659 423.544 213.973 417.766 215.672 416.854L344.896 425.668C341.301 425.746 337.718 425.824 334.105 425.902C320.097 426.242 308.454 436.368 306.96 449.605C304.929 467.132 302.981 485.458 301.214 504.207Z" fill="#444444"/>
<path d="M286.415 650.935C286.001 650.73 285.519 650.611 285.002 650.611H221.949L236.624 612.444L280.772 614.657C280.772 614.657 282.835 624.835 286.415 650.935ZM303.299 650.821L302.875 610.927L349.881 611.549L361.145 619.842C363.697 622.453 366.437 624.754 369.425 626.805C376.648 631.717 380.445 631.654 391.466 637.125C394.516 638.555 397.318 640.172 400.12 641.975C401.49 643.28 403.855 645.767 404.603 648.751C404.727 649.186 404.727 649.684 404.789 650.181C404.789 650.525 404.777 650.786 404.754 650.981C404.343 650.746 403.867 650.611 403.36 650.611H304.365C303.988 650.611 303.627 650.686 303.299 650.821Z" fill="#474961"/>
<path d="M304.533 356.917C303.491 378.09 301.14 407.209 299.009 412.862C295.78 421.429 233.835 415.33 225.587 413.457C220.431 412.292 215.622 398.414 214.733 393.766C213.978 390.025 209.789 385.847 218.926 352.598C214.925 351.561 211.646 350.688 209.867 350.234C202.66 348.395 205.832 339.989 207.11 334.212C210.768 317.725 215.356 311.688 216.924 309.87C218.724 307.793 220.466 306.3 221.628 305.392C229.468 299.29 237.772 298.381 242.011 298.316C242.128 298.251 242.244 298.251 242.36 298.251L262.976 297.992C262.906 298.548 262.832 299.142 262.753 299.769C263.614 299.802 264.461 299.84 265.284 299.883C265.313 299.257 265.34 298.694 265.364 298.14L285.956 302.081C285.956 302.081 298.147 305.146 304.851 312.26C305.844 313.319 307.311 315.029 308.738 317.3C309.979 319.286 313.492 325.776 314.349 341.961C314.645 347.632 316.389 356.118 308.984 356.603C307.949 356.67 306.416 356.781 304.533 356.917Z" fill="#DE3190"/>
<path opacity="0.176986" d="M304.618 356.911C305.307 342.723 304.561 332.445 303.931 328.356C303.484 325.432 302.754 322.725 302.754 322.725C302.411 320.803 301.682 318.097 299.905 315.241C294.388 306.094 283.351 303.187 275.913 301.143C274.285 300.708 270.184 300.262 265.281 300.003C265.312 299.332 265.34 298.722 265.367 298.133L285.945 302.074C285.945 302.074 298.149 305.146 304.854 312.261C305.846 313.319 307.313 315.029 308.74 317.301C309.981 319.287 313.494 325.776 314.351 341.962C314.647 347.632 316.391 356.118 308.986 356.603C307.966 356.67 306.463 356.779 304.618 356.911Z" fill="#444444"/>
<path d="M334.516 336.331C339.22 331.77 347.717 324.846 360.009 315.56C363.78 316 363.506 318.985 359.186 324.516L334.516 336.331ZM252.857 359.844C252.651 360.317 252.101 360.533 251.628 360.328C251.155 360.122 250.938 359.573 251.144 359.101C252.349 356.333 252.834 354.786 253.768 350.746C253.884 350.244 254.385 349.931 254.888 350.047C255.39 350.162 255.704 350.663 255.588 351.165C254.63 355.309 254.112 356.962 252.857 359.844Z" fill="#482D1F"/>
<path d="M280.772 614.657L236.62 612.443L239.476 599.109C243.176 599.802 249.113 600.587 257.619 600.96C258.492 600.985 259.428 601.007 260.359 600.921C271.335 600.169 275.974 599.411 280.001 598.328L280.772 614.657ZM349.882 611.549L302.875 610.927C302.875 610.927 302.808 606.476 302.779 598.092C307.595 598.917 315.008 598.268 326.912 597.981C333.337 597.833 338.693 597.843 343.16 597.783L349.882 611.549ZM300.18 402.773L304.264 356.911C305.15 356.841 305.829 356.789 306.302 356.754C307.255 356.683 308.236 356.646 309.369 356.42C310.825 356.13 311.807 355.768 312.317 355.335L314.128 367.664L331.768 338.876C332.636 337.46 333.868 336.3 335.335 335.518L366.639 318.826C371.436 314.333 374.887 311.731 376.993 311.022C379.099 310.313 381.295 311.013 383.581 313.122L356.292 341.676C352.865 351.579 349.092 361.463 344.973 371.329C340.856 381.188 334.456 395.646 325.771 414.703C337.629 421.055 344.769 426.084 344.769 426.084C344.769 426.084 256.495 424.591 221.479 422.449C190.327 420.544 205.348 362.783 209.042 350.061C209.232 350.124 209.43 350.181 209.636 350.234C216.085 351.879 242.246 359.136 251.094 359.632L242.6 389.251C263.468 390.358 283.482 396.121 300.18 402.773ZM276.103 299.769C277.648 300.196 279.515 300.576 281.181 301.168C279.796 304.551 277.868 306.533 275.398 307.115C271.693 307.987 262.827 307.987 256.997 305.486C253.111 303.818 250.185 301.387 248.22 298.192C250.477 298.15 252.597 298.115 254.58 298.086V275.018C253.013 273.184 251.642 271.435 250.835 269.812C249.474 267.123 249.665 260.338 250.256 257.103C250.452 255.775 260.034 246.349 265.581 255.596L265.06 239.665C265.035 238.669 265.771 237.794 266.831 237.763C269.007 237.636 271.173 237.384 273.486 236.683C273.734 236.661 273.977 236.577 274.225 236.556C276.317 236.186 288.115 234.593 294.964 242.857C295.587 243.551 296.154 244.313 296.675 245.266C297.806 247.476 298.457 249.916 298.488 252.409L298.586 263.509C298.56 264.635 298.471 265.766 298.315 266.84C297.2 274.801 294.844 281.435 292.096 285.731C290.067 288.966 287.738 290.917 285.572 291.169C284.957 291.285 281.603 291.516 277.592 290.68C277.331 290.618 277.4 290.672 275.765 290.126L276.103 299.769Z" fill="#DB9E75"/>
<path d="M243.446 389.519C243.96 389.471 244.415 389.847 244.464 390.36C244.512 390.872 244.135 391.327 243.622 391.376C243.5 391.387 243.263 391.414 242.926 391.459C242.36 391.535 241.727 391.634 241.045 391.761C239.099 392.124 237.154 392.629 235.347 393.297C234.28 393.692 233.294 394.133 232.404 394.622C231.952 394.87 231.384 394.705 231.135 394.254C230.887 393.803 231.052 393.236 231.504 392.987C232.479 392.452 233.549 391.973 234.698 391.548C236.615 390.839 238.66 390.308 240.703 389.928C241.418 389.795 242.082 389.69 242.679 389.61C242.889 389.582 243.076 389.559 243.238 389.541C243.337 389.53 243.408 389.523 243.446 389.519ZM313.395 367.109C313.679 366.679 314.258 366.559 314.689 366.842C315.12 367.125 315.24 367.703 314.956 368.133C314.931 368.172 314.931 368.172 314.808 368.359C314.687 368.543 314.546 368.758 314.388 368.999C313.936 369.688 313.433 370.457 312.891 371.286C311.344 373.655 309.803 376.031 308.37 378.259C308.223 378.488 308.223 378.488 308.076 378.718C305.895 382.115 306.306 381.157 305.269 382.894C305.005 383.337 304.432 383.482 303.989 383.218C303.546 382.955 303.401 382.383 303.665 381.94C304.714 380.18 304.312 381.124 306.503 377.711C306.651 377.481 306.651 377.481 306.799 377.251C308.233 375.02 309.778 372.64 311.327 370.268C311.869 369.437 312.373 368.667 312.825 367.977C312.984 367.735 313.125 367.521 313.246 367.336C313.369 367.149 313.369 367.149 313.395 367.109Z" fill="#482D1F"/>
<path d="M276.025 290.139L266.801 286.838L276.025 297.594L276.025 290.139Z" fill="#482D1F"/>
<path d="M266.558 261.31L266.404 260.163C266.404 260.163 265.96 257.955 264.215 255.861C264.08 255.748 262.906 254.478 261.234 253.938C258.221 253.077 254.489 254.714 252.614 257.561C250.62 260.481 250.94 264.135 252.362 266.819C253.785 269.503 256.194 270.604 257.033 270.905L260.748 271.729C258.059 276.782 255.676 281.299 255.117 281.299C254.093 281.299 250.092 276.566 247.466 272.989C246.186 271.228 241.821 267.054 240.514 259.991C240.238 258.344 239.439 253.922 240.678 249.231C232.782 244.345 227.211 235.931 226.339 225.979C224.87 209.219 237.286 194.443 254.071 192.977C270.856 191.51 285.653 203.909 287.122 220.669C287.606 226.194 286.581 231.503 284.389 236.191C288.752 237.19 293.401 239.417 295.967 243.725C294.727 244.608 293.229 245.339 291.52 245.8C286.871 246.955 282.758 246.378 280.263 245.722C275.94 250.593 271.55 255.408 267.226 260.279C267.013 260.596 266.79 260.941 266.558 261.31Z" fill="#482D1F"/>
<path fill-rule="evenodd" clip-rule="evenodd" d="M283.728 263.892C282.973 263.833 282.277 264.456 282.156 265.215C282.006 266.352 281.791 268.18 282.358 268.942C283.154 270.183 285.272 267.252 284.896 265.101C284.634 264.25 284.23 263.911 283.728 263.892ZM297.408 264.405C296.653 264.346 295.957 264.969 295.837 265.728C295.686 266.865 295.471 268.693 296.038 269.455C296.834 270.696 298.952 267.765 298.576 265.614C298.314 264.763 297.91 264.424 297.408 264.405Z" fill="#482D1F"/>
<path d="M291.218 266.614L291.822 272.802C291.824 272.825 291.738 272.928 291.709 272.93C291.369 272.96 291.021 272.968 290.475 272.963C290.369 272.962 290.258 272.961 290.098 272.958C289.897 272.955 289.787 272.954 289.681 272.953C289.32 272.948 289.021 272.946 288.702 272.946L288.699 272.946C288.358 272.946 288.079 273.224 288.079 273.568C288.08 273.911 288.358 274.189 288.702 274.189L288.705 274.189C289.015 274.189 289.309 274.191 289.665 274.196C289.77 274.197 289.879 274.199 290.081 274.202C290.242 274.204 290.355 274.205 290.463 274.206C291.046 274.212 291.43 274.203 291.817 274.169C292.532 274.106 293.125 273.401 293.062 272.687L292.457 266.493C292.424 266.151 292.119 265.901 291.777 265.935C291.435 265.968 291.184 266.272 291.218 266.614Z" fill="#482D1F"/>
<path d="M287.818 277.763C287.367 277.615 286.269 277.212 286.153 276.598C286.142 276.474 286.064 276.294 286.183 276.221C286.466 275.884 287.237 276.129 288.38 276.341C290.409 276.663 292.032 276.646 292.032 276.646C292.032 276.646 291.499 277.691 291.148 277.972C290.469 278.78 288.465 278.019 287.818 277.763Z" fill="#482D1F"/>
<path d="M272.476 263.709L268.744 262.913C268.24 262.806 267.918 262.31 268.026 261.807C268.133 261.303 268.629 260.982 269.134 261.089L273.147 261.945C274.484 259.318 277.107 257.418 280.263 257.143C285.127 256.718 289.415 260.311 289.841 265.168C289.851 265.284 289.859 265.399 289.864 265.515L291.759 265.581C292.257 261.533 295.531 258.243 299.764 257.873C304.628 257.448 308.916 261.041 309.342 265.898C309.767 270.755 306.169 275.037 301.305 275.462C296.444 275.887 292.158 272.298 291.728 267.446L289.758 267.377C289.118 271.262 285.913 274.373 281.804 274.732C276.94 275.157 272.652 271.564 272.226 266.707C272.135 265.67 272.228 264.661 272.476 263.709ZM274.478 263.558C274.14 264.484 273.995 265.497 274.087 266.544C274.422 270.375 277.805 273.209 281.641 272.874C285.478 272.538 288.316 269.161 287.98 265.33C287.644 261.499 284.262 258.666 280.426 259.001C277.792 259.231 275.628 260.895 274.639 263.156C274.637 263.175 274.633 263.194 274.629 263.214C274.602 263.342 274.549 263.457 274.478 263.558ZM293.561 266.745C293.563 266.92 293.572 267.097 293.588 267.274C293.923 271.105 297.306 273.939 301.142 273.604C304.979 273.269 307.817 269.891 307.481 266.061C307.145 262.23 303.763 259.396 299.927 259.731C296.395 260.039 293.709 262.926 293.567 266.372C293.579 266.438 293.585 266.507 293.582 266.578C293.58 266.635 293.573 266.691 293.561 266.745Z" fill="#482D1F"/>
<path opacity="0.2" d="M304.497 356.911L300.41 402.806C306.203 405.181 310.534 407.044 313.405 408.393C316.276 409.743 320.47 411.857 325.989 414.737C334.681 395.664 341.087 381.194 345.206 371.329C349.325 361.464 353.098 351.58 356.526 341.676L383.814 313.122C381.528 311.013 379.332 310.312 377.226 311.021C375.12 311.731 371.669 314.332 366.872 318.827L335.568 335.518C334.101 336.301 332.869 337.46 332.001 338.877L314.361 367.664L312.55 355.336C312.144 355.768 311.213 356.13 309.757 356.421C308.625 356.646 307.643 356.684 306.69 356.755C306.217 356.79 305.486 356.842 304.497 356.911Z" fill="#8C2A00"/>
</g>
<g clip-path="url(#clip3)">
<path d="M576.141 650.347L637.792 604.342C639.033 603.409 640.833 603.658 641.764 604.902C642.695 606.145 642.447 607.948 641.205 608.88L578.888 655.383C577.647 656.316 575.847 656.067 574.916 654.823C573.985 653.58 574.233 651.777 575.474 650.845L576.141 650.347H577.026C578.578 650.347 579.881 651.624 579.881 653.145C579.819 654.726 578.578 655.943 577.026 655.943H542.578C541.026 655.943 539.723 654.665 539.723 653.145C539.723 651.624 541.026 650.347 542.578 650.347H576.141ZM685.523 656.07H621.84C620.35 656.07 619.047 654.994 619.047 653.703V652.842C619.047 651.551 620.288 650.475 621.84 650.475H685.461C686.95 650.475 688.254 651.551 688.254 652.842V653.703C688.378 654.994 687.074 656.07 685.523 656.07Z" fill="#FF5645"/>
<path d="M627.411 619.174C628.335 619.558 643.537 618.985 673.016 617.455L683.619 650.475H621.84C621.822 650.475 621.804 650.475 621.786 650.475C625.814 630.379 627.705 619.933 627.457 619.14L627.411 619.174ZM637.557 604.517L576.141 650.347H542.578C542.2 650.347 541.836 650.423 541.503 650.56C541.448 650.293 541.41 650.029 541.398 649.783C541.461 649.348 541.461 648.85 541.585 648.353C541.895 647.234 542.392 646.177 542.95 645.245C544.75 642.385 547.978 640.395 547.978 640.395C551.702 637.971 555.116 636.354 559.15 634.614C561.261 633.681 564.24 632.438 567.716 631.07C568.833 627.464 569.95 623.858 571.067 620.19C573.178 613.165 575.288 606.202 577.336 599.239L614.702 572.071L637.557 604.517Z" fill="#474961"/>
<path d="M626.723 589.251C622.574 591.789 615.368 593.679 604.057 597.505C583.278 604.551 574.971 609.171 568.852 604.453C566.805 602.944 565.838 601.152 565.458 600.296C555.911 578.06 519.088 515.385 499.877 468.945C499.851 468.826 499.777 468.779 499.751 468.66C493.587 453.691 500.612 436.958 515.417 431.88C520.312 430.195 525.22 428.57 530.114 426.886C534.549 425.393 539.164 425.104 543.588 425.867L543.345 425.459L691.183 421.232C693.728 422.49 695.377 427.626 698.276 435.69C701.176 443.755 702.095 457.808 701.847 459.409C701.847 471.933 699.612 483.428 695.888 492.292C693.281 498.411 690.054 503.272 686.329 506.36C685.689 506.899 685.037 507.384 684.375 507.811C684.374 508.672 684.374 509.543 684.374 510.422C684.374 542.941 683.257 589.404 682.884 604.852C682.822 606.896 683.07 612.426 679.346 615.912C678.291 616.934 677.236 617.355 675.25 618.256C673.698 618.977 666.746 621.141 652.843 622.344C651.974 622.404 651.043 622.464 650.112 622.404C636.171 621.878 632.44 620.954 627.167 619.356L641.205 608.88C642.447 607.948 642.695 606.145 641.764 604.901C640.833 603.658 639.033 603.409 637.791 604.342L637.504 604.556L626.723 589.251ZM612.887 538.837C612.486 534.141 612.129 528.921 611.815 523.105L610.735 505.402L593.772 499.135C600.183 512.181 606.583 525.456 612.887 538.837Z" fill="#A339FF"/>
<path opacity="0.176986" d="M684.373 507.579C684.381 496.247 684.443 486.544 684.558 480.141C684.682 474.671 685.613 444.617 673.572 438.366C672.517 437.825 671.462 437.404 669.351 436.623C667.675 436.022 658.986 432.896 647.813 433.377C640.551 433.677 629.627 434.158 620.627 441.672C608.213 452.07 608.524 468.48 608.648 471.125L610.724 505.15L593.671 498.825C583.926 478.996 574.161 459.695 564.68 441.351C559.994 432.306 551.269 426.563 541.91 425.523L691.181 421C693.726 422.258 695.375 427.394 698.275 435.458C701.174 443.523 702.093 457.576 701.845 459.177C701.845 471.701 699.61 483.196 695.886 492.06C693.279 498.179 690.052 503.04 686.328 506.128C685.688 506.667 685.036 507.152 684.373 507.579Z" fill="#444444"/>
<path d="M627.863 589.738C630.631 587.839 632.699 585.663 633.249 583.506C634.054 580.501 633.504 577.677 632.261 574.895C625.461 559.675 620.752 549.581 618.123 544.594C617.883 544.139 617.32 543.965 616.865 544.205C616.41 544.446 616.236 545.01 616.477 545.465C619.08 550.404 623.778 560.473 630.561 575.657C631.645 578.084 632.12 580.522 631.448 583.034C631.038 584.638 629.233 586.537 626.811 588.199C626.386 588.49 626.278 589.07 626.569 589.495C626.859 589.92 627.438 590.029 627.863 589.738Z" fill="#482D1F"/>
<mask id="mask3" mask-type="alpha" maskUnits="userSpaceOnUse" x="560" y="293" width="164" height="131">
<path d="M692.941 381.435C694.39 394.549 694.425 405.488 693.337 412.703C693.337 412.891 693.279 413.142 693.221 413.33C692.933 415.273 692.529 416.902 692.009 418.218C691.951 418.343 691.893 418.469 691.836 418.594C688.891 423.357 665.622 421.665 660.137 421.853C651.129 422.166 594.689 423.761 593.361 422.883C592.726 422.445 591.975 417.591 591.34 416.902C589.18 414.675 590.103 401.045 592.15 384.712L560.93 382.058C563.109 365.574 564.572 356.254 565.316 354.099C567.489 347.944 573.735 336.283 575.163 330.812C579.135 315.332 584.039 309.55 585.714 307.872C587.639 305.882 589.501 304.514 590.742 303.644C599.121 297.862 607.997 296.992 612.528 296.868C612.591 296.836 617.232 296.516 621.802 296.208C625.473 295.049 630.194 294.692 637.33 294.692C642.552 294.692 647.011 295.007 650.688 295.445C649.648 294.172 649.442 293.842 651.88 293.946L673.914 294.878C674.039 294.878 674.163 294.878 674.287 294.94C678.818 295.065 687.694 295.935 696.073 301.717C697.314 302.587 699.177 303.955 701.101 305.944C702.777 307.623 707.68 313.405 711.652 328.885C713.08 334.356 719.253 344.419 721.426 350.574C722.874 354.677 723.692 363.487 723.88 377.004C714.677 378.864 704.364 380.342 692.941 381.435V381.435Z" fill="white"/>
</mask>
<g mask="url(#mask3)">
<path d="M692.941 381.435C694.39 394.549 694.425 405.488 693.337 412.703C693.337 412.891 693.279 413.142 693.221 413.33C692.933 415.273 692.529 416.902 692.009 418.218C691.951 418.343 691.893 418.469 691.836 418.594C688.891 423.357 665.622 421.665 660.137 421.853C651.129 422.166 594.689 423.761 593.361 422.883C592.726 422.445 591.975 417.591 591.34 416.902C589.18 414.675 590.103 401.045 592.15 384.712L560.93 382.058C563.109 365.574 564.572 356.254 565.316 354.099C567.489 347.944 573.735 336.283 575.163 330.812C579.135 315.332 584.039 309.55 585.714 307.872C587.639 305.882 589.501 304.514 590.742 303.644C599.121 297.862 607.997 296.992 612.528 296.868C612.591 296.836 617.232 296.516 621.802 296.208C625.473 295.049 630.194 294.692 637.33 294.692C642.552 294.692 647.011 295.007 650.688 295.445C649.648 294.172 649.442 293.842 651.88 293.946L673.914 294.878C674.039 294.878 674.163 294.878 674.287 294.94C678.818 295.065 687.694 295.935 696.073 301.717C697.314 302.587 699.177 303.955 701.101 305.944C702.777 307.623 707.68 313.405 711.652 328.885C713.08 334.356 719.253 344.419 721.426 350.574C722.874 354.677 723.692 363.487 723.88 377.004C714.677 378.864 704.364 380.342 692.941 381.435V381.435Z" fill="#FF5645"/>
<path d="M625.239 295.521C620.195 296.973 617.032 302.036 615.751 310.708C614.469 319.381 612.92 344.871 611.102 387.178L639.527 396L669.244 388.051C667.407 342.895 665.885 316.933 664.678 310.164C662.868 300.011 661.15 298.003 655.227 295.521C649.305 293.04 643.678 293.387 637.106 293.987C632.725 294.386 628.769 294.898 625.239 295.521Z" fill="#FFCB3D"/>
</g>
<path d="M651.445 276.797L652.128 296.867C652.128 297.302 651.942 297.737 651.569 297.924C649.955 298.919 647.659 300.038 644.804 300.659C639.652 301.841 635.245 300.97 632.762 300.224C632.266 300.1 631.893 299.602 631.893 299.105L631.655 288.283C628.432 289.483 628.611 289.363 628.293 289.469C624.383 290.464 621.031 290.339 620.411 290.215C618.176 290.028 615.817 288.163 613.707 284.993C610.852 280.765 608.307 274.175 606.942 266.28C606.693 265.161 606.631 264.042 606.569 262.923L606.321 251.794C606.259 249.308 606.88 246.883 608.059 244.583C608.555 243.588 609.052 242.78 609.673 242.096C609.693 242.07 609.713 242.044 609.733 242.018C609.755 241.982 609.776 241.946 609.797 241.909C614.576 235.257 624.569 234.387 629.162 234.884C629.721 234.946 631.707 235.195 634.562 235.382C636.114 235.506 637.355 235.506 638.1 235.568C647.349 235.941 651.011 234.822 655.666 237.309C656.535 237.744 658.521 238.863 660.259 241.039C665.162 247.194 663.733 255.151 663.422 257.514C662.305 264.601 658.459 268.953 657.217 270.756C655.916 272.679 653.474 275.012 651.445 276.797ZM566.298 412.613C561.512 405.97 561.418 394.298 562.68 382.119C564.061 382.119 573.872 382.824 592.115 384.233C595.858 384.544 602.196 385.3 611.128 386.5L643.987 394.047L682.604 384.588L682.417 382.828C687.76 382.139 691.653 381.619 694.097 381.27C700.663 380.331 710.284 378.918 722.96 377.032C724.572 396.144 721.807 417.332 703.521 423.382H626.281L559.534 425.351C558.506 425.381 557.648 424.571 557.618 423.541C557.606 423.133 557.728 422.732 557.966 422.399C560.765 418.49 563.542 415.228 566.298 412.613Z" fill="#DB9E75"/>
<path opacity="0.2" d="M566.344 412.68C561.511 406.047 561.413 394.339 562.679 382.119C564.059 382.119 571.136 382.603 583.909 383.57C588.341 383.743 597.413 384.72 611.126 386.501C624.144 389.49 635.189 392.027 644.261 394.11L609.058 402.733C608.12 402.411 607.154 402.119 606.161 401.861C589.774 397.609 576.74 405.295 572.147 408.156C570.023 409.479 568.092 411.033 566.344 412.68Z" fill="#8C2A00"/>
<path d="M662.731 260.493C659.986 259.803 656.962 258.973 653.838 258.067C653.617 257.21 653.245 256.377 652.69 255.603C650.703 252.805 646.729 251.235 643.75 252.23C642.307 252.712 641.278 253.747 640.941 254.104C633.393 251.666 626.722 249.312 623.6 248.012C619.96 246.496 617.538 245.05 616.336 243.673C612 246.236 608.669 247.944 606.344 248.797C606.612 247.261 607.134 245.76 607.878 244.307C608.375 243.313 608.871 242.504 609.492 241.82C609.512 241.795 609.532 241.769 609.553 241.743C609.574 241.707 609.595 241.67 609.616 241.634C614.395 234.982 624.389 234.111 628.982 234.609C629.54 234.671 631.526 234.92 634.382 235.106C635.933 235.231 637.175 235.231 637.92 235.293C647.168 235.666 650.83 234.547 655.485 237.033C656.354 237.469 658.34 238.588 660.078 240.764C664.982 246.918 663.802 254.876 663.492 257.238C663.309 258.396 663.048 259.481 662.731 260.493ZM608.495 259.441C607.874 259.317 607.688 258.509 608.122 258.074C608.681 257.576 609.674 257.079 610.915 257.079C613.46 257.079 616.191 258.757 613.336 259.504C611.66 260.001 609.674 259.69 608.495 259.441ZM621.281 259.877C620.66 259.752 620.474 258.944 620.971 258.509C621.529 258.011 622.522 257.514 623.826 257.514C626.371 257.514 629.102 259.255 626.246 259.939C624.446 260.436 622.522 260.125 621.281 259.877Z" fill="#482D1F"/>
<path d="M631.523 288.141L638.571 284.474L631.958 294.691L631.523 288.141Z" fill="#482D1F"/>
<path d="M613.332 263.793C613.27 264.85 613.084 266.591 612.463 267.212C611.408 268.145 610.043 265.036 610.849 263.109C611.16 262.301 611.594 262.177 612.091 262.239C612.836 262.363 613.332 263.047 613.332 263.793ZM624.443 263.669C624.505 264.726 624.505 266.466 623.884 267.212C622.953 268.269 621.215 265.285 621.836 263.296C622.084 262.488 622.518 262.301 623.015 262.301C623.76 262.301 624.38 262.923 624.443 263.669Z" fill="#482D1F"/>
<path d="M619.355 276.476C619.789 276.351 620.844 276.04 621.031 275.357C621.031 275.232 621.093 275.046 621.031 274.921C620.782 274.486 620.038 274.735 618.92 274.797C616.934 274.921 615.32 274.735 615.32 274.735C615.32 274.735 615.755 275.978 616.065 276.351C616.748 277.284 618.734 276.662 619.355 276.476Z" fill="#482D1F"/>
<path d="M614.207 270.483C614.09 271.185 614.633 271.873 615.341 271.991C615.496 272.006 615.496 272.006 615.596 272.013C616.643 272.094 617.298 272.124 618.422 272.124C618.765 272.124 619.043 271.846 619.043 271.502C619.043 271.159 618.765 270.881 618.422 270.881C617.333 270.881 616.709 270.852 615.691 270.774L615.49 270.758C615.489 270.755 615.432 270.684 615.434 270.672L616.368 264.004L616.374 263.918V260.25C616.374 259.906 616.096 259.628 615.753 259.628C615.41 259.628 615.132 259.906 615.132 260.25V263.874L614.207 270.483Z" fill="#482D1F"/>
<path d="M653.809 258.212C654.094 260.034 653.766 262.017 652.941 263.612C651.937 265.622 650.525 266.718 648.701 267.561C648.389 267.705 648.253 268.074 648.397 268.386C648.541 268.698 648.91 268.834 649.221 268.69C650.023 268.319 650.66 267.961 651.397 267.389C652.483 266.547 653.391 265.489 654.047 264.176C654.99 262.355 655.361 260.105 655.036 258.02C654.983 257.681 654.666 257.449 654.327 257.502C653.988 257.555 653.757 257.873 653.809 258.212Z" fill="#482D1F"/>
<path d="M597.119 384.183C598.327 361.38 598.863 351.236 599.531 338.52C599.596 337.279 601.456 337.377 601.39 338.619L598.978 384.282C598.913 385.524 597.053 385.425 597.119 384.183ZM683.627 382.248C683.989 383.427 682.234 383.984 681.852 382.812L673.225 356.328C672.847 355.169 674.559 354.571 674.983 355.714C676.193 358.981 681.848 376.457 683.627 382.248Z" fill="#482D1F"/>
</g>
<path d="M442.704 410.697L448.708 386.628H403.64C398.958 386.628 395.087 383.092 395.087 378.812V310.641C395.025 306.299 398.833 302.763 403.578 302.763H540.735C545.417 302.763 549.288 306.299 549.288 310.579V378.812C549.288 383.092 545.417 386.628 540.735 386.628H485.813L483.334 410.697H499.595C502.092 410.697 504.027 412.682 504.027 415.101C504.027 417.582 502.03 419.505 499.595 419.505H429.986C427.489 419.505 425.554 417.52 425.554 415.101C425.429 412.682 427.489 410.697 429.986 410.697H442.704Z" fill="#474961"/>
<path fill-rule="evenodd" clip-rule="evenodd" d="M487.674 369.085L487.859 410.759H483.383L487.674 369.085Z" fill="white"/>
<path d="M696.034 420H198.349C195.947 420 194 422.015 194 424.5C194 426.985 195.947 429 198.349 429H696.034C698.436 429 700.383 426.985 700.383 424.5C700.383 422.015 698.436 420 696.034 420Z" fill="#D8DEED"/>
<path d="M677.059 26H444.941C439.451 26 435 30.4656 435 35.9743V210.026C435 215.534 439.451 220 444.941 220H677.059C682.549 220 687 215.534 687 210.026V35.9743C687 30.4656 682.549 26 677.059 26Z" fill="#F2F6FB"/>
<path d="M563.841 81.0206L603.793 93.6106L645.988 117.574L648.79 112.574L606.071 88.3128L563.131 74.7812L519.831 100.397L476.633 115.374L478.49 120.802L522.228 105.638L563.841 81.0206Z" fill="#D8DEED"/>
<path d="M475.879 125.668C471.968 125.668 468.797 122.489 468.797 118.567C468.797 114.645 471.968 111.465 475.879 111.465C479.791 111.465 482.961 114.645 482.961 118.567C482.961 122.489 479.791 125.668 475.879 125.668ZM518.373 109.436C514.462 109.436 511.291 106.257 511.291 102.334C511.291 98.4123 514.462 95.2328 518.373 95.2328C522.284 95.2328 525.455 98.4123 525.455 102.334C525.455 106.257 522.284 109.436 518.373 109.436ZM560.867 85.0876C556.955 85.0876 553.784 81.908 553.784 77.9859C553.784 74.0638 556.955 70.8843 560.867 70.8843C564.778 70.8843 567.949 74.0638 567.949 77.9859C567.949 81.908 564.778 85.0876 560.867 85.0876ZM603.361 97.2618C599.449 97.2618 596.278 94.0823 596.278 90.1602C596.278 86.238 599.449 83.0585 603.361 83.0585C607.272 83.0585 610.443 86.238 610.443 90.1602C610.443 94.0823 607.272 97.2618 603.361 97.2618ZM645.854 123.639C641.943 123.639 638.772 120.46 638.772 116.538C638.772 112.616 641.943 109.436 645.854 109.436C649.766 109.436 652.937 112.616 652.937 116.538C652.937 120.46 649.766 123.639 645.854 123.639Z" fill="#FFCB3D"/>
<path d="M580.785 153.997V188.661C580.785 189.718 579.93 190.576 578.874 190.576H576.629C575.574 190.576 574.718 189.718 574.718 188.661V153.997C574.718 152.94 575.574 152.082 576.629 152.082H578.874C579.929 152.082 580.785 152.939 580.785 153.997ZM568.651 160.078V188.657C568.651 189.717 567.795 190.576 566.739 190.576H564.495C563.44 190.576 562.583 189.717 562.583 188.657V160.078C562.583 159.018 563.439 158.16 564.495 158.16H566.739C567.794 158.16 568.651 159.019 568.651 160.078ZM556.516 141.841V188.66C556.516 189.718 555.66 190.576 554.605 190.576H552.36C551.305 190.576 550.449 189.718 550.449 188.66V141.841C550.449 140.783 551.304 139.925 552.36 139.925H554.605C555.66 139.925 556.516 140.783 556.516 141.841ZM544.381 153.997V188.661C544.381 189.718 543.526 190.576 542.47 190.576H540.225C539.17 190.576 538.314 189.718 538.314 188.661V153.997C538.314 152.94 539.17 152.082 540.225 152.082H542.47C543.525 152.082 544.381 152.939 544.381 153.997ZM532.247 135.767V188.656C532.247 189.719 531.391 190.576 530.335 190.576H528.091C527.036 190.576 526.179 189.716 526.179 188.656V135.767C526.179 134.704 527.035 133.847 528.091 133.847H530.335C531.39 133.847 532.247 134.707 532.247 135.767ZM520.112 141.841V188.66C520.112 189.718 519.256 190.576 518.201 190.576H515.956C514.901 190.576 514.045 189.718 514.045 188.66V141.841C514.045 140.783 514.9 139.925 515.956 139.925H518.201C519.256 139.925 520.112 140.783 520.112 141.841ZM507.977 131.715V188.657C507.977 189.717 507.122 190.576 506.066 190.576H503.821C502.766 190.576 501.91 189.717 501.91 188.657V131.715C501.91 130.654 502.766 129.795 503.821 129.795H506.066C507.121 129.795 507.977 130.655 507.977 131.715ZM495.843 127.657V188.662C495.843 189.721 494.987 190.576 493.931 190.576H491.687C490.632 190.576 489.775 189.719 489.775 188.662V127.657C489.775 126.599 490.631 125.743 491.687 125.743H493.931C494.986 125.743 495.843 126.6 495.843 127.657ZM483.708 141.841V188.66C483.708 189.718 482.852 190.576 481.797 190.576H479.552C478.497 190.576 477.641 189.718 477.641 188.66V141.841C477.641 140.783 478.496 139.925 479.552 139.925H481.797C482.852 139.925 483.708 140.783 483.708 141.841ZM653.593 153.997V188.661C653.593 189.718 652.738 190.576 651.682 190.576H649.437C648.382 190.576 647.526 189.718 647.526 188.661V153.997C647.526 152.94 648.382 152.082 649.437 152.082H651.682C652.737 152.082 653.593 152.939 653.593 153.997ZM641.459 135.767V188.656C641.459 189.719 640.603 190.576 639.547 190.576H637.303C636.248 190.576 635.391 189.716 635.391 188.656V135.767C635.391 134.704 636.247 133.847 637.303 133.847H639.547C640.602 133.847 641.459 134.707 641.459 135.767ZM629.324 141.841V188.66C629.324 189.718 628.468 190.576 627.413 190.576H625.168C624.113 190.576 623.257 189.718 623.257 188.66V141.841C623.257 140.783 624.112 139.925 625.168 139.925H627.413C628.468 139.925 629.324 140.783 629.324 141.841ZM617.189 131.715V188.657C617.189 189.717 616.334 190.576 615.278 190.576H613.033C611.978 190.576 611.122 189.717 611.122 188.657V131.715C611.122 130.654 611.978 129.795 613.033 129.795H615.278C616.333 129.795 617.189 130.655 617.189 131.715ZM605.055 127.657V188.662C605.055 189.721 604.199 190.576 603.143 190.576H600.899C599.844 190.576 598.987 189.719 598.987 188.662V127.657C598.987 126.599 599.843 125.743 600.899 125.743H603.143C604.198 125.743 605.055 126.6 605.055 127.657ZM592.92 141.841V188.66C592.92 189.718 592.064 190.576 591.009 190.576H588.764C587.709 190.576 586.853 189.718 586.853 188.66V141.841C586.853 140.783 587.708 139.925 588.764 139.925H591.009C592.064 139.925 592.92 140.783 592.92 141.841Z" fill="#D8DEED"/>
<path d="M435 35.9765C435 30.4666 439.454 26 444.937 26H677.063C682.551 26 687 30.467 687 35.9765V47.9434H435V35.9765Z" fill="#E1E5F0"/>
<path d="M449.663 41.959C452.271 41.959 454.385 39.8378 454.385 37.2212C454.385 34.6046 452.271 32.4834 449.663 32.4834C447.055 32.4834 444.941 34.6046 444.941 37.2212C444.941 39.8378 447.055 41.959 449.663 41.959Z" fill="#FF5645"/>
<path d="M465.07 41.959C467.677 41.959 469.791 39.8378 469.791 37.2212C469.791 34.6046 467.677 32.4834 465.07 32.4834C462.462 32.4834 460.348 34.6046 460.348 37.2212C460.348 39.8378 462.462 41.959 465.07 41.959Z" fill="#FFCB3D"/>
<path d="M480.976 41.959C483.584 41.959 485.698 39.8378 485.698 37.2212C485.698 34.6046 483.584 32.4834 480.976 32.4834C478.368 32.4834 476.254 34.6046 476.254 37.2212C476.254 39.8378 478.368 41.959 480.976 41.959Z" fill="#3ABF7C"/>
</g>
<defs>
<clipPath id="clip0">
<rect width="878" height="777" fill="white"/>
</clipPath>
<clipPath id="clip1">
<rect width="205" height="323" fill="white" transform="translate(161 333)"/>
</clipPath>
<clipPath id="clip2">
<rect width="325" height="470" fill="white" transform="translate(141 186)"/>
</clipPath>
<clipPath id="clip3">
<rect width="324" height="470" fill="white" transform="translate(446 186)"/>
</clipPath>
</defs>
</svg>
