<svg width="360" height="22" viewBox="0 0 360 22" fill="none" xmlns="http://www.w3.org/2000/svg">
<path d="M0.320397 21H4.7304V7.11L12.1704 21H16.3704L23.7804 7.11V21H28.3704V0.989998H22.0404L14.3604 15.66L6.5604 0.989998H0.320397V21ZM34.047 21H39.057L41.097 16.5H50.457L52.587 21H58.017L48.207 0.989998H43.647L34.047 21ZM42.747 12.96L45.747 6.3L48.837 12.96H42.747ZM63.6239 21H68.1839V12.63H78.3239V21H82.8839V0.989998H78.3239V8.82H68.1839V0.989998H63.6239V21ZM88.5614 21H93.5714L95.6114 16.5H104.971L107.101 21H112.531L102.721 0.989998H98.1614L88.5614 21ZM97.2614 12.96L100.261 6.3L103.351 12.96H97.2614ZM120.957 21H125.517V4.83H132.537V0.989998H113.967V4.83H120.957V21ZM138.555 21H142.965V7.11L150.405 21H154.605L162.015 7.11V21H166.605V0.989998H160.275L152.595 15.66L144.795 0.989998H138.555V21ZM172.281 21H177.291L179.331 16.5H188.691L190.821 21H196.251L186.441 0.989998H181.881L172.281 21ZM180.981 12.96L183.981 6.3L187.071 12.96H180.981ZM236.286 10.14H226.326V13.71H231.576C230.496 16.5 228.336 17.88 225.066 17.88C220.776 17.88 217.686 14.97 217.686 10.98C217.686 6.96 220.656 4.11 224.856 4.11C227.736 4.11 229.686 5.22 231.036 7.65H236.286C235.416 3.12 231.156 0.419999 224.826 0.419999C221.226 0.419999 218.436 1.29 216.186 3.12C213.816 5.07 212.616 7.68 212.616 10.83C212.616 17.13 217.566 21.57 224.646 21.57C226.596 21.57 228.156 21.27 229.596 20.58C230.826 20.01 231.456 19.47 232.266 18.27V21H236.286V10.14ZM241.763 21H246.773L248.813 16.5H258.173L260.303 21H265.733L255.923 0.989998H251.363L241.763 21ZM250.463 12.96L253.463 6.3L256.553 12.96H250.463ZM271.34 21H275.78V7.44L286.94 21H291.98V0.989998H287.54V14.55L276.41 0.989998H271.34V21ZM299.754 21H309.654C312.714 21 314.694 20.67 316.134 19.92C319.224 18.3 321.114 14.85 321.114 10.86C321.114 7.44 319.704 4.47 317.184 2.64C315.534 1.44 313.584 0.989998 310.074 0.989998H299.754V21ZM304.344 17.19V4.83H309.204C310.944 4.83 311.844 4.92 312.624 5.19C314.784 5.91 316.014 8.01 316.014 11.04C316.014 13.8 315.024 15.75 313.224 16.65C312.324 17.07 311.454 17.19 309.264 17.19H304.344ZM328.022 21H332.582V12.63H342.722V21H347.282V0.989998H342.722V8.82H332.582V0.989998H328.022V21ZM355.06 21H359.65V0.989998H355.06V21Z" fill="url(#paint0_linear)"/>
<defs>
<linearGradient id="paint0_linear" x1="-2" y1="14" x2="362" y2="14" gradientUnits="userSpaceOnUse">
<stop stop-color="#243949"/>
<stop offset="1" stop-color="#517FA4"/>
</linearGradient>
</defs>
</svg>
