<svg width="1034" height="827" viewBox="0 0 1034 827" fill="none" xmlns="http://www.w3.org/2000/svg">
<path d="M799.356 561.115C775.573 543.946 748.814 531.104 722.468 518.345C670.273 493.046 616.837 469.704 569.161 436.359L283.547 598.291C281.466 599.472 279.736 601.183 278.533 603.251C277.329 605.318 276.695 607.667 276.695 610.059C276.695 612.451 277.329 614.8 278.533 616.867C279.736 618.934 281.466 620.645 283.547 621.826C332.077 649.385 449.42 718.694 496.6 746.693C502.717 750.297 509.687 752.198 516.787 752.198C523.886 752.198 530.856 750.297 536.973 746.693L823.58 579.111C815.505 573.213 807.458 567.013 799.356 561.115Z" fill="#BA2F2F"/>
<path d="M528.346 620.2L419.738 679.01L466.395 711.005L583.793 643.57" fill="url(#paint0_linear)"/>
<path d="M312.675 636.432C319.316 640.401 326.647 644.148 333.316 648.613L401.44 609.48L345.965 586.111L283.711 619.842C293.329 625.381 303.14 630.728 312.675 636.432Z" fill="url(#paint1_linear)"/>
<path d="M497.535 135.036C497.535 135.036 510.984 126.575 515.558 127.072C520.133 127.568 515.558 138.398 515.558 138.398" fill="#8EB70F"/>
<path d="M502.408 141.154C502.573 203.463 502.408 365.451 502.215 403.426C502.209 405.879 502.847 408.29 504.066 410.418C505.285 412.546 507.041 414.316 509.16 415.552L829.498 602.673C831.63 603.921 834.054 604.583 836.525 604.592C838.995 604.602 841.425 603.959 843.567 602.729C845.709 601.498 847.488 599.723 848.725 597.585C849.961 595.446 850.61 593.018 850.607 590.547V327.696C850.608 325.242 849.964 322.83 848.74 320.702C847.517 318.574 845.757 316.805 843.635 315.57L523.6 129C521.464 127.731 519.028 127.052 516.543 127.033C514.058 127.013 511.612 127.655 509.456 128.891C507.301 130.127 505.512 131.914 504.273 134.069C503.035 136.224 502.391 138.669 502.408 141.154Z" fill="#68E1FD"/>
<path opacity="0.61" d="M502.408 141.154C502.573 203.463 502.408 365.451 502.215 403.426C502.209 405.879 502.847 408.29 504.066 410.418C505.285 412.546 507.041 414.316 509.16 415.552L829.498 602.673C831.63 603.921 834.054 604.583 836.525 604.592C838.995 604.602 841.425 603.959 843.567 602.729C845.709 601.498 847.488 599.723 848.725 597.585C849.961 595.446 850.61 593.018 850.607 590.547V327.696C850.608 325.242 849.964 322.83 848.74 320.702C847.517 318.574 845.757 316.805 843.635 315.57L523.6 129C521.464 127.731 519.028 127.052 516.543 127.033C514.058 127.013 511.612 127.655 509.456 128.891C507.301 130.127 505.512 131.914 504.273 134.069C503.035 136.224 502.391 138.669 502.408 141.154Z" fill="black"/>
<path d="M491.806 146.39C491.972 208.699 491.806 370.687 491.613 408.662C491.607 411.115 492.246 413.526 493.465 415.654C494.683 417.782 496.44 419.552 498.558 420.788L818.869 607.909C821.001 609.157 823.425 609.819 825.896 609.828C828.366 609.838 830.796 609.195 832.938 607.965C835.08 606.734 836.859 604.96 838.096 602.821C839.332 600.682 839.981 598.254 839.978 595.784V332.932C839.978 330.478 839.335 328.066 838.111 325.938C836.888 323.81 835.127 322.041 833.006 320.806L512.916 134.237C510.781 132.988 508.355 132.326 505.882 132.317C503.409 132.309 500.978 132.954 498.835 134.188C496.692 135.422 494.913 137.2 493.678 139.343C492.444 141.486 491.798 143.917 491.806 146.39Z" fill="#68E1FD"/>
<path d="M664.49 417.079C681.363 411.292 688.461 387.414 680.344 363.745C672.226 340.077 651.968 325.581 635.094 331.368C618.221 337.155 611.123 361.033 619.241 384.701C627.358 408.37 647.617 422.866 664.49 417.079Z" stroke="#42210B" stroke-width="2.75583" stroke-miterlimit="10"/>
<path d="M734.657 348.227L725.011 344.038C723.413 343.349 722.008 345.719 723.633 346.408L726.389 347.648C711.949 348.889 697.756 351.617 685.052 359.002C684.776 359.203 684.584 359.499 684.514 359.833C684.444 360.167 684.5 360.515 684.671 360.809C684.843 361.104 685.117 361.325 685.442 361.429C685.767 361.533 686.119 361.513 686.43 361.373C699.603 353.739 714.346 351.203 729.338 350.129C729.576 350.118 729.806 350.043 730.005 349.912C730.204 349.781 730.364 349.599 730.468 349.385L730.826 349.55C728.331 350.972 725.962 352.603 723.744 354.428C722.393 355.558 724.35 357.514 725.7 356.384C728.42 354.118 731.388 352.167 734.547 350.57C734.752 350.456 734.925 350.291 735.049 350.092C735.173 349.892 735.244 349.664 735.255 349.429C735.266 349.194 735.217 348.961 735.112 348.75C735.008 348.54 734.851 348.36 734.657 348.227Z" fill="#42210B"/>
<path d="M593.658 270.898C594.658 271.046 595.644 271.276 596.606 271.587C598.287 272.139 599.031 269.465 597.35 268.832C594.59 267.923 591.665 267.631 588.78 267.977C588.008 267.977 587.071 268.804 587.457 269.713L591.287 279.249C591.949 280.875 594.594 280.158 594.043 278.505L591.811 272.993C602.007 276.955 610.706 284.011 616.686 293.17C622.667 302.328 625.629 313.13 625.157 324.058C625.157 325.822 627.913 325.822 627.913 324.058C628.373 312.748 625.33 301.572 619.199 292.057C613.067 282.542 604.147 275.152 593.658 270.898Z" fill="#42210B"/>
<path d="M610.688 388.242L590.736 399.541C591.211 398.561 591.793 397.636 592.472 396.785C593.602 395.435 591.645 393.478 590.515 394.828C588.46 397.257 587.081 400.185 586.519 403.316C586.426 403.671 586.474 404.048 586.654 404.367C586.834 404.686 587.132 404.922 587.484 405.025C589.919 405.607 592.431 405.793 594.925 405.576C596.688 405.411 596.688 402.655 594.925 402.82C593.477 402.968 592.018 402.968 590.571 402.82L612.094 390.639C612.411 390.453 612.642 390.148 612.735 389.791C612.828 389.435 612.776 389.056 612.59 388.738C612.403 388.42 612.098 388.189 611.742 388.096C611.385 388.003 611.006 388.055 610.688 388.242Z" fill="#42210B"/>
<path d="M702.961 447.547L699.571 437.709C698.992 436.056 696.319 436.772 696.815 438.453L699.268 445.536C687.748 441.429 681.686 430.599 678.489 419.3C678.39 418.935 678.15 418.623 677.822 418.435C677.494 418.246 677.104 418.196 676.739 418.294C676.373 418.393 676.062 418.633 675.873 418.961C675.685 419.289 675.634 419.679 675.733 420.044C678.819 431.067 684.524 441.292 694.528 446.528C693.088 446.37 691.66 446.112 690.256 445.756C689.891 445.657 689.501 445.708 689.173 445.897C688.845 446.085 688.605 446.397 688.506 446.762C688.408 447.127 688.458 447.517 688.647 447.845C688.835 448.173 689.147 448.413 689.512 448.512C693.403 449.529 697.445 449.837 701.445 449.421C701.685 449.455 701.93 449.426 702.156 449.337C702.382 449.248 702.581 449.102 702.733 448.913C702.886 448.725 702.987 448.5 703.027 448.26C703.067 448.021 703.044 447.775 702.961 447.547Z" fill="#42210B"/>
<path d="M748.1 321.771C748.1 321.771 747.19 360.518 748.1 360.518C749.009 360.518 786.681 382.013 786.681 382.013V343.707L748.1 321.771Z" stroke="#42210B" stroke-width="2.75583" stroke-miterlimit="10"/>
<path d="M712.213 436.91C712.213 436.91 711.303 475.657 712.213 475.657C713.122 475.657 750.794 497.152 750.794 497.152V458.846L712.213 436.91Z" stroke="#42210B" stroke-width="2.75583" stroke-miterlimit="10"/>
<path d="M767.639 428.615C767.639 428.615 766.729 467.362 767.639 467.362C768.548 467.362 806.22 488.857 806.22 488.857V450.579L767.639 428.615Z" stroke="#42210B" stroke-width="2.75583" stroke-miterlimit="10"/>
<path d="M519.342 193.818C519.342 193.818 518.432 232.565 519.342 232.565C520.251 232.565 557.923 254.06 557.923 254.06V215.754L519.342 193.818Z" stroke="#42210B" stroke-width="2.75583" stroke-miterlimit="10"/>
<path d="M538.881 260.812C538.881 260.812 537.971 299.559 538.881 299.559C539.79 299.559 577.462 321.055 577.462 321.055V282.748L538.881 260.812Z" stroke="#42210B" stroke-width="2.75583" stroke-miterlimit="10"/>
<path d="M540.642 361.51C540.642 361.51 539.733 400.257 540.642 400.257C541.552 400.257 579.224 421.753 579.224 421.753V383.447L540.642 361.51Z" stroke="#42210B" stroke-width="2.75583" stroke-miterlimit="10"/>
<path d="M633.454 255.218L633.316 294.268L716.653 341.338V303.252L633.454 255.218Z" stroke="#42210B" stroke-width="2.75583" stroke-miterlimit="10"/>
<path d="M523.029 359.912C512.983 368.532 505.38 379.642 500.982 392.128C493.293 413.375 512.584 448.319 512.584 448.319L542.623 424.591" fill="#FF8F6F"/>
<path d="M519.725 641.861L511.457 637.342L513.524 625.712C513.524 625.712 525.65 626.842 526.724 631.224" fill="#003B94"/>
<path d="M522.807 641.668C524.653 640.538 526.555 639.546 528.318 638.526C533.031 635.964 539.838 633.29 542.731 628.44C543.328 627.473 543.612 626.345 543.543 625.21C543.474 624.075 543.056 622.989 542.345 622.102C538.046 616.948 528.732 625.436 523.964 619.704C523.027 618.574 522.586 600.634 522.586 600.634L504.425 605.539C504.425 605.539 501.339 641.585 501.669 643.818C502 646.05 508.256 648.172 508.256 648.172C510.107 647.804 511.88 647.114 513.492 646.133C515.393 644.755 513.685 627.834 516.082 630.204C518.48 632.574 519.582 641.833 519.582 641.833C520.66 641.918 521.744 641.863 522.807 641.668Z" fill="#68E1FD"/>
<path d="M554.506 659.278L546.238 654.759L548.305 643.129C548.305 643.129 560.431 644.259 561.506 648.641" fill="#003B94"/>
<path d="M557.561 659.085C559.407 657.955 561.308 656.963 563.072 655.943C567.785 653.381 574.592 650.707 577.485 645.857C578.082 644.89 578.366 643.761 578.297 642.627C578.228 641.492 577.809 640.406 577.099 639.519C572.8 634.365 563.486 642.853 558.718 637.121C557.781 635.991 557.34 618.051 557.34 618.051L539.179 622.956C539.179 622.956 536.093 659.002 536.423 661.235C536.754 663.467 543.01 665.589 543.01 665.589C544.861 665.221 546.634 664.531 548.246 663.55C550.147 662.172 548.439 645.251 550.836 647.621C553.234 649.991 554.336 659.25 554.336 659.25C555.414 659.335 556.497 659.28 557.561 659.085Z" fill="#68E1FD"/>
<path d="M495.307 542.1L490.043 613.752C490.043 613.752 498.558 625.519 527.164 618.96L527.44 570.706" fill="#FFB000"/>
<path d="M528.43 556.292C527.823 562.466 528.43 630.452 528.43 630.452C528.43 630.452 536.339 645.251 570.787 630.452L570.291 572.579" fill="#FFB000"/>
<path d="M492.637 578.174C494.979 579.772 495.806 559.021 498.148 560.454C507.064 565.646 516.529 569.833 526.368 572.938H526.589C526.823 572.823 527.078 572.757 527.338 572.744C527.599 572.73 527.859 572.77 528.104 572.86C528.349 572.95 528.572 573.089 528.762 573.268C528.952 573.447 529.103 573.663 529.207 573.902C535.284 575.69 541.47 577.09 547.726 578.091C555.773 579.386 562.414 573.434 570.654 572.993C570.654 541.384 570.82 451.35 557.344 432.445L517.687 418.887C517.494 422.166 498.396 444.351 498.837 471.248C499.361 501.7 495.393 530.47 494.731 539.978C494.593 541.88 492.719 576.438 492.637 578.174Z" fill="#FFB000"/>
<path d="M561.141 395.986L557.476 432.253C557.476 432.253 527.768 433.465 514.953 424.619V393.864" fill="#FF8F6F"/>
<path d="M602.391 373.801L599.36 377.935C600.976 374.573 602.402 371.123 603.631 367.601C604.486 365.176 600.627 364.239 599.773 366.636L599.332 367.876C599.7 366.59 600.049 365.304 600.379 364.018C600.507 363.506 600.427 362.965 600.155 362.513C599.884 362.061 599.444 361.735 598.933 361.607C598.421 361.479 597.879 361.559 597.427 361.831C596.975 362.102 596.649 362.542 596.521 363.054C595.686 366.399 594.683 369.701 593.517 372.947C594.169 370.058 594.638 367.131 594.923 364.183C595.171 361.648 591.202 361.758 590.954 364.183C590.623 367.533 590.024 370.851 589.163 374.104C589.163 372.965 589.062 371.835 588.86 370.715C588.832 370.431 588.743 370.156 588.601 369.909C588.458 369.662 588.265 369.448 588.033 369.282C588.033 368.841 587.785 368.4 587.647 367.959C587.511 367.499 587.211 367.103 586.805 366.847C586.399 366.59 585.914 366.49 585.44 366.564C584.965 366.638 584.533 366.882 584.225 367.25C583.916 367.618 583.752 368.085 583.762 368.565L583.514 383.557C582.803 385.105 581.875 386.543 580.758 387.828C582.667 389.177 584.506 390.621 586.269 392.155C587.854 393.514 589.363 394.958 590.789 396.482C592.057 394.902 593.288 393.285 594.482 391.632C594.628 391.511 594.758 391.372 594.868 391.218C598.432 385.964 602.106 380.792 605.891 375.703C607.352 373.719 603.879 371.79 602.391 373.801Z" fill="#FFB5A9"/>
<path d="M542.292 362.916C542.292 362.916 556.319 366.691 561.996 375.786C565.555 381.999 568.695 388.444 571.393 395.076L581.755 378.982C581.755 378.982 594.322 382.84 599.337 389.041C599.337 389.041 584.401 421.67 571.393 424.454C558.386 427.237 544.607 405.163 544.607 405.163C544.607 405.163 541.851 414.34 542.319 404.556" fill="#FF8F6F"/>
<path d="M507.547 404.115C515.484 411.115 534.444 410.785 544.613 405.245C545.66 401.635 548.416 356.329 548.416 352.471C548.581 346.959 547.947 341.31 547.562 335.743C547.507 335.507 547.507 335.262 547.562 335.027C545.688 328.743 541.857 323.425 534.278 322.763C514.684 321.082 513.582 342.798 513.72 351.617C513.885 356.715 508.511 400.808 507.547 404.115Z" fill="#007F68"/>
<path d="M528.87 461.685C528.87 461.319 528.724 460.969 528.466 460.71C528.208 460.452 527.857 460.307 527.492 460.307C527.126 460.307 526.776 460.452 526.517 460.71C526.259 460.969 526.114 461.319 526.114 461.685C526.683 515.295 526.16 568.905 524.543 622.515C524.543 624.279 527.299 624.279 527.299 622.515C528.934 568.923 529.458 515.313 528.87 461.685Z" fill="#BA2F2F"/>
<path d="M324.973 524.711V604.244C324.973 604.244 401.419 608.488 401.419 604.244V524.711" fill="#68E1FD"/>
<path d="M363.196 621.027C384.306 621.027 401.419 613.204 401.419 603.555C401.419 593.905 384.306 586.083 363.196 586.083C342.086 586.083 324.973 593.905 324.973 603.555C324.973 613.204 342.086 621.027 363.196 621.027Z" fill="#68E1FD"/>
<path d="M363.196 542.183C384.306 542.183 401.419 534.36 401.419 524.711C401.419 515.061 384.306 507.239 363.196 507.239C342.086 507.239 324.973 515.061 324.973 524.711C324.973 534.36 342.086 542.183 363.196 542.183Z" fill="#3129A3"/>
<path d="M339.386 538.269L339.662 538.407C341.122 538.931 342.611 539.372 344.126 539.758L333.737 452.646C332.844 452.308 331.876 452.222 330.938 452.397C330 452.572 329.129 453.001 328.418 453.638L338.973 538.104L339.386 538.269Z" fill="#F78B72"/>
<path d="M351.258 540.97L354.51 459.205C353.682 458.692 352.727 458.421 351.754 458.421C350.78 458.421 349.826 458.692 348.998 459.205L346.242 540.143C347.896 540.518 349.571 540.794 351.258 540.97Z" fill="#F78B72"/>
<path d="M363.191 542.155L373.691 456.917L394.966 468.161L386.368 539.812C378.846 541.982 370.995 542.775 363.191 542.155Z" fill="#FCB749"/>
<defs>
<linearGradient id="paint0_linear" x1="468.213" y1="694.856" x2="601.155" y2="561.887" gradientUnits="userSpaceOnUse">
<stop stop-opacity="0"/>
<stop offset="1" stop-color="#F15A24"/>
</linearGradient>
<linearGradient id="paint1_linear" x1="12721.8" y1="15692.3" x2="15219.3" y2="10988" gradientUnits="userSpaceOnUse">
<stop stop-opacity="0"/>
<stop offset="1" stop-color="#F15A24"/>
</linearGradient>
</defs>
</svg>
