<svg width="783" height="588" viewBox="0 0 783 588" fill="none" xmlns="http://www.w3.org/2000/svg">
<path d="M355.13 133.952L39.4831 317.565C36.4176 319.348 33.8784 321.911 32.1232 324.992C30.368 328.074 29.4592 331.565 29.489 335.111C29.5188 338.657 30.4862 342.133 32.293 345.184C34.0998 348.236 36.6817 350.755 39.7767 352.487L426.168 568.712C430.838 571.325 436.091 572.718 441.443 572.762C446.794 572.807 452.07 571.501 456.783 568.967L753.638 409.313C757.424 407.277 760.6 404.269 762.838 400.599C765.077 396.928 766.296 392.728 766.372 388.429C766.448 384.131 765.377 379.89 763.27 376.142C761.162 372.395 758.094 369.277 754.382 367.109L355.13 133.952Z" fill="#AEEDF1"/>
<path d="M180.386 279.687C204.354 279.687 223.784 270.082 223.784 258.233C223.784 246.384 204.354 236.779 180.386 236.779C156.418 236.779 136.988 246.384 136.988 258.233C136.988 270.082 156.418 279.687 180.386 279.687Z" fill="#F3A71C"/>
<path d="M223.764 201.094V259.427C223.764 259.427 191.466 289.318 136.988 259.916V201.191" fill="#F3A71C"/>
<path d="M143.482 221.941C143.482 221.941 136.298 210.94 129.525 217.282C122.752 223.625 128.684 245.627 148.552 247.741V256.628C148.552 256.628 123.594 253.242 120.208 230.828C116.821 208.415 132.912 204.95 140.938 211.116" fill="#F3A71C"/>
<path d="M389.135 278.729L351.688 296.757C350.277 297.434 349.077 298.483 348.217 299.791C347.357 301.098 346.87 302.616 346.808 304.179C346.745 305.743 347.11 307.295 347.863 308.667C348.616 310.039 349.729 311.18 351.082 311.967L439.854 363.743C441.772 364.863 444.047 365.199 446.207 364.681C448.366 364.163 450.242 362.831 451.443 360.963L472.975 327.412" fill="#56403D"/>
<path d="M427.68 450.343V466.747L478.301 498.067L539.042 460.952V446.976" fill="#6DE1FC"/>
<path d="M427.68 450.343V466.747L478.301 498.067L539.042 460.952V446.976" fill="#E54C3C"/>
<path d="M539.042 446.976L487.462 416.126L427.68 450.343L479.26 481.682L539.042 446.976Z" fill="#F5604B"/>
<path d="M490.097 458.055C488.76 456.442 487.623 454.674 486.71 452.789C486.495 451.536 489.548 445.566 490.116 445.742C492.165 446.77 494.084 448.038 495.832 449.52" fill="#C67445"/>
<path d="M490.644 448.268C490.761 448.737 488.961 457.722 490.096 458.055C492.498 458.279 494.917 458.279 497.319 458.055C497.773 454.81 498.047 451.543 498.141 448.268" fill="#56403D"/>
<path d="M499.163 436.796L490.119 439.321C490.119 439.537 488.632 447.68 489.767 448.894C491.211 449.92 492.715 450.862 494.269 451.712C494.259 454.558 494.422 457.402 494.759 460.227C495.295 460.328 495.846 460.328 496.383 460.227C496.755 457.272 497.264 451.262 497.264 451.262C497.264 451.262 499.907 450.342 500.063 449.52C500.22 448.698 499.163 436.796 499.163 436.796Z" fill="#C67445"/>
<path d="M517.586 500.474C517.586 500.474 513.671 495.482 513.358 493.897C513.045 492.311 516.901 484.873 517.625 485.088C520.179 486.372 522.571 487.956 524.751 489.806" fill="#C67445"/>
<path d="M518.271 488.22C518.408 488.807 516.157 499.965 517.586 500.474C520.588 500.754 523.609 500.754 526.61 500.474C527.08 500.474 527.628 488.22 527.628 488.22" fill="#56403D"/>
<path d="M528.913 474.009L517.619 477.16C517.619 477.434 515.759 487.594 517.168 489.101C518.578 490.608 522.884 492.35 522.786 492.624C522.773 496.17 522.975 499.713 523.393 503.234C524.04 503.351 524.703 503.351 525.351 503.234C525.801 499.534 526.447 492.037 526.447 492.037C526.447 492.037 529.755 490.882 529.931 489.864C530.107 488.846 528.913 474.009 528.913 474.009Z" fill="#C67445"/>
<path d="M592.897 191.972L294.182 19.8884C292.129 18.7029 289.799 18.0804 287.428 18.084C285.057 18.0876 282.729 18.717 280.679 19.9087C278.629 21.1005 276.93 22.8122 275.754 24.871C274.578 26.9297 273.966 29.2625 273.981 31.6334V210.647C273.965 212.628 274.475 214.577 275.458 216.297C276.442 218.016 277.864 219.444 279.579 220.434L597.986 404.224C599.085 404.861 600.333 405.197 601.603 405.197C602.873 405.198 604.121 404.864 605.22 404.229C606.32 403.594 607.233 402.68 607.867 401.579C608.501 400.478 608.833 399.23 608.831 397.96V219.534C608.83 213.945 607.357 208.455 604.56 203.616C601.763 198.778 597.74 194.762 592.897 191.972Z" fill="#68E1FD"/>
<path d="M294.21 33.4147L583.92 200.057C587.017 201.838 589.589 204.405 591.376 207.498C593.164 210.591 594.103 214.102 594.099 217.674V351.88C594.097 353.165 593.758 354.427 593.115 355.539C592.473 356.652 591.55 357.576 590.438 358.22C589.327 358.864 588.065 359.205 586.781 359.209C585.496 359.213 584.233 358.879 583.118 358.242L287.75 188.723C286.646 188.092 285.727 187.18 285.088 186.08C284.448 184.98 284.111 183.731 284.109 182.459V39.3068C284.122 38.1287 284.44 36.974 285.032 35.9556C285.625 34.9371 286.471 34.0897 287.489 33.4961C288.506 32.9024 289.661 32.5829 290.839 32.5686C292.017 32.5544 293.178 32.8459 294.21 33.4147Z" fill="white"/>
<path d="M276.603 231.964C281.928 231.083 343.609 269.685 343.609 269.685V284.777L318.318 298.969L249.551 261.248V243.513L276.603 231.964Z" fill="#6DE1FC"/>
<path d="M276.603 231.964C281.928 231.083 343.609 269.685 343.609 269.685V284.777L318.318 298.969L249.551 261.248V243.513L276.603 231.964Z" fill="#F1A317"/>
<path d="M234.895 269.43L156.595 314.101C155.778 314.571 155.099 315.248 154.627 316.064C154.155 316.88 153.906 317.807 153.906 318.75C153.906 319.692 154.155 320.619 154.627 321.435C155.099 322.251 155.778 322.928 156.595 323.399L373.701 448.268C376.336 449.786 379.323 450.585 382.363 450.585C385.404 450.585 388.391 449.786 391.025 448.268L464.138 406.044C465.011 405.559 465.738 404.85 466.244 403.99C466.75 403.129 467.017 402.149 467.017 401.15C467.017 400.152 466.75 399.172 466.244 398.312C465.738 397.451 465.011 396.742 464.138 396.257L244.506 269.391C243.036 268.57 241.379 268.143 239.696 268.15C238.012 268.157 236.359 268.598 234.895 269.43Z" fill="#FFAF68"/>
<path d="M416.066 286.551C419.484 285.893 421.646 282.192 420.893 278.286C420.141 274.379 416.76 271.746 413.342 272.404C409.923 273.062 407.762 276.763 408.515 280.67C409.267 284.576 412.648 287.21 416.066 286.551Z" fill="#AB643C"/>
<path d="M415.835 127.981L500.262 176.919C501.128 177.42 501.84 178.148 502.323 179.024C502.806 179.9 503.041 180.891 503.002 181.891L500.086 257.666C500.05 258.613 499.771 259.534 499.274 260.341C498.778 261.148 498.082 261.814 497.253 262.272C496.424 262.731 495.49 262.968 494.543 262.96C493.595 262.952 492.666 262.7 491.845 262.227L410.334 215.384C409.494 214.901 408.797 214.205 408.312 213.367C407.828 212.528 407.573 211.576 407.574 210.608V132.758C407.571 131.79 407.823 130.838 408.306 129.999C408.788 129.159 409.483 128.462 410.321 127.978C411.16 127.493 412.111 127.238 413.079 127.239C414.047 127.24 414.997 127.496 415.835 127.981Z" fill="#68E1FD"/>
<path d="M446.073 141.273C446.078 141.215 446.078 141.156 446.073 141.097L445.76 138.454C442.491 138.298 440.631 139.081 437.362 139.1C435.746 140.757 434.674 142.867 434.289 145.149C434.289 146.774 434.485 149.064 436.481 148.829C436.795 150.336 437.676 152.313 439.457 151.902L439.692 151.805C439.809 152.803 440.122 153.762 441.082 154.056C442.041 154.349 442.648 153.821 443.039 152.94C443.391 154.271 444.018 156.307 445.369 156.287C447.209 156.287 447.326 153.566 446.856 150.865C446.816 147.654 446.554 144.449 446.073 141.273Z" fill="#FBB5AD"/>
<path d="M436.947 144.267C436.428 145.73 436.202 147.279 436.281 148.828C436.281 149.318 437.044 149.318 437.025 148.828C436.952 147.345 437.171 145.862 437.671 144.463C437.827 144.013 437.103 143.817 436.947 144.267Z" fill="#56403D"/>
<path d="M439.704 145.756L439.391 152.039C439.391 152.529 440.115 152.529 440.134 152.039L440.448 145.756C440.448 145.286 439.743 145.286 439.704 145.756Z" fill="#56403D"/>
<path d="M442.398 144.855V153.174C442.398 153.273 442.438 153.368 442.507 153.437C442.577 153.507 442.672 153.546 442.77 153.546C442.869 153.546 442.964 153.507 443.033 153.437C443.103 153.368 443.142 153.273 443.142 153.174V144.855C443.142 144.756 443.103 144.662 443.033 144.592C442.964 144.522 442.869 144.483 442.77 144.483C442.672 144.483 442.577 144.522 442.507 144.592C442.438 144.662 442.398 144.756 442.398 144.855Z" fill="#56403D"/>
<path d="M445.719 138.453C448.15 141.008 449.611 144.332 449.849 147.849L446.306 145.618L445.719 138.453Z" fill="#FBB5AD"/>
<path d="M478.643 156.189C478.643 156.189 476.019 156.659 475.961 156.619C473.69 158.048 467.915 161.004 465.508 162.159C464.079 162.844 460.536 164.332 461.319 166.485C461.73 167.64 462.885 167.836 464.372 167.503C464.266 167.81 464.27 168.144 464.385 168.448C464.499 168.752 464.716 169.007 464.999 169.167C465.461 169.382 465.974 169.466 466.481 169.411C466.988 169.356 467.471 169.163 467.876 168.854C467.952 169.218 468.153 169.543 468.444 169.774C469.677 170.831 472.026 169.656 473.377 169.03C473.353 169.277 473.353 169.527 473.377 169.774C473.377 170.557 474.16 171.32 474.884 170.929C478.349 169.089 483.791 162.375 485.376 159.184C482.088 157.931 481.872 157.559 478.643 156.189Z" fill="#FBB5AD"/>
<path d="M476.301 165.643C475.394 166.911 474.313 168.044 473.091 169.01C472.738 169.284 473.228 169.754 473.58 169.5C474.848 168.494 475.969 167.314 476.908 165.996C477.143 165.643 476.555 165.291 476.301 165.643Z" fill="#56403D"/>
<path d="M474.246 163.901C472.249 165.493 470.213 167.033 468.138 168.521C467.786 168.775 468.138 169.363 468.49 169.108C470.67 167.581 472.751 166.022 474.735 164.43C475.068 164.117 474.578 163.627 474.246 163.901Z" fill="#56403D"/>
<path d="M471.014 163.04C468.879 164.547 466.612 165.857 464.241 166.955C463.85 167.151 464.241 167.738 464.594 167.543C466.964 166.444 469.231 165.134 471.367 163.628C471.758 163.373 471.367 162.786 471.014 163.04Z" fill="#56403D"/>
<path d="M475.965 156.6C475.965 156.6 472.657 154.173 467.078 157.892L471.757 160.809" fill="#FBB5AD"/>
<path d="M548.958 285.971C548.917 285.834 548.848 285.707 548.755 285.598C548.662 285.49 548.547 285.401 548.419 285.339C548.29 285.276 548.15 285.241 548.007 285.235C547.864 285.23 547.721 285.253 547.588 285.306C547.643 284.654 547.643 283.999 547.588 283.348C547.588 282.428 547.412 281.116 546.414 280.725C546.124 280.618 545.806 280.607 545.51 280.695C545.213 280.784 544.953 280.966 544.769 281.214C544.657 280.614 544.494 280.025 544.28 279.453C544.214 279.239 544.081 279.052 543.902 278.918C543.723 278.784 543.505 278.711 543.282 278.709C542.166 278.709 541.598 279.609 541.324 280.666C541.324 280.568 540.913 280.196 540.815 280.138C540.632 280.005 540.414 279.93 540.189 279.922C539.768 279.897 539.352 280.022 539.014 280.275C538.691 280.592 538.496 281.017 538.466 281.469C538.377 282.217 538.377 282.972 538.466 283.72C538.466 284.64 538.662 285.54 538.721 286.46C538.779 287.38 538.721 287.752 538.721 288.418C537.859 286.754 536.646 284.679 535.236 285.658C533.827 286.637 535.06 287.968 535.452 288.888C536.258 290.712 537.214 292.467 538.31 294.134C538.161 294.955 537.958 295.766 537.703 296.561C540.322 297.63 542.855 298.9 545.278 300.359C546.055 297.759 546.99 295.21 548.078 292.724C549.254 290.679 549.571 288.25 548.958 285.971Z" fill="#FBB5AD"/>
<path d="M541.134 280.647C541.055 283.178 540.918 285.704 540.723 288.222C540.723 288.438 541.055 288.438 541.055 288.222C541.251 285.704 541.388 283.178 541.466 280.647C541.486 280.412 541.134 280.412 541.134 280.647Z" fill="#56403D"/>
<path d="M544.541 281.292C544.319 283.576 544.045 285.847 543.719 288.105C543.719 288.32 544.012 288.418 544.051 288.105C544.391 285.808 544.671 283.504 544.893 281.195C544.893 281.077 544.56 281.077 544.541 281.292Z" fill="#56403D"/>
<path d="M547.506 285.521C547.336 287.113 547.088 288.692 546.762 290.258C546.762 290.473 547.055 290.571 547.094 290.258C547.421 288.666 547.669 287.061 547.838 285.443C547.858 285.306 547.525 285.305 547.506 285.521Z" fill="#56403D"/>
<path d="M470.136 285.58C469.901 285.051 469.666 284.523 469.45 283.975C469.328 283.692 469.28 283.381 469.313 283.074C469.484 282.248 469.602 281.411 469.666 280.569C469.615 277.884 469.077 275.232 468.08 272.739C467.957 272.342 467.744 271.979 467.457 271.679C467.169 271.379 466.816 271.149 466.425 271.009C466.034 270.868 465.616 270.821 465.203 270.869C464.791 270.918 464.395 271.062 464.048 271.29L463.323 269.979C461.973 267.591 460.524 263.48 457.451 263.167C457.214 263.163 456.98 263.216 456.768 263.322C456.556 263.428 456.373 263.584 456.234 263.777C456.096 263.969 456.006 264.192 455.972 264.427C455.939 264.661 455.963 264.901 456.042 265.124C456.629 266.671 457.236 268.197 457.862 269.705C457.73 269.564 457.571 269.452 457.394 269.376C457.218 269.299 457.027 269.26 456.834 269.26C456.642 269.26 456.451 269.299 456.274 269.376C456.098 269.452 455.939 269.564 455.807 269.705C455.446 270.071 455.205 270.54 455.118 271.047C455.03 271.555 455.1 272.076 455.317 272.543H454.945C454.617 272.376 454.256 272.282 453.888 272.269C453.594 272.287 453.307 272.368 453.047 272.506C452.787 272.645 452.56 272.838 452.381 273.072C452.177 273.35 452.043 273.672 451.988 274.012C451.934 274.353 451.961 274.701 452.068 275.029H451.813C451.519 275.138 451.256 275.315 451.044 275.547C450.833 275.778 450.681 276.057 450.6 276.36C450.493 276.771 450.493 277.202 450.6 277.613C450.443 279.14 458.43 286.617 458.43 286.617L463.167 291.805L471.114 288.027C471.232 287.753 470.233 285.795 470.136 285.58Z" fill="#FBB5AD"/>
<path d="M524.027 357.655C509.913 333.539 496.622 357.107 496.622 357.107C491.145 364.594 486.884 372.898 483.996 381.713C480.747 392.792 480.766 428.693 482.371 439.381C488.244 441.651 501.379 440.966 507.506 439.224V396.159C507.529 396.039 507.594 395.93 507.688 395.852C507.783 395.774 507.902 395.732 508.024 395.732C508.147 395.732 508.266 395.774 508.36 395.852C508.455 395.93 508.52 396.039 508.543 396.159L508.837 481.682C519.143 482.064 529.42 480.374 539.061 476.71C539.061 476.71 537.299 380.343 524.027 357.655Z" fill="#F3A71C"/>
<path d="M470.227 283.172C465.98 284.209 463.082 286.441 459.402 288.79C460.753 293.527 475.552 330.524 494.168 338.354L495.655 312.025C495.655 312.025 487.414 311.242 470.227 283.172Z" fill="#F5604B"/>
<path d="M535.356 294.663C534.777 299.244 533.18 303.637 530.684 307.522C528.188 311.406 524.855 314.684 520.93 317.115L523.455 341.29C534.75 334.028 546.651 307.034 548.393 299.987C546.678 298.284 544.644 296.938 542.406 296.024C540.169 295.11 537.773 294.647 535.356 294.663Z" fill="#F5604B"/>
<path d="M492.062 339.841L494.549 361.511C494.549 361.511 512.401 368.264 525.614 361.511V339.547" fill="#F5604B"/>
<path d="M534.006 333.617C533.645 332.395 533.047 331.258 532.244 330.269C530.996 328.819 529.634 327.471 528.172 326.237C527.814 325.951 527.531 325.581 527.35 325.16C526.743 323.32 528.897 320.501 528.603 318.25C528.153 314.922 526.039 313.807 523.964 311.614C522.839 310.491 522.105 309.036 521.869 307.464C520.679 305.069 519.76 302.547 519.129 299.948C517.621 295.7 515.214 291.002 510.653 289.455C508.13 288.647 505.43 288.568 502.864 289.226C500.299 289.884 497.97 291.252 496.148 293.175C493.016 296.757 493.622 301.631 493.27 306.114C493.473 306.521 493.612 306.956 493.681 307.406C494.288 311.751 488.572 311.947 488.044 315.392C487.974 316.046 488.007 316.706 488.141 317.35C488.586 319.82 489.65 322.137 491.234 324.084C495.149 329.369 486.047 332.09 486.086 336.983C486.196 338.747 486.77 340.451 487.75 341.922C488.73 343.393 490.08 344.579 491.665 345.362C499.389 349.198 508.215 350.202 516.603 348.2C522.867 346.771 536.159 341.564 534.006 333.617ZM499.162 325.552C499.162 325.454 499.162 325.336 499.162 325.238H499.514L499.162 325.552Z" fill="#56403D"/>
<path d="M507.505 396.119L487.656 391.696L506.527 406.416L507.505 396.119Z" fill="#56403D"/>
<path d="M460.633 274.422C459.077 271.354 457.767 268.166 456.718 264.889C456.561 264.38 455.739 264.596 455.915 265.105C456.958 268.466 458.267 271.739 459.83 274.892C460.143 275.323 460.868 274.892 460.633 274.422Z" fill="#56403D"/>
<path d="M457.53 276.379C456.757 275.058 456.064 273.692 455.455 272.288C455.24 271.799 454.516 272.288 454.731 272.719C455.34 274.123 456.033 275.489 456.806 276.81C456.863 276.906 456.956 276.975 457.064 277.003C457.173 277.03 457.287 277.014 457.383 276.957C457.479 276.899 457.549 276.807 457.576 276.698C457.604 276.59 457.587 276.475 457.53 276.379Z" fill="#56403D"/>
<path d="M454.507 278.552C453.646 277.435 452.983 276.176 452.55 274.833C452.393 274.324 451.571 274.539 451.747 275.048C452.172 276.455 452.834 277.779 453.705 278.963C454.135 279.414 454.84 278.983 454.507 278.552Z" fill="#56403D"/>
<path d="M466.957 276.106C466.147 274.461 465.404 272.784 464.725 271.075C464.529 270.586 463.707 270.801 463.922 271.29C464.627 273.065 465.397 274.807 466.232 276.517C466.467 277.026 467.191 276.595 466.957 276.106Z" fill="#56403D"/>
<path d="M280.71 125.085C280.831 124.884 280.893 124.653 280.886 124.419C280.895 123.261 280.666 122.114 280.211 121.05C279.756 119.986 279.086 119.027 278.243 118.233C277.914 117.935 277.521 117.716 277.093 117.594C276.666 117.472 276.217 117.45 275.78 117.53C275.343 117.609 274.93 117.788 274.573 118.053C274.216 118.317 273.924 118.66 273.721 119.055C271.881 122.833 276.09 126.611 279.457 127.062C280.396 127.179 280.768 126.396 280.612 125.652C280.687 125.473 280.72 125.279 280.71 125.085Z" fill="#FBB5AD"/>
<path d="M277.355 190.386L270.582 186.608L276.22 202.033L277.355 190.386Z" fill="#382624"/>
<path d="M352.917 340.605L330.602 353.818L347.162 363.429C351.84 360.709 365.23 352.8 369.536 350.255L352.917 340.605Z" fill="white"/>
<path d="M328.46 326.433L306.145 339.646L327.109 351.822C330.77 349.708 344.296 341.721 349.503 338.648L328.46 326.433Z" fill="white"/>
<path d="M239.68 274.872L217.012 287.889L237.174 299.634C240.365 297.794 254.048 289.709 259.568 286.46L239.68 274.872Z" fill="white"/>
<path d="M287.413 302.591L265.098 315.804L281.658 325.415C285.573 323.144 299.021 315.197 304.052 312.241L287.413 302.591Z" fill="white"/>
<path d="M262.976 288.399L240.66 301.612L261.625 313.787C264.091 312.378 278.127 304 284.019 300.613L262.976 288.399Z" fill="white"/>
<path d="M372.941 352.35L350.625 365.563L366.461 374.764C371.218 371.984 384.627 364.076 388.835 361.59L372.941 352.35Z" fill="white"/>
<path d="M307.444 314.218L285.129 327.431L302.746 337.61C306.877 335.221 320.364 327.294 325.14 324.436L307.444 314.218Z" fill="white"/>
<path d="M392.261 363.468L369.965 376.701L390.93 388.877C395.314 386.332 408.704 378.424 413.304 375.703L392.261 363.468Z" fill="white"/>
<path d="M416.706 377.679L394.41 390.893L432.033 412.738L454.682 399.721L416.706 377.679Z" fill="white"/>
<path d="M214.129 291.667L191.461 304.684L220.823 321.695C224.738 319.464 238.128 311.516 243.217 308.521L214.129 291.667Z" fill="white"/>
<path d="M270.999 324.769L248.605 337.982L265.166 347.593C269.59 345.009 282.979 337.121 287.54 334.419L270.999 324.769Z" fill="white"/>
<path d="M312.046 348.611L289.711 361.824L310.676 374C314.884 371.553 328.293 363.645 333.07 360.826L312.046 348.611Z" fill="white"/>
<path d="M291.042 336.396L268.727 349.609L286.344 359.788C290.944 357.107 304.334 349.198 308.718 346.614L291.042 336.396Z" fill="white"/>
<path d="M336.499 362.803L314.184 376.016L330.822 385.628C335.931 382.633 349.419 374.685 353.197 372.454L336.499 362.803Z" fill="white"/>
<path d="M356.538 374.431L334.223 387.585L350.059 396.785C355.266 393.751 368.773 385.784 372.433 383.611L356.538 374.431Z" fill="white"/>
<path d="M246.648 310.577L224.332 323.79L245.297 335.966C248.625 334.008 262.249 326.002 267.691 322.792L246.648 310.577Z" fill="white"/>
<path d="M375.847 385.627L353.531 398.841L374.516 411.075C379.37 408.256 392.76 400.328 396.89 397.901L375.847 385.627Z" fill="white"/>
<path d="M377.996 413.072L406.478 429.612L429.146 416.595L400.292 399.858L377.996 413.072Z" fill="white"/>
<path d="M361.311 410.801L344.711 420.667L363.953 431.805L380.807 422.135L361.311 410.801Z" fill="white"/>
<path d="M367.938 434.114L384.302 443.589L401.176 433.958L384.517 424.268L367.938 434.114Z" fill="white"/>
<path d="M186.164 309.089L168.801 318.739L188.513 330.152L205.563 320.364L186.164 309.089Z" fill="white"/>
<path d="M209.237 322.498L192.48 332.442L213.524 344.637L230.554 334.869L209.237 322.498Z" fill="white"/>
<path d="M234.252 337.023L217.516 346.947L340.701 418.337L357.594 408.647L234.252 337.023Z" fill="white"/>
<path d="M317.604 130.625C329.146 130.298 338.068 114.703 337.533 95.7911C336.999 76.8795 327.209 61.8131 315.667 62.1396C304.126 62.466 295.203 78.0615 295.738 96.9732C296.273 115.885 306.063 130.951 317.604 130.625Z" fill="#E2E2E2"/>
<path d="M333.04 92.4534C334.601 75.1126 326.506 60.2127 314.96 59.1736C303.414 58.1344 292.789 71.3495 291.228 88.6903C289.668 106.031 297.762 120.931 309.308 121.97C320.855 123.009 331.48 109.794 333.04 92.4534Z" fill="#E35541"/>
<path d="M319.998 87.838C320.467 82.8111 317.165 78.3924 312.623 77.9686C308.08 77.5448 304.017 81.2764 303.548 86.3033C303.079 91.3302 306.382 95.7488 310.924 96.1726C315.467 96.5964 319.529 92.8649 319.998 87.838Z" fill="white"/>
<path d="M293.836 107.133C293.836 107.133 298.73 96.3085 307.421 97.6788C316.112 99.049 321.632 103.551 325.215 115.786C323.121 118.844 320.098 121.147 316.594 122.353C313.089 123.559 309.289 123.603 305.757 122.48C302.668 121.09 299.967 118.964 297.889 116.289C295.811 113.614 294.419 110.47 293.836 107.133Z" fill="white"/>
<path d="M339.059 100.244C339.014 100.12 338.955 100.002 338.883 99.8912C339.147 99.6406 339.354 99.3359 339.489 98.9981C339.624 98.6602 339.684 98.2971 339.666 97.9337C339.64 97.6908 339.563 97.456 339.442 97.2438C339.321 97.0316 339.157 96.8467 338.961 96.7005C339.145 96.4939 339.258 96.2349 339.285 95.9603C339.313 95.6856 339.253 95.4093 339.114 95.1708C338.975 94.9322 338.764 94.7435 338.512 94.6315C338.26 94.5196 337.979 94.4901 337.709 94.5472C335.751 94.9191 334.537 97.4247 333.52 98.9124C332.756 100.009 332.051 101.144 331.386 102.279C331.268 100.635 331.034 98.9712 330.916 97.4247C330.799 95.8783 328.391 95.7804 328.391 97.4247C328.527 99.9031 328.269 102.387 327.627 104.785C327.379 104.908 327.153 105.073 326.962 105.274C319.859 112.724 310.962 118.224 301.123 121.248C300.631 121.413 300.207 121.735 299.916 122.164C299.625 122.594 299.483 123.107 299.511 123.625C299.54 124.143 299.739 124.637 300.076 125.032C300.413 125.426 300.87 125.699 301.377 125.808C301.411 126.285 301.591 126.74 301.892 127.111C302.193 127.483 302.601 127.752 303.061 127.883C303.134 128.249 303.283 128.595 303.499 128.898C303.715 129.202 303.992 129.456 304.314 129.645L302.65 130.369C299.948 131.505 301.143 135.968 303.883 134.833C314.202 130.521 323.26 123.665 330.211 114.905C331.014 114.142 331.797 113.378 332.58 112.576C333.794 111.343 339.666 105.45 338.218 102.925C338.648 102.044 339.49 101.379 339.059 100.244Z" fill="#FBB5AD"/>
<path d="M298.341 72.7991C295.581 73.8953 293.447 79.8461 293.682 81.0989L295.855 80.0027L296.246 79.572C296.633 77.2297 297.338 74.9511 298.341 72.7991Z" fill="#FBB5AD"/>
<path d="M298.716 77.6351C298.568 77.5296 298.402 77.4502 298.227 77.4002L298.051 77.2436C296.974 76.4019 295.31 77.4981 294.331 78.0266C293.079 78.6868 291.899 79.474 290.808 80.3756C290.311 81.0541 289.958 81.8268 289.77 82.6463C289.359 83.6251 288.948 84.6038 288.478 85.563C287.524 87.5855 286.446 89.5467 285.249 91.4355C282.911 95.0933 280.151 98.4637 277.027 101.477C275.579 102.887 277.79 105.079 279.239 103.67L280.277 102.632C280.494 102.776 280.75 102.853 281.011 102.853C281.272 102.853 281.527 102.776 281.745 102.632C282.001 102.456 282.243 102.26 282.469 102.045L282.802 101.771C282.894 102.01 283.044 102.223 283.239 102.389C283.433 102.556 283.666 102.672 283.917 102.726C284.167 102.78 284.427 102.772 284.673 102.701C284.919 102.63 285.144 102.499 285.327 102.319L286.384 101.203C286.721 101.078 286.995 100.825 287.147 100.499C287.147 100.499 287.304 102.632 287.343 102.574C289.046 100.773 291.062 95.7811 292.765 92.7862C292.754 92.6484 292.788 92.5108 292.863 92.3947C293.888 90.6163 294.346 88.5675 294.175 86.5222C294.171 85.1174 294.295 83.7152 294.547 82.3331L297.326 80.1799C297.992 79.6709 298.716 78.9075 298.579 78.2224C298.662 78.037 298.708 77.8378 298.716 77.6351Z" fill="#FBB5AD"/>
<path d="M309.067 116.862C299.181 119.759 297.478 118.663 292.8 118.507C288.122 118.35 283.15 111.792 283.15 111.792C283.15 111.792 281.975 97.1308 273.225 108.602C266.707 117.176 264.201 141.997 263.438 154.016C266.887 156.385 270.895 157.816 275.065 158.166C277.75 158.615 280.467 158.844 283.189 158.851C284.863 158.839 286.516 158.479 288.043 157.794L292.683 136.261C300.141 136.665 307.518 134.549 313.628 130.252L309.067 116.862Z" fill="#68E1FD"/>
<path d="M287.753 99.2261C287.753 99.2261 294.115 111.441 287.753 114.886C281.391 118.331 276.536 112.635 276.008 111.167C275.689 109.548 275.769 107.875 276.243 106.294C276.717 104.713 277.57 103.272 278.727 102.095C279.885 100.918 281.312 100.042 282.885 99.5421C284.457 99.0422 286.129 98.9337 287.753 99.2261Z" fill="#FBB5AD"/>
<path d="M288.305 97.4051C286.7 96.3841 284.892 95.7226 283.007 95.4658C281.121 95.209 279.203 95.3631 277.382 95.9174C274.177 96.5037 271.227 98.0538 268.926 100.361C268.113 99.8119 267.165 99.4939 266.185 99.4409C264.998 99.352 263.813 99.6413 262.801 100.267C261.788 100.893 260.999 101.824 260.548 102.925C260.179 103.962 260.171 105.093 260.527 106.134C260.882 107.176 261.58 108.066 262.505 108.661C263.941 109.413 265.615 109.568 267.164 109.091V109.385C267.38 111.695 265.207 112.85 264.345 114.807C263.929 115.699 263.812 116.702 264.013 117.665C264.228 118.624 265.226 119.623 265.207 120.641C265.031 121.366 264.682 122.038 264.189 122.598C263.741 123.264 263.373 123.98 263.093 124.732C267.869 126.941 273.258 127.445 278.361 126.161C283.824 125.204 288.83 122.506 292.631 118.468C292.41 117.967 292.083 117.519 291.672 117.156C290.82 116.583 289.907 116.104 288.951 115.727C287.601 114.944 288.951 112.576 288.951 111.303C288.951 109.111 287.268 108.191 285.447 107.388C284.136 106.84 284.077 106.038 284.057 104.707C283.939 103.648 284.158 102.579 284.684 101.653C285.078 101.71 285.48 101.627 285.819 101.418C286.5 101.007 287.23 100.685 287.992 100.459C288.374 100.321 288.687 100.039 288.863 99.6727C289.039 99.3064 289.064 98.8856 288.932 98.5013C288.932 98.2799 288.874 98.0623 288.764 97.87C288.654 97.6778 288.496 97.5175 288.305 97.4051Z" fill="#56403D"/>
<path d="M283.487 102.279C285.525 101.833 287.499 101.129 289.359 100.184C289.359 99.9887 289.966 92.3544 276.479 95.0166C262.992 97.6788 269.393 113.789 269.393 113.789" fill="#56403D"/>
<path d="M411.369 119.564L505.759 175.118C506.729 175.696 507.525 176.524 508.062 177.517C508.6 178.509 508.859 179.628 508.813 180.756L505.544 266.71C505.517 267.775 505.214 268.816 504.663 269.729C504.113 270.642 503.335 271.396 502.405 271.917C501.475 272.438 500.425 272.709 499.359 272.702C498.293 272.695 497.247 272.411 496.324 271.877L405.203 218.751C404.258 218.196 403.475 217.404 402.933 216.452C402.39 215.501 402.106 214.424 402.11 213.329V124.967C402.098 123.878 402.374 122.805 402.911 121.857C403.449 120.91 404.227 120.122 405.168 119.573C406.109 119.024 407.178 118.734 408.267 118.732C409.356 118.731 410.426 119.018 411.369 119.564Z" stroke="#56403D" stroke-width="1.9575" stroke-miterlimit="10" stroke-linecap="round" stroke-dasharray="5.95 9.9"/>
<path d="M469.568 95.3496C465.79 93.6074 456.824 87.6958 445.51 93.1377C434.196 98.5795 423.469 108.641 435.155 138.278C438.929 139.726 443.098 139.767 446.9 138.395C446.9 138.395 444.492 112.458 448.133 109.444L486.148 130.565C486.569 135.503 485.539 140.456 483.185 144.816C480.831 149.177 477.255 152.755 472.896 155.112L483.368 164.723C491.942 164.586 510.773 137.318 504.901 117.939C499.028 98.5599 466.964 94.3513 466.964 94.3513" fill="#6DE1FC"/>
<path d="M469.568 95.3496C465.79 93.6074 456.824 87.6958 445.51 93.1377C434.196 98.5795 423.469 108.641 435.155 138.278C438.929 139.726 443.098 139.767 446.9 138.395C446.9 138.395 444.492 112.458 448.133 109.444L486.148 130.565C486.569 135.503 485.539 140.456 483.185 144.816C480.831 149.177 477.255 152.755 472.896 155.112L483.368 164.723C491.942 164.586 510.773 137.318 504.901 117.939C499.028 98.5599 466.964 94.3513 466.964 94.3513" fill="#BE6B3D"/>
<path d="M481.684 93.7446C479.1 96.6025 474.147 95.3106 470.878 94.5667C466.963 93.6663 462.363 91.2586 462.716 86.541C462.716 85.8363 461.659 85.8363 461.6 86.541C461.228 91.4543 465.711 94.371 469.958 95.4868C473.736 96.4264 479.452 97.8553 482.467 94.5276C482.937 93.9599 482.154 93.2161 481.684 93.7446Z" fill="#009245"/>
<path d="M460.539 83.5662C460.539 83.5662 460.539 107.624 469.367 109.19C479.155 110.912 484.518 99.8917 484.518 99.8917C484.518 99.8917 485.771 78.6333 476.121 76.7736C466.47 74.914 460.833 80.4929 460.539 83.5662Z" fill="#FBB5AD"/>
<path d="M467.956 99.8323C467.73 99.8454 467.504 99.812 467.291 99.7344C467.479 97.4892 467.779 95.2549 468.191 93.0398C468.213 92.8793 468.172 92.7166 468.076 92.5859C467.98 92.4551 467.838 92.3665 467.678 92.3387C467.519 92.3108 467.355 92.3459 467.22 92.4364C467.086 92.527 466.992 92.6661 466.958 92.8245C466.51 95.1937 466.19 97.5853 465.999 99.9889C465.979 100.126 466.003 100.265 466.066 100.388C466.129 100.51 466.229 100.61 466.351 100.674C466.867 100.976 467.457 101.125 468.054 101.105C468.876 101.007 468.779 99.8323 467.956 99.8323Z" fill="#56403D"/>
<path d="M472.036 100.282C471.687 101.13 471.022 101.809 470.181 102.174C469.341 102.54 468.391 102.563 467.533 102.24C467.024 102.064 466.809 102.866 467.318 103.042C468.344 103.417 469.474 103.392 470.483 102.971C471.492 102.55 472.304 101.765 472.76 100.772C472.995 100.223 472.27 99.832 472.036 100.282Z" fill="#56403D"/>
<path d="M470.939 96.8766C470.773 96.8766 470.613 96.9426 470.496 97.0601C470.379 97.1775 470.313 97.3369 470.312 97.503C470.313 97.6691 470.379 97.8284 470.496 97.9459C470.613 98.0634 470.773 98.1294 470.939 98.1294C471.105 98.1294 471.264 98.0634 471.382 97.9459C471.499 97.8284 471.565 97.6691 471.565 97.503C471.565 97.3369 471.499 97.1775 471.382 97.0601C471.264 96.9426 471.105 96.8766 470.939 96.8766Z" fill="#56403D"/>
<path d="M463.158 95.1931C462.992 95.1931 462.832 95.2591 462.715 95.3766C462.597 95.4941 462.531 95.6534 462.531 95.8195C462.531 95.9856 462.597 96.145 462.715 96.2624C462.832 96.3799 462.992 96.4459 463.158 96.4459C463.324 96.4459 463.483 96.3799 463.601 96.2624C463.718 96.145 463.784 95.9856 463.784 95.8195C463.784 95.6534 463.718 95.4941 463.601 95.3766C463.483 95.2591 463.324 95.1931 463.158 95.1931Z" fill="#56403D"/>
<path d="M477.629 97.5031C477.629 97.5031 479.958 88.2637 482.542 91.3174C485.126 94.3711 478.353 101.007 478.353 101.007" fill="#FBB5AD"/>
<path d="M480.047 73.7781C480.047 73.7781 488.66 74.6981 491.165 81.6081C493.671 88.5181 487.25 102.103 482.611 104.237L488.21 92.2569L487.936 84.1724L480.047 73.7781Z" fill="#5C2E2E"/>
<path d="M491.016 84.6425C490.311 79.8466 487.101 77.5172 482.971 75.0507L481.933 74.5026C482.763 73.8537 483.432 73.0234 483.891 72.0753C483.946 71.9797 483.975 71.8711 483.975 71.7607C483.975 71.6503 483.945 71.5419 483.889 71.4465C483.834 71.3511 483.754 71.2721 483.658 71.2175C483.562 71.1629 483.453 71.1347 483.343 71.1357C482.799 71.1574 482.266 71.2922 481.777 71.5315C481.288 71.7708 480.855 72.1093 480.504 72.5255C480.013 71.5358 479.351 70.641 478.547 69.8829C478.467 69.8084 478.37 69.7551 478.265 69.7282C478.159 69.7012 478.048 69.7015 477.943 69.7288C477.837 69.7562 477.74 69.8098 477.661 69.8846C477.582 69.9595 477.523 70.0532 477.49 70.157C477.301 70.6216 477.217 71.1222 477.244 71.623C477.271 72.1238 477.409 72.6125 477.646 73.0541C473.314 72.1492 468.801 72.8446 464.942 75.0116C463.515 75.8158 462.295 76.9418 461.38 78.3002C460.203 78.176 459.016 78.3863 457.954 78.907C456.816 79.437 455.883 80.3244 455.296 81.4341C454.71 82.5438 454.502 83.8148 454.705 85.0535C455.102 86.3309 455.986 87.4012 457.164 88.0344C458.343 88.6677 459.723 88.8133 461.008 88.44C462.347 88.192 463.6 87.6058 464.649 86.737C463.866 88.0485 463.474 89.732 466.019 90.3192C470.443 91.3371 472.537 88.6945 472.811 90.9065C473.046 92.7074 475.532 93.7057 477.314 93.7448C477.451 94.0189 477.783 94.7432 478.175 95.7023C479.065 95.408 480.017 95.354 480.935 95.5457C481.006 95.4668 481.094 95.4057 481.193 95.3678C481.292 95.3298 481.398 95.316 481.504 95.3275C481.609 95.339 481.71 95.3754 481.798 95.4338C481.887 95.4922 481.96 95.5708 482.012 95.6632C483.538 98.2862 483.186 101.144 482.599 104.178C485.016 102.138 487.011 99.6441 488.471 96.8377C490.496 93.1097 491.381 88.8691 491.016 84.6425ZM478.488 71.7425L478.664 72.0166C478.654 72.0814 478.654 72.1475 478.664 72.2123C478.664 72.4081 478.821 72.6234 478.899 72.8192C478.673 72.5008 478.532 72.1304 478.488 71.7425Z" fill="#5C2E2E"/>
<path d="M526.117 199.665L582.278 232.414C582.797 232.718 583.227 233.153 583.526 233.675C583.824 234.197 583.981 234.788 583.981 235.389C583.981 235.996 583.822 236.593 583.518 237.118C583.214 237.643 582.776 238.079 582.25 238.381C581.723 238.683 581.126 238.841 580.519 238.838C579.912 238.835 579.317 238.672 578.793 238.365L522.652 205.812C522.13 205.51 521.696 205.076 521.393 204.554C521.091 204.032 520.931 203.439 520.93 202.836V202.64C520.929 202.033 521.089 201.437 521.393 200.912C521.697 200.386 522.134 199.951 522.661 199.649C523.187 199.347 523.784 199.189 524.391 199.192C524.998 199.195 525.593 199.358 526.117 199.665Z" fill="#FDC49A"/>
<path d="M526.119 217.282L582.279 250.031C582.798 250.335 583.228 250.77 583.527 251.292C583.826 251.814 583.983 252.405 583.982 253.007C583.983 253.614 583.823 254.21 583.519 254.735C583.215 255.261 582.778 255.696 582.251 255.998C581.725 256.3 581.128 256.458 580.521 256.455C579.914 256.452 579.319 256.289 578.795 255.982L522.654 223.527C522.131 223.225 521.697 222.791 521.395 222.269C521.093 221.747 520.933 221.155 520.931 220.551V220.356C520.913 219.74 521.06 219.132 521.357 218.592C521.653 218.053 522.089 217.603 522.619 217.29C523.148 216.976 523.752 216.81 524.368 216.808C524.983 216.807 525.588 216.971 526.119 217.282Z" fill="#FDC49A"/>
<path d="M526.117 235.076L582.278 267.825C582.797 268.129 583.227 268.564 583.526 269.086C583.824 269.608 583.981 270.199 583.981 270.8C583.981 271.407 583.822 272.004 583.518 272.529C583.214 273.054 582.776 273.49 582.25 273.792C581.723 274.094 581.126 274.251 580.519 274.249C579.912 274.246 579.317 274.083 578.793 273.776L522.652 241.222C522.13 240.921 521.696 240.487 521.393 239.965C521.091 239.443 520.931 238.85 520.93 238.247V238.051C520.929 237.444 521.089 236.848 521.393 236.323C521.697 235.797 522.134 235.362 522.661 235.06C523.187 234.758 523.784 234.6 524.391 234.603C524.998 234.606 525.593 234.769 526.117 235.076Z" fill="#FDC49A"/>
<path d="M526.117 252.772L582.278 285.521C582.797 285.825 583.227 286.26 583.526 286.782C583.825 287.304 583.981 287.895 583.981 288.497C583.981 289.104 583.822 289.7 583.518 290.225C583.214 290.751 582.776 291.186 582.25 291.488C581.723 291.79 581.126 291.948 580.519 291.945C579.913 291.942 579.317 291.779 578.793 291.472L522.652 258.938C522.13 258.637 521.696 258.203 521.393 257.681C521.091 257.159 520.931 256.566 520.93 255.963V255.767C520.926 255.159 521.083 254.56 521.386 254.032C521.688 253.504 522.125 253.065 522.652 252.761C523.179 252.457 523.778 252.297 524.386 252.299C524.995 252.301 525.592 252.465 526.117 252.772Z" fill="#FAEDD4"/>
<path d="M385.133 138.434V195.123L341.266 169.989V113.789L385.133 138.434Z" fill="#E35541"/>
<path d="M346.34 169.989V183.848L357.517 174.12L346.34 169.989Z" fill="#E35541"/>
<path d="M358.578 144.17L348.79 150.199C348.487 150.378 348.267 150.671 348.179 151.012C348.091 151.353 348.142 151.716 348.32 152.019L355.955 162.414C356.953 163.784 359.263 162.414 358.245 161.083L350.513 150.727L350.043 152.548L359.831 146.519C361.279 145.638 359.948 143.328 358.499 144.228L358.578 144.17Z" fill="white"/>
<path d="M365.206 149.533L373.329 161.023L373.799 159.203L363.855 164.175C362.328 164.938 363.679 167.229 365.186 166.465L375.13 161.493C375.434 161.314 375.653 161.021 375.742 160.68C375.83 160.339 375.779 159.977 375.6 159.673L367.476 148.182C366.498 146.792 364.188 148.182 365.186 149.513L365.206 149.533Z" fill="white"/>
<path d="M582.097 212.741C583.837 212.741 585.248 211.207 585.248 209.316C585.248 207.424 583.837 205.89 582.097 205.89C580.356 205.89 578.945 207.424 578.945 209.316C578.945 211.207 580.356 212.741 582.097 212.741Z" fill="#155A93"/>
<path d="M572.042 207.593C573.783 207.593 575.194 206.059 575.194 204.167C575.194 202.275 573.783 200.741 572.042 200.741C570.302 200.741 568.891 202.275 568.891 204.167C568.891 206.059 570.302 207.593 572.042 207.593Z" fill="#659FE4"/>
<path d="M561.984 202.601C563.724 202.601 565.135 201.067 565.135 199.175C565.135 197.283 563.724 195.75 561.984 195.75C560.243 195.75 558.832 197.283 558.832 199.175C558.832 201.067 560.243 202.601 561.984 202.601Z" fill="#C5E9FF"/>
<path d="M249.523 243.513L318.467 282.604L343.601 269.684" stroke="white" stroke-width="1.9575" stroke-miterlimit="10"/>
<path d="M318.246 283.172V298.969" stroke="white" stroke-width="1.9575" stroke-miterlimit="10"/>
<path d="M268.767 270.135C267.321 269.87 265.971 269.229 264.852 268.275C264.156 266.982 263.869 265.507 264.03 264.047C264.03 262.742 264.03 261.379 264.03 259.956C263.954 259.894 263.891 259.817 263.847 259.729C263.804 259.641 263.779 259.545 263.776 259.447C263.7 258.339 263.7 257.227 263.776 256.119L258.177 255.571C257.209 259.083 256.431 262.644 255.848 266.24C256.004 267.336 261.329 274.618 264.05 275.107C266.771 275.597 274.287 273.15 274.914 272.19C272.878 271.584 270.803 270.938 268.767 270.135Z" fill="#FBB5AD"/>
<path d="M307.485 250.247C304.301 250.27 301.125 250.565 297.991 251.127C297.991 251.127 296.914 244.883 297.071 244.57L289.104 245.118C289.104 245.118 288.105 256.706 288.105 258.233C288.105 261.032 291.59 261.933 292.353 261.815C292.902 261.628 293.438 261.405 293.958 261.15C293.669 259.706 293.518 258.238 293.508 256.765C293.508 256.099 293.684 255.61 294.33 255.375C295.862 255.177 297.419 255.317 298.891 255.786C300.32 256.06 301.73 256.393 303.159 256.648C305.371 255.696 307.404 254.372 309.168 252.733C309.677 251.186 310.323 250.814 307.485 250.247Z" fill="#FBB5AD"/>
<path d="M310.152 250.755L309.956 250.54C309.349 249.953 307.744 250.012 307 249.972C303.963 249.993 300.939 250.38 297.996 251.127C297.996 251.127 305.219 250.149 305.493 251.441C305.61 251.959 305.605 252.497 305.479 253.013C305.354 253.529 305.11 254.009 304.769 254.416C301.754 257.098 297.036 254.142 294.1 252.87L288.639 250.521L288.286 254.964C288.097 256.995 288.097 259.04 288.286 261.071C288.658 261.698 291.888 263.401 292.573 263.029C293.258 262.657 295.373 261.404 295.373 261.404L294.942 256.041C294.942 256.041 299.444 257.998 301.578 257.45C303.203 257.059 312.031 253.261 310.152 250.755Z" fill="#56403D"/>
<path d="M261.039 266.474C261.039 266.474 263.975 275.636 264.954 276.262C265.932 276.888 277.286 273.267 275.602 271.114C274.526 269.743 267.772 269.763 267.126 269.587C267.126 269.587 270.709 270.761 270.709 271.329C269.376 272.511 267.732 273.286 265.971 273.561C265.737 273.13 260.843 265.104 260.843 265.104L256.243 263.479L252.523 271.877L255.734 273.247C255.734 273.247 256.712 275.812 257.045 275.812C258.147 274.315 259.135 272.738 260.001 271.094C260.212 272.257 260.588 273.384 261.117 274.441C261.567 274.774 265.306 277.848 266.989 275.499L263.838 271.955" fill="#56403D"/>
<path d="M252.523 271.877L253.111 273.972L257.045 275.812V271.877L254.775 271.094" fill="#56403D"/>
<path d="M284.444 248.27C287.901 249.076 291.498 249.069 294.953 248.251C298.407 247.432 301.624 245.824 304.352 243.552C304.469 231.807 305.566 221.099 305.213 209.315C304.646 190.073 301.846 171.183 288.34 156.169L263.753 152.391C253.77 171.379 251.734 258.233 251.734 258.233C251.734 258.233 264.262 266.22 273.795 262.305L277.495 189.877C277.495 189.877 284.014 197.59 285.188 201.896C286.049 205.146 284.288 233.725 284.444 248.27Z" fill="#1C9A83"/>
<path d="M180.386 222.802C204.354 222.802 223.784 213.197 223.784 201.348C223.784 189.499 204.354 179.894 180.386 179.894C156.418 179.894 136.988 189.499 136.988 201.348C136.988 213.197 156.418 222.802 180.386 222.802Z" fill="#6DE1FC"/>
<path d="M180.386 222.802C204.354 222.802 223.784 213.197 223.784 201.348C223.784 189.499 204.354 179.894 180.386 179.894C156.418 179.894 136.988 189.499 136.988 201.348C136.988 213.197 156.418 222.802 180.386 222.802Z" fill="#663535"/>
<path d="M666.956 438.715C684.923 438.715 699.489 428.452 699.489 415.793C699.489 403.133 684.923 392.87 666.956 392.87C648.988 392.87 634.422 403.133 634.422 415.793C634.422 428.452 648.988 438.715 666.956 438.715Z" fill="#68E1FD"/>
<path d="M666.941 412.249C680.401 412.249 691.312 407.78 691.312 402.266C691.312 396.753 680.401 392.283 666.941 392.283C653.481 392.283 642.57 396.753 642.57 402.266C642.57 407.78 653.481 412.249 666.941 412.249Z" fill="#974C26"/>
<path d="M666.036 385.628C666.036 381.125 665.88 376.623 665.527 372.14C665.436 370.979 665.332 369.817 665.214 368.656L664.96 366.366C664.862 365.7 664.607 363.958 664.607 364.036C664.451 363.123 664.294 362.209 664.138 361.296C661.475 346.021 655.539 331.503 646.735 318.74C643.429 326.626 641.783 335.108 641.9 343.659C641.9 346.125 642.096 348.592 642.311 351.058C642.311 351.724 642.311 351.998 642.311 352.096C642.311 352.193 642.311 351.939 642.409 352.507C642.605 353.72 642.84 354.934 643.075 356.128C644.056 360.718 645.364 365.232 646.99 369.635C648.435 373.681 650.196 377.608 652.256 381.38C654.468 385.628 656.875 389.777 659.459 393.81C661.417 396.961 663.374 399.8 665.332 402.482C665.762 396.883 666.036 391.246 666.036 385.628ZM653.234 335.026C653.322 334.444 653.282 333.849 653.117 333.284C653.743 333.923 654.35 334.576 654.937 335.241C654.384 335.082 653.81 335.01 653.234 335.026Z" fill="#1C9A83"/>
<path d="M674.433 389.092C676.88 385.314 679.17 381.439 681.303 377.465C681.852 376.434 682.393 375.396 682.928 374.352L683.946 372.277L684.905 370.124C685.271 369.276 685.63 368.421 685.982 367.56C691.996 353.273 694.847 337.854 694.34 322.361C687.268 327.197 681.27 333.441 676.723 340.703C675.411 342.798 674.217 344.951 673.062 347.143L672.573 348.063C672.573 348.063 672.573 347.946 672.436 348.474C671.947 349.61 671.477 350.745 671.046 351.88C669.377 356.261 668.023 360.755 666.994 365.328C666.009 369.518 665.355 373.779 665.037 378.072C664.586 382.848 664.391 387.644 664.371 392.42C664.371 396.159 664.371 399.585 664.606 402.873C668.11 398.43 671.418 393.83 674.433 389.092ZM690.993 339.607C691.381 339.165 691.668 338.644 691.835 338.08C692.018 338.954 692.174 339.835 692.305 340.723C691.928 340.285 691.485 339.909 690.993 339.607Z" fill="#1C9A83"/>
<path d="M674.26 400.309C676.792 399.004 679.278 397.653 681.718 396.257L683.675 395.102L684.889 394.319L686.103 393.477L687.512 392.439C695.37 386.672 701.888 379.273 706.617 370.75C701.251 371.095 696.014 372.541 691.231 374.998C689.842 375.703 688.51 376.486 687.179 377.288L686.612 377.621C686.612 377.621 686.612 377.621 686.416 377.797C685.79 378.248 685.163 378.717 684.556 379.187C682.24 380.987 680.056 382.95 678.018 385.06C676.135 387.003 674.407 389.09 672.85 391.304C671.069 393.731 669.405 396.257 667.859 398.841C666.645 400.798 665.588 402.756 664.609 404.556C667.839 403.245 671.069 401.894 674.26 400.309ZM699.179 378.952C699.535 378.842 699.862 378.655 700.138 378.404C699.955 378.939 699.76 379.468 699.551 379.99C699.482 379.626 699.357 379.276 699.179 378.952Z" fill="#1C9A83"/>
<path d="M666.036 385.628C666.036 381.125 665.88 376.623 665.527 372.14C665.436 370.979 665.332 369.817 665.214 368.656L664.96 366.366C664.862 365.7 664.607 363.958 664.607 364.036C664.451 363.123 664.294 362.209 664.138 361.296C661.475 346.021 655.539 331.503 646.735 318.74C643.429 326.626 641.783 335.108 641.9 343.659C641.9 346.125 642.096 348.592 642.311 351.058C642.311 351.724 642.311 351.998 642.311 352.096C642.311 352.193 642.311 351.939 642.409 352.507C642.605 353.72 642.84 354.934 643.075 356.128C644.056 360.718 645.364 365.232 646.99 369.635C648.435 373.681 650.196 377.608 652.256 381.38C654.468 385.628 656.875 389.777 659.459 393.81C661.417 396.961 663.374 399.8 665.332 402.482C665.762 396.883 666.036 391.246 666.036 385.628ZM653.234 335.026C653.322 334.444 653.282 333.849 653.117 333.284C653.743 333.923 654.35 334.576 654.937 335.241C654.384 335.082 653.81 335.01 653.234 335.026Z" fill="#1C9A83"/>
<path d="M674.433 389.092C676.88 385.314 679.17 381.439 681.303 377.465C681.852 376.434 682.393 375.396 682.928 374.352L683.946 372.277L684.905 370.124C685.271 369.276 685.63 368.421 685.982 367.56C691.996 353.273 694.847 337.854 694.34 322.361C687.268 327.197 681.27 333.441 676.723 340.703C675.411 342.798 674.217 344.951 673.062 347.143L672.573 348.063C672.573 348.063 672.573 347.946 672.436 348.474C671.947 349.61 671.477 350.745 671.046 351.88C669.377 356.261 668.023 360.755 666.994 365.328C666.009 369.518 665.355 373.779 665.037 378.072C664.586 382.848 664.391 387.644 664.371 392.42C664.371 396.159 664.371 399.585 664.606 402.873C668.11 398.43 671.418 393.83 674.433 389.092ZM690.993 339.607C691.381 339.165 691.668 338.644 691.835 338.08C692.018 338.954 692.174 339.835 692.305 340.723C691.928 340.285 691.485 339.909 690.993 339.607Z" fill="#1C9A83"/>
<path d="M674.26 400.309C676.792 399.004 679.278 397.653 681.718 396.257L683.675 395.102L684.889 394.319L686.103 393.477L687.512 392.439C695.37 386.672 701.888 379.273 706.617 370.75C701.251 371.095 696.014 372.541 691.231 374.998C689.842 375.703 688.51 376.486 687.179 377.288L686.612 377.621C686.612 377.621 686.612 377.621 686.416 377.797C685.79 378.248 685.163 378.717 684.556 379.187C682.24 380.987 680.056 382.95 678.018 385.06C676.135 387.003 674.407 389.09 672.85 391.304C671.069 393.731 669.405 396.257 667.859 398.841C666.645 400.798 665.588 402.756 664.609 404.556C667.839 403.245 671.069 401.894 674.26 400.309ZM699.179 378.952C699.535 378.842 699.862 378.655 700.138 378.404C699.955 378.939 699.76 379.468 699.551 379.99C699.482 379.626 699.357 379.276 699.179 378.952Z" fill="#1C9A83"/>
</svg>
