<svg width="645" height="426" viewBox="0 0 645 426" fill="none" xmlns="http://www.w3.org/2000/svg">
<path d="M5.416 43H14.888V14.072L38.696 43H49.448V0.311996H39.976V29.24L16.232 0.311996H5.416V43ZM74.2805 9.912C61.9285 9.912 53.4805 16.76 53.4805 26.808C53.4805 37.432 61.6085 44.216 74.3445 44.216C86.7605 44.216 95.0165 37.368 95.0165 27.064C95.0165 16.76 86.7605 9.912 74.2805 9.912ZM74.2805 16.696C80.7445 16.696 84.7765 20.728 84.7765 27.192C84.7765 33.464 80.6805 37.496 74.2805 37.496C67.7525 37.496 63.7205 33.528 63.7205 27.128C63.7205 20.728 67.8165 16.696 74.2805 16.696ZM106.665 43H116.009L123.945 24.44L131.753 43H141.097L154.473 11.128H144.361L136.617 31.16L129.001 11.128H119.401L111.593 31.16L104.041 11.128H93.033L106.665 43ZM152.551 43H156.839C156.839 45.88 155.175 49.272 152.551 51.96H158.375C161.575 48.248 162.727 45.176 162.727 40.12V33.464H152.551V43ZM181.092 43H190.82V26.808C190.82 23.992 191.076 22.84 191.908 21.432C193.252 19.256 195.748 17.976 198.628 17.976C203.364 17.976 205.22 20.472 205.22 26.808V43H214.948V26.808C214.948 23.928 215.396 22.2 216.484 20.728C217.828 18.936 220.132 17.912 222.82 17.912C225.252 17.912 227.236 18.744 228.196 20.28C228.964 21.496 229.348 23.544 229.348 26.808V43H239.076V24.76C239.076 20.024 238.884 18.488 237.988 16.632C236.068 12.536 231.844 10.296 226.02 10.296C220.324 10.296 216.484 12.088 213.156 16.44C212.132 14.2 211.3 13.176 209.764 12.216C207.78 11 205.22 10.36 202.148 10.36C197.348 10.36 194.083 11.832 190.308 15.736V11.128H181.092V43ZM270.072 33.208C267.896 36.408 265.848 37.496 261.88 37.496C258.36 37.496 255.8 36.472 254.072 34.36C253.048 33.016 252.664 31.864 252.472 29.368H281.4V28.024C281.4 16.888 273.72 9.912 261.496 9.912C249.592 9.912 242.168 16.632 242.168 27.384C242.168 37.88 249.528 44.216 261.624 44.216C271.288 44.216 277.56 40.632 281.08 33.208H270.072ZM252.984 23.416C253.688 19.064 256.888 16.696 261.816 16.696C266.616 16.696 269.944 19.192 270.712 23.416H252.984ZM322.455 43V0.311996H312.727V15.352C309.143 11.704 305.815 10.296 300.631 10.296C290.455 10.296 283.095 17.272 283.095 27C283.095 37.048 290.455 44.216 300.695 44.216C305.879 44.216 309.079 42.872 312.727 39.224V43H322.455ZM302.679 17.656C308.759 17.656 312.919 21.624 312.919 27.448C312.919 32.952 308.631 36.984 302.679 36.984C296.855 36.984 292.823 33.016 292.823 27.32C292.823 21.624 296.919 17.656 302.679 17.656ZM327.116 43H336.844V11.128H327.116V43ZM327.116 8.312H336.844V0.311996H327.116V8.312ZM376.551 11.128H366.823V27.064C366.823 30.2 366.375 31.928 365.031 33.4C363.559 35.128 360.999 36.216 358.247 36.216C355.879 36.216 353.767 35.384 352.551 33.976C351.591 32.824 351.271 31.48 351.271 28.856V11.128H341.479V30.968C341.479 35.64 341.735 37.048 343.079 38.968C345.127 42.04 349.351 43.832 354.407 43.832C357.671 43.832 360.743 43 362.919 41.592C364.263 40.696 365.159 39.8 366.823 37.688V43H376.551V11.128ZM381.217 43H390.945V26.808C390.945 23.992 391.201 22.84 392.033 21.432C393.377 19.256 395.873 17.976 398.753 17.976C403.489 17.976 405.345 20.472 405.345 26.808V43H415.073V26.808C415.073 23.928 415.521 22.2 416.609 20.728C417.953 18.936 420.257 17.912 422.945 17.912C425.377 17.912 427.361 18.744 428.321 20.28C429.089 21.496 429.473 23.544 429.473 26.808V43H439.201V24.76C439.201 20.024 439.009 18.488 438.113 16.632C436.193 12.536 431.969 10.296 426.145 10.296C420.449 10.296 416.609 12.088 413.281 16.44C412.257 14.2 411.425 13.176 409.889 12.216C407.905 11 405.345 10.36 402.273 10.36C397.473 10.36 394.208 11.832 390.433 15.736V11.128H381.217V43ZM14.44 117H23.784L31.72 98.44L39.528 117H48.872L62.248 85.128H52.136L44.392 105.16L36.776 85.128H27.176L19.368 105.16L11.816 85.128H0.808L14.44 117ZM81.343 83.912C68.991 83.912 60.543 90.76 60.543 100.808C60.543 111.432 68.671 118.216 81.407 118.216C93.823 118.216 102.079 111.368 102.079 101.064C102.079 90.76 93.823 83.912 81.343 83.912ZM81.343 90.696C87.807 90.696 91.839 94.728 91.839 101.192C91.839 107.464 87.743 111.496 81.343 111.496C74.815 111.496 70.783 107.528 70.783 101.128C70.783 94.728 74.879 90.696 81.343 90.696ZM105.129 117H114.857V101.064C114.857 98.632 115.113 97.16 115.881 95.816C117.161 93.448 120.105 91.912 123.369 91.912C125.673 91.912 127.785 92.68 129.001 94.024C130.025 95.24 130.409 96.52 130.409 99.272V117H140.201V97.16C140.201 92.552 139.881 91.016 138.601 89.16C136.553 86.088 132.329 84.296 127.273 84.296C124.009 84.296 120.937 85.064 118.761 86.536C117.417 87.432 116.521 88.328 114.857 90.44V85.128H105.129V117ZM163.17 109.384H159.842C156.386 109.384 155.682 108.616 155.682 104.904V92.168H163.17V85.128H155.682V75.976H145.954V85.128H140.834V92.168H145.954V105.608C145.954 111.112 146.146 112.264 147.554 113.928C149.346 116.168 152.098 117 157.73 117H163.17V109.384ZM178.967 117H188.695V113.224C192.407 116.872 195.543 118.216 200.727 118.216C210.967 118.216 218.327 111.048 218.327 101C218.327 91.272 210.967 84.296 200.791 84.296C195.607 84.296 192.215 85.704 188.695 89.352V74.312H178.967V117ZM198.743 91.656C204.567 91.656 208.599 95.624 208.599 101.32C208.599 107.016 204.567 110.984 198.743 110.984C192.663 110.984 188.503 107.016 188.503 101.192C188.503 95.688 192.791 91.656 198.743 91.656ZM247.885 107.208C245.709 110.408 243.661 111.496 239.693 111.496C236.173 111.496 233.613 110.472 231.885 108.36C230.861 107.016 230.477 105.864 230.285 103.368H259.213V102.024C259.213 90.888 251.533 83.912 239.309 83.912C227.405 83.912 219.981 90.632 219.981 101.384C219.981 111.88 227.341 118.216 239.437 118.216C249.101 118.216 255.373 114.632 258.893 107.208H247.885ZM230.797 97.416C231.501 93.064 234.701 90.696 239.629 90.696C244.429 90.696 247.757 93.192 248.525 97.416H230.797ZM286.737 95.56C287.057 93.448 287.505 92.68 288.529 92.04C289.937 91.144 291.857 90.696 294.289 90.696C298.577 90.696 301.073 92.04 301.073 94.28C301.073 96.264 299.601 96.904 293.137 97.672C283.089 98.824 283.089 98.824 280.465 99.848C276.817 101.256 274.705 104.328 274.705 108.36C274.705 114.44 279.633 118.216 287.633 118.216C293.457 118.216 297.617 116.68 301.265 113.224L302.097 117H311.889V116.04C310.993 115.08 310.737 113.736 310.737 110.28V97.032C310.737 91.912 309.969 89.608 307.537 87.56C304.785 85.256 299.857 83.912 293.905 83.912C288.273 83.912 283.921 85.128 280.849 87.56C278.033 89.736 276.817 91.912 276.625 95.56H286.737ZM301.009 103.176C301.009 105.8 300.433 107.336 299.089 108.488C296.849 110.28 293.521 111.432 290.449 111.432C286.993 111.432 284.945 110.088 284.945 107.912C284.945 106.504 285.777 105.288 287.249 104.712C288.401 104.264 289.745 103.944 292.497 103.56C298.641 102.728 298.961 102.664 301.009 101.64V103.176ZM329.279 117H339.007V101.896C339.007 98.376 339.775 96.456 341.823 94.92C343.423 93.768 345.919 93.064 348.415 93.064C349.247 93.064 349.887 93.128 351.167 93.384V84.296H350.335C344.383 84.296 341.759 85.768 339.007 90.568V85.128H329.279V117ZM379.197 107.208C377.021 110.408 374.973 111.496 371.005 111.496C367.485 111.496 364.925 110.472 363.197 108.36C362.173 107.016 361.789 105.864 361.597 103.368H390.525V102.024C390.525 90.888 382.845 83.912 370.621 83.912C358.717 83.912 351.293 90.632 351.293 101.384C351.293 111.88 358.653 118.216 370.749 118.216C380.413 118.216 386.685 114.632 390.205 107.208H379.197ZM362.109 97.416C362.813 93.064 366.013 90.696 370.941 90.696C375.741 90.696 379.069 93.192 379.837 97.416H362.109ZM391.516 106.504C391.836 110.28 392.86 112.392 395.164 114.248C398.556 116.936 403.292 118.216 409.884 118.216C415.708 118.216 419.868 117.192 423.132 115.016C425.948 113.096 427.676 109.96 427.676 106.632C427.676 101.256 423.964 97.928 417.052 97.288C403.42 95.944 402.652 95.688 402.652 93.64C402.652 91.72 404.828 90.632 408.732 90.632C411.1 90.632 413.212 91.08 414.428 91.848C415.452 92.488 415.772 93.128 416.028 94.664H426.588C426.524 92.168 426.14 90.888 424.924 89.288C422.364 85.96 416.476 83.912 409.308 83.912C403.996 83.912 399.836 84.872 396.764 86.856C393.884 88.648 392.028 92.04 392.028 95.304C392.028 97.672 392.924 99.656 394.652 101.256C396.38 102.856 399.068 103.752 403.228 104.264C410.972 105.096 413.916 105.48 415.26 105.8C416.54 106.184 417.244 107.016 417.244 108.04C417.244 110.152 414.684 111.432 410.332 111.432C405.148 111.432 402.844 109.96 402.396 106.504H391.516ZM449.295 109.384H445.967C442.511 109.384 441.807 108.616 441.807 104.904V92.168H449.295V85.128H441.807V75.976H432.079V85.128H426.959V92.168H432.079V105.608C432.079 111.112 432.271 112.264 433.679 113.928C435.471 116.168 438.223 117 443.855 117H449.295V109.384ZM451.229 117H460.957V101.896C460.957 98.376 461.725 96.456 463.773 94.92C465.373 93.768 467.869 93.064 470.365 93.064C471.197 93.064 471.837 93.128 473.117 93.384V84.296H472.285C466.333 84.296 463.709 85.768 460.957 90.568V85.128H451.229V117ZM474.779 117H484.507V85.128H474.779V117ZM474.779 82.312H484.507V74.312H474.779V82.312ZM516.661 105.352C515.445 109.32 512.373 111.496 507.957 111.496C501.941 111.496 497.909 107.336 497.909 101.128C497.909 94.792 501.813 90.696 507.893 90.696C513.013 90.696 515.893 93.064 516.661 97.8H526.517C526.069 94.088 525.045 91.848 522.677 89.416C519.093 85.704 514.101 83.912 507.445 83.912C502.005 83.912 497.397 85.256 494.005 87.816C489.973 90.952 487.605 95.816 487.605 101.064C487.605 111.24 495.605 118.216 507.317 118.216C512.565 118.216 517.749 116.68 521.077 114.248C524.021 112.072 525.493 109.576 526.517 105.352H516.661ZM547.495 109.384H544.167C540.711 109.384 540.007 108.616 540.007 104.904V92.168H547.495V85.128H540.007V75.976H530.279V85.128H525.159V92.168H530.279V105.608C530.279 111.112 530.471 112.264 531.879 113.928C533.671 116.168 536.423 117 542.055 117H547.495V109.384ZM549.429 117H559.157V85.128H549.429V117ZM549.429 82.312H559.157V74.312H549.429V82.312ZM583.056 83.912C570.704 83.912 562.256 90.76 562.256 100.808C562.256 111.432 570.384 118.216 583.12 118.216C595.536 118.216 603.792 111.368 603.792 101.064C603.792 90.76 595.536 83.912 583.056 83.912ZM583.056 90.696C589.52 90.696 593.552 94.728 593.552 101.192C593.552 107.464 589.456 111.496 583.056 111.496C576.528 111.496 572.496 107.528 572.496 101.128C572.496 94.728 576.592 90.696 583.056 90.696ZM606.842 117H616.57V101.064C616.57 98.632 616.826 97.16 617.594 95.816C618.874 93.448 621.818 91.912 625.082 91.912C627.386 91.912 629.498 92.68 630.714 94.024C631.738 95.24 632.122 96.52 632.122 99.272V117H641.914V97.16C641.914 92.552 641.594 91.016 640.314 89.16C638.266 86.088 634.042 84.296 628.986 84.296C625.722 84.296 622.65 85.064 620.474 86.536C619.13 87.432 618.234 88.328 616.57 90.44V85.128H606.842V117ZM23.208 183.384H19.88C16.424 183.384 15.72 182.616 15.72 178.904V166.168H23.208V159.128H15.72V149.976H5.992V159.128H0.872V166.168H5.992V179.608C5.992 185.112 6.184 186.264 7.592 187.928C9.384 190.168 12.136 191 17.768 191H23.208V183.384ZM44.4055 157.912C32.0535 157.912 23.6055 164.76 23.6055 174.808C23.6055 185.432 31.7335 192.216 44.4695 192.216C56.8855 192.216 65.1415 185.368 65.1415 175.064C65.1415 164.76 56.8855 157.912 44.4055 157.912ZM44.4055 164.696C50.8695 164.696 54.9015 168.728 54.9015 175.192C54.9015 181.464 50.8055 185.496 44.4055 185.496C37.8775 185.496 33.8455 181.528 33.8455 175.128C33.8455 168.728 37.9415 164.696 44.4055 164.696ZM100.358 183.384H97.03C93.574 183.384 92.87 182.616 92.87 178.904V166.168H100.358V159.128H92.87V149.976H83.142V159.128H78.022V166.168H83.142V179.608C83.142 185.112 83.334 186.264 84.742 187.928C86.534 190.168 89.286 191 94.918 191H100.358V183.384ZM128.847 181.208C126.671 184.408 124.623 185.496 120.655 185.496C117.135 185.496 114.575 184.472 112.847 182.36C111.823 181.016 111.439 179.864 111.247 177.368H140.175V176.024C140.175 164.888 132.495 157.912 120.271 157.912C108.367 157.912 100.943 164.632 100.943 175.384C100.943 185.88 108.303 192.216 120.399 192.216C130.063 192.216 136.335 188.632 139.855 181.208H128.847ZM111.759 171.416C112.463 167.064 115.663 164.696 120.591 164.696C125.391 164.696 128.719 167.192 129.487 171.416H111.759ZM153.838 169.56C154.158 167.448 154.606 166.68 155.63 166.04C157.038 165.144 158.958 164.696 161.39 164.696C165.678 164.696 168.174 166.04 168.174 168.28C168.174 170.264 166.702 170.904 160.238 171.672C150.19 172.824 150.19 172.824 147.566 173.848C143.918 175.256 141.806 178.328 141.806 182.36C141.806 188.44 146.734 192.216 154.734 192.216C160.558 192.216 164.718 190.68 168.366 187.224L169.198 191H178.99V190.04C178.094 189.08 177.838 187.736 177.838 184.28V171.032C177.838 165.912 177.069 163.608 174.638 161.56C171.886 159.256 166.958 157.912 161.006 157.912C155.374 157.912 151.022 159.128 147.95 161.56C145.134 163.736 143.918 165.912 143.726 169.56H153.838ZM168.11 177.176C168.11 179.8 167.534 181.336 166.19 182.488C163.95 184.28 160.622 185.432 157.55 185.432C154.094 185.432 152.046 184.088 152.046 181.912C152.046 180.504 152.878 179.288 154.35 178.712C155.502 178.264 156.846 177.944 159.598 177.56C165.742 176.728 166.062 176.664 168.11 175.64V177.176ZM210.037 179.352C208.821 183.32 205.749 185.496 201.333 185.496C195.317 185.496 191.285 181.336 191.285 175.128C191.285 168.792 195.189 164.696 201.269 164.696C206.389 164.696 209.269 167.064 210.037 171.8H219.893C219.445 168.088 218.421 165.848 216.053 163.416C212.469 159.704 207.477 157.912 200.821 157.912C195.381 157.912 190.773 159.256 187.381 161.816C183.349 164.952 180.981 169.816 180.981 175.064C180.981 185.24 188.981 192.216 200.693 192.216C205.941 192.216 211.125 190.68 214.453 188.248C217.397 186.072 218.869 183.576 219.893 179.352H210.037ZM222.567 191H232.295V175.896C232.295 172.824 232.423 171.928 232.871 170.648C234.023 167.768 237.159 165.912 240.807 165.912C243.751 165.912 246.183 167.128 247.143 169.048C247.655 170.072 247.847 171.16 247.847 173.272V191H257.639V171.16C257.639 166.552 257.383 165.08 256.039 163.16C253.991 160.088 249.767 158.296 244.711 158.296C241.447 158.296 238.375 159.064 236.199 160.536C234.855 161.432 233.959 162.328 232.295 164.44V148.312H222.567V191ZM359.136 179.352C357.92 183.32 354.848 185.496 350.432 185.496C344.416 185.496 340.384 181.336 340.384 175.128C340.384 168.792 344.288 164.696 350.368 164.696C355.488 164.696 358.368 167.064 359.136 171.8H368.992C368.544 168.088 367.52 165.848 365.152 163.416C361.568 159.704 356.576 157.912 349.92 157.912C344.48 157.912 339.872 159.256 336.48 161.816C332.448 164.952 330.08 169.816 330.08 175.064C330.08 185.24 338.08 192.216 349.792 192.216C355.04 192.216 360.224 190.68 363.552 188.248C366.496 186.072 367.968 183.576 368.992 179.352H359.136ZM390.931 157.912C378.579 157.912 370.131 164.76 370.131 174.808C370.131 185.432 378.259 192.216 390.995 192.216C403.411 192.216 411.667 185.368 411.667 175.064C411.667 164.76 403.411 157.912 390.931 157.912ZM390.931 164.696C397.395 164.696 401.427 168.728 401.427 175.192C401.427 181.464 397.331 185.496 390.931 185.496C384.403 185.496 380.371 181.528 380.371 175.128C380.371 168.728 384.467 164.696 390.931 164.696ZM414.717 191H424.445V175.064C424.445 172.632 424.701 171.16 425.469 169.816C426.749 167.448 429.693 165.912 432.957 165.912C435.261 165.912 437.373 166.68 438.589 168.024C439.613 169.24 439.997 170.52 439.997 173.272V191H449.789V171.16C449.789 166.552 449.469 165.016 448.189 163.16C446.141 160.088 441.917 158.296 436.861 158.296C433.597 158.296 430.525 159.064 428.349 160.536C427.005 161.432 426.109 162.328 424.445 164.44V159.128H414.717V191ZM481.974 179.352C480.758 183.32 477.686 185.496 473.27 185.496C467.254 185.496 463.222 181.336 463.222 175.128C463.222 168.792 467.126 164.696 473.206 164.696C478.326 164.696 481.206 167.064 481.974 171.8H491.83C491.382 168.088 490.358 165.848 487.99 163.416C484.406 159.704 479.414 157.912 472.758 157.912C467.318 157.912 462.71 159.256 459.318 161.816C455.286 164.952 452.918 169.816 452.918 175.064C452.918 185.24 460.918 192.216 472.63 192.216C477.878 192.216 483.062 190.68 486.39 188.248C489.334 186.072 490.806 183.576 491.83 179.352H481.974ZM520.872 181.208C518.696 184.408 516.648 185.496 512.68 185.496C509.16 185.496 506.6 184.472 504.872 182.36C503.848 181.016 503.464 179.864 503.272 177.368H532.2V176.024C532.2 164.888 524.52 157.912 512.296 157.912C500.392 157.912 492.968 164.632 492.968 175.384C492.968 185.88 500.328 192.216 512.424 192.216C522.088 192.216 528.36 188.632 531.88 181.208H520.872ZM503.784 171.416C504.488 167.064 507.688 164.696 512.616 164.696C517.416 164.696 520.744 167.192 521.512 171.416H503.784ZM535.367 202.456H545.031V187.48C548.935 190.872 552.199 192.216 556.743 192.216C560.967 192.216 564.423 191.064 567.623 188.696C571.975 185.368 574.087 181.016 574.087 175.32C574.087 165.272 566.919 158.296 556.615 158.296C551.495 158.296 547.911 159.768 545.095 163.032V159.128H535.367V202.456ZM554.631 165.656C560.327 165.656 564.295 169.624 564.295 175.32C564.295 180.952 560.327 184.92 554.631 184.92C548.359 184.92 544.391 181.144 544.391 175.128C544.391 169.432 548.487 165.656 554.631 165.656ZM595.783 183.384H592.455C588.999 183.384 588.295 182.616 588.295 178.904V166.168H595.783V159.128H588.295V149.976H578.567V159.128H573.447V166.168H578.567V179.608C578.567 185.112 578.759 186.264 580.167 187.928C581.959 190.168 584.711 191 590.343 191H595.783V183.384ZM595.541 180.504C595.861 184.28 596.885 186.392 599.189 188.248C602.581 190.936 607.317 192.216 613.909 192.216C619.733 192.216 623.893 191.192 627.157 189.016C629.972 187.096 631.701 183.96 631.701 180.632C631.701 175.256 627.989 171.928 621.077 171.288C607.445 169.944 606.677 169.688 606.677 167.64C606.677 165.72 608.853 164.632 612.757 164.632C615.125 164.632 617.237 165.08 618.453 165.848C619.477 166.488 619.797 167.128 620.053 168.664H630.613C630.549 166.168 630.165 164.888 628.949 163.288C626.389 159.96 620.501 157.912 613.333 157.912C608.021 157.912 603.861 158.872 600.789 160.856C597.909 162.648 596.053 166.04 596.053 169.304C596.053 171.672 596.949 173.656 598.677 175.256C600.405 176.856 603.093 177.752 607.253 178.264C614.997 179.096 617.941 179.48 619.285 179.8C620.565 180.184 621.269 181.016 621.269 182.04C621.269 184.152 618.709 185.432 614.357 185.432C609.173 185.432 606.869 183.96 606.421 180.504H595.541ZM634.013 191H644.189V181.464H634.013V191ZM0.936 339H11.624L15.976 329.4H35.944L40.488 339H52.072L31.144 296.312H21.416L0.936 339ZM19.496 321.848L25.896 307.64L32.488 321.848H19.496ZM52.6415 339H62.3695V296.312H52.6415V339ZM67.004 339H76.732V296.312H67.004V339ZM97.085 350.456H103.165C106.429 350.456 109.245 349.816 110.909 348.792C112.445 347.768 113.661 346.04 115.325 342.584L132.285 307.128H121.661L112.253 328.632L102.525 307.128H91.133L107.069 338.488C105.341 342.328 104.637 342.84 101.181 342.84H97.085V350.456ZM150.606 305.912C138.254 305.912 129.806 312.76 129.806 322.808C129.806 333.432 137.934 340.216 150.67 340.216C163.086 340.216 171.342 333.368 171.342 323.064C171.342 312.76 163.086 305.912 150.606 305.912ZM150.606 312.696C157.07 312.696 161.102 316.728 161.102 323.192C161.102 329.464 157.006 333.496 150.606 333.496C144.078 333.496 140.046 329.528 140.046 323.128C140.046 316.728 144.142 312.696 150.606 312.696ZM209.464 307.128H199.736V323.064C199.736 326.2 199.288 327.928 197.944 329.4C196.472 331.128 193.912 332.216 191.16 332.216C188.792 332.216 186.68 331.384 185.464 329.976C184.504 328.824 184.184 327.48 184.184 324.856V307.128H174.392V326.968C174.392 331.64 174.648 333.048 175.992 334.968C178.04 338.04 182.264 339.832 187.32 339.832C190.584 339.832 193.656 339 195.832 337.592C197.176 336.696 198.072 335.8 199.736 333.688V339H209.464V307.128ZM237.527 339H246.871L254.807 320.44L262.615 339H271.959L285.335 307.128H275.223L267.479 327.16L259.863 307.128H250.263L242.455 327.16L234.903 307.128H223.895L237.527 339ZM285.917 339H295.645V307.128H285.917V339ZM285.917 304.312H295.645V296.312H285.917V304.312ZM300.279 339H310.007V296.312H300.279V339ZM314.641 339H324.369V296.312H314.641V339ZM342.866 339H352.594V323.064C352.594 320.632 352.85 319.16 353.618 317.816C354.898 315.448 357.842 313.912 361.106 313.912C363.41 313.912 365.522 314.68 366.738 316.024C367.762 317.24 368.146 318.52 368.146 321.272V339H377.938V319.16C377.938 314.552 377.618 313.016 376.338 311.16C374.29 308.088 370.066 306.296 365.01 306.296C361.746 306.296 358.674 307.064 356.498 308.536C355.154 309.432 354.258 310.328 352.594 312.44V307.128H342.866V339ZM408.972 329.208C406.796 332.408 404.748 333.496 400.78 333.496C397.26 333.496 394.7 332.472 392.972 330.36C391.948 329.016 391.564 327.864 391.372 325.368H420.3V324.024C420.3 312.888 412.62 305.912 400.396 305.912C388.492 305.912 381.068 312.632 381.068 323.384C381.068 333.88 388.428 340.216 400.524 340.216C410.188 340.216 416.46 336.632 419.98 329.208H408.972ZM391.884 319.416C392.588 315.064 395.788 312.696 400.716 312.696C405.516 312.696 408.844 315.192 409.612 319.416H391.884ZM449.835 329.208C447.659 332.408 445.611 333.496 441.643 333.496C438.123 333.496 435.562 332.472 433.835 330.36C432.811 329.016 432.427 327.864 432.235 325.368H461.163V324.024C461.163 312.888 453.483 305.912 441.259 305.912C429.355 305.912 421.931 312.632 421.931 323.384C421.931 333.88 429.291 340.216 441.387 340.216C451.051 340.216 457.323 336.632 460.843 329.208H449.835ZM432.747 319.416C433.451 315.064 436.651 312.696 441.579 312.696C446.379 312.696 449.707 315.192 450.475 319.416H432.747ZM502.217 339V296.312H492.489V311.352C488.905 307.704 485.577 306.296 480.393 306.296C470.217 306.296 462.857 313.272 462.857 323C462.857 333.048 470.217 340.216 480.457 340.216C485.641 340.216 488.841 338.872 492.489 335.224V339H502.217ZM482.441 313.656C488.521 313.656 492.681 317.624 492.681 323.448C492.681 328.952 488.393 332.984 482.441 332.984C476.617 332.984 472.585 329.016 472.585 323.32C472.585 317.624 476.681 313.656 482.441 313.656ZM520.742 339H530.47V307.128H520.742V339ZM520.742 304.312H530.47V296.312H520.742V304.312ZM532.928 328.504C533.248 332.28 534.272 334.392 536.576 336.248C539.968 338.936 544.704 340.216 551.296 340.216C557.12 340.216 561.28 339.192 564.544 337.016C567.36 335.096 569.088 331.96 569.088 328.632C569.088 323.256 565.376 319.928 558.464 319.288C544.832 317.944 544.064 317.688 544.064 315.64C544.064 313.72 546.24 312.632 550.144 312.632C552.512 312.632 554.624 313.08 555.84 313.848C556.864 314.488 557.184 315.128 557.44 316.664H568C567.936 314.168 567.552 312.888 566.336 311.288C563.776 307.96 557.888 305.912 550.72 305.912C545.408 305.912 541.248 306.872 538.176 308.856C535.296 310.648 533.44 314.04 533.44 317.304C533.44 319.672 534.336 321.656 536.064 323.256C537.792 324.856 540.48 325.752 544.64 326.264C552.384 327.096 555.328 327.48 556.672 327.8C557.952 328.184 558.656 329.016 558.656 330.04C558.656 332.152 556.096 333.432 551.744 333.432C546.56 333.432 544.256 331.96 543.808 328.504H532.928ZM6.76 424.456H12.84C16.104 424.456 18.92 423.816 20.584 422.792C22.12 421.768 23.336 420.04 25 416.584L41.96 381.128H31.336L21.928 402.632L12.2 381.128H0.808L16.744 412.488C15.016 416.328 14.312 416.84 10.856 416.84H6.76V424.456ZM60.2805 379.912C47.9285 379.912 39.4805 386.76 39.4805 396.808C39.4805 407.432 47.6085 414.216 60.3445 414.216C72.7605 414.216 81.0165 407.368 81.0165 397.064C81.0165 386.76 72.7605 379.912 60.2805 379.912ZM60.2805 386.696C66.7445 386.696 70.7765 390.728 70.7765 397.192C70.7765 403.464 66.6805 407.496 60.2805 407.496C53.7525 407.496 49.7205 403.528 49.7205 397.128C49.7205 390.728 53.8165 386.696 60.2805 386.696ZM119.139 381.128H109.41V397.064C109.41 400.2 108.962 401.928 107.618 403.4C106.146 405.128 103.587 406.216 100.834 406.216C98.4665 406.216 96.3545 405.384 95.1385 403.976C94.1785 402.824 93.8585 401.48 93.8585 398.856V381.128H84.0665V400.968C84.0665 405.64 84.3225 407.048 85.6665 408.968C87.7145 412.04 91.9385 413.832 96.9945 413.832C100.258 413.832 103.33 413 105.507 411.592C106.851 410.696 107.747 409.8 109.41 407.688V413H119.139V381.128ZM123.804 413H133.532V397.896C133.532 394.376 134.3 392.456 136.348 390.92C137.948 389.768 140.444 389.064 142.94 389.064C143.772 389.064 144.412 389.128 145.692 389.384V380.296H144.86C138.908 380.296 136.284 381.768 133.532 386.568V381.128H123.804V413ZM161.217 413H170.945V381.128H161.217V413ZM161.217 378.312H170.945V370.312H161.217V378.312ZM175.579 413H185.307V396.808C185.307 393.992 185.563 392.84 186.395 391.432C187.739 389.256 190.235 387.976 193.115 387.976C197.851 387.976 199.707 390.472 199.707 396.808V413H209.435V396.808C209.435 393.928 209.883 392.2 210.971 390.728C212.315 388.936 214.619 387.912 217.307 387.912C219.739 387.912 221.723 388.744 222.683 390.28C223.451 391.496 223.835 393.544 223.835 396.808V413H233.563V394.76C233.563 390.024 233.371 388.488 232.475 386.632C230.555 382.536 226.331 380.296 220.507 380.296C214.811 380.296 210.971 382.088 207.643 386.44C206.619 384.2 205.787 383.176 204.251 382.216C202.267 381 199.707 380.36 196.635 380.36C191.835 380.36 188.571 381.832 184.795 385.736V381.128H175.579V413ZM248.688 391.56C249.008 389.448 249.456 388.68 250.48 388.04C251.888 387.144 253.808 386.696 256.24 386.696C260.528 386.696 263.024 388.04 263.024 390.28C263.024 392.264 261.552 392.904 255.088 393.672C245.04 394.824 245.04 394.824 242.416 395.848C238.768 397.256 236.656 400.328 236.656 404.36C236.656 410.44 241.584 414.216 249.584 414.216C255.408 414.216 259.568 412.68 263.216 409.224L264.048 413H273.84V412.04C272.944 411.08 272.688 409.736 272.688 406.28V393.032C272.688 387.912 271.92 385.608 269.488 383.56C266.736 381.256 261.808 379.912 255.856 379.912C250.224 379.912 245.872 381.128 242.8 383.56C239.984 385.736 238.768 387.912 238.576 391.56H248.688ZM262.96 399.176C262.96 401.8 262.384 403.336 261.04 404.488C258.8 406.28 255.472 407.432 252.4 407.432C248.944 407.432 246.896 406.088 246.896 403.912C246.896 402.504 247.728 401.288 249.2 400.712C250.352 400.264 251.696 399.944 254.448 399.56C260.592 398.728 260.912 398.664 262.96 397.64V399.176ZM314.166 381.128H304.502V385.48C301.686 381.896 298.038 380.296 292.79 380.296C282.742 380.296 275.83 387.016 275.83 396.68C275.83 406.024 283.062 412.872 292.854 412.872C297.91 412.872 301.366 411.4 304.502 407.88V411.272C304.502 416.136 301.238 418.696 295.222 418.696C290.742 418.696 288.246 417.288 287.798 414.408H277.046C277.43 417.288 277.942 418.696 279.542 420.36C282.422 423.432 287.734 425.032 295.222 425.032C302.966 425.032 307.702 423.496 310.966 419.848C313.398 417.096 314.166 414.472 314.166 408.712V381.128ZM295.222 387.72C301.11 387.72 304.822 391.048 304.822 396.424C304.822 402.12 301.238 405.512 295.158 405.512C289.078 405.512 285.558 402.12 285.558 396.36C285.558 391.048 289.334 387.72 295.222 387.72ZM318.792 413H328.52V381.128H318.792V413ZM318.792 378.312H328.52V370.312H318.792V378.312ZM333.154 413H342.882V397.064C342.882 394.632 343.138 393.16 343.906 391.816C345.186 389.448 348.13 387.912 351.394 387.912C353.698 387.912 355.81 388.68 357.026 390.024C358.05 391.24 358.434 392.52 358.434 395.272V413H368.226V393.16C368.226 388.552 367.906 387.016 366.626 385.16C364.578 382.088 360.354 380.296 355.298 380.296C352.034 380.296 348.962 381.064 346.786 382.536C345.442 383.432 344.546 384.328 342.882 386.44V381.128H333.154V413ZM383.387 391.56C383.707 389.448 384.155 388.68 385.179 388.04C386.587 387.144 388.507 386.696 390.939 386.696C395.227 386.696 397.723 388.04 397.723 390.28C397.723 392.264 396.251 392.904 389.787 393.672C379.739 394.824 379.739 394.824 377.115 395.848C373.467 397.256 371.355 400.328 371.355 404.36C371.355 410.44 376.283 414.216 384.283 414.216C390.107 414.216 394.267 412.68 397.915 409.224L398.747 413H408.539V412.04C407.643 411.08 407.387 409.736 407.387 406.28V393.032C407.387 387.912 406.619 385.608 404.187 383.56C401.435 381.256 396.507 379.912 390.555 379.912C384.923 379.912 380.571 381.128 377.499 383.56C374.683 385.736 373.467 387.912 373.275 391.56H383.387ZM397.659 399.176C397.659 401.8 397.083 403.336 395.739 404.488C393.499 406.28 390.171 407.432 387.099 407.432C383.643 407.432 381.595 406.088 381.595 403.912C381.595 402.504 382.427 401.288 383.899 400.712C385.051 400.264 386.395 399.944 389.147 399.56C395.291 398.728 395.611 398.664 397.659 397.64V399.176ZM430.371 405.384H427.043C423.587 405.384 422.883 404.616 422.883 400.904V388.168H430.371V381.128H422.883V371.976H413.155V381.128H408.035V388.168H413.155V401.608C413.155 407.112 413.347 408.264 414.755 409.928C416.547 412.168 419.299 413 424.931 413H430.371V405.384ZM432.304 413H442.032V381.128H432.304V413ZM432.304 378.312H442.032V370.312H432.304V378.312ZM465.931 379.912C453.579 379.912 445.131 386.76 445.131 396.808C445.131 407.432 453.259 414.216 465.995 414.216C478.411 414.216 486.667 407.368 486.667 397.064C486.667 386.76 478.411 379.912 465.931 379.912ZM465.931 386.696C472.395 386.696 476.427 390.728 476.427 397.192C476.427 403.464 472.331 407.496 465.931 407.496C459.403 407.496 455.371 403.528 455.371 397.128C455.371 390.728 459.467 386.696 465.931 386.696ZM489.717 413H499.445V397.064C499.445 394.632 499.701 393.16 500.469 391.816C501.749 389.448 504.693 387.912 507.957 387.912C510.261 387.912 512.373 388.68 513.589 390.024C514.613 391.24 514.997 392.52 514.997 395.272V413H524.789V393.16C524.789 388.552 524.469 387.016 523.189 385.16C521.141 382.088 516.917 380.296 511.861 380.296C508.597 380.296 505.525 381.064 503.349 382.536C502.005 383.432 501.109 384.328 499.445 386.44V381.128H489.717V413ZM529.326 413H539.502V403.464H529.326V413Z" fill="#013EA6"/>
<path d="M5.416 265H32.232C37.352 265 40.296 264.36 42.984 262.632C46.184 260.52 48.104 256.68 48.104 252.456C48.104 249.256 46.952 246.504 44.904 244.904C43.688 243.88 42.536 243.368 39.784 242.6C44.136 240.488 46.12 237.608 46.12 233.32C46.12 229.864 44.584 226.6 42.152 224.68C39.976 223.016 37.096 222.312 32.744 222.312H5.416V265ZM15.144 257.384V246.952H29.48C32.424 246.952 33.896 247.208 35.048 247.848C36.392 248.68 37.224 250.28 37.224 252.136C37.224 254.184 36.136 256.104 34.536 256.808C33.448 257.256 32.424 257.384 29.416 257.384H15.144ZM15.144 239.656V229.928H28.264C30.888 229.928 32.168 230.184 33.256 230.824C34.536 231.592 35.368 233.192 35.368 234.856C35.368 238.184 33.192 239.656 28.2 239.656H15.144ZM77.5095 255.208C75.3335 258.408 73.2855 259.496 69.3175 259.496C65.7975 259.496 63.2375 258.472 61.5095 256.36C60.4855 255.016 60.1015 253.864 59.9095 251.368H88.8375V250.024C88.8375 238.888 81.1575 231.912 68.9335 231.912C57.0295 231.912 49.6055 238.632 49.6055 249.384C49.6055 259.88 56.9655 266.216 69.0615 266.216C78.7255 266.216 84.9975 262.632 88.5175 255.208H77.5095ZM60.4215 245.416C61.1255 241.064 64.3255 238.696 69.2535 238.696C74.0535 238.696 77.3815 241.192 78.1495 245.416H60.4215ZM110.433 257.384H107.105C103.649 257.384 102.945 256.616 102.945 252.904V240.168H110.433V233.128H102.945V223.976H93.217V233.128H88.097V240.168H93.217V253.608C93.217 259.112 93.409 260.264 94.817 261.928C96.609 264.168 99.361 265 104.993 265H110.433V257.384ZM130.671 257.384H127.343C123.887 257.384 123.183 256.616 123.183 252.904V240.168H130.671V233.128H123.183V223.976H113.455V233.128H108.335V240.168H113.455V253.608C113.455 259.112 113.647 260.264 115.055 261.928C116.847 264.168 119.599 265 125.231 265H130.671V257.384ZM159.159 255.208C156.983 258.408 154.935 259.496 150.967 259.496C147.447 259.496 144.887 258.472 143.159 256.36C142.135 255.016 141.751 253.864 141.559 251.368H170.487V250.024C170.487 238.888 162.807 231.912 150.583 231.912C138.679 231.912 131.255 238.632 131.255 249.384C131.255 259.88 138.615 266.216 150.711 266.216C160.375 266.216 166.647 262.632 170.167 255.208H159.159ZM142.071 245.416C142.775 241.064 145.975 238.696 150.903 238.696C155.703 238.696 159.031 241.192 159.799 245.416H142.071ZM173.654 265H183.382V249.896C183.382 246.376 184.15 244.456 186.198 242.92C187.798 241.768 190.294 241.064 192.79 241.064C193.622 241.064 194.262 241.128 195.542 241.384V232.296H194.71C188.758 232.296 186.134 233.768 183.382 238.568V233.128H173.654V265ZM237.435 255.208C235.259 258.408 233.211 259.496 229.243 259.496C225.723 259.496 223.163 258.472 221.435 256.36C220.411 255.016 220.027 253.864 219.835 251.368H248.763V250.024C248.763 238.888 241.083 231.912 228.859 231.912C216.955 231.912 209.531 238.632 209.531 249.384C209.531 259.88 216.891 266.216 228.987 266.216C238.651 266.216 244.923 262.632 248.443 255.208H237.435ZM220.347 245.416C221.051 241.064 224.251 238.696 229.179 238.696C233.979 238.696 237.307 241.192 238.075 245.416H220.347ZM289.817 265V222.312H280.089V237.352C276.505 233.704 273.177 232.296 267.993 232.296C257.817 232.296 250.457 239.272 250.457 249C250.457 259.048 257.817 266.216 268.057 266.216C273.241 266.216 276.441 264.872 280.089 261.224V265H289.817ZM270.041 239.656C276.121 239.656 280.281 243.624 280.281 249.448C280.281 254.952 275.993 258.984 270.041 258.984C264.217 258.984 260.185 255.016 260.185 249.32C260.185 243.624 264.281 239.656 270.041 239.656ZM329.551 233.128H319.823V249.064C319.823 252.2 319.375 253.928 318.031 255.4C316.559 257.128 313.999 258.216 311.247 258.216C308.879 258.216 306.767 257.384 305.551 255.976C304.591 254.824 304.271 253.48 304.271 250.856V233.128H294.479V252.968C294.479 257.64 294.735 259.048 296.079 260.968C298.127 264.04 302.351 265.832 307.407 265.832C310.671 265.832 313.743 265 315.919 263.592C317.263 262.696 318.159 261.8 319.823 259.688V265H329.551V233.128ZM361.737 253.352C360.521 257.32 357.449 259.496 353.033 259.496C347.017 259.496 342.985 255.336 342.985 249.128C342.985 242.792 346.889 238.696 352.969 238.696C358.089 238.696 360.969 241.064 361.737 245.8H371.593C371.145 242.088 370.121 239.848 367.753 237.416C364.169 233.704 359.177 231.912 352.521 231.912C347.081 231.912 342.473 233.256 339.081 235.816C335.049 238.952 332.681 243.816 332.681 249.064C332.681 259.24 340.681 266.216 352.393 266.216C357.641 266.216 362.825 264.68 366.153 262.248C369.097 260.072 370.569 257.576 371.593 253.352H361.737ZM384.762 243.56C385.082 241.448 385.53 240.68 386.554 240.04C387.962 239.144 389.882 238.696 392.314 238.696C396.602 238.696 399.098 240.04 399.098 242.28C399.098 244.264 397.626 244.904 391.162 245.672C381.114 246.824 381.114 246.824 378.49 247.848C374.842 249.256 372.73 252.328 372.73 256.36C372.73 262.44 377.658 266.216 385.658 266.216C391.482 266.216 395.642 264.68 399.29 261.224L400.122 265H409.914V264.04C409.018 263.08 408.762 261.736 408.762 258.28V245.032C408.762 239.912 407.994 237.608 405.562 235.56C402.81 233.256 397.882 231.912 391.93 231.912C386.298 231.912 381.946 233.128 378.874 235.56C376.058 237.736 374.842 239.912 374.65 243.56H384.762ZM399.034 251.176C399.034 253.8 398.458 255.336 397.114 256.488C394.874 258.28 391.546 259.432 388.474 259.432C385.018 259.432 382.97 258.088 382.97 255.912C382.97 254.504 383.802 253.288 385.274 252.712C386.426 252.264 387.77 251.944 390.522 251.56C396.666 250.728 396.986 250.664 399.034 249.64V251.176ZM431.746 257.384H428.418C424.962 257.384 424.258 256.616 424.258 252.904V240.168H431.746V233.128H424.258V223.976H414.53V233.128H409.41V240.168H414.53V253.608C414.53 259.112 414.722 260.264 416.13 261.928C417.922 264.168 420.674 265 426.306 265H431.746V257.384ZM433.679 265H443.407V233.128H433.679V265ZM433.679 230.312H443.407V222.312H433.679V230.312ZM467.306 231.912C454.954 231.912 446.506 238.76 446.506 248.808C446.506 259.432 454.634 266.216 467.37 266.216C479.786 266.216 488.042 259.368 488.042 249.064C488.042 238.76 479.786 231.912 467.306 231.912ZM467.306 238.696C473.77 238.696 477.802 242.728 477.802 249.192C477.802 255.464 473.706 259.496 467.306 259.496C460.778 259.496 456.746 255.528 456.746 249.128C456.746 242.728 460.842 238.696 467.306 238.696ZM491.092 265H500.82V249.064C500.82 246.632 501.076 245.16 501.844 243.816C503.124 241.448 506.068 239.912 509.332 239.912C511.636 239.912 513.748 240.68 514.964 242.024C515.988 243.24 516.372 244.52 516.372 247.272V265H526.164V245.16C526.164 240.552 525.844 239.016 524.564 237.16C522.516 234.088 518.292 232.296 513.236 232.296C509.972 232.296 506.9 233.064 504.724 234.536C503.38 235.432 502.484 236.328 500.82 238.44V233.128H491.092V265ZM540.557 265H550.797V255.592H540.557V265ZM550.797 253.8C550.797 250.216 551.373 249.128 554.445 246.952C558.797 244.072 558.797 244.072 560.013 242.984C562.701 240.744 564.109 237.928 564.109 234.6C564.109 227.048 557.261 222.312 546.253 222.312C539.661 222.312 534.541 224.168 531.469 227.624C529.165 230.248 528.333 232.872 528.205 238.12H538.381C538.445 232.744 541.197 229.992 546.445 229.992C550.669 229.992 553.485 232.04 553.485 235.112C553.485 237.48 552.333 238.952 548.237 241.832C541.709 246.312 540.813 247.72 540.557 253.8H550.797Z" fill="#71A5FF"/>
</svg>
