<svg width="46" height="48" viewBox="0 0 46 48" fill="none" xmlns="http://www.w3.org/2000/svg">
<path d="M5.27512 43.6214C2.93901 45.9588 0.624169 47.432 0.104294 46.9121C-0.415581 46.3923 1.05895 44.0774 3.39506 41.7413C5.73117 39.4039 8.04601 37.9307 8.56589 38.4505C9.08443 38.9704 7.61123 41.2839 5.27512 43.6214Z" fill="#C1694F"/>
<path d="M8.56453 38.4518L5.74312 35.6304C5.74312 35.6304 4.30316 37.4825 2.7063 40.4568C1.50966 42.6852 1.04297 44.092 1.04297 44.092L1.983 45.032L2.92303 45.972C2.92303 45.972 4.33108 45.504 6.55816 44.3087C9.53248 42.7118 11.3833 41.2719 11.3833 41.2719L8.56453 38.4518Z" fill="#FFCC4D"/>
<path d="M45.2323 1.78425C40.5321 -2.91723 21.0813 15.4752 20.1413 16.4152C19.2013 17.3552 18.4075 18.2075 18.9074 18.7074L16.0874 21.5275C13.2659 24.3489 4.80434 34.6893 5.74437 35.6293L8.56579 38.4507L11.3859 41.2708C12.3259 42.2108 22.6676 33.7492 25.489 30.9291L28.3091 28.1091C28.809 28.609 29.6613 27.8139 30.6013 26.8739C31.5413 25.9352 49.9337 6.48573 45.2323 1.78425Z" fill="#31373D"/>
<path d="M30.6009 26.8751C30.7139 26.7634 31.0822 26.3765 31.63 25.7888L21.2285 15.3887C20.6408 15.9351 20.2553 16.3048 20.1422 16.4178C19.2022 17.3578 18.4084 18.2101 18.9084 18.71L23.6085 23.4115L28.31 28.1116C28.8086 28.6089 29.6609 27.8151 30.6009 26.8751Z" fill="#FFCC4D"/>
<path d="M41.4992 1.81196C40.2667 0.579417 38.622 -0.712957 36.2712 0.462412C33.9205 1.63778 26.5478 6.36718 23.1374 9.77628C21.3797 11.534 21.4794 12.5711 22.1389 12.6549C23.2305 12.7958 23.9604 12.7719 24.9603 11.7733C25.9575 10.7748 26.1343 9.07026 26.1343 9.07026C26.1343 9.07026 30.1896 5.95633 33.3913 4.04702C36.5943 2.13638 37.7364 1.81063 38.856 2.93016C39.9755 4.04968 41.4992 1.81196 41.4992 1.81196Z" fill="#FFAC33"/>
<path d="M38.3828 2.45822L44.5562 8.63157C45.0255 7.68888 45.3951 6.7914 45.6438 5.95774L41.0566 1.37061C40.223 1.62057 39.3268 1.9902 38.3828 2.45822Z" fill="#FFAC33"/>
</svg>
