<svg width="56" height="56" viewBox="0 0 56 56" fill="none" xmlns="http://www.w3.org/2000/svg">
<path d="M28 56C43.464 56 56 43.464 56 28C56 12.536 43.464 0 28 0C12.536 0 0 12.536 0 28C0 43.464 12.536 56 28 56Z" fill="url(#paint0_linear)"/>
<mask id="mask0" mask-type="alpha" maskUnits="userSpaceOnUse" x="0" y="0" width="56" height="56">
<path d="M28 56C43.464 56 56 43.464 56 28C56 12.536 43.464 0 28 0C12.536 0 0 12.536 0 28C0 43.464 12.536 56 28 56Z" fill="url(#paint1_linear)"/>
</mask>
<g mask="url(#mask0)">
<path d="M28 12.25C21.1075 12.25 15.5 17.8213 15.5 24.6694V45.3683H16.3333L23.8333 42.8844V40.4006H24.3858C22.0775 39.2936 20.3575 37.1682 19.8342 34.6049H19.6667C17.8258 34.6049 16.3333 33.122 16.3333 31.293C16.3333 29.4641 17.8258 27.9812 19.6667 27.9812V27.1532H21.9642C24.2275 27.1532 26.3992 26.2599 28 24.6694C29.6008 26.2599 31.7717 27.1532 34.0358 27.1532H36.3333V27.9812C38.1742 27.9812 39.6667 29.4641 39.6667 31.293C39.6667 33.122 38.1742 34.6049 36.3333 34.6049H36.1658C35.6417 37.1682 33.9217 39.2936 31.6142 40.4006H32.1667V42.8844L39.6667 45.3683H40.5V24.6694C40.5 17.8213 34.8925 12.25 28 12.25Z" fill="#16852E"/>
<path d="M41.5117 45.1066L33 42.2874V40.5719C34.8417 39.3755 36.22 37.539 36.8242 35.383C38.8883 35.1388 40.5 33.4084 40.5 31.2929C40.5 29.2942 39.0658 27.6218 37.1667 27.2368V24.6693H35.5V26.3252H34.035C31.9775 26.3252 30.0442 25.5295 28.5892 24.0839L28 23.4985L27.4108 24.0839C25.9558 25.5295 24.0225 26.3252 21.965 26.3252H20.5V24.6693H18.8333V27.2368C16.9342 27.6218 15.5 29.2934 15.5 31.2929C15.5 33.4084 17.1117 35.1388 19.1758 35.383C19.7792 37.5399 21.1583 39.3755 23 40.5719V42.2874L14.4883 45.1057C12.1033 45.8964 10.5 48.1063 10.5 50.605V63.5833H45.5V50.605C45.5 48.1063 43.8967 45.8964 41.5117 45.1066ZM23.6083 43.8315L26.6925 46.8958L23.6608 48.9044L23.0458 44.0186L23.6083 43.8315ZM32.3917 43.8315L32.955 44.0178L32.34 48.9036L29.3083 46.895L32.3917 43.8315ZM38.8333 31.2929C38.8333 32.3833 38.1175 33.3024 37.1317 33.6352C37.1492 33.4075 37.1667 33.1807 37.1667 32.9488V28.9614C38.1342 29.3042 38.8333 30.2149 38.8333 31.2929ZM35.5 27.9811V31.2929H30.5V27.9811H34.035H35.5ZM28 25.7928C28.4358 26.1588 28.9008 26.4792 29.3875 26.7565C29.05 27.0604 28.8333 27.4943 28.8333 27.9811V28.8091H27.1667V27.9811C27.1667 27.4943 26.95 27.0604 26.6125 26.7574C27.0992 26.4792 27.5642 26.1588 28 25.7928ZM21.965 27.9811H25.5V31.2929H20.5V27.9811H21.965ZM17.1667 31.2929C17.1667 30.2149 17.8658 29.3042 18.8333 28.9614V32.9488C18.8333 33.1807 18.8508 33.4075 18.8683 33.6352C17.8825 33.3024 17.1667 32.3833 17.1667 31.2929ZM20.5 32.9488H25.5C26.4192 32.9488 27.1667 32.2062 27.1667 31.2929V30.465H28.8333V31.2929C28.8333 32.2062 29.5808 32.9488 30.5 32.9488H35.5C35.5 37.0572 32.1358 40.4005 28 40.4005C23.8642 40.4005 20.5 37.0572 20.5 32.9488ZM28 42.0564C29.1767 42.0564 30.2983 41.827 31.3333 41.4238V42.5416L28 45.8534L24.6667 42.5416V41.4238C25.7017 41.827 26.8233 42.0564 28 42.0564ZM43.8333 61.9274H38.8333V59.7863C39.9083 58.6917 40.5 57.2502 40.5 55.7177C40.5 54.1851 39.9083 52.7437 38.8333 51.6491V50.336H37.1667V52.3347L37.6042 52.7693C38.3975 53.5575 38.8333 54.6041 38.8333 55.7177C38.8333 56.8313 38.3975 57.8778 37.6042 58.666L37.1667 59.1007V61.9274H18.8333V59.1007L18.3958 58.666C17.6025 57.8778 17.1667 56.8313 17.1667 55.7177C17.1667 54.6041 17.6025 53.5575 18.3958 52.7693L18.8333 52.3347V50.336H17.1667V51.6491C16.0917 52.7437 15.5 54.1851 15.5 55.7177C15.5 57.2502 16.0917 58.6917 17.1667 59.7863V61.9274H12.1667V50.605C12.1667 48.82 13.3117 47.2419 15.0158 46.6772L21.4325 44.5518L22.34 51.7675L27.8942 48.0889L28 48.1949L28.1058 48.0897L33.66 51.7683L34.5675 44.5527L40.9842 46.678C42.6883 47.2419 43.8333 48.82 43.8333 50.605V61.9274Z" fill="#212121"/>
<path d="M23.0013 30.465C23.4615 30.465 23.8346 30.0943 23.8346 29.637C23.8346 29.1798 23.4615 28.8091 23.0013 28.8091C22.5411 28.8091 22.168 29.1798 22.168 29.637C22.168 30.0943 22.5411 30.465 23.0013 30.465Z" fill="#212121"/>
<path d="M33.0013 30.465C33.4615 30.465 33.8346 30.0943 33.8346 29.637C33.8346 29.1798 33.4615 28.8091 33.0013 28.8091C32.5411 28.8091 32.168 29.1798 32.168 29.637C32.168 30.0943 32.5411 30.465 33.0013 30.465Z" fill="#212121"/>
<path d="M31.3346 34.605H29.668C29.668 35.5182 28.9205 36.2609 28.0013 36.2609C27.0821 36.2609 26.3346 35.5182 26.3346 34.605H24.668C24.668 36.4315 26.163 37.9168 28.0013 37.9168C29.8396 37.9168 31.3346 36.4315 31.3346 34.605Z" fill="#212121"/>
</g>
<defs>
<linearGradient id="paint0_linear" x1="0" y1="28" x2="56" y2="28" gradientUnits="userSpaceOnUse">
<stop stop-color="#96FBC4"/>
<stop offset="1" stop-color="#F9F586"/>
</linearGradient>
<linearGradient id="paint1_linear" x1="0" y1="28" x2="56" y2="28" gradientUnits="userSpaceOnUse">
<stop stop-color="#96FBC4"/>
<stop offset="1" stop-color="#F9F586"/>
</linearGradient>
</defs>
</svg>
