<svg width="943" height="707" viewBox="0 0 943 707" fill="none" xmlns="http://www.w3.org/2000/svg">
<path d="M470.393 548.585C605.663 548.585 715.322 496.177 715.322 431.529C715.322 366.881 605.663 314.474 470.393 314.474C335.123 314.474 225.465 366.881 225.465 431.529C225.465 496.177 335.123 548.585 470.393 548.585Z" fill="#76DDBD"/>
<path opacity="0.48" d="M352.863 384.349L244.645 449.204C247.308 450.4 249.432 452.541 250.607 455.214C262.131 479.346 284.873 496.479 307.167 510.242C325.095 521.5 345.055 529.138 365.919 532.725C418.802 496.503 489.361 448.167 498.858 442.181L515.355 394.506L352.863 384.349Z" fill="url(#paint0_linear)"/>
<path d="M580.965 87.9744V205.101L686.426 264.937V147.81L580.965 87.9744Z" fill="#68E1FD"/>
<path d="M346.142 499.896L472.648 427.052C473.088 426.779 473.439 426.386 473.66 425.919C473.882 425.452 473.964 424.931 473.897 424.419C473.83 423.906 473.616 423.424 473.282 423.03C472.947 422.636 472.507 422.347 472.012 422.197C459.239 419.84 446.489 417.483 433.645 415.457C426.198 414.326 421.532 419.086 415.122 422.974L345.223 465.394C342.301 467.162 344.964 471.758 347.91 469.966L414.769 429.479C419.448 427.028 423.966 424.28 428.296 421.254C429.048 420.629 429.89 420.12 430.794 419.746C427.66 420.712 431.077 420.288 433.151 420.712C445.57 423.399 458.273 425.119 470.857 427.311L470.221 422.456L343.715 495.301C343.177 495.688 342.803 496.263 342.666 496.912C342.53 497.561 342.64 498.238 342.976 498.81C343.312 499.382 343.85 499.808 344.483 500.004C345.117 500.201 345.801 500.154 346.402 499.873L346.142 499.896Z" fill="white"/>
<path d="M469.45 426.557L487.432 445.41L487.974 441.239L393.024 497.257C392.486 497.645 392.112 498.219 391.975 498.868C391.838 499.517 391.949 500.194 392.285 500.766C392.621 501.338 393.158 501.764 393.792 501.96C394.425 502.157 395.11 502.11 395.71 501.829L490.66 445.669C491.007 445.461 491.301 445.176 491.523 444.838C491.744 444.499 491.886 444.115 491.938 443.714C491.99 443.313 491.951 442.906 491.824 442.522C491.696 442.138 491.484 441.788 491.202 441.498L473.221 422.645C470.864 420.288 467.117 423.941 469.474 426.392L469.45 426.557Z" fill="white"/>
<path d="M521.975 327.577C521.975 327.577 518.44 418.497 515.495 427.923C512.549 437.35 484.858 467.987 411.801 455.002C338.745 442.016 405.91 232.532 405.91 232.532" fill="#1B4075"/>
<path d="M441.433 112.554C441.433 112.554 553.563 116.726 568.693 205.831C583.822 294.937 526.697 360.876 435.211 358.873" fill="#1B4075"/>
<path d="M308.229 205.03C308.229 205.03 301.159 240.144 304.081 259.233C307.004 278.322 296.729 313.79 303.351 340.892C309.973 367.993 320.319 432.519 352.346 434.499C384.373 436.478 468.082 420.948 487.312 384.137C506.543 347.326 559.214 227.206 527.211 172.744C495.207 118.281 439.142 103.081 387.861 117.833C336.58 132.586 311.246 186.365 308.229 205.03Z" fill="#68E1FD"/>
<path opacity="0.78" d="M405.719 113.992C405.719 113.992 309.685 145.477 341.123 195.014C372.561 244.551 514.314 154.503 514.314 154.503C514.314 154.503 489.381 104.424 405.719 113.992Z" fill="white"/>
<path d="M531.221 236.751C527.614 235.795 523.899 235.304 520.168 235.29C475.038 235.007 444.495 278.817 450.764 321.379C454.323 345.511 471.338 367.876 497.897 364.034C535.298 358.638 566.241 302.407 559.595 267.222C558.27 259.964 554.894 253.236 549.865 247.836C544.837 242.436 538.367 238.589 531.221 236.751Z" fill="#68E1FD"/>
<path opacity="0.47" d="M531.221 236.751C527.614 235.795 523.899 235.304 520.168 235.29C475.038 235.007 444.495 278.817 450.764 321.379C454.323 345.511 471.338 367.876 497.897 364.034C535.298 358.638 566.241 302.407 559.595 267.222C558.27 259.964 554.894 253.236 549.865 247.836C544.837 242.436 538.367 238.589 531.221 236.751Z" fill="#1B4075"/>
<path d="M540.268 240.121C536.661 239.165 532.946 238.674 529.215 238.66C484.085 238.377 453.542 282.187 459.811 324.749C463.37 348.881 480.385 371.246 506.944 367.404C544.345 362.007 575.288 305.777 568.642 270.592C567.317 263.334 563.94 256.606 558.912 251.206C553.884 245.806 547.414 241.959 540.268 240.121Z" fill="#68E1FD"/>
<path d="M417.766 292.839C402.306 293.358 386.917 292.839 372.99 285.416C368.795 283.177 365.071 289.54 369.266 291.802C384.372 299.862 400.987 300.805 417.79 300.239C422.503 300.074 422.527 292.674 417.766 292.839Z" fill="white"/>
<path d="M335.589 279.312C323.81 279.158 312.337 275.544 302.596 268.919C298.236 265.997 294.159 273.043 298.495 275.989C309.48 283.349 322.368 287.353 335.589 287.513C340.821 287.513 340.821 279.406 335.589 279.312Z" fill="white"/>
<path d="M344.382 474.303C349.393 474.303 353.455 471.591 353.455 468.246C353.455 464.901 349.393 462.189 344.382 462.189C339.371 462.189 335.309 464.901 335.309 468.246C335.309 471.591 339.371 474.303 344.382 474.303Z" fill="white"/>
<path d="M344.382 503.667C349.393 503.667 353.455 500.955 353.455 497.61C353.455 494.265 349.393 491.554 344.382 491.554C339.371 491.554 335.309 494.265 335.309 497.61C335.309 500.955 339.371 503.667 344.382 503.667Z" fill="white"/>
<path d="M395.425 506.565C400.436 506.565 404.498 503.854 404.498 500.509C404.498 497.164 400.436 494.452 395.425 494.452C390.414 494.452 386.352 497.164 386.352 500.509C386.352 503.854 390.414 506.565 395.425 506.565Z" fill="white"/>
<path opacity="0.48" d="M548.166 542.033C580.288 518.962 627.892 482.575 632.464 479.676L617.452 474.656L589.172 461.907L493.586 523.911C501.004 530.436 509.659 535.403 519.035 538.516C528.412 541.629 538.318 542.825 548.166 542.033Z" fill="url(#paint1_linear)"/>
<path d="M511.069 212.265L506.355 196.193C505.404 192.92 505.571 189.423 506.83 186.256C508.089 183.089 510.369 180.432 513.308 178.706C515.244 177.573 517.405 176.878 519.639 176.672C521.873 176.465 524.125 176.752 526.235 177.512C528.346 178.272 530.264 179.486 531.854 181.069C533.444 182.652 534.667 184.564 535.437 186.672L541.093 202.226C542.346 205.671 542.321 209.452 541.024 212.881C539.727 216.31 537.243 219.161 534.023 220.914L533.056 221.432C531.048 222.519 528.821 223.142 526.541 223.257C524.26 223.372 521.982 222.976 519.874 222.097C517.766 221.218 515.882 219.879 514.358 218.178C512.835 216.477 511.711 214.457 511.069 212.265Z" fill="white"/>
<path d="M626.878 435.159C627.938 437.68 632.699 472.865 632.392 479.652C632.086 486.44 621.693 487.194 618.512 486.911C615.33 486.628 609.085 483.753 605.102 483.612C601.12 483.47 579.179 479.322 579.839 473.525C580.499 467.728 584.269 462.119 589.265 461.742C594.262 461.365 607.577 462.307 607.577 462.307L606.233 430.516" fill="#FF6753"/>
<path d="M631.186 470.084C620.654 473.647 609.222 473.506 598.782 469.684C596.836 469.028 595.048 467.975 593.531 466.591C592.013 465.208 590.8 463.524 589.968 461.647H589.449C584.5 461.907 580.682 467.492 580.022 473.266C579.363 479.04 601.232 483.376 605.215 483.517C609.198 483.659 615.396 486.628 618.578 486.911C621.759 487.194 632.152 486.605 632.505 479.841C632.502 476.502 632.313 473.166 631.94 469.849L631.186 470.084Z" fill="#312A87"/>
<path d="M533.64 195.297C533.64 195.297 528.738 188.062 528.738 184.551C528.738 181.039 533.027 185.658 533.027 185.658L532.462 176.75C532.462 176.75 535.785 181.935 537.434 184.338C539.084 186.742 544.504 198.243 545.4 200.27C546.295 202.296 555.039 207.882 555.039 207.882C555.039 207.882 552.541 216.036 549.901 216.601C547.262 217.167 534.253 205.431 534.253 205.431L533.64 195.297Z" fill="#F04900"/>
<path d="M549.905 198.313C549.905 198.313 540.243 206.892 541.893 216.648C541.893 216.648 554.077 240.851 567.25 244.928C580.424 249.005 587.918 222.988 584.313 219.194C580.707 215.399 549.905 198.313 549.905 198.313Z" fill="#6949C1"/>
<path d="M519.356 223.412C519.356 223.412 514.855 219.264 515.633 217.992C516.411 216.719 518.461 205.03 517.447 202.673C515.751 198.526 511.438 207.74 511.438 207.74L510.212 191.526C510.212 191.526 505.499 196.664 505.711 199.562C505.923 202.461 505.476 221.857 505.711 223.294C505.947 224.732 510 235.077 510 235.077" fill="#F04900"/>
<path d="M622.4 269.508C628.719 281.407 632.165 294.618 632.463 308.087C632.793 324.584 633.712 457.782 633.712 457.782C633.712 457.782 619.69 466.078 593.083 458.348C589.218 457.217 584.316 343.696 584.316 343.696L593.437 285.157" fill="#4739AA"/>
<path d="M572.671 475.41C573.614 477.979 576.56 513.258 575.923 520.187C575.287 527.116 564.87 527.257 561.783 526.739C558.696 526.22 552.522 523.086 548.562 522.756C544.603 522.426 522.922 517.171 523.841 511.397C524.76 505.623 528.837 500.226 533.786 500.179C538.735 500.132 552.05 501.664 552.05 501.664L552.333 469.849" fill="#FF6753"/>
<path d="M584.711 435.324C584.878 434.714 585.083 434.116 585.324 433.532C587.844 416.312 592.597 399.493 599.464 383.5C601.137 374.333 602.221 368.323 602.339 367.852C610.187 336.344 604.319 327.789 606.228 280.184L572.079 281.928C572.079 281.928 553.226 344.144 546.368 400.233C544.719 413.689 542.621 486.958 542.621 486.958C542.621 486.958 559.495 498.6 579.927 492.025L580.611 488.16C576.251 470.603 580.069 452.48 584.711 435.324Z" fill="#4739AA"/>
<path d="M570.002 247.45C569.106 234.276 564.322 227.348 567.362 214.574C576.789 204.252 594.723 191.786 596.632 191.408L606.719 193.765C610.955 194.749 614.746 197.111 617.496 200.48C620.247 203.849 621.802 208.035 621.919 212.383C622.461 232.815 623.239 266.916 622.39 269.626C621.542 272.336 601.534 289.516 572.028 282.022C571.204 270.404 570.803 258.856 570.002 247.45Z" fill="#A07DEF"/>
<path d="M573.776 169.68C573.776 169.68 569.605 200.317 580.846 202.885C592.088 205.454 604.531 192.045 605.12 185.776C605.709 179.507 588.788 158.509 573.776 169.68Z" fill="#F04900"/>
<path d="M577.385 153.749C576.183 154.197 565.79 160.442 566.474 164.684C567.157 168.926 568.83 178.282 571.918 176.774C575.005 175.265 574.911 169.704 577.385 173.851C579.86 177.999 581.91 181.251 584.455 180.191C585.214 179.905 586.023 179.776 586.833 179.813C587.644 179.849 588.438 180.05 589.168 180.403C589.168 180.403 589.168 202.485 591.808 201.047C594.447 199.61 605.147 195.014 609.035 188.321C611.392 184.103 612.099 176.255 611.392 169.892C611.262 166.892 610.457 163.959 609.035 161.314C605.854 156.93 585.751 150.567 577.385 153.749Z" fill="#FBB03B"/>
<path d="M609.014 161.337C609.014 161.337 621.269 177.174 620.208 196.687C619.148 216.201 584.316 219.17 584.316 219.17L589.03 180.497" fill="#FBB03B"/>
<path d="M508.501 234.653C509.313 232 510.711 229.564 512.591 227.524C514.472 225.484 516.787 223.894 519.366 222.87C528.957 231.943 540.576 241.723 544.535 240.262C550.191 237.906 561.456 211.676 577.528 210.333C593.601 208.989 593.106 231.189 593.106 231.189C593.106 231.189 565.132 274.363 549.955 275.117C537.724 275.73 515.524 254.237 506.805 243.891C507.036 240.76 507.605 237.663 508.501 234.653Z" fill="#A07DEF"/>
<path d="M567.958 509.04C557.753 511.397 546.606 512.905 538.735 504.327C537.662 503.139 536.786 501.786 536.143 500.32H533.786C528.837 500.32 524.76 505.764 523.841 511.538C522.922 517.312 544.627 522.544 548.562 522.897C552.498 523.251 558.602 526.456 561.783 526.88C564.965 527.304 575.358 527.163 575.923 520.328C576.068 516.447 575.998 512.56 575.711 508.686C573.154 509.153 570.546 509.272 567.958 509.04Z" fill="#312A87"/>
<path d="M616.716 311.08C616.928 309.595 614.665 308.959 614.359 310.444C605.804 370.845 574.296 427.735 579.009 489.927C579.009 491.436 581.366 491.436 581.366 489.927C576.77 427.947 608.185 371.246 616.716 311.08Z" fill="#A07DEF"/>
<defs>
<linearGradient id="paint0_linear" x1="255.807" y1="584.901" x2="393" y2="420.133" gradientUnits="userSpaceOnUse">
<stop offset="0.01" stop-color="white" stop-opacity="0"/>
<stop offset="1" stop-color="#006D9D"/>
</linearGradient>
<linearGradient id="paint1_linear" x1="30744.1" y1="19040.4" x2="33030.4" y2="15618.3" gradientUnits="userSpaceOnUse">
<stop offset="0.01" stop-color="white" stop-opacity="0"/>
<stop offset="1" stop-color="#006D9D"/>
</linearGradient>
</defs>
</svg>
