<svg width="877" height="266" viewBox="0 0 877 266" fill="none" xmlns="http://www.w3.org/2000/svg">
<path d="M208.027 68H223.227V14.1H246.627V1.29999H184.727V14.1H208.027V68ZM249.885 68H265.085V44.4C265.085 39.6 265.285 38.2 265.985 36.2C267.785 31.7 272.685 28.8 278.385 28.8C282.985 28.8 286.785 30.7 288.285 33.7C289.085 35.3 289.385 37 289.385 40.3V68H304.685V37C304.685 29.8 304.285 27.5 302.185 24.5C298.985 19.7 292.385 16.9 284.485 16.9C279.385 16.9 274.585 18.1 271.185 20.4C269.085 21.8 267.685 23.2 265.085 26.5V1.29999H249.885V68ZM354.175 52.7C350.775 57.7 347.575 59.4 341.375 59.4C335.875 59.4 331.875 57.8 329.175 54.5C327.575 52.4 326.975 50.6 326.675 46.7H371.875V44.6C371.875 27.2 359.875 16.3 340.775 16.3C322.175 16.3 310.575 26.8 310.575 43.6C310.575 60 322.075 69.9 340.975 69.9C356.075 69.9 365.875 64.3 371.375 52.7H354.175ZM327.475 37.4C328.575 30.6 333.575 26.9 341.275 26.9C348.775 26.9 353.975 30.8 355.175 37.4H327.475ZM401.583 68H416.883V29.2H428.783V18.2H416.883V15.6C416.883 13 418.083 12.3 422.783 12.3H428.783V0.399994H417.783C406.083 0.399994 401.583 3.9 401.583 13.1V18.2H395.983V29.2H401.583V68ZM486.927 18.2H471.727V43.1C471.727 48 471.027 50.7 468.927 53C466.627 55.7 462.627 57.4 458.327 57.4C454.627 57.4 451.327 56.1 449.427 53.9C447.927 52.1 447.427 50 447.427 45.9V18.2H432.127V49.2C432.127 56.5 432.527 58.7 434.627 61.7C437.827 66.5 444.427 69.3 452.327 69.3C457.427 69.3 462.227 68 465.627 65.8C467.727 64.4 469.127 63 471.727 59.7V68H486.927V18.2ZM523.817 56.1H518.617C513.217 56.1 512.117 54.9 512.117 49.1V29.2H523.817V18.2H512.117V3.9H496.917V18.2H488.917V29.2H496.917V50.2C496.917 58.8 497.217 60.6 499.417 63.2C502.217 66.7 506.517 68 515.317 68H523.817V56.1ZM582.638 18.2H567.438V43.1C567.438 48 566.738 50.7 564.638 53C562.338 55.7 558.338 57.4 554.038 57.4C550.338 57.4 547.038 56.1 545.138 53.9C543.638 52.1 543.138 50 543.138 45.9V18.2H527.838V49.2C527.838 56.5 528.238 58.7 530.338 61.7C533.538 66.5 540.138 69.3 548.038 69.3C553.138 69.3 557.938 68 561.338 65.8C563.438 64.4 564.838 63 567.438 59.7V68H582.638V18.2ZM590.928 68H606.128V44.4C606.128 38.9 607.328 35.9 610.528 33.5C613.028 31.7 616.928 30.6 620.828 30.6C622.128 30.6 623.128 30.7 625.128 31.1V16.9H623.828C614.528 16.9 610.428 19.2 606.128 26.7V18.2H590.928V68ZM669.925 52.7C666.525 57.7 663.325 59.4 657.125 59.4C651.625 59.4 647.625 57.8 644.925 54.5C643.325 52.4 642.725 50.6 642.425 46.7H687.625V44.6C687.625 27.2 675.625 16.3 656.525 16.3C637.925 16.3 626.325 26.8 626.325 43.6C626.325 60 637.825 69.9 656.725 69.9C671.825 69.9 681.625 64.3 687.125 52.7H669.925ZM643.225 37.4C644.325 30.6 649.325 26.9 657.025 26.9C664.525 26.9 669.725 30.8 670.925 37.4H643.225ZM61.7082 158V91.3H46.5082V114.8C40.9082 109.1 35.7082 106.9 27.6082 106.9C11.7082 106.9 0.208203 117.8 0.208203 133C0.208203 148.7 11.7082 159.9 27.7082 159.9C35.8082 159.9 40.8082 157.8 46.5082 152.1V158H61.7082ZM30.8082 118.4C40.3082 118.4 46.8082 124.6 46.8082 133.7C46.8082 142.3 40.1082 148.6 30.8082 148.6C21.7082 148.6 15.4082 142.4 15.4082 133.5C15.4082 124.6 21.8082 118.4 30.8082 118.4ZM111.193 142.7C107.793 147.7 104.593 149.4 98.3926 149.4C92.8926 149.4 88.8926 147.8 86.1926 144.5C84.5926 142.4 83.9926 140.6 83.6926 136.7H128.893V134.6C128.893 117.2 116.893 106.3 97.7926 106.3C79.1926 106.3 67.5926 116.8 67.5926 133.6C67.5926 150 79.0926 159.9 97.9926 159.9C113.093 159.9 122.893 154.3 128.393 142.7H111.193ZM84.4926 127.4C85.5926 120.6 90.5926 116.9 98.2926 116.9C105.793 116.9 110.993 120.8 112.193 127.4H84.4926ZM134.84 175.9H149.94V152.5C156.04 157.8 161.14 159.9 168.24 159.9C174.84 159.9 180.24 158.1 185.24 154.4C192.04 149.2 195.34 142.4 195.34 133.5C195.34 117.8 184.14 106.9 168.04 106.9C160.04 106.9 154.44 109.2 150.04 114.3V108.2H134.84V175.9ZM164.94 118.4C173.84 118.4 180.04 124.6 180.04 133.5C180.04 142.3 173.84 148.5 164.94 148.5C155.14 148.5 148.94 142.6 148.94 133.2C148.94 124.3 155.34 118.4 164.94 118.4ZM242.45 142.7C239.05 147.7 235.85 149.4 229.65 149.4C224.15 149.4 220.15 147.8 217.45 144.5C215.85 142.4 215.25 140.6 214.95 136.7H260.15V134.6C260.15 117.2 248.15 106.3 229.05 106.3C210.45 106.3 198.85 116.8 198.85 133.6C198.85 150 210.35 159.9 229.25 159.9C244.35 159.9 254.15 154.3 259.65 142.7H242.45ZM215.75 127.4C216.85 120.6 221.85 116.9 229.55 116.9C237.05 116.9 242.25 120.8 243.45 127.4H215.75ZM266.098 158H281.298V133.1C281.298 129.3 281.698 127 282.898 124.9C284.898 121.2 289.498 118.8 294.598 118.8C298.198 118.8 301.498 120 303.398 122.1C304.998 124 305.598 126 305.598 130.3V158H320.898V127C320.898 119.8 320.398 117.4 318.398 114.5C315.198 109.7 308.598 106.9 300.698 106.9C295.598 106.9 290.798 108.1 287.398 110.4C285.298 111.8 283.898 113.2 281.298 116.5V108.2H266.098V158ZM388.388 158V91.3H373.188V114.8C367.588 109.1 362.388 106.9 354.288 106.9C338.388 106.9 326.888 117.8 326.888 133C326.888 148.7 338.388 159.9 354.388 159.9C362.488 159.9 367.488 157.8 373.188 152.1V158H388.388ZM357.488 118.4C366.988 118.4 373.488 124.6 373.488 133.7C373.488 142.3 366.788 148.6 357.488 148.6C348.388 148.6 342.088 142.4 342.088 133.5C342.088 124.6 348.488 118.4 357.488 118.4ZM393.272 141.6C393.772 147.5 395.372 150.8 398.972 153.7C404.272 157.9 411.672 159.9 421.972 159.9C431.072 159.9 437.572 158.3 442.672 154.9C447.072 151.9 449.772 147 449.772 141.8C449.772 133.4 443.972 128.2 433.172 127.2C411.872 125.1 410.672 124.7 410.672 121.5C410.672 118.5 414.072 116.8 420.172 116.8C423.872 116.8 427.172 117.5 429.072 118.7C430.672 119.7 431.172 120.7 431.572 123.1H448.072C447.972 119.2 447.372 117.2 445.472 114.7C441.472 109.5 432.272 106.3 421.072 106.3C412.772 106.3 406.272 107.8 401.472 110.9C396.972 113.7 394.072 119 394.072 124.1C394.072 127.8 395.472 130.9 398.172 133.4C400.872 135.9 405.072 137.3 411.572 138.1C423.672 139.4 428.272 140 430.372 140.5C432.372 141.1 433.472 142.4 433.472 144C433.472 147.3 429.472 149.3 422.672 149.3C414.572 149.3 410.972 147 410.272 141.6H393.272ZM507.346 106.3C488.046 106.3 474.846 117 474.846 132.7C474.846 149.3 487.546 159.9 507.446 159.9C526.846 159.9 539.746 149.2 539.746 133.1C539.746 117 526.846 106.3 507.346 106.3ZM507.346 116.9C517.446 116.9 523.746 123.2 523.746 133.3C523.746 143.1 517.346 149.4 507.346 149.4C497.146 149.4 490.846 143.2 490.846 133.2C490.846 123.2 497.246 116.9 507.346 116.9ZM545.512 158H560.712V133.1C560.712 129.3 561.112 127 562.312 124.9C564.312 121.2 568.912 118.8 574.012 118.8C577.612 118.8 580.912 120 582.812 122.1C584.412 124 585.012 126 585.012 130.3V158H600.312V127C600.312 119.8 599.812 117.4 597.812 114.5C594.612 109.7 588.012 106.9 580.112 106.9C575.012 106.9 570.212 108.1 566.812 110.4C564.712 111.8 563.312 113.2 560.712 116.5V108.2H545.512V158ZM646.162 158H660.762L673.162 129L685.362 158H699.962L720.862 108.2H705.062L692.962 139.5L681.062 108.2H666.062L653.862 139.5L642.062 108.2H624.862L646.162 158ZM722.77 158H737.97V134.4C737.97 129.6 738.17 128.2 738.87 126.2C740.67 121.7 745.57 118.8 751.27 118.8C755.87 118.8 759.67 120.7 761.17 123.7C761.97 125.3 762.27 127 762.27 130.3V158H777.57V127C777.57 119.8 777.17 117.5 775.07 114.5C771.87 109.7 765.27 106.9 757.37 106.9C752.27 106.9 747.47 108.1 744.07 110.4C741.97 111.8 740.57 113.2 737.97 116.5V91.3H722.77V158ZM802.26 124.5C802.76 121.2 803.46 120 805.06 119C807.26 117.6 810.26 116.9 814.06 116.9C820.76 116.9 824.66 119 824.66 122.5C824.66 125.6 822.36 126.6 812.26 127.8C796.56 129.6 796.56 129.6 792.46 131.2C786.76 133.4 783.46 138.2 783.46 144.5C783.46 154 791.16 159.9 803.66 159.9C812.76 159.9 819.26 157.5 824.96 152.1L826.26 158H841.56V156.5C840.16 155 839.76 152.9 839.76 147.5V126.8C839.76 118.8 838.56 115.2 834.76 112C830.46 108.4 822.76 106.3 813.46 106.3C804.66 106.3 797.86 108.2 793.06 112C788.66 115.4 786.76 118.8 786.46 124.5H802.26ZM824.56 136.4C824.56 140.5 823.66 142.9 821.56 144.7C818.06 147.5 812.86 149.3 808.06 149.3C802.66 149.3 799.46 147.2 799.46 143.8C799.46 141.6 800.76 139.7 803.06 138.8C804.86 138.1 806.96 137.6 811.26 137C820.86 135.7 821.36 135.6 824.56 134V136.4ZM876.671 146.1H871.471C866.071 146.1 864.971 144.9 864.971 139.1V119.2H876.671V108.2H864.971V93.9H849.771V108.2H841.771V119.2H849.771V140.2C849.771 148.8 850.071 150.6 852.271 153.2C855.071 156.7 859.371 158 868.171 158H876.671V146.1ZM38.0137 248H52.6137L65.0137 219L77.2137 248H91.8137L112.714 198.2H96.9137L84.8137 229.5L72.9137 198.2H57.9137L45.7137 229.5L33.9137 198.2H16.7137L38.0137 248ZM154.65 232.7C151.25 237.7 148.05 239.4 141.85 239.4C136.35 239.4 132.35 237.8 129.65 234.5C128.05 232.4 127.45 230.6 127.15 226.7H172.35V224.6C172.35 207.2 160.35 196.3 141.25 196.3C122.65 196.3 111.05 206.8 111.05 223.6C111.05 240 122.55 249.9 141.45 249.9C156.55 249.9 166.35 244.3 171.85 232.7H154.65ZM127.95 217.4C129.05 210.6 134.05 206.9 141.75 206.9C149.25 206.9 154.45 210.8 155.65 217.4H127.95ZM260.157 248V181.3H244.957V204.8C239.357 199.1 234.157 196.9 226.057 196.9C210.157 196.9 198.657 207.8 198.657 223C198.657 238.7 210.157 249.9 226.157 249.9C234.257 249.9 239.257 247.8 244.957 242.1V248H260.157ZM229.257 208.4C238.757 208.4 245.257 214.6 245.257 223.7C245.257 232.3 238.557 238.6 229.257 238.6C220.157 238.6 213.857 232.4 213.857 223.5C213.857 214.6 220.257 208.4 229.257 208.4ZM298.542 196.3C279.242 196.3 266.042 207 266.042 222.7C266.042 239.3 278.742 249.9 298.642 249.9C318.042 249.9 330.942 239.2 330.942 223.1C330.942 207 318.042 196.3 298.542 196.3ZM298.542 206.9C308.642 206.9 314.942 213.2 314.942 223.3C314.942 233.1 308.542 239.4 298.542 239.4C288.342 239.4 282.042 233.2 282.042 223.2C282.042 213.2 288.442 206.9 298.542 206.9ZM359.368 248H374.568V198.2H359.368V248ZM359.368 193.8H374.568V181.3H359.368V193.8ZM382.809 248H398.009V223.1C398.009 219.3 398.409 217 399.609 214.9C401.609 211.2 406.209 208.8 411.309 208.8C414.909 208.8 418.209 210 420.109 212.1C421.709 214 422.309 216 422.309 220.3V248H437.609V217C437.609 209.8 437.109 207.4 435.109 204.5C431.909 199.7 425.309 196.9 417.409 196.9C412.309 196.9 407.509 198.1 404.109 200.4C402.009 201.8 400.609 203.2 398.009 206.5V198.2H382.809V248ZM468.559 265.9H483.659V242.5C489.759 247.8 494.859 249.9 501.959 249.9C508.559 249.9 513.959 248.1 518.959 244.4C525.759 239.2 529.059 232.4 529.059 223.5C529.059 207.8 517.859 196.9 501.759 196.9C493.759 196.9 488.159 199.2 483.759 204.3V198.2H468.559V265.9ZM498.659 208.4C507.559 208.4 513.759 214.6 513.759 223.5C513.759 232.3 507.559 238.5 498.659 238.5C488.859 238.5 482.659 232.6 482.659 223.2C482.659 214.3 489.059 208.4 498.659 208.4ZM534.969 248H550.169V224.4C550.169 218.9 551.369 215.9 554.569 213.5C557.069 211.7 560.969 210.6 564.869 210.6C566.169 210.6 567.169 210.7 569.169 211.1V196.9H567.869C558.569 196.9 554.469 199.2 550.169 206.7V198.2H534.969V248ZM613.966 232.7C610.566 237.7 607.366 239.4 601.166 239.4C595.666 239.4 591.666 237.8 588.966 234.5C587.366 232.4 586.766 230.6 586.466 226.7H631.666V224.6C631.666 207.2 619.666 196.3 600.566 196.3C581.966 196.3 570.366 206.8 570.366 223.6C570.366 240 581.866 249.9 600.766 249.9C615.866 249.9 625.666 244.3 631.166 232.7H613.966ZM587.266 217.4C588.366 210.6 593.366 206.9 601.066 206.9C608.566 206.9 613.766 210.8 614.966 217.4H587.266ZM634.214 231.6C634.714 237.5 636.314 240.8 639.914 243.7C645.214 247.9 652.614 249.9 662.914 249.9C672.014 249.9 678.514 248.3 683.614 244.9C688.014 241.9 690.714 237 690.714 231.8C690.714 223.4 684.914 218.2 674.114 217.2C652.814 215.1 651.614 214.7 651.614 211.5C651.614 208.5 655.014 206.8 661.114 206.8C664.814 206.8 668.114 207.5 670.014 208.7C671.614 209.7 672.114 210.7 672.514 213.1H689.014C688.914 209.2 688.314 207.2 686.414 204.7C682.414 199.5 673.214 196.3 662.014 196.3C653.714 196.3 647.214 197.8 642.414 200.9C637.914 203.7 635.014 209 635.014 214.1C635.014 217.8 636.414 220.9 639.114 223.4C641.814 225.9 646.014 227.3 652.514 228.1C664.614 229.4 669.214 230 671.314 230.5C673.314 231.1 674.414 232.4 674.414 234C674.414 237.3 670.414 239.3 663.614 239.3C655.514 239.3 651.914 237 651.214 231.6H634.214ZM736.728 232.7C733.328 237.7 730.128 239.4 723.928 239.4C718.428 239.4 714.428 237.8 711.728 234.5C710.128 232.4 709.528 230.6 709.228 226.7H754.428V224.6C754.428 207.2 742.428 196.3 723.328 196.3C704.728 196.3 693.128 206.8 693.128 223.6C693.128 240 704.628 249.9 723.528 249.9C738.628 249.9 748.428 244.3 753.928 232.7H736.728ZM710.028 217.4C711.128 210.6 716.128 206.9 723.828 206.9C731.328 206.9 736.528 210.8 737.728 217.4H710.028ZM760.375 248H775.575V223.1C775.575 219.3 775.975 217 777.175 214.9C779.175 211.2 783.775 208.8 788.875 208.8C792.475 208.8 795.775 210 797.675 212.1C799.275 214 799.875 216 799.875 220.3V248H815.175V217C815.175 209.8 814.675 207.4 812.675 204.5C809.475 199.7 802.875 196.9 794.975 196.9C789.875 196.9 785.075 198.1 781.675 200.4C779.575 201.8 778.175 203.2 775.575 206.5V198.2H760.375V248ZM852.065 236.1H846.865C841.465 236.1 840.365 234.9 840.365 229.1V209.2H852.065V198.2H840.365V183.9H825.165V198.2H817.165V209.2H825.165V230.2C825.165 238.8 825.465 240.6 827.665 243.2C830.465 246.7 834.765 248 843.565 248H852.065V236.1Z" fill="url(#paint0_linear)"/>
<defs>
<linearGradient id="paint0_linear" x1="-42" y1="134" x2="913" y2="134" gradientUnits="userSpaceOnUse">
<stop stop-color="#243949"/>
<stop offset="1" stop-color="#517FA4"/>
</linearGradient>
</defs>
</svg>
