<svg width="873" height="655" viewBox="0 0 873 655" fill="none" xmlns="http://www.w3.org/2000/svg">
<g clip-path="url(#clip0)">
<path d="M307.973 124.577L279.36 125.843C279.36 125.843 251.621 120.409 246.994 123.18C242.891 125.625 224.907 131.299 226.238 134.093C227.57 136.887 243.393 132.478 243.393 132.478C243.393 132.478 236.998 135.424 239.704 137.454C242.411 139.484 252.144 132.805 255.178 133.809C258.212 134.813 314.673 137.912 314.673 137.912" fill="#FAA590"/>
<path d="M277.72 134.005C270.165 135.322 262.398 134.661 255.175 132.085C253.843 131.626 253.276 133.722 254.586 134.267C262.187 136.947 270.354 137.608 278.288 136.188C279.684 135.882 279.095 133.765 277.72 134.005Z" fill="#FAA590"/>
<path d="M418.293 76.8022C418.293 76.8022 440.991 85.7723 441.362 102.141C441.733 118.51 444.766 121.172 457.665 124.97C470.563 128.768 483.2 131.518 483.855 140.946C484.51 150.374 462.226 159.192 449.895 163.688C437.564 168.184 398.956 128.942 401.4 113.686" fill="#E8601C"/>
<path d="M30.334 421.419L431.718 653.156C437.743 656.624 444.58 658.431 451.531 658.393C458.483 658.355 465.3 656.472 471.286 652.938L790.411 463.912C791.927 463.014 793.182 461.736 794.054 460.206C794.926 458.675 795.385 456.944 795.385 455.182C795.385 453.42 794.926 451.689 794.054 450.158C793.182 448.628 791.927 447.35 790.411 446.452C719.48 405.552 420.543 233.309 371.917 205.722C369.906 204.561 367.626 203.95 365.304 203.95C362.982 203.95 360.702 204.561 358.691 205.722L30.2685 398.546C28.2695 399.715 26.6125 401.388 25.4631 403.398C24.3136 405.409 23.7122 407.686 23.7188 410.001C23.7254 412.317 24.3399 414.59 25.5008 416.594C26.6617 418.597 28.3283 420.261 30.334 421.419Z" fill="#DAF2E9"/>
<path opacity="0.48" d="M333.442 596.412L210.742 528.514L328.423 460.508L458.325 518.802L368.275 571.815C354.482 580.305 347.017 587.66 333.442 596.412Z" fill="url(#paint0_linear)"/>
<path opacity="0.48" d="M710.34 473.013L580.481 414.828L462.801 482.725L586.57 549.903L710.34 473.013Z" fill="url(#paint1_linear)"/>
<path opacity="0.48" d="M104.452 462.013L38.9766 422.052L149.477 364.237L221.652 388.616L137.866 440.516C124.072 448.896 118.027 453.261 104.452 462.013Z" fill="url(#paint2_linear)"/>
<path d="M633.014 288.134L648.095 296.187L606.933 334.948L570.638 346.341L558.547 329.95" fill="#FFE8BC"/>
<path d="M576.181 338.091L562.192 330.125L633.014 288.134L631.355 287.173L558.547 329.95V439.206L574.414 448.242L580.481 441.934" fill="#68E1FD"/>
<path opacity="0.42" d="M576.181 338.091L562.192 330.125L633.014 288.134L631.355 287.173L558.547 329.95V439.206L574.414 448.242L580.481 441.934" fill="#1371A5"/>
<path d="M648.099 296.187L574.418 339.117V448.242L649.256 403.522L648.099 296.187Z" fill="#68E1FD"/>
<path d="M577.203 331.958L581.699 334.796V358.061L584.558 354.416L586.566 356.686V332.046L582.354 329.012L577.203 331.958Z" fill="#E85858"/>
<path d="M654.049 300.705L669.13 308.736L627.968 347.498L591.673 358.912L579.582 342.522" fill="#FFE8BC"/>
<path d="M597.217 350.662L583.227 342.696L654.049 300.705L652.39 299.745L579.582 342.522V451.778L595.449 460.813L601.516 454.484" fill="#68E1FD"/>
<path opacity="0.42" d="M597.217 350.662L583.227 342.696L654.049 300.705L652.39 299.745L579.582 342.522V451.778L595.449 460.813L601.516 454.484" fill="#1371A5"/>
<path d="M669.127 308.736L595.445 351.688V460.813L670.283 416.093L669.127 308.736Z" fill="#68E1FD"/>
<path d="M598.242 344.508L602.738 347.367V370.632L605.597 366.966L607.605 369.236V344.595L603.393 341.583L598.242 344.508Z" fill="#E85858"/>
<path d="M677.408 312.185L692.468 320.216L651.306 358.978L615.011 370.392L602.941 354.002" fill="#FFE8BC"/>
<path d="M620.576 362.142L606.564 354.176L677.408 312.185L675.728 311.225L602.941 354.002V463.258L618.808 472.293L624.876 465.964" fill="#68E1FD"/>
<path opacity="0.42" d="M620.576 362.142L606.564 354.176L677.408 312.185L675.728 311.225L602.941 354.002V463.258L618.808 472.293L624.876 465.964" fill="#1371A5"/>
<path d="M692.464 320.216L618.805 363.168V472.293L693.643 427.573L692.464 320.216Z" fill="#68E1FD"/>
<path d="M621.594 356.01L626.09 358.847V382.112L628.949 378.468L630.957 380.716V356.097L626.744 353.063L621.594 356.01Z" fill="#E85858"/>
<path d="M607.06 466.619C606.798 466.619 604.376 465.658 606.405 464.109C607.749 463.063 609.156 462.101 610.618 461.228" fill="#E27825"/>
<path d="M607.059 453.829C607.059 453.829 609.088 461.337 607.059 465.353L634.667 481.569L661.97 497.37V485.693" fill="#FFE8BC"/>
<path d="M606.145 452.672C606.145 453.196 606.21 453.72 606.341 454.244L661.973 485.715V497.392L606.385 464.872C606.385 465.331 606.385 465.789 606.385 466.247L664.112 499.792V483.882L606.145 452.672Z" fill="#E27825"/>
<path d="M606.452 452.869L663.808 485.606L744.233 438.443L688.099 406.251C687.252 405.756 686.288 405.495 685.306 405.495C684.324 405.495 683.36 405.756 682.512 406.251L606.343 451.385C606.209 451.463 606.101 451.578 606.029 451.715C605.957 451.852 605.924 452.006 605.936 452.161C605.947 452.315 606.002 452.464 606.093 452.589C606.184 452.714 606.309 452.811 606.452 452.869Z" fill="#FDBA45"/>
<path d="M664.116 499.792C664.116 499.792 744.563 452.41 744.323 452.192C744.083 451.974 744.323 438.486 744.323 438.486L663.832 485.737L664.116 499.792Z" fill="#E27825"/>
<path d="M606.447 451.428C606.213 451.6 606.018 451.819 605.875 452.071C605.732 452.323 605.644 452.602 605.617 452.891C605.617 453.873 606.556 454.353 606.927 454.549" fill="#FDBA45"/>
<path d="M607.279 445.23C607.017 445.23 604.594 444.27 606.624 442.72C607.968 441.675 609.375 440.713 610.836 439.839" fill="#E27825"/>
<path d="M607.281 432.397C607.281 432.397 609.311 439.905 607.281 443.921L634.89 460.137L662.193 475.938V464.261" fill="#FFE8BC"/>
<path d="M606.359 431.219C606.359 431.742 606.425 432.266 606.556 432.79L662.188 464.262V475.938L606.599 443.528C606.599 443.986 606.599 444.444 606.599 444.903L664.348 478.317V462.406L606.359 431.219Z" fill="#E27825"/>
<path d="M606.732 431.436L664.089 464.174L744.579 416.923L688.445 384.731C687.597 384.236 686.633 383.975 685.652 383.975C684.67 383.975 683.706 384.236 682.858 384.731L606.732 429.952C606.595 430.021 606.479 430.127 606.397 430.258C606.316 430.389 606.273 430.54 606.273 430.694C606.273 430.848 606.316 430.999 606.397 431.131C606.479 431.262 606.595 431.367 606.732 431.436Z" fill="#FDBA45"/>
<path d="M664.335 478.317C664.335 478.317 744.781 430.935 744.541 430.716C744.301 430.498 744.541 417.01 744.541 417.01L664.051 464.261L664.335 478.317Z" fill="#E27825"/>
<path d="M606.74 429.952C606.506 430.124 606.311 430.343 606.168 430.595C606.025 430.847 605.937 431.126 605.91 431.415C605.91 432.397 606.849 432.877 607.22 433.073" fill="#FDBA45"/>
<path d="M607.279 423.274C607.017 423.274 604.594 422.314 606.624 420.764C607.968 419.719 609.375 418.757 610.836 417.883" fill="#E27825"/>
<path d="M607.281 410.485C607.281 410.485 609.311 417.993 607.281 422.008L634.89 438.224L662.193 453.96V442.284" fill="#FFE8BC"/>
<path d="M606.359 409.306C606.359 409.83 606.425 410.354 606.556 410.878L662.188 442.349V453.96L606.599 421.55C606.599 422.008 606.599 422.467 606.599 422.925L664.348 456.339V440.429L606.359 409.306Z" fill="#E27825"/>
<path d="M606.734 409.524L664.09 442.262L744.537 395.032L688.403 362.84C687.555 362.346 686.591 362.085 685.609 362.085C684.628 362.085 683.663 362.346 682.816 362.84L606.734 408.127C606.616 408.202 606.52 408.306 606.453 408.428C606.387 408.55 606.352 408.687 606.352 408.826C606.352 408.965 606.387 409.102 606.453 409.224C606.52 409.346 606.616 409.449 606.734 409.524Z" fill="#FDBA45"/>
<path d="M664.335 456.404C664.335 456.404 744.781 409.022 744.541 408.804C744.301 408.586 744.541 395.098 744.541 395.098L664.051 442.349L664.335 456.404Z" fill="#E27825"/>
<path d="M606.74 408.127C606.506 408.299 606.311 408.518 606.168 408.77C606.025 409.022 605.937 409.301 605.91 409.59C605.91 410.572 606.849 411.052 607.22 411.248" fill="#FDBA45"/>
<path d="M252.104 504.463C251.558 504.463 246.648 502.499 250.773 499.334C253.516 497.204 256.388 495.243 259.372 493.464" fill="#9A433A"/>
<path d="M252.102 478.404C252.102 478.404 256.226 493.681 252.102 501.866L308.301 534.909L363.889 567.079V543.311" fill="#FFE8BC"/>
<path d="M250.242 476.025C250.373 477.088 250.504 478.15 250.635 479.212L363.907 543.312V567.079L250.744 501.08C250.744 502.019 250.744 502.957 250.744 503.896L368.272 571.815V539.514L250.242 476.025Z" fill="#9A433A"/>
<path d="M250.882 476.44L367.689 543.29L531.595 447.064L417.297 381.589C415.575 380.584 413.617 380.055 411.623 380.055C409.629 380.055 407.671 380.584 405.948 381.589L250.86 473.603C250.627 473.76 250.437 473.972 250.306 474.221C250.175 474.469 250.107 474.747 250.109 475.027C250.112 475.308 250.183 475.584 250.318 475.831C250.453 476.077 250.646 476.287 250.882 476.44Z" fill="#F26250"/>
<path d="M368.279 571.815C368.279 571.815 531.967 475.349 531.574 474.89C531.181 474.432 531.574 446.976 531.574 446.976L367.668 543.202L368.279 571.815Z" fill="#9A433A"/>
<path d="M250.852 473.603C250.374 473.949 249.976 474.392 249.682 474.904C249.389 475.416 249.207 475.984 249.15 476.571C248.953 478.557 251.07 479.539 251.812 479.954" fill="#F26250"/>
<path d="M386.089 478.492C415.789 478.492 439.866 470.821 439.866 461.359C439.866 451.897 415.789 444.226 386.089 444.226C356.389 444.226 332.312 451.897 332.312 461.359C332.312 470.821 356.389 478.492 386.089 478.492Z" fill="#9A433A"/>
<path d="M484.207 226.085C484.207 226.085 495.316 215.434 503.74 215.543C512.165 215.652 526.984 217.726 528.097 212.793C529.21 207.861 514.042 200.288 508.192 198.367C502.343 196.446 484.185 207.272 482.941 205.286C481.697 203.3 494.115 194.373 494.115 194.373C494.115 194.373 485.844 191.034 485.56 191.514C485.276 191.994 470.959 208.276 468.296 215.914C465.634 223.553 484.207 226.085 484.207 226.085Z" fill="#1A1A1A"/>
<path d="M377.36 387.001C377.36 387.001 376.858 402.475 370.812 408.346C364.767 414.217 352.523 423.143 355.207 427.486C357.892 431.829 374.13 426.591 379.673 423.841C385.217 421.092 390.586 400.576 392.986 401.078C395.387 401.58 392.681 416.858 392.681 416.858C392.681 416.858 400.974 413.453 400.843 412.864C400.712 412.274 399.556 390.515 396.085 383.16C392.615 375.805 377.36 387.001 377.36 387.001Z" fill="#1A1A1A"/>
<path d="M563.085 85.1177L501.19 40.5729C498.123 42.1016 495.425 44.2795 493.285 46.9554C491.144 49.6313 489.611 52.741 488.793 56.0686L550.667 100.635C554.792 95.4409 559.026 90.3775 563.085 85.1177Z" fill="#FDDF33"/>
<path d="M499.519 51.5921C502.724 47.1423 503.325 42.0956 500.861 40.32C498.396 38.5445 493.8 40.7125 490.594 45.1624C487.388 49.6123 486.787 54.659 489.252 56.4345C491.716 58.21 496.313 56.042 499.519 51.5921Z" fill="#FDDF33"/>
<path d="M561.378 96.1631C564.584 91.7132 565.185 86.6665 562.72 84.891C560.256 83.1154 555.659 85.2834 552.453 89.7333C549.247 94.1832 548.646 99.2299 551.111 101.005C553.575 102.781 558.172 100.613 561.378 96.1631Z" fill="#FCCD35"/>
<path d="M524.212 69.0103C525.216 65.0599 520.305 64.0123 517.664 63.9687C515.499 63.735 513.319 64.2423 511.48 65.4077C509.64 66.5732 508.251 68.3279 507.537 70.3852C504.787 77.7839 506.097 85.4663 501.71 92.5813C500.881 93.9126 502.867 95.3749 503.696 94.0217C504.436 92.8128 505.085 91.5508 505.639 90.246C505.18 91.7301 504.722 93.236 504.307 94.7419C504.257 94.9174 504.245 95.1016 504.271 95.2822C504.297 95.4628 504.362 95.6357 504.46 95.7895L504.045 97.1863C503.976 97.4058 503.968 97.64 504.022 97.8638C504.076 98.0875 504.19 98.2923 504.351 98.4561C504.513 98.62 504.716 98.7367 504.939 98.7937C505.162 98.8507 505.396 98.8458 505.617 98.7796L504.853 100.111C504.662 100.374 504.583 100.703 504.635 101.024C504.686 101.345 504.862 101.633 505.126 101.824C505.389 102.015 505.718 102.094 506.039 102.043C506.36 101.991 506.648 101.815 506.839 101.551L506.97 101.377C507.363 102.141 508.432 102.533 508.978 101.617C511.207 97.6561 513.701 93.8499 516.442 90.2242C518.451 88.1722 519.947 85.6744 520.807 82.9346C521.202 80.9372 520.98 78.8667 520.169 76.999C519.358 75.1313 517.997 73.5551 516.267 72.4804C519.432 72.5677 523.426 72.0221 524.212 69.0103Z" fill="#FAA590"/>
<path d="M344.988 115.389C330.692 118.008 297.256 118.663 274.995 118.772C271.663 134.67 270.162 150.897 270.521 167.136C293.066 170.104 328.924 172.112 356.751 160.959L393.854 112.792C377.519 111.782 361.123 112.653 344.988 115.389Z" fill="#1A1A1A"/>
<path d="M390.474 112.486C390.583 113.447 335.148 245.924 333.445 340.317C333.445 340.317 382.29 293.983 409.003 272.092" fill="#1A1A1A"/>
<path d="M375.391 195.29C375.587 193.261 373.645 117.157 391.956 113.577C410.267 109.998 433.707 126.585 433.86 135.752C434.013 144.918 417.753 200.157 404.854 200.354C391.956 200.55 375.391 195.29 375.391 195.29Z" fill="#68E1FD"/>
<path d="M375.387 169.493C370.476 175.254 339.332 261.965 339.223 283.223C339.114 304.48 375.256 387.175 379.752 388.899C384.248 390.624 393.567 386.04 395.248 382.003C396.928 377.965 374.623 293.262 374.623 293.262C374.623 293.262 403.978 224.557 399.722 207.97C395.466 191.383 375.387 169.493 375.387 169.493Z" fill="#68E1FD"/>
<path d="M391.907 194.788C391.471 196.534 393.501 272.507 401.292 282.088C409.084 291.669 428.202 294.529 437.849 285.777C447.496 277.025 488.418 225.78 483.507 222.484C481.269 220.902 478.738 219.784 476.062 219.196C473.385 218.607 470.619 218.56 467.924 219.058C462.009 219.822 425.911 260.394 425.911 260.394C425.911 260.394 426.784 181.453 419.036 173.203" fill="#68E1FD"/>
<path d="M411.771 116.218C411.771 116.218 397.476 210.72 412.448 238.023C422.621 255.852 434.942 272.366 449.135 287.195C449.135 287.195 490.843 271.263 494.051 265.959C497.259 260.656 446.56 215.238 443.854 201.357C441.147 187.477 445.862 139.702 438.594 132.871C431.326 126.039 411.771 116.218 411.771 116.218Z" fill="#1A1A1A"/>
<path d="M411.773 116.218C411.773 116.218 445.035 130.71 455.554 128.636C466.074 126.563 501.54 90.9228 504.05 88.1292C504.05 88.1292 532.095 113.795 534.168 123.726C534.168 123.726 493.006 166.503 475.852 171.937C458.697 177.372 428.426 171.173 428.426 171.173" fill="#1A1A1A"/>
<path d="M357.671 234.204C368.714 192.737 380.936 151.444 401.321 113.665C382.289 109.976 375.131 114.472 375.131 114.472C347.5 133.984 293.418 299.985 293.418 299.985C294.051 315.262 324.584 334.905 331.786 339.444C338.421 303.891 348.395 268.971 357.671 234.204Z" fill="#303030"/>
<path d="M397.022 83.9608C397.022 83.9608 390.977 108.601 398.659 114.101C406.341 119.601 422.907 108.274 425.831 96.7721C428.756 85.2703 405.163 70.9749 397.022 83.9608Z" fill="#FAA590"/>
<path d="M412.669 90.814C412.669 90.814 411.643 99.0856 414.24 102.141C416.837 105.197 406.841 115.127 422.162 120.43C437.484 125.734 432.246 93.2584 428.863 90.8358" fill="#E8601C"/>
<path d="M428.9 90.8409C429.465 87.9914 422.667 84.2434 413.716 82.4696C404.766 80.6957 397.052 81.5677 396.487 84.4172C395.923 87.2667 402.721 91.0147 411.671 92.7885C420.622 94.5624 428.335 93.6904 428.9 90.8409Z" fill="#1A1A1A"/>
<path d="M396.473 84.3973L399.943 69.2944L432.004 74.6852L428.861 90.8357" fill="#1A1A1A"/>
<path d="M381.461 63.2268L414.81 87.0815L452.065 70.3636L417.232 45.614L381.461 63.2268Z" fill="#1A1A1A"/>
<path d="M418.325 67.854L432.926 80.949L429.958 94.546C429.958 94.546 427.405 96.0301 426.423 102.141C428.721 103.29 431.362 103.554 433.843 102.883C434.17 101.357 434.06 99.7705 433.528 98.3039C432.995 96.8373 432.061 95.5502 430.831 94.5896L433.843 80.7526L418.871 67.0901C418.871 67.0901 418.194 66.9155 418.325 67.854Z" fill="#FEDB26"/>
<path d="M116.809 257.23C116.809 257.23 124.185 323.01 161.899 328.292C199.613 333.573 214.672 273.031 213.384 257.208" fill="#FDBA45"/>
<path d="M213.447 383.225C213.447 383.225 206.07 317.379 168.356 312.098C130.643 306.816 115.671 367.424 116.893 383.225" fill="#FDBA45"/>
<path d="M165.128 396.844C191.791 396.844 213.405 390.747 213.405 383.225C213.405 375.704 191.791 369.606 165.128 369.606C138.466 369.606 116.852 375.704 116.852 383.225C116.852 390.747 138.466 396.844 165.128 396.844Z" fill="#FDBA45"/>
<path d="M165.128 275.235C191.791 275.235 213.405 269.138 213.405 261.616C213.405 254.095 191.791 247.997 165.128 247.997C138.466 247.997 116.852 254.095 116.852 261.616C116.852 269.138 138.466 275.235 165.128 275.235Z" fill="#486B11"/>
<path d="M116.852 261.617V257.23L119.667 258.517L116.852 261.617Z" fill="#486B11"/>
<path d="M213.409 257.23V261.595L211.227 263.363V259.412" fill="#486B11"/>
<path d="M165.128 270.848C191.791 270.848 213.405 264.751 213.405 257.23C213.405 249.708 191.791 243.611 165.128 243.611C138.466 243.611 116.852 249.708 116.852 257.23C116.852 264.751 138.466 270.848 165.128 270.848Z" fill="#577F22"/>
<path d="M127.59 286.693C127.59 286.693 139.113 313.647 150.899 317.86C162.684 322.072 177.089 322.377 188.242 311.836C195.301 304.84 200.513 296.201 203.41 286.693C199.618 284.472 195.227 283.488 190.85 283.879C186.472 284.27 182.326 286.017 178.988 288.876C166.918 298.981 164.954 301.229 156.246 295.423C147.538 289.618 134.879 281.914 127.59 286.693Z" fill="#D68B13"/>
<path d="M126.457 379.864C126.457 379.864 149.33 338.396 165.131 340.885C180.932 343.373 203.39 381.61 203.39 381.61C203.39 381.61 165.131 396.844 126.457 379.864Z" fill="#D68B13"/>
<path d="M668.603 182.02C668.603 182.02 689.01 241.188 688.093 241.93C687.176 242.672 676.722 234.269 675.784 234.728C673.313 237.71 671.031 240.844 668.953 244.112L649.965 185.752" fill="#E8601C"/>
<path d="M636.109 176.477L624.891 231.738C624.891 231.738 638.117 220.825 637.986 221.895C637.855 222.964 639.732 234.99 639.732 234.99L655.642 178.965" fill="#E8601C"/>
<path d="M657.731 197.799C672.597 196.14 682.925 179.354 680.799 160.307C678.672 141.26 664.897 127.165 650.031 128.824C635.165 130.484 624.837 147.27 626.963 166.317C629.09 185.364 642.865 199.459 657.731 197.799Z" fill="#EAB41B"/>
<path d="M654.192 198.189C669.058 196.53 679.386 179.744 677.26 160.697C675.133 141.65 661.358 127.555 646.492 129.214C631.626 130.874 621.298 147.66 623.424 166.707C625.551 185.754 639.326 199.849 654.192 198.189Z" fill="#FCCD35"/>
</g>
<defs>
<linearGradient id="paint0_linear" x1="286.082" y1="583.382" x2="319.081" y2="542.679" gradientUnits="userSpaceOnUse">
<stop offset="0.01" stop-color="white" stop-opacity="0"/>
<stop offset="1" stop-color="#00A99D"/>
</linearGradient>
<linearGradient id="paint1_linear" x1="63278.3" y1="33028.7" x2="65668.4" y2="26458.6" gradientUnits="userSpaceOnUse">
<stop offset="0.01" stop-color="white" stop-opacity="0"/>
<stop offset="1" stop-color="#00A99D"/>
</linearGradient>
<linearGradient id="paint2_linear" x1="8518.76" y1="20476.8" x2="10033.1" y2="16234.3" gradientUnits="userSpaceOnUse">
<stop offset="0.01" stop-color="white" stop-opacity="0"/>
<stop offset="1" stop-color="#00A99D"/>
</linearGradient>
<clipPath id="clip0">
<rect width="873" height="654.75" fill="white"/>
</clipPath>
</defs>
</svg>
