<svg width="58" height="57" viewBox="0 0 58 57" fill="none" xmlns="http://www.w3.org/2000/svg">
<path d="M56.8867 25.4057L41.706 19.7865L36.0374 1.20776C35.819 0.491294 35.1554 0 34.4066 0C33.6577 0 32.9941 0.491294 32.7757 1.20776L27.1088 19.7865L11.9264 25.4057C11.256 25.6548 10.8125 26.2911 10.8125 27.0058C10.8125 27.7189 11.256 28.3586 11.9264 28.6059L27.1003 34.2234L32.7706 53.3685C32.9856 54.0918 33.6509 54.5882 34.4066 54.5882C35.1606 54.5882 35.8276 54.0918 36.0425 53.3668L41.7129 34.2217L56.8884 28.6042C57.5554 28.3586 58.0006 27.7206 58.0006 27.0058C58.0006 26.2928 57.5554 25.6548 56.8867 25.4057Z" fill="#FFAC33"/>
<path d="M22.7684 44.1717L18.821 42.7115L17.2857 37.0821C17.0844 36.3383 16.4106 35.8231 15.6412 35.8231C14.8719 35.8231 14.1981 36.3383 13.9951 37.0803L12.4598 42.7098L8.51406 44.17C7.84365 44.4173 7.40012 45.0571 7.40012 45.7701C7.40012 46.4832 7.84365 47.1229 8.51406 47.3702L12.4393 48.8253L13.9865 55.0041C14.1776 55.7615 14.8582 56.2937 15.6412 56.2937C16.4242 56.2937 17.1049 55.7615 17.2959 55.0023L18.8432 48.8236L22.7684 47.3685C23.4388 47.1229 23.8824 46.4832 23.8824 45.7701C23.8824 45.0571 23.4388 44.4173 22.7684 44.1717ZM15.3683 7.21717L11.3356 5.72452L9.84124 1.69011C9.59388 1.0197 8.95588 0.576172 8.24112 0.576172C7.52806 0.576172 6.89006 1.0197 6.641 1.69011L5.14835 5.72452L1.11394 7.21717C0.443529 7.46623 0 8.10423 0 8.81729C0 9.53035 0.443529 10.1701 1.11394 10.4174L5.14835 11.9101L6.641 15.9445C6.89006 16.6149 7.52806 17.0584 8.24112 17.0584C8.95418 17.0584 9.59218 16.6149 9.84124 15.9445L11.3339 11.9101L15.3683 10.4174C16.0387 10.1683 16.4822 9.53035 16.4822 8.81729C16.4822 8.10423 16.0387 7.46623 15.3683 7.21717Z" fill="#FFCC4D"/>
</svg>
