<svg width="1040" height="758" viewBox="0 0 1040 758" fill="none" xmlns="http://www.w3.org/2000/svg">
<path d="M444.719 423.72L648.885 305.854L393.18 157.035L188.043 275.469L444.719 423.72Z" fill="#FFE3CC"/>
<path d="M483.613 113.474V116.716L565.97 164.37L593.233 148.176V145.204" fill="#739BE0"/>
<path d="M483.613 113.474L510.727 97.9976L593.233 145.204L565.671 161.113L483.613 113.474Z" fill="#A4C0FF"/>
<path d="M523.754 97.101C522.26 95.6072 522.379 95.1142 522.26 93.1722C520.258 92.4551 517.166 90.782 514.178 91.0061C511.887 91.4723 509.656 92.1991 507.53 93.1722C506.619 96.1599 506.036 97.7583 503.049 99.2821C502.375 99.6228 501.682 99.9222 500.972 100.178C500.144 100.49 499.448 101.078 499.002 101.842C498.556 102.607 498.386 103.502 498.522 104.376C499.389 109.948 502.63 119.434 514.641 119.434C527.712 119.434 529.774 108.41 530.013 103.151C530.038 102.644 529.925 102.14 529.686 101.693C529.446 101.245 529.089 100.872 528.653 100.612C526.888 99.6381 525.243 98.4597 523.754 97.101Z" fill="#A5DD73"/>
<path d="M514.806 95.9957C518.874 95.9957 522.171 94.7651 522.171 93.247C522.171 91.7289 518.874 90.4983 514.806 90.4983C510.739 90.4983 507.441 91.7289 507.441 93.247C507.441 94.7651 510.739 95.9957 514.806 95.9957Z" fill="#200904"/>
<path d="M506.952 84.8812C507.819 88.1976 508.446 91.5887 508.954 94.9648L509.671 95.3383L510.732 95.6819L511.195 95.7864C510.642 91.9108 509.889 88.0664 508.939 84.2688C508.939 84.0746 509.029 83.8803 509.074 83.6712C510.045 82.5956 511.449 80.6835 509.97 79.8469C509.074 79.3091 508.401 79.8469 507.908 80.7432C506.51 76.212 504.287 71.978 501.35 68.2545C501.954 66.5851 502.093 64.7833 501.754 63.041C501.589 61.6517 501.096 59.5005 499.632 58.888C499.43 58.7803 499.199 58.7382 498.971 58.7676C498.744 58.7971 498.531 58.8966 498.363 59.0523C497.526 59.8291 497.631 61.2633 497.631 62.294C497.631 63.026 497.631 63.7879 497.631 64.4751C497.108 64.0269 496.585 63.5787 496.017 63.1605C495.544 61.1857 494.398 59.4373 492.775 58.2158C491.625 57.424 489.474 56.5277 488.294 57.7826C485.59 60.7703 492.462 64.1016 494.374 64.8336C494.512 64.863 494.654 64.863 494.792 64.8336C495.54 65.3987 496.258 66.0021 496.943 66.6412C495.768 66.3142 494.54 66.2178 493.328 66.3573C491.924 66.5366 489.698 67.1939 489.414 68.867C488.757 72.8258 497.944 70.9883 499.737 70.4953C499.915 70.4467 500.076 70.3482 500.2 70.2115C501.281 71.661 502.235 73.2003 503.053 74.8126C501.955 74.2377 500.749 73.8969 499.513 73.8117C498.213 73.737 495.778 73.8117 495.106 75.1562C494.314 76.7696 496.241 77.7256 497.436 78.1439C499.572 78.7156 501.795 78.8927 503.994 78.6668C504.254 78.6615 504.501 78.5541 504.682 78.368C505.16 79.5631 505.578 80.7881 505.966 82.013C503.845 80.5192 499.991 79.9067 498.497 82.013C498.402 82.1738 498.353 82.3569 498.353 82.5433C498.353 82.7298 498.402 82.9129 498.497 83.0737C498.96 84.0148 500.439 84.1791 501.35 84.4181C502.797 84.7989 504.263 85.103 505.742 85.3294C505.965 85.3956 506.204 85.3877 506.422 85.3069C506.64 85.2261 506.826 85.0768 506.952 84.8812Z" fill="#F67770"/>
<path d="M509.719 72.2881C509.799 72.2975 509.879 72.2975 509.958 72.2881C510.123 72.9902 510.257 73.7819 510.406 74.4243L510.093 74.2002C509.84 74.0185 509.553 73.89 509.25 73.8223C508.946 73.7546 508.632 73.7492 508.326 73.8065C508.02 73.8637 507.729 73.9824 507.47 74.1554C507.212 74.3283 506.991 74.552 506.821 74.8127C506.194 76.0227 507.224 77.412 508.001 78.2785C509.065 79.235 510.257 80.0394 511.542 80.6687C512.37 85.7401 512.869 90.8598 513.036 95.9957H514.051H515.127C514.914 89.7668 514.22 83.5637 513.05 77.4419C513.198 77.4593 513.347 77.4428 513.487 77.3936C513.627 77.3444 513.753 77.2638 513.857 77.1581C515.351 75.4252 520.55 69.1808 516.591 67.3882C513.768 66.1035 512.587 69.7186 512.109 72.8259C511.796 71.4665 511.512 70.107 511.153 68.7476C511.259 68.7009 511.355 68.635 511.437 68.5534C513.902 66.0437 516.083 63.3548 516.427 59.7247C516.483 59.592 516.511 59.4489 516.509 59.3047C516.507 59.1604 516.475 59.0182 516.414 58.8872C516.354 58.7563 516.266 58.6395 516.158 58.5444C516.049 58.4494 515.922 58.3782 515.784 58.3354C513.812 57.7229 512.393 59.3214 511.377 60.8152C510.689 61.8569 510.183 63.0089 509.883 64.2212C509.495 62.9664 509.107 61.7265 508.673 60.4716C509.492 59.7907 510.056 58.8521 510.272 57.8093C510.489 56.7664 510.345 55.6811 509.865 54.7306C509.384 53.7801 508.595 53.0207 507.627 52.5765C506.659 52.1323 505.569 52.0296 504.535 52.2853C501.966 53.1368 501.324 56.1394 501.906 58.5147C502.035 59.0192 502.265 59.4924 502.582 59.9056C502.899 60.3189 503.296 60.6637 503.75 60.9192C504.203 61.1747 504.704 61.3356 505.222 61.3922C505.739 61.4488 506.263 61.3999 506.761 61.2484C507.523 63.4594 508.255 65.73 508.808 67.9111C508.271 67.2482 507.624 66.6824 506.896 66.2379C505.82 65.5806 503.803 64.6096 502.832 65.8794C501.861 67.1492 503.266 68.8671 504.326 69.7336C505.898 70.998 507.745 71.8733 509.719 72.2881ZM507.329 58.9628C507.201 58.9371 507.069 58.9371 506.941 58.9628C505.671 59.4409 504.296 59.3662 503.953 57.8574C503.609 56.3486 503.848 54.3916 505.566 54.0928C508.42 53.6447 509.495 57.4092 507.329 58.9628Z" fill="#F67770"/>
<path d="M545.807 62.2791C544.63 62.031 543.406 62.1435 542.295 62.6019C541.184 63.0603 540.236 63.8433 539.577 64.8485C539.444 64.8779 539.319 64.9396 539.215 65.0281C539.111 65.1167 539.03 65.2294 538.98 65.3564C538.457 65.6104 537.994 65.9092 537.486 66.193C537.985 65.2894 538.295 64.2938 538.398 63.2666C538.501 62.2394 538.394 61.2021 538.083 60.2175C538.015 60.0292 537.895 59.8643 537.736 59.7425C537.577 59.6207 537.386 59.5471 537.187 59.5304C537.064 59.5039 536.938 59.5022 536.815 59.5253C536.692 59.5484 536.574 59.5958 536.47 59.6648L536.335 59.7544C535.381 60.7667 534.689 61.9968 534.32 63.3378C533.95 64.6787 533.914 66.0897 534.214 67.4478C534.249 67.6885 534.365 67.91 534.543 68.0753C525.58 74.5437 520.844 85.0157 518.215 95.8163C519.012 95.6552 519.789 95.4046 520.53 95.0694C523.04 85.1501 527.462 75.7388 535.708 69.7932C536.993 72.3328 539.756 73.1843 542.415 73.4084C542.55 73.4364 542.689 73.432 542.822 73.3957C542.954 73.3593 543.076 73.292 543.177 73.1992C543.314 73.1397 543.436 73.0532 543.538 72.9451C543.641 72.837 543.72 72.7093 543.771 72.5698C543.823 72.4304 543.846 72.2819 543.839 72.1334C543.832 71.9848 543.795 71.8393 543.73 71.7053C543.019 70.6114 542.007 69.7453 540.817 69.2106C540.013 68.7236 539.135 68.3704 538.218 68.1649C538.965 67.7267 539.741 67.3184 540.548 66.9399C541.697 66.9134 542.825 66.6219 543.844 66.0882C544.862 65.5544 545.743 64.7928 546.419 63.8626C546.51 63.7237 546.566 63.5652 546.583 63.4002C546.601 63.2353 546.578 63.0686 546.519 62.9139C546.459 62.7592 546.363 62.6209 546.239 62.5105C546.115 62.4002 545.967 62.3208 545.807 62.2791Z" fill="#F67770"/>
<path d="M529.956 64.5945C529.842 64.4706 529.698 64.378 529.538 64.3256C529.305 64.1851 529.026 64.1408 528.761 64.2021C528.496 64.2635 528.266 64.4257 528.118 64.6542C527.413 66.0092 527.06 67.5196 527.092 69.0467C527.123 70.5737 527.538 72.0684 528.298 73.3933C528.404 73.5513 528.551 73.6781 528.723 73.7607C528.894 73.8434 529.085 73.8789 529.275 73.8637C529.465 73.8485 529.647 73.7831 529.804 73.6742C529.96 73.5653 530.085 73.4168 530.165 73.2439C530.339 73.1265 530.474 72.9602 530.553 72.7659C531.659 70.0769 532.062 66.895 529.956 64.5945Z" fill="#F67770"/>
<path d="M524.19 71.287C524.076 71.1631 523.932 71.0705 523.772 71.0181C523.539 70.8776 523.261 70.8333 522.996 70.8946C522.731 70.956 522.5 71.1182 522.353 71.3467C521.648 72.7017 521.295 74.2121 521.326 75.7392C521.357 77.2662 521.772 78.7609 522.532 80.0858C522.639 80.2438 522.785 80.3706 522.957 80.4532C523.129 80.5359 523.319 80.5714 523.509 80.5562C523.699 80.541 523.882 80.4756 524.038 80.3667C524.195 80.2578 524.319 80.1093 524.399 79.9364C524.573 79.819 524.708 79.6527 524.788 79.4584C525.893 76.7695 526.297 73.6025 524.19 71.287Z" fill="#F67770"/>
<path d="M538.305 76.5608C538.467 76.4748 538.601 76.3455 538.693 76.1873C538.793 76.09 538.872 75.9737 538.926 75.8455C538.98 75.7172 539.007 75.5795 539.007 75.4404C539.007 75.3013 538.98 75.1635 538.926 75.0353C538.872 74.907 538.793 74.7908 538.693 74.6935C537.497 73.7414 536.081 73.1056 534.575 72.8445C533.068 72.5835 531.521 72.7056 530.074 73.1996C529.897 73.2736 529.743 73.3935 529.629 73.5469C529.514 73.7002 529.442 73.8815 529.421 74.0718C529.399 74.2622 529.429 74.4548 529.507 74.6297C529.585 74.8047 529.709 74.9556 529.865 75.0669C529.944 75.2612 530.079 75.4275 530.253 75.545C532.598 77.1882 535.706 78.1891 538.305 76.5608Z" fill="#F67770"/>
<path d="M533.841 81.1018C533.953 80.9742 534.03 80.8198 534.065 80.6537C534.172 80.4054 534.18 80.125 534.085 79.8715C533.99 79.618 533.801 79.4111 533.557 79.2942C532.124 78.7639 530.581 78.6023 529.07 78.8242C527.558 79.0461 526.127 79.6443 524.907 80.564C524.763 80.6888 524.654 80.8498 524.593 81.0305C524.531 81.2111 524.519 81.4049 524.557 81.592C524.595 81.779 524.682 81.9526 524.809 82.0948C524.936 82.2371 525.099 82.3429 525.281 82.4015C525.419 82.5605 525.601 82.6749 525.804 82.7301C528.612 83.4771 531.809 83.4771 533.841 81.1018Z" fill="#F67770"/>
<path d="M529.018 100.985C526.342 102.746 523.252 103.776 520.055 103.973C518.143 104.242 514.244 105.751 515.11 107.872C515.305 108.335 516.246 108.709 516.604 109.097C517.201 109.603 517.646 110.265 517.889 111.009C518.322 113.145 516.395 114.699 514.468 115.162C512.796 115.349 511.103 115.191 509.494 114.699C508.493 114.52 505.654 113.608 504.773 114.31C504.343 114.632 503.991 115.045 503.742 115.521C505.201 116.872 506.913 117.92 508.78 118.605C510.647 119.289 512.631 119.597 514.618 119.509C527.689 119.509 529.75 108.484 529.989 103.226C530.009 102.803 529.931 102.382 529.763 101.993C529.595 101.605 529.34 101.26 529.018 100.985Z" fill="#98D15D"/>
<path d="M557.833 94.2631L553.276 91.6787L529.957 105.243L530.644 134.702L534.887 137.376" fill="#F2F2F2"/>
<path d="M534.891 107.932V137.376L557.836 124.887V94.2631L534.891 107.932Z" fill="#F67770"/>
<path d="M565.035 98.8188L560.464 96.2494L537.145 109.799L537.832 139.273L542.089 141.932" fill="#F2F2F2"/>
<path d="M542.09 112.503V141.932L565.036 129.443V98.819L542.09 112.503Z" fill="#F67770"/>
<path d="M324.376 185.09C323.6 187.166 324.376 319.776 324.376 319.776C324.376 319.776 325.004 322.181 329.456 320.21V187.136L324.376 185.09Z" fill="#5B434D"/>
<path d="M481.826 229.756C481.049 231.833 481.826 364.443 481.826 364.443C481.826 364.443 482.453 366.848 486.905 364.876V231.803L481.826 229.756Z" fill="#5B434D"/>
<path d="M415.964 288.107C416.129 288.947 416.107 289.813 415.901 290.644C415.694 291.476 415.308 292.251 414.769 292.917C412.947 294.874 406.015 301.014 405.358 302.343C404.701 303.673 403.774 307.303 405.358 308.558C406.941 309.812 410.019 309.962 413.783 308.558C418.999 306.167 423.884 303.115 428.319 299.475C429.992 297.652 428.319 278.934 428.319 278.934C428.319 278.934 418.594 276.559 415.322 278.934L415.964 288.107Z" fill="#F96156"/>
<path d="M404.607 304.898C404.422 305.516 404.395 306.171 404.528 306.802C404.662 307.434 404.95 308.022 405.369 308.513C406.952 309.768 410.03 309.917 413.794 308.513C419.01 306.123 423.895 303.07 428.329 299.43C428.907 298.1 429.153 296.649 429.047 295.203C422.742 301.223 409.417 311.277 404.607 304.898Z" fill="#391A3A"/>
<path d="M419.951 295.232C419.373 294.363 418.567 293.671 417.621 293.23C416.512 292.853 415.333 292.731 414.17 292.872C413.214 292.872 413.214 294.366 414.17 294.366C414.993 294.186 415.85 294.242 416.643 294.528C417.436 294.813 418.132 295.316 418.652 295.979C419.19 296.741 420.534 295.994 419.951 295.232Z" fill="#391A3A"/>
<path d="M417.825 297.817C417.057 296.909 416.061 296.223 414.94 295.829C413.818 295.436 412.612 295.348 411.446 295.576C410.505 295.77 410.908 297.204 411.849 297.07C412.76 296.915 413.697 297.006 414.561 297.334C415.425 297.663 416.186 298.216 416.764 298.937C417.421 299.58 418.467 298.519 417.825 297.817Z" fill="#391A3A"/>
<path d="M439.023 299.564C439.188 300.405 439.166 301.271 438.959 302.102C438.753 302.933 438.367 303.709 437.828 304.375C436.005 306.332 429.074 312.471 428.417 313.801C427.759 315.13 426.833 318.761 428.417 320.015C430 321.27 433.077 321.42 436.842 320.015C442.057 317.625 446.943 314.573 451.377 310.933C453.05 309.11 451.377 290.392 451.377 290.392C451.377 290.392 441.652 288.017 438.381 290.392L439.023 299.564Z" fill="#F96156"/>
<path d="M427.669 316.355C427.485 316.974 427.458 317.628 427.591 318.26C427.724 318.891 428.013 319.479 428.431 319.971C430.015 321.225 433.092 321.375 436.857 319.971C442.072 317.58 446.957 314.528 451.392 310.888C451.97 309.557 452.216 308.107 452.109 306.66C445.805 312.681 432.48 322.675 427.669 316.355Z" fill="#391A3A"/>
<path d="M443.018 306.69C442.44 305.821 441.633 305.129 440.687 304.688C439.579 304.311 438.399 304.189 437.237 304.33C436.281 304.33 436.281 305.824 437.237 305.824C438.06 305.644 438.917 305.7 439.709 305.986C440.502 306.271 441.198 306.774 441.718 307.437C442.301 308.199 443.6 307.452 443.018 306.69Z" fill="#391A3A"/>
<path d="M440.895 309.23C440.127 308.322 439.131 307.636 438.01 307.242C436.889 306.849 435.683 306.761 434.516 306.989C433.575 307.183 433.978 308.617 434.919 308.483C435.831 308.328 436.767 308.419 437.631 308.747C438.495 309.075 439.256 309.629 439.834 310.35C440.492 311.037 441.597 309.977 440.895 309.23Z" fill="#391A3A"/>
<path d="M417.916 172.093C412.718 183.985 409.853 196.765 409.476 209.738C409.147 230.324 411.582 285.642 411.582 285.642C411.582 285.642 417.289 291.124 429.822 289.197V212.427C429.822 212.427 434.199 214.056 434.199 217.312C434.199 220.569 438.203 299.086 438.203 299.086C438.203 299.086 440.444 303.254 456.846 296.89C456.846 296.89 459.087 194.098 447.046 173.916" fill="#5B434D"/>
<path d="M442.728 254.106C441.951 256.183 442.728 388.793 442.728 388.793C442.728 388.793 443.355 391.198 447.807 389.226V256.168L442.728 254.106Z" fill="#5B434D"/>
<path d="M364.439 161.8C363.662 163.877 364.439 296.487 364.439 296.487C364.439 296.487 365.066 298.892 369.518 296.92V163.847L364.439 161.8Z" fill="#5B434D"/>
<path d="M368.427 210.724L326.465 235.179V230.383L364.349 208.349L368.427 210.724Z" fill="#5B434D"/>
<path d="M320.414 180.279V185.314L448.035 259.155L490.311 234.058V229.457" fill="#68E1FD"/>
<path opacity="0.27" d="M320.414 180.279V185.314L448.035 259.155L490.311 234.058V229.457" fill="black"/>
<path d="M320.414 180.279L362.436 156.318L490.311 229.457L447.587 254.106L320.414 180.279Z" fill="#68E1FD"/>
<path d="M328.344 229.278L443.61 295.755V300.819L328 234.297L328.344 229.278Z" fill="#5B434D"/>
<path d="M409.374 218.911L438.056 202.075L392.478 176.441L365.812 193.306L409.374 218.911Z" fill="#5B434D"/>
<path d="M487.056 277.888L445.094 302.343V297.533L482.978 275.513L487.056 277.888Z" fill="#5B434D"/>
<path d="M416.199 177.516C424.042 180.235 432.049 180.384 440.25 179.906C443.507 176.482 446.24 172.596 448.362 168.373C455.368 153.883 457.893 129.533 457.893 129.533C457.893 129.533 447.436 121.451 440.504 119.509C433.573 117.567 418.26 121.003 415.751 125.201C413.241 129.398 412.315 148.281 415.751 175.126C415.855 175.619 416.124 177.053 416.199 177.516Z" fill="#A5DD73"/>
<path d="M429.424 122.048C426.974 122.571 426.511 115.789 427.556 115.162C428.602 114.534 440.075 114.46 441.838 115.251C445.707 116.969 441.838 122.721 441.838 122.721" fill="#A5DD73"/>
<path d="M444.15 93.6802C441.939 93.2918 442.014 89.6019 437.906 87.9288C433.798 86.2557 428.943 88.6608 427.15 89.9605C425.358 91.2601 424.043 88.616 422.071 90.6477C420.099 92.6793 421.354 95.7865 420.204 96.892L420.039 97.0115C419.542 97.8474 419.266 98.7964 419.237 99.7688C419.208 100.741 419.428 101.705 419.875 102.569C420.777 103.776 421.837 104.856 423.027 105.78L441.446 115.386C443.672 113.817 447.93 98.9535 447.691 97.1758C447.603 96.2709 447.201 95.4255 446.554 94.7867C445.907 94.148 445.056 93.7564 444.15 93.6802Z" fill="#200904"/>
<path d="M423.94 99.3271C423.104 100.223 425.867 118 431.26 118.628C436.653 119.255 443.092 112.04 443.615 109.978C444.137 107.917 443.854 96.5336 441.658 95.3982C439.462 94.2629 429.005 93.8595 423.94 99.3271Z" fill="#F67770"/>
<path d="M426.467 94.188C426.467 94.188 425.407 98.326 431.86 99.1029C438.314 99.8797 438.762 101.329 439.524 103.584C441.017 107.842 445.499 112.787 446.993 100.014C447.068 99.4016 442.422 90.6476 437.402 89.9604C432.383 89.2732 426.467 94.188 426.467 94.188Z" fill="#200904"/>
<path d="M440.102 105.855C440.102 105.855 442.133 102.36 443.702 104.018C445.27 105.676 444.135 109.575 442.014 110.8" fill="#F67770"/>
<path d="M391.162 179.577C391.162 179.577 385.904 183.73 384.514 184.567C383.125 185.403 390.49 187.794 390.609 188.615C390.729 189.437 397.81 183.043 397.81 183.043L391.162 179.577Z" fill="#F67770"/>
<path d="M409.378 218.911L398.144 190.094L354.598 164.37L365.817 193.306L409.378 218.911Z" fill="#6F97DD"/>
<path d="M415.755 125.201C415.755 125.201 412.917 129.264 411.602 139.975C410.288 150.686 406.508 160.008 404.327 163.384C402.146 166.76 387.67 180.294 388.268 181.639C388.866 182.983 392.75 185.374 395.274 186.27C402.333 181.85 408.645 176.339 413.977 169.942C421.447 160.426 421.193 143.56 421.193 143.56" fill="#A5DD73"/>
<path d="M420.681 207.856C420.707 206.723 420.94 205.604 421.368 204.555C421.761 204.01 422.272 203.561 422.862 203.24C423.581 202.787 424.269 202.288 424.924 201.746L430.003 196.368L422.339 195.218C420.651 196.339 418.906 197.371 417.111 198.31C416.767 198.31 411.882 201.298 412.121 202.045C412.36 202.792 415.647 200.282 415.647 200.282C413.818 201.098 412.06 202.062 410.388 203.165C409.791 203.867 409.014 207.438 409.552 207.931C410.09 208.424 410.926 207.931 411.479 207.662C412.032 207.393 411.105 209.156 411.957 209.44C412.596 209.663 413.267 209.779 413.944 209.783C414.274 209.956 414.65 210.022 415.02 209.971C415.389 209.92 415.734 209.755 416.005 209.499C417.004 208.287 417.746 206.884 418.186 205.376C418.186 205.376 417.992 209.664 419.217 209.38C419.606 209.23 420.128 208.618 420.681 207.856Z" fill="#F67770"/>
<path d="M415.257 201.552C414.326 201.962 413.473 202.528 412.732 203.225C411.79 204.416 411.209 205.852 411.059 207.363C410.969 207.781 411.642 207.871 411.716 207.453C411.831 205.952 412.453 204.535 413.479 203.434C414.227 202.838 415.044 202.337 415.914 201.94C415.678 201.842 415.457 201.711 415.257 201.552Z" fill="#5B434D"/>
<path d="M417.051 202.299C416.301 202.837 415.61 203.453 414.989 204.136C413.973 205.436 413.869 207.796 413.495 209.35C413.391 209.768 414.063 209.858 414.153 209.44C414.616 207.513 414.765 205.331 416.229 203.912C416.767 203.389 417.335 202.882 417.917 202.418C417.626 202.395 417.337 202.355 417.051 202.299Z" fill="#5B434D"/>
<path d="M457.892 129.533C457.892 129.533 460.88 130.175 460.492 141.036C460.103 151.896 457.414 173.438 452.485 178.666C447.555 183.895 424.938 202.568 424.938 202.568C424.938 202.568 417.931 199.58 418.484 196.936C419.037 194.292 442.984 170.659 442.984 170.659C442.984 170.659 446.614 122.631 457.892 129.533Z" fill="#A5DD73"/>
<path d="M417.282 133.402L415.609 177.292C415.609 178.248 417.103 178.248 417.103 177.292L418.776 133.402C418.821 132.446 417.327 132.446 417.282 133.402Z" fill="#75A542"/>
<path d="M443.089 144.502L440.789 158.604C440.012 163.384 439.833 168.956 437.472 173.288C435.112 177.621 431.497 180.967 428.42 184.537L418.246 196.488C417.619 197.22 418.68 198.281 419.307 197.549L429.958 185.06C432.946 181.564 436.531 178.128 438.757 174.08C440.983 170.032 441.267 164.968 441.999 160.456L444.583 144.905C444.688 143.949 443.254 143.546 443.089 144.502Z" fill="#75A542"/>
<path opacity="0.32" d="M600.248 322.122L533.248 283.386L467.996 322.226L533.129 358.527C555.327 346.083 578.004 334.491 600.248 322.122Z" fill="url(#paint0_linear)"/>
<path d="M638.441 242.006C634.781 226.738 622.008 210.336 606.397 206.511C601.686 205.404 596.795 205.298 592.04 206.198C587.284 207.099 582.771 208.987 578.791 211.74C569.439 218.223 567.333 228.172 561.91 237.434C551.931 254.569 526.819 263.204 520.799 281.996C516.75 294.634 524.578 306.929 534.124 314.667C566.362 340.84 618.916 325.662 635.214 288.315C641.294 274.512 642.19 257.602 638.441 242.006Z" fill="#F96156"/>
<path d="M638.503 241.737C634.843 226.47 622.07 210.067 606.459 206.243C605.757 206.078 605.055 205.974 604.353 205.854C608.27 207.817 611.746 210.557 614.571 213.906C624.132 225.2 625.626 241.558 624.849 255.734C624.475 262.651 623.355 269.792 620.068 275.976C616.782 282.161 611.628 285.522 605.13 288.166C599.288 290.266 593.76 293.15 588.697 296.741C585.612 299.233 582.249 301.359 578.673 303.075C570.92 306.496 562.091 306.063 554.084 303.732C540.805 299.741 529.338 291.233 521.668 279.681C521.399 280.338 521.145 281.011 520.936 281.683C516.887 294.321 524.715 306.615 534.261 314.354C566.483 340.511 619.053 325.319 635.351 288.047C641.341 274.243 642.237 257.318 638.503 241.737Z" fill="#EF5959"/>
<path d="M557.566 265.011C557.566 265.011 560.076 248.415 580.452 230.04C580.452 230.04 597.363 241.378 608.313 256.452C608.313 256.452 603.174 274.946 582.917 290.631C582.932 290.646 563.736 275.588 557.566 265.011Z" fill="#68E1FD"/>
<path opacity="0.27" d="M608.313 256.451C608.313 256.451 600.844 257.751 594.017 266.699C587.19 275.647 579.915 284.431 582.932 290.601C582.932 290.646 599.425 280.234 608.313 256.451Z" fill="black"/>
<path opacity="0.27" d="M580.129 274.049C573.003 264.593 574.871 252.553 579.248 242.35C579.308 242.183 579.302 241.999 579.231 241.837C579.159 241.674 579.028 241.546 578.864 241.479C578.7 241.411 578.516 241.409 578.351 241.474C578.186 241.539 578.052 241.666 577.978 241.827C573.407 252.463 571.569 265.041 579.038 274.871C579.155 274.993 579.312 275.068 579.48 275.082C579.648 275.096 579.815 275.048 579.95 274.946C580.085 274.845 580.178 274.697 580.211 274.532C580.244 274.366 580.214 274.195 580.129 274.049Z" fill="black"/>
<path opacity="0.32" d="M366.799 295.441L301.547 334.282L427.539 404.359L486.891 364.816L445.062 340.422L451.366 310.813L417.59 293.171L405.341 308.438L366.799 295.441Z" fill="url(#paint1_linear)"/>
<path d="M436.694 122.99C435.399 123.271 434.068 123.347 432.75 123.214C431.674 123.094 429 122.751 428.627 121.481C428.591 121.354 428.507 121.247 428.392 121.182C428.277 121.118 428.141 121.102 428.014 121.137C427.888 121.173 427.78 121.258 427.716 121.373C427.651 121.487 427.635 121.623 427.671 121.75C428.104 123.244 429.837 123.632 431.181 123.946C433.086 124.365 435.058 124.365 436.963 123.946C437.575 123.811 437.321 122.855 436.694 122.99Z" fill="#75A542"/>
<path d="M189.714 275L0.00134277 383.858L385.63 606.5L574.613 500.698L189.714 275Z" fill="#81BEFE"/>
<path opacity="0.48" d="M275.364 454.22L339.164 434.134L255.628 387.734L234.849 376.181L182.287 397.805C188.287 401.489 269.469 450.414 275.364 454.22Z" fill="url(#paint2_linear)"/>
<path opacity="0.48" d="M265.118 380.158L282.356 356.237L304.807 348.367L339.17 363.546L392.719 397.112L339.17 434.133L267.092 393.761" fill="url(#paint3_linear)"/>
<path d="M240.727 293.205L237.433 295.977L237.936 380.186L235.012 382.085L230.987 379.569L226.962 293.186C230.607 293.176 237.072 293.385 240.727 293.205Z" fill="#F2F2F2"/>
<path d="M275.149 332.761L304.805 348.367L305.688 355.696L274.305 337.982" fill="#E27623"/>
<path d="M273.934 320.8L261.717 364.856L263.957 366.147C264.538 365.842 265.096 365.496 265.628 365.112C266.283 364.609 281.48 318.816 281.48 318.816" fill="#E27623"/>
<path d="M302.115 312.209L310.449 338.229L309.737 390.258L307.867 391.492L305.285 389.878L303.358 338.2L295.84 312.209" fill="#E27623"/>
<path d="M269.374 309.086C269.374 309.086 268.424 314.848 270.437 318.057C272.449 321.266 277.68 313.311 277.68 313.311" fill="#FFB469"/>
<path d="M297.014 277.637L295.846 298.711L301.371 301.578L302.387 278.985" fill="#CA6B00"/>
<path d="M331.703 293.158L335.414 321.636L339.164 363.546L336.753 364.97L334.361 363.47L329.016 322.291L325.428 293.158" fill="#E27623"/>
<path d="M327.952 296.708C329.509 297.182 332.851 294.733 333.847 293.158C339.325 284.548 337.749 272.862 327.886 267.404C323.519 264.993 319.01 262.591 314.672 260.104C310.818 257.902 306.727 256.022 302.987 253.621C302.502 253.283 301.983 252.997 301.439 252.766C299.541 252.035 297.016 253.108 295.829 254.665" fill="#FFB469"/>
<path d="M328.362 296.338C331.001 296.243 332.51 292.75 333.289 290.69C335.434 284.994 335.842 274.296 329.406 271.069C329.283 271.015 329.176 270.929 329.096 270.821C329.016 270.713 328.966 270.585 328.95 270.452L316.61 263.313L307.051 257.798C305.38 256.849 303.795 255.738 302.124 254.76C300.453 253.783 298.811 252.662 296.97 253.811C294.948 255.026 294.672 257.314 294.359 259.45C293.529 264.373 293.789 269.418 295.118 274.23C296.125 277.429 298.659 279.622 301.469 281.254L310.345 286.399L326.805 295.892C327.071 296.063 327.358 296.197 327.659 296.291C327.89 296.34 328.127 296.356 328.362 296.338Z" fill="#FCBD4C"/>
<path d="M330.163 319.148L330.667 319.433C332.058 320.12 333.308 321.064 334.35 322.214C336.846 325.347 334.435 328.926 331.958 331.119C325.265 337.07 315.118 341.94 306.033 339.738C298.135 337.839 290.759 334.128 283.83 329.96C278.134 326.543 271.043 322.423 269.59 315.38C268.907 312.124 270.17 309.058 272.286 306.609C286.525 290.091 306.593 305.602 320.699 313.681L330.163 319.148Z" fill="#FFB469"/>
<path d="M335.102 319.794C335.216 319.898 335.852 324.464 335.396 325.831C334.461 328.048 333.067 330.041 331.305 331.679C329.644 333.017 330.64 323.695 330.64 323.695" fill="#FFB469"/>
<path d="M330.163 315.219L330.667 315.503C332.058 316.191 333.308 317.134 334.35 318.285C336.846 321.417 334.435 324.996 331.958 327.189C325.265 333.141 315.118 338.011 306.033 335.808C298.135 333.91 290.759 330.198 283.83 326.031C278.134 322.613 271.043 318.494 269.59 311.45C268.907 308.194 270.17 305.128 272.286 302.679C286.525 286.162 306.593 301.673 320.699 309.751L330.163 315.219Z" fill="#FCBD4C"/>
<path d="M317.297 342.748L316.196 423.435L313.272 425.334L309.247 422.818L306.285 343.365C309.962 343.219 313.633 343.013 317.297 342.748Z" fill="#F2F2F2"/>
<path d="M192.203 317.753L189.241 397.245L185.217 399.76L182.293 397.862L181.714 311.478C185.444 311.421 188.653 318.664 192.203 317.753Z" fill="#F2F2F2"/>
<path d="M243.843 396.23C245.675 394.794 247.67 393.577 249.785 392.604C251.978 391.654 258.281 384.288 258.756 383.548C259.23 382.807 260.303 379.304 261.433 379.067C262.562 378.83 265.116 380.168 265.116 380.168C265.116 380.168 268.676 376.513 271.761 377.672C271.761 377.672 274.608 379.19 274.552 387.326C274.646 387.384 274.735 387.451 274.817 387.525C274.991 388.784 275.093 390.052 275.121 391.322C274.012 393.208 272.357 394.714 270.375 395.641C267.888 396.951 262.477 401.527 258.983 402.447C255.49 403.368 248.589 403.007 246.273 402.115C245.539 401.868 244.889 401.42 244.396 400.823C243.903 400.226 243.586 399.503 243.482 398.736C243.298 397.884 243.426 396.995 243.843 396.23Z" fill="#E05E00"/>
<path d="M264.385 379.854C264.385 379.854 268.562 376.409 271.742 377.671C274.922 378.934 274.523 386.215 274.523 386.215C274.523 386.215 274.523 390.382 269.463 392.859C264.404 395.337 265.258 397.454 258.661 399.504C252.063 401.555 245.058 399.912 243.776 397.919C242.495 395.926 246.624 394.188 246.909 393.932C247.194 393.676 253.117 390.04 254.455 388.236C255.794 386.433 258.186 383.291 259.031 381.734C259.876 380.177 260.189 378.801 261.803 378.886C262.739 378.954 263.635 379.29 264.385 379.854Z" fill="#FFC019"/>
<path d="M252.125 390.116C252.991 389.935 253.871 389.827 254.754 389.793C254.577 389.268 254.406 388.739 254.242 388.208C254.466 387.978 254.679 387.738 254.878 387.486L254.935 387.534C255.577 387.415 256.228 387.354 256.881 387.353L256.321 386.328C256.267 386.24 256.247 386.136 256.264 386.034C256.267 385.959 256.293 385.886 256.339 385.827C256.385 385.767 256.448 385.723 256.52 385.702C256.594 385.666 256.676 385.649 256.757 385.654C257.507 385.512 258.257 385.388 259.007 385.294C258.773 384.908 258.523 384.534 258.257 384.173C257.916 383.699 258.694 383.224 259.036 383.718C259.38 384.193 259.697 384.687 259.985 385.199C261.328 385.066 262.684 385.15 264 385.445C264.57 385.578 264.323 386.452 263.763 386.319C262.674 386.07 261.555 385.983 260.441 386.062C260.813 386.786 261.127 387.539 261.38 388.312C261.827 388.578 261.38 389.261 260.868 389.062C260.1 388.716 259.289 388.473 258.457 388.341C258.659 388.739 258.855 389.138 259.045 389.537C259.152 389.734 259.247 389.936 259.33 390.144C259.351 390.202 259.379 390.256 259.415 390.306C259.514 390.355 259.592 390.439 259.634 390.541C259.676 390.643 259.679 390.757 259.643 390.862C259.607 390.967 259.534 391.054 259.438 391.109C259.342 391.164 259.23 391.182 259.121 391.16C258.113 390.891 257.078 390.729 256.036 390.676C256.289 391.404 256.552 392.131 256.824 392.859C256.847 392.946 256.843 393.037 256.814 393.122C256.786 393.207 256.732 393.281 256.661 393.336C256.591 393.39 256.505 393.423 256.416 393.429C256.327 393.436 256.237 393.416 256.159 393.372C254.843 392.492 253.462 391.712 252.03 391.037H251.897C251.837 391.052 251.775 391.055 251.714 391.044C251.653 391.034 251.594 391.011 251.542 390.977C251.491 390.944 251.447 390.899 251.413 390.847C251.379 390.795 251.357 390.737 251.347 390.676C251.622 390.543 251.888 390.325 252.125 390.116ZM260.298 387.914C260.082 387.308 259.825 386.719 259.529 386.148C258.836 386.224 258.143 386.338 257.46 386.461L257.973 387.41C258.767 387.49 259.551 387.659 260.308 387.914H260.298ZM258.21 390.068C258.077 389.727 257.963 389.385 257.84 389.119C257.716 388.853 257.545 388.54 257.393 388.255C256.688 388.226 255.981 388.274 255.286 388.398C255.432 388.86 255.584 389.322 255.742 389.784C256.574 389.813 257.402 389.908 258.219 390.068H258.21ZM255.504 391.91C255.359 391.505 255.216 391.103 255.077 390.704C254.563 390.712 254.05 390.747 253.539 390.809C254.223 391.16 254.878 391.521 255.514 391.91H255.504Z" fill="#E05E00"/>
<path d="M258.776 399.865C260.609 398.429 262.603 397.212 264.719 396.239C266.911 395.29 273.215 387.923 273.689 387.183C274.164 386.442 275.237 382.94 276.366 382.702C277.496 382.465 280.049 383.803 280.049 383.803C280.049 383.803 283.609 380.149 286.694 381.307C286.694 381.307 289.542 382.826 289.485 390.961C289.579 391.019 289.668 391.086 289.751 391.16C289.925 392.419 290.026 393.687 290.055 394.957C288.945 396.843 287.29 398.349 285.308 399.276C282.821 400.586 277.41 405.162 273.917 406.083C270.424 407.003 263.523 406.643 261.206 405.75C260.473 405.503 259.823 405.055 259.329 404.458C258.836 403.861 258.52 403.138 258.415 402.371C258.232 401.519 258.36 400.63 258.776 399.865Z" fill="#E05E00"/>
<path d="M279.307 383.49C279.307 383.49 283.483 380.044 286.664 381.307C289.844 382.569 289.445 389.85 289.445 389.85C289.445 389.85 289.445 394.018 284.385 396.495C279.326 398.973 280.18 401.09 273.583 403.14C266.985 405.19 259.98 403.548 258.698 401.555C257.416 399.561 261.546 397.824 261.831 397.568C262.115 397.312 268.039 393.676 269.377 391.872C270.716 390.069 273.108 386.927 273.953 385.37C274.798 383.813 275.111 382.437 276.725 382.522C277.661 382.59 278.557 382.926 279.307 383.49Z" fill="#FFC019"/>
<path d="M267.071 393.751C267.937 393.57 268.817 393.463 269.701 393.429C269.524 392.903 269.353 392.375 269.188 391.843C269.413 391.614 269.625 391.373 269.824 391.122L269.919 391.16C270.561 391.041 271.212 390.98 271.865 390.979L271.305 389.954C271.251 389.866 271.231 389.762 271.248 389.66C271.251 389.585 271.277 389.512 271.323 389.453C271.369 389.393 271.432 389.349 271.505 389.328C271.578 389.292 271.66 389.275 271.742 389.28C272.492 389.138 273.242 389.014 273.992 388.92C273.757 388.533 273.507 388.16 273.242 387.799C272.9 387.325 273.678 386.85 274.02 387.344C274.365 387.819 274.682 388.313 274.969 388.825C276.312 388.692 277.668 388.776 278.985 389.071C279.554 389.204 279.308 390.078 278.747 389.945C277.659 389.696 276.539 389.609 275.425 389.688C275.783 390.426 276.081 391.191 276.317 391.976C276.763 392.242 276.317 392.925 275.805 392.726C275.037 392.38 274.226 392.137 273.394 392.005C273.596 392.403 273.792 392.802 273.982 393.201C274.089 393.398 274.184 393.6 274.267 393.808C274.288 393.866 274.316 393.92 274.352 393.97C274.451 394.019 274.529 394.103 274.571 394.205C274.613 394.307 274.616 394.421 274.58 394.526C274.544 394.631 274.471 394.718 274.375 394.773C274.279 394.828 274.166 394.846 274.058 394.824C273.049 394.555 272.015 394.393 270.973 394.34C271.226 395.068 271.489 395.795 271.761 396.523C271.784 396.61 271.78 396.701 271.751 396.786C271.722 396.871 271.669 396.945 271.598 397C271.528 397.054 271.442 397.087 271.353 397.093C271.264 397.1 271.174 397.08 271.096 397.036C269.779 396.156 268.399 395.376 266.967 394.701H266.834C266.774 394.716 266.712 394.718 266.651 394.708C266.589 394.698 266.531 394.675 266.479 394.641C266.428 394.607 266.383 394.563 266.35 394.511C266.316 394.459 266.293 394.401 266.284 394.34C266.549 394.178 266.806 394.008 267.071 393.751ZM275.245 391.549C275.028 390.944 274.771 390.354 274.476 389.783C273.783 389.859 273.09 389.973 272.406 390.097L272.919 391.046C273.704 391.127 274.478 391.296 275.226 391.549H275.245ZM273.156 393.704C273.023 393.362 272.909 393.02 272.786 392.755C272.663 392.489 272.492 392.176 272.34 391.891C271.634 391.862 270.928 391.91 270.232 392.033C270.378 392.495 270.53 392.957 270.688 393.419C271.514 393.449 272.336 393.544 273.147 393.704H273.156ZM270.451 395.545C270.305 395.14 270.163 394.739 270.024 394.34C269.51 394.347 268.996 394.382 268.486 394.444C269.141 394.786 269.796 395.156 270.441 395.545H270.451Z" fill="#E05E00"/>
<path d="M285.346 291.297C284.397 293.357 260.285 323.743 255.995 332.02C251.704 340.298 258.842 379.901 258.842 379.901C258.842 379.901 267.443 383.698 274.126 379.541C274.126 379.541 274.496 346.781 276.47 344.522C278.445 342.263 302.309 322.945 304.778 319.015C307.246 315.085 297.971 292.949 297.971 292.949" fill="#68E1FD"/>
<path d="M299.121 296.812C298.171 298.872 274.06 329.258 269.769 337.536C265.478 345.814 272.617 385.417 272.617 385.417C272.617 385.417 281.217 389.214 287.9 385.056C287.9 385.056 288.27 352.297 290.245 350.038C292.219 347.779 316.426 328.679 318.495 324.531C324.903 311.725 318.011 295.199 318.011 295.199" fill="#68E1FD"/>
<path d="M286.704 280.324C286.267 275.387 285.09 270.556 284.663 265.629C283.714 254.513 290.207 247.593 300.222 245.865C305.874 248.999 311.034 252.949 315.533 257.589C320.09 262.715 319.777 284.045 319.777 284.045C318.827 289.94 319.406 294.487 319.122 297.629C311.622 305.28 297.924 301.426 288.745 295.892C287.122 290.86 287.169 285.573 286.704 280.324Z" fill="#8FDB5E"/>
<path d="M301.84 235.964H302.865C303.026 235.964 303.181 236.028 303.295 236.142C303.409 236.256 303.473 236.411 303.473 236.572C303.473 236.733 303.409 236.888 303.295 237.001C303.181 237.115 303.026 237.179 302.865 237.179H301.84C301.679 237.179 301.524 237.115 301.41 237.001C301.296 236.888 301.232 236.733 301.232 236.572C301.232 236.411 301.296 236.256 301.41 236.142C301.524 236.028 301.679 235.964 301.84 235.964Z" fill="#1C5028"/>
<path d="M293.13 241.176C294.393 242.34 295.953 243.133 297.638 243.468C299.323 243.803 301.067 243.667 302.68 243.075C303.42 242.818 303.743 244.024 303.002 244.252C301.181 244.899 299.217 245.034 297.324 244.643C295.43 244.251 293.681 243.347 292.266 242.03C291.687 241.518 292.551 240.664 293.13 241.176Z" fill="#1C5028"/>
<path d="M288.772 233.316C288.772 233.316 289.864 248.362 293.661 249.083C297.458 249.805 301.692 247.821 303.011 245.922C304.331 244.024 307.141 234.531 305.783 232.794C304.426 231.057 290.899 230.563 288.772 233.316Z" fill="#FFB92C"/>
<path d="M303.864 243.805L304.434 251.228C304.434 251.228 302.146 253.127 295.52 250.915L294.571 246.615" fill="#FFB92C"/>
<path d="M286.292 228C287.136 227.665 288.044 227.523 288.95 227.582C289.248 226.284 289.973 225.124 291.01 224.288C291.937 223.611 293.033 223.204 294.178 223.112C295.322 223.019 296.469 223.246 297.493 223.766C297.855 223.959 298.19 224.199 298.49 224.478C299.064 223.946 299.743 223.542 300.484 223.291C301.226 223.041 302.011 222.951 302.79 223.026C303.682 223.107 304.532 223.443 305.238 223.993C305.945 224.544 306.479 225.285 306.777 226.13C306.931 226.598 306.995 227.09 306.967 227.582C307.874 227.634 308.744 227.962 309.46 228.522C310.176 229.082 310.703 229.847 310.973 230.715C311.185 231.361 311.246 232.047 311.15 232.72C311.055 233.393 310.806 234.036 310.422 234.597C310.947 235.13 311.307 235.803 311.46 236.535C311.613 237.267 311.553 238.028 311.286 238.726C311.007 239.454 310.538 240.093 309.926 240.576C309.315 241.059 308.584 241.368 307.812 241.47C308.055 242.185 308.097 242.953 307.935 243.691C307.147 245.476 304.992 246.226 302.989 246.681C302.904 245.732 302.809 244.783 302.752 243.833C302.741 243.745 302.719 243.659 302.686 243.577C303.361 242.977 303.935 242.272 304.385 241.489C305.021 240.454 305.476 238.983 304.385 238.043C303.293 237.103 301.774 237.663 301.034 238.793C300.823 238.305 300.579 237.832 300.303 237.378C299.354 234.967 296.838 234.711 294.474 234.692C290.896 236.591 285.656 237.948 284.203 233.392C283.548 231.351 284.165 228.883 286.292 228Z" fill="#1C5028"/>
<path d="M300.303 237.379C300.303 237.379 300.892 241.812 299.942 242.628C298.993 243.445 296.411 243.777 294.569 243.644C292.728 243.511 290.962 243.711 290.345 243.644C290.345 243.644 291.636 248.257 293.136 249.53C294.636 250.802 298.642 249.425 299.601 248.827C300.559 248.229 302.012 244.024 302.012 244.024L301.841 237.521L300.303 237.379Z" fill="#1C5028"/>
<path d="M277.523 364.534L274.229 367.305L274.676 451.515L271.752 453.413L267.727 450.898L263.702 364.515C267.395 364.496 273.859 364.685 277.523 364.534Z" fill="#F2F2F2"/>
<path d="M181.71 303.315V311.45H186.703L181.71 303.315Z" fill="#D3514A"/>
<path d="M320.598 341.124V334.195L316.193 339.729L320.598 341.124Z" fill="#D3514A"/>
<path d="M251.098 291.487L311.319 325.898C311.319 325.898 330.675 338.798 313.474 353.854C296.273 368.909 272.655 368.909 257.553 362.454C242.45 355.999 188.721 323.762 188.721 323.762C188.721 323.762 168.15 308.308 197.321 291.487C226.492 274.666 251.098 291.487 251.098 291.487Z" fill="#D3514A"/>
<path d="M251.101 284.842L311.322 319.253C311.322 319.253 330.678 332.154 313.468 347.209C296.257 362.264 272.649 362.264 257.546 355.809C242.443 349.354 188.724 317.117 188.724 317.117C188.724 317.117 168.153 301.663 197.324 284.842C226.496 268.021 251.101 284.842 251.101 284.842Z" fill="#F1756B"/>
<path opacity="0.48" d="M120.268 372.83L127.862 362.274L137.81 358.79L152.999 365.511L176.73 380.386L157.622 393.6C145.31 386.49 132.409 380.3 120.268 372.83Z" fill="url(#paint4_linear)"/>
<path opacity="0.48" d="M279.672 340.099C280.278 339.262 280.968 338.489 281.732 337.792C282.258 337.403 282.807 337.045 283.375 336.72C284.199 336.447 284.953 335.994 285.581 335.395C286.21 334.796 286.698 334.065 287.01 333.255L292.355 335.619L307.543 345.111L295.316 353.569C289.421 350.18 283.327 347.114 277.394 343.792C278.066 342.509 278.827 341.275 279.672 340.099Z" fill="url(#paint5_linear)"/>
<path opacity="0.48" d="M257.829 321.654C258.434 320.817 259.125 320.044 259.889 319.348C260.414 318.958 260.963 318.6 261.531 318.275C262.351 318.006 263.103 317.56 263.731 316.967C264.359 316.375 264.85 315.651 265.166 314.848L270.511 317.212L285.699 326.704L266.296 340.279C260.401 336.89 249.456 331.346 243.514 328.024C244.207 326.742 256.974 322.812 257.829 321.654Z" fill="url(#paint6_linear)"/>
<path d="M255.264 337.764L283.59 321.266L246.018 299.67L217.748 314.944" fill="#68E1FD"/>
<path opacity="0.38" d="M255.264 337.764L283.59 321.266L246.018 299.67L217.748 314.944" fill="black"/>
<path d="M247.944 305.213C247.944 305.213 255.377 338.172 255.272 337.764C255.168 337.355 218.602 317.706 218.355 317.003C218.108 316.301 208.682 282.83 208.682 282.83L247.944 305.213Z" fill="#68E1FD"/>
<path d="M280.371 306.457L275.692 307.406C275.692 307.406 270.195 308.545 270.3 309.238C270.404 309.931 275.692 309.922 275.692 309.922C275.692 309.922 268.097 312.485 267.813 313.425C267.528 314.364 269.217 314.374 269.217 314.374C269.217 314.374 268.021 315.712 268.857 316.719C269.692 317.725 270.898 316.719 270.898 316.719C270.898 316.719 268.999 318.076 270.66 318.617C272.322 319.158 275.701 316.377 275.701 316.377C275.798 317.098 276.132 317.765 276.65 318.275C277.429 318.873 286.295 312.039 287.652 309.998" fill="#FFB92C"/>
<path d="M306.294 281.862C306.294 281.862 280.987 303.448 280.389 305.213C279.791 306.979 286.065 310.472 290.033 311.422C292.017 311.887 294.856 310.197 296.545 309.39C300.173 307.629 303.663 305.598 306.987 303.315C310.507 301.007 313.789 298.355 316.784 295.398C320.23 291.886 321.805 288.43 321.663 283.38C321.445 275.634 320.923 264.993 316.214 258.453C316.214 258.453 312.626 253.497 308.345 257.314C308.326 257.314 301.662 263.246 306.294 281.862Z" fill="#008404"/>
<path d="M259.41 290.196C259.04 290.196 249.13 293.804 249.13 293.804L240.7 299.499C240.847 299.708 241.037 299.882 241.259 300.008C241.481 300.135 241.727 300.21 241.982 300.23C241.982 300.23 241.108 300.989 241.906 301.55C242.121 301.709 242.383 301.795 242.651 301.795C242.919 301.795 243.18 301.709 243.396 301.55C243.624 301.837 243.912 302.07 244.24 302.234C244.568 302.398 244.928 302.488 245.295 302.499C246.405 302.423 252.31 298.009 252.832 298.597C253.354 299.186 249.984 300.866 250.743 301.92C251.503 302.973 254.541 301.132 255.585 300.24C256.629 299.347 261.727 294.601 261.727 294.601" fill="#FFB92C"/>
<path d="M285.521 257.313C285.521 257.313 279.588 275.35 277.509 277.352C275.43 279.355 256.625 289.304 256.625 289.304C256.625 289.304 256.435 296.347 263.09 298.569C263.09 298.569 281.591 294.639 287.609 285.934" fill="#008404"/>
<path d="M282.859 344.504C278.251 344.504 274.515 342.493 274.515 340.013C274.515 337.534 278.251 335.523 282.859 335.523C287.467 335.523 291.203 337.534 291.203 340.013C291.203 342.493 287.467 344.504 282.859 344.504Z" fill="white"/>
<path d="M291.21 340.013L292.738 319.215L272.319 319.718L274.522 340.013" fill="white"/>
<path d="M282.505 324.996C276.854 324.996 272.272 322.408 272.272 319.215C272.272 316.022 276.854 313.434 282.505 313.434C288.157 313.434 292.738 316.022 292.738 319.215C292.738 322.408 288.157 324.996 282.505 324.996Z" fill="#CF6938"/>
<path d="M290.461 316.405V319.253C290.461 319.253 289.597 323.05 282.354 323.05C275.111 323.05 274.532 318.845 274.532 318.845V316.738" fill="#FC8754"/>
<path d="M282.489 321.351C278.09 321.351 274.524 319.277 274.524 316.719C274.524 314.16 278.09 312.086 282.489 312.086C286.887 312.086 290.453 314.16 290.453 316.719C290.453 319.277 286.887 321.351 282.489 321.351Z" fill="#CF6938"/>
<path d="M282.346 320.164C278.661 320.164 275.673 318.481 275.673 316.405C275.673 314.329 278.661 312.646 282.346 312.646C286.032 312.646 289.02 314.329 289.02 316.405C289.02 318.481 286.032 320.164 282.346 320.164Z" fill="#FC8754"/>
<path d="M440.547 424.103L747.707 601.266L952.284 481.565L645.9 304.673L440.547 424.103Z" fill="#B5E5E1"/>
<path opacity="0.32" d="M819.537 484.503L686.45 565.648L557.145 488.453L683.581 410.616" fill="url(#paint7_linear)"/>
<path opacity="0.32" d="M601.043 343.447L506.41 396.149L531.866 410.312L628.187 355.686L642.249 346.452L601.043 343.447Z" fill="url(#paint8_linear)"/>
<path opacity="0.32" d="M904.894 483.135L808.573 537.76L783.117 523.597L877.75 470.879" fill="url(#paint9_linear)"/>
<path d="M767.633 442.486V502.682H772.089L773.051 440.916" fill="#808080"/>
<path d="M792.975 419.325L801.888 484.772H797.431L788.113 421.756" fill="#808080"/>
<path d="M702.987 465.09C702.987 465.09 698.834 478.712 697.923 480.097C697.011 481.481 683.389 490.478 683.608 493.247C683.828 496.015 688.976 497.163 692.183 496.944C695.391 496.724 713.841 489.01 715.006 486.815C716.171 484.621 716.154 465.157 716.154 465.157L702.987 465.09Z" fill="#5C2D1D"/>
<path d="M724.866 481.025C724.866 481.025 720.713 494.648 719.802 496.032C718.89 497.416 705.268 506.414 705.487 509.182C705.706 511.95 710.855 513.098 714.062 512.879C717.27 512.659 735.72 504.945 736.885 502.751C738.05 500.556 738.033 481.093 738.033 481.093L724.866 481.025Z" fill="#5C2D1D"/>
<path d="M795.383 357.103C794.201 360.48 787.534 410.615 787.534 410.615L780.781 408.37L789.525 356.833" fill="#808080"/>
<path d="M792.977 419.326L793.095 411.24L785.938 413.688L788.115 421.757" fill="#A9CBF8"/>
<path d="M776.781 406.801C776.781 406.801 794.759 413.705 792.952 420.491C791.146 427.277 776.798 443.904 767.631 442.436C758.465 440.967 747.223 432.999 747.223 432.999" fill="#4A42A4"/>
<path d="M776.781 398.563C776.781 398.563 794.759 405.467 792.952 412.253C791.146 419.039 776.798 435.667 767.631 434.198C758.465 432.729 747.223 424.762 747.223 424.762" fill="#A6ACED"/>
<path d="M783.906 335.497C783.906 335.497 801.276 339.835 803.031 349.829C804.787 359.822 805.293 378.256 780.648 371.098C756.002 363.941 767.633 345.423 767.633 345.423" fill="#A6ACED"/>
<path d="M760.731 356.833C760.731 356.833 766.859 382.593 762.318 396.385C757.777 410.176 731.933 421.233 731.933 421.233L721.044 476.686C706.578 481.227 694.137 473.512 694.137 473.512C694.137 473.512 697.141 424.559 701.733 412.151C706.325 399.744 741.858 375.335 741.858 375.335" fill="#895851"/>
<path d="M761.78 389.599C761.78 389.599 726.23 413.991 721.655 426.416C717.08 438.84 714.059 487.777 714.059 487.777C714.059 487.777 726.5 495.508 740.966 490.95L751.854 435.497C751.854 435.497 770.423 430.214 774.88 416.422C779.336 402.631 777.496 381.682 777.496 381.682" fill="#895851"/>
<path d="M775.906 390.122C781.966 375.368 784.599 337.033 780.835 332.407C773.053 322.836 756.645 323.967 756.645 323.967C756.645 323.967 747.107 318.261 739.139 325.013C733.197 330.078 737.451 360.902 739.139 380.517C749.521 390.122 761 392.789 775.906 390.122Z" fill="#8CC63F"/>
<path d="M750.48 394.511C744.083 400.892 737.229 407.053 731.27 413.856C726.105 419.764 724.062 427.276 722.053 434.704C717.377 452.023 715.301 469.9 713.225 487.675C713.107 488.755 714.795 488.739 714.913 487.675C716.905 470.575 718.93 453.39 723.353 436.695C725.48 428.508 727.624 420.372 733.481 414.008C739.339 407.644 745.652 401.786 751.746 395.709C751.825 395.626 751.887 395.528 751.928 395.421C751.968 395.314 751.988 395.201 751.985 395.086C751.982 394.972 751.956 394.859 751.909 394.754C751.863 394.65 751.796 394.556 751.713 394.477C751.629 394.398 751.532 394.337 751.425 394.296C751.318 394.255 751.204 394.235 751.089 394.239C750.975 394.242 750.862 394.267 750.758 394.314C750.653 394.361 750.559 394.428 750.48 394.511Z" fill="#5C2D1D"/>
<path d="M820.591 436.831L823.968 435.008L672.244 348.09L573.543 404.066L574.877 404.842V478.729C574.903 478.905 574.992 479.065 575.127 479.181C575.261 479.297 575.433 479.36 575.611 479.36C575.788 479.36 575.96 479.297 576.095 479.181C576.23 479.065 576.318 478.905 576.345 478.729V405.72L722.312 491.001L722.667 490.799V544.007C722.693 544.182 722.782 544.342 722.917 544.458C723.052 544.574 723.223 544.638 723.401 544.638C723.579 544.638 723.75 544.574 723.885 544.458C724.02 544.342 724.109 544.182 724.135 544.007V489.989L819.562 437.388V484.418C819.588 484.594 819.677 484.754 819.812 484.87C819.947 484.985 820.118 485.049 820.296 485.049C820.474 485.049 820.645 484.985 820.78 484.87C820.915 484.754 821.004 484.594 821.03 484.418V437.388C821.018 437.263 820.97 437.144 820.892 437.046C820.814 436.947 820.71 436.873 820.591 436.831Z" fill="#68E1FD"/>
<path opacity="0.15" d="M820.591 436.831L823.968 435.008L672.244 348.09L573.543 404.066L574.877 404.842V478.729C574.903 478.905 574.992 479.065 575.127 479.181C575.261 479.297 575.433 479.36 575.611 479.36C575.788 479.36 575.96 479.297 576.095 479.181C576.23 479.065 576.318 478.905 576.345 478.729V405.72L722.312 491.001L722.667 490.799V544.007C722.693 544.182 722.782 544.342 722.917 544.458C723.052 544.574 723.223 544.638 723.401 544.638C723.579 544.638 723.75 544.574 723.885 544.458C724.02 544.342 724.109 544.182 724.135 544.007V489.989L819.562 437.388V484.418C819.588 484.594 819.677 484.754 819.812 484.87C819.947 484.985 820.118 485.049 820.296 485.049C820.474 485.049 820.645 484.985 820.78 484.87C820.915 484.754 821.004 484.594 821.03 484.418V437.388C821.018 437.263 820.97 437.144 820.892 437.046C820.814 436.947 820.71 436.873 820.591 436.831Z" fill="black"/>
<path d="M898.958 355.061L904.225 352.377L898.316 346.604L898.958 355.061Z" fill="#D64338"/>
<path d="M826.301 239.396L831.584 236.712L833.661 243.649L826.301 239.396Z" fill="#D64338"/>
<path d="M831.578 236.712L904.232 278.66V352.378L831.578 308.758V236.712Z" fill="#D64338"/>
<path d="M826.301 239.394L898.972 281.343V355.061L826.301 311.441V239.394Z" fill="#FF6753"/>
<path d="M834.449 252.376L890.814 284.905V342.097L834.449 308.251V252.376Z" fill="white"/>
<path d="M846.118 274.811L846 276.465V301.398L875.423 317.704V291.725L846.118 274.811Z" fill="#68E1FD"/>
<path d="M867.406 456.025V479.202H904.898V456.025" fill="#68E1FD"/>
<path d="M886.133 465.258C896.491 465.258 904.888 461.132 904.888 456.041C904.888 450.951 896.491 446.824 886.133 446.824C875.776 446.824 867.379 450.951 867.379 456.041C867.379 461.132 875.776 465.258 886.133 465.258Z" fill="#68E1FD"/>
<path opacity="0.19" d="M886.133 465.258C896.491 465.258 904.888 461.132 904.888 456.041C904.888 450.951 896.491 446.824 886.133 446.824C875.776 446.824 867.379 450.951 867.379 456.041C867.379 461.132 875.776 465.258 886.133 465.258Z" fill="black"/>
<path d="M886.133 489.33C896.491 489.33 904.888 485.204 904.888 480.113C904.888 475.023 896.491 470.896 886.133 470.896C875.776 470.896 867.379 475.023 867.379 480.113C867.379 485.204 875.776 489.33 886.133 489.33Z" fill="#68E1FD"/>
<path d="M907.133 402.158C903.183 400.47 897.697 395.153 892.903 395.322C891.322 399.919 890.346 404.703 889.999 409.552C889.09 417.436 888.909 425.386 889.459 433.303C889.572 435.07 889.718 436.831 889.898 438.587C889.946 439.104 890.089 439.607 890.32 440.072C890.32 446.183 890.32 452.3 890.32 458.422C890.344 458.559 890.415 458.684 890.522 458.774C890.628 458.864 890.763 458.913 890.903 458.913C891.042 458.913 891.177 458.864 891.284 458.774C891.39 458.684 891.461 458.559 891.485 458.422C891.485 452.536 891.485 446.656 891.485 440.781C893.363 440.161 895.164 439.328 896.853 438.3C900.375 436.089 903.037 432.742 904.399 428.813C907.42 420.373 905.513 410.987 908.383 402.648C907.961 402.462 907.471 402.327 907.133 402.158Z" fill="#297600"/>
<path d="M899.036 388.35C896.8 389.668 894.954 391.555 893.685 393.819C893.346 394.351 893.063 394.917 892.841 395.507L892.672 395.862C892.314 396.81 892.015 397.78 891.777 398.765C892.231 398.019 892.938 397.462 893.769 397.195C894.752 396.765 895.848 396.664 896.892 396.908C897.909 397.299 898.873 397.815 899.762 398.444C901.095 399.255 902.378 400.132 903.712 400.993C909.924 404.943 918.196 405.349 922.99 399.592C922.99 399.373 923.108 399.137 923.158 398.9C923.851 394.916 912.76 380.365 899.036 388.35Z" fill="#5FAD00"/>
<path d="M920.226 401.939L921.002 401.433C921.012 401.353 921.004 401.271 920.977 401.195C920.951 401.119 920.908 401.05 920.85 400.994C917.103 397.145 913.068 393.364 907.936 391.456C904.262 390.062 900.282 389.672 896.407 390.325C895.985 390.815 895.614 391.321 895.242 391.828C899.661 390.67 904.342 391.057 908.51 392.925C912.908 395.093 916.832 398.111 920.057 401.804C920.104 401.86 920.161 401.905 920.226 401.939Z" fill="#297600"/>
<path d="M857.293 410.38C854.57 411.783 852.318 413.954 850.818 416.625C849.318 419.296 848.634 422.348 848.852 425.403C849.291 436.46 867.522 425.673 872.367 416.338C877.212 407.003 877.971 420.322 877.971 420.322" fill="#297600"/>
<path d="M873.71 406.514C870.282 406.452 866.865 406.924 863.582 407.915C861.379 408.442 859.26 409.271 857.285 410.379C858.431 411.149 859.653 411.799 860.931 412.321C863.313 413.027 865.388 414.513 866.823 416.541C867.12 417.076 867.357 417.642 867.532 418.229C868.646 421.875 867.684 426.281 869.22 429.944C870.756 433.607 873.778 436.831 878.082 437.101C883.146 437.422 885.577 432.476 886.522 428.205C887.468 423.935 888.92 418.077 887.299 413.722C885.425 408.59 878.555 406.75 873.71 406.514Z" fill="#5FAD00"/>
<path d="M880.467 423.783C878.307 416.794 873.715 410.278 867.047 407.105H866.794L866.473 407.206L865.258 407.527C873.04 410.413 877.935 418.094 879.944 425.943C882.493 435.987 881.632 446.859 881.632 457.122C881.632 457.265 881.689 457.403 881.79 457.504C881.892 457.605 882.029 457.662 882.172 457.662C882.316 457.662 882.453 457.605 882.554 457.504C882.656 457.403 882.712 457.265 882.712 457.122C882.729 446.166 883.742 434.401 880.467 423.783Z" fill="#297600"/>
<path opacity="0.32" d="M668.362 401.348L620.691 427.901C628.659 432.966 660.715 450.184 668.413 455.602L717.688 424.069L709.568 404.336L668.362 401.348Z" fill="url(#paint10_linear)"/>
<path d="M707.75 429.876L742.456 409.636L697.216 383.64L661.75 401.905" fill="#B3B3B3"/>
<path d="M698.748 389.971C698.748 389.971 707.864 430.366 707.729 429.877C707.593 429.387 662.708 405.316 662.488 404.421C662.269 403.526 650.672 362.574 650.672 362.574L698.748 389.971Z" fill="white"/>
<path d="M685.645 382.509L694.996 376.871L706.121 386.155L697.748 389.667L685.645 382.509Z" fill="#FFE0CE"/>
<path d="M690.812 376.111C690.812 376.111 703.186 380.467 702.156 391.929C702.156 391.929 721.451 383.893 725.789 378.779C730.128 373.664 739.176 362.573 739.176 362.573V325.031C739.176 325.031 715.83 361.29 710.782 365.662C706.596 369.173 690.812 376.111 690.812 376.111Z" fill="#8CC63F"/>
<path d="M754.709 318.852C754.709 322.009 754.709 325.165 754.625 328.322C755.199 329.774 755.992 330.77 757.14 330.651C760.905 330.246 765.378 324.625 765.378 324.625L766.036 315.847L754.709 318.852Z" fill="#F9C7AF"/>
<path d="M773.027 297.059C770.681 291.995 766.055 291.033 761.211 291.995C760.126 291.207 758.899 290.634 757.598 290.307C755.538 289.792 753.375 289.865 751.355 290.519C749.334 291.172 747.538 292.38 746.17 294.004C744.87 293.844 743.551 294.018 742.338 294.51C738.742 296.03 738.304 299.862 739.148 303.221C739.148 303.356 739.148 303.474 739.283 303.609C739.654 309.568 745.461 312.049 745.461 312.049L764.114 321.351C766.139 320.247 767.848 318.643 769.077 316.692C769.475 315.928 769.732 315.099 769.837 314.244C769.972 314.132 770.096 314.008 770.208 313.873C773.888 309.247 775.593 302.613 773.027 297.059Z" fill="#895851"/>
<path d="M745.028 307.306C745.501 309.298 748.86 328.204 757.385 326.617C765.91 325.031 766.45 312.438 766.45 312.438C766.45 312.438 758.719 310.344 758.111 307.373C757.503 304.402 757.807 303.204 754.026 302.427C750.244 301.651 744.235 304.031 745.028 307.306Z" fill="#FFE0CE"/>
<path d="M737.584 364.463L736.369 345.996L730.781 372.718L737.584 364.463Z" fill="#6D9928"/>
<path d="M738.23 395.946C737.488 396.03 736.767 396.248 736.103 396.588C734.077 397.567 731.849 398.276 729.84 399.289C726.505 401.247 723.786 404.101 721.99 407.526C721.585 408.421 719.864 411.645 720.758 412.591C721.653 413.536 723.679 412.591 723.679 412.591C723.679 412.591 723.577 414.447 724.219 414.87C724.86 415.292 726.852 413.755 726.852 413.755C726.852 413.755 727.73 416.017 728.962 415.443C730.194 414.87 732.338 411.662 732.338 411.662C732.338 411.662 732.102 414.144 733.182 414.144C734.263 414.144 738.854 407.83 738.854 407.83L748.561 402.766C748.561 402.766 745.691 399.66 745.404 399.39C744.093 398.082 742.546 397.034 740.846 396.301C740.014 395.978 739.118 395.856 738.23 395.946Z" fill="#FFE0CE"/>
<path d="M736.558 404.151C734.364 406.522 732.716 409.345 731.73 412.422C731.612 412.794 732.203 412.962 732.321 412.591C733.278 409.62 734.874 406.894 736.997 404.606C737.267 404.286 736.828 403.847 736.558 404.151Z" fill="#5C2D1D"/>
<path d="M733.728 402.243C730.21 405.422 727.718 409.577 726.57 414.177C726.548 414.256 726.558 414.34 726.597 414.411C726.637 414.482 726.703 414.535 726.781 414.557C726.86 414.58 726.944 414.57 727.015 414.53C727.086 414.491 727.139 414.425 727.161 414.346C728.279 409.85 730.712 405.788 734.15 402.682C734.454 402.412 734.015 401.939 733.728 402.243Z" fill="#5C2D1D"/>
<path d="M730.836 401.584C727.385 404.546 724.806 408.392 723.375 412.708C723.24 413.08 723.848 413.249 723.966 412.877C725.373 408.668 727.9 404.922 731.275 402.04C731.562 401.77 731.123 401.331 730.836 401.584Z" fill="#5C2D1D"/>
<path d="M781.393 363.957C781.393 363.957 777.831 386.696 773.037 391.929C768.243 397.162 747.21 406.497 747.21 406.497C747.21 406.497 741.943 397.229 736.355 395.035C736.355 395.035 757.811 382.982 758.3 380.703" fill="#8CC63F"/>
<path d="M763.75 348.731C763.396 353.643 762.889 358.522 762.18 363.383C761.791 367.752 760.994 372.076 759.8 376.297C758.23 380.77 752.254 383.42 748.456 385.885C744.658 388.35 740.404 390.949 736.336 393.515C735.408 394.072 736.336 395.541 737.18 394.967C741.94 392.063 746.65 389.087 751.309 386.037C754.466 383.961 759.277 381.817 760.948 378.187C762.771 374.237 763.058 368.886 763.699 364.683C764.493 359.416 765.067 354.116 765.388 348.798C765.523 347.65 763.835 347.65 763.75 348.731Z" fill="#6D9928"/>
<g clip-path="url(#clip0)">
<path d="M254.863 531.815L558.864 707.344L748.675 600.178L446.003 422.589L254.863 531.815Z" fill="#9492F4"/>
<path d="M579.561 534.75L652.64 580.685L551.722 650.284L488.387 613.397L579.561 534.75Z" fill="url(#paint11_linear)"/>
<path d="M577.304 542.837L612.518 561.36L613.565 570.069L576.301 549.045" fill="#E27623"/>
<path d="M575.879 528.631L561.34 580.973L564.001 582.514C564.692 582.154 565.358 581.746 565.992 581.292C566.778 580.696 584.821 526.319 584.821 526.319" fill="#E27623"/>
<path d="M609.334 518.424L619.235 549.32L618.377 611.112L616.153 612.566L613.099 610.662L610.817 549.291L601.875 518.424" fill="#E27623"/>
<path d="M570.459 514.731C570.459 514.731 569.369 521.579 571.724 525.374C574.079 529.168 580.331 519.718 580.331 519.718" fill="#FFB469"/>
<path d="M603.271 477.395L601.875 502.402L608.432 505.805L609.654 478.994" fill="#CA6B00"/>
<path d="M644.464 495.817L648.869 529.635L653.318 579.389L650.468 581.075L647.619 579.302L641.28 530.406L637.02 495.817" fill="#E27623"/>
<path d="M640.012 500.034C641.858 500.601 645.827 497.693 647.02 495.817C653.519 485.64 651.643 471.711 639.939 465.285C634.763 462.377 629.398 459.571 624.251 456.561C619.671 453.944 614.815 451.72 610.38 448.87C609.801 448.473 609.182 448.136 608.534 447.867C607.324 447.541 606.045 447.583 604.859 447.987C603.673 448.391 602.634 449.138 601.875 450.135" fill="#FFB469"/>
<path d="M640.482 499.596C643.608 499.494 645.41 495.336 646.297 492.894C648.842 486.191 649.336 473.425 641.688 469.631C641.543 469.566 641.418 469.466 641.323 469.338C641.229 469.211 641.169 469.061 641.15 468.904L626.48 460.427L615.169 453.87C613.191 452.721 611.301 451.427 609.353 450.264C607.405 449.101 605.413 447.778 603.232 449.087C600.833 450.541 600.498 453.245 600.135 455.775C599.149 461.62 599.457 467.61 601.036 473.324C602.229 477.133 605.238 479.721 608.582 481.669L619.123 487.776L638.664 499.044C638.976 499.243 639.314 499.399 639.667 499.509C639.933 499.576 640.207 499.606 640.482 499.596Z" fill="#FCBD4C"/>
<path d="M642.627 526.683L643.224 527.032C644.871 527.849 646.351 528.969 647.585 530.332C650.493 534.055 647.687 538.3 644.677 540.903C636.724 547.969 624.686 553.755 613.898 551.08C604.574 548.558 595.686 544.636 587.538 539.449C580.879 535.479 572.432 530.58 570.701 522.205C570.381 520.338 570.504 518.422 571.059 516.612C571.615 514.801 572.588 513.146 573.9 511.78C590.824 492.167 614.61 510.574 631.359 520.184L642.627 526.683Z" fill="#FFB469"/>
<path d="M648.5 527.439C648.631 527.57 649.387 532.993 648.849 534.607C647.74 537.241 646.085 539.609 643.993 541.557C642.016 543.141 643.208 532.077 643.208 532.077" fill="#FFB469"/>
<path d="M642.632 521.958L643.228 522.307C644.876 523.124 646.355 524.243 647.589 525.607C650.497 529.329 647.691 533.575 644.682 536.177C636.729 543.244 624.69 549.03 613.902 546.355C604.578 543.833 595.69 539.911 587.542 534.724C580.796 530.667 572.363 525.782 570.604 517.407C570.284 515.54 570.406 513.625 570.962 511.814C571.517 510.003 572.49 508.348 573.802 506.982C590.726 487.369 614.512 505.776 631.262 515.386L642.632 521.958Z" fill="#FCBD4C"/>
<path d="M542.016 620.767L536.316 616.405C536.316 616.405 536.913 610.764 539.312 610.081C541.71 609.398 542.016 620.767 542.016 620.767Z" fill="#196132"/>
<path d="M538.12 585.669C538.12 585.669 529.004 609.514 527.797 610.706C526.59 611.898 512.691 621.087 511.222 623.283C509.754 625.478 522.505 626.423 527.506 626.19C532.508 625.958 537.408 624.446 537.931 622.687C538.455 620.927 538.338 611.419 540.054 611.971C541.77 612.524 542.017 620.782 542.017 620.782L546.698 619.124L553.968 585.786" fill="#196132"/>
<path d="M564.477 631.556L558.777 627.194C558.777 627.194 559.373 621.553 561.772 620.869C564.171 620.186 564.477 631.556 564.477 631.556Z" fill="#196132"/>
<path d="M560.53 596.458C560.53 596.458 551.414 620.302 550.207 621.494C549.001 622.687 535.101 631.876 533.633 634.071C532.164 636.266 544.915 637.211 549.917 636.979C554.918 636.746 559.818 635.234 560.341 633.475C560.865 631.716 560.748 622.207 562.464 622.759C564.18 623.312 564.427 631.57 564.427 631.57L569.109 629.913L576.378 596.574" fill="#196132"/>
<path d="M622.209 487.224C624.463 489.391 610.578 513.701 607.088 528.211C603.599 542.721 568.326 548.769 568.326 548.769L554.979 608.119C546.395 607.228 537.924 605.47 529.695 602.87C529.695 602.87 543.929 533.678 548.029 526.277C552.129 518.877 605.998 492.342 605.998 492.342" fill="#FFF0D7"/>
<path d="M630.877 492.342C633.131 494.508 639.601 511.49 630.877 532.354C625.062 546.123 593.642 555.82 593.642 555.82L575.163 612.524C575.163 612.524 565.509 616.798 552.859 611.957C552.859 611.957 562.237 546.777 566.352 539.376C570.466 531.976 611.424 505.936 611.424 505.936" fill="#FFF0D7"/>
<path d="M633.234 450.003C627.133 447.016 620.375 445.625 613.591 445.961C610.277 446.09 607.084 447.237 604.446 449.247C601.058 452.024 599.473 456.516 597.496 460.224C594.502 465.651 591.216 470.913 587.653 475.985C584.425 480.797 581.474 485.857 577.562 490.16L587.333 498.506L603.966 481.393L626.313 494.769L605.1 503.973C603.181 507.026 617.56 517.582 617.56 517.582C617.56 517.582 640.736 516.666 646.959 493.781C655.842 461.343 633.321 450.032 633.234 450.003Z" fill="#FF9A22"/>
<path d="M593.642 504.569L596.884 528.326L589.542 532.354L583.77 510.646" fill="#FFE8BC"/>
<path d="M603.861 472.989C603.861 472.989 601.811 493.852 602.886 496.251C603.962 498.65 625.393 509.584 625.393 509.584L640.311 493.329L603.861 472.989Z" fill="#FF9A22"/>
<path d="M613.917 436.947C613.917 436.947 610.5 445.67 612.186 448.578C613.873 451.486 621.942 448.985 621.942 448.985" fill="#DD654A"/>
<path d="M612.965 432.644C612.965 432.644 613.706 449.902 620.903 451.356C628.1 452.81 631.343 443.839 631.343 443.839C631.343 443.839 632.113 432.12 629.671 429.808C627.228 427.497 616.425 427.54 612.965 432.644Z" fill="#FDBA45"/>
<path d="M610.117 430.884C610.117 430.884 615.279 437.354 618.201 438.909C621.123 440.465 624.264 439.302 625.369 441.57C626.474 443.838 623.755 457.912 627.143 460.311C630.53 462.71 636.419 454.859 639.428 458.377C642.438 461.896 641.319 468.729 645.768 470.009C650.217 471.288 654.986 464.193 650.507 459.017C646.029 453.841 645.477 451.239 647.759 449.334C651.176 446.426 646.931 436.932 642.656 435.333C638.382 433.733 636.71 424.341 629.091 422.436C621.472 420.532 611.411 425.446 610.117 430.884Z" fill="#DD654A"/>
<path d="M606 466.476C605.302 476.169 604.817 485.828 604.546 495.453C604.546 496.558 602.801 496.427 602.845 495.336C603.135 485.644 603.62 475.985 604.298 466.36C604.336 466.152 604.449 465.965 604.616 465.836C604.782 465.706 604.991 465.642 605.201 465.657C605.412 465.671 605.609 465.763 605.757 465.914C605.904 466.065 605.991 466.265 606 466.476Z" fill="#F26250"/>
<path d="M605.491 503.405C611.17 501.3 616.281 497.899 620.415 493.472C624.549 489.044 627.594 483.714 629.306 477.904C629.626 476.842 631.225 477.424 630.92 478.471C629.134 484.496 625.971 490.023 621.682 494.616C617.392 499.208 612.093 502.74 606.203 504.932C605.229 505.325 604.458 503.798 605.491 503.405Z" fill="#F26250"/>
<path d="M615.922 424.559C615.922 424.559 628.455 428.528 628.309 439.942C628.309 439.942 630.796 433.05 628.309 427.525C627.546 425.922 626.358 424.558 624.874 423.584C623.389 422.61 621.666 422.062 619.891 422C619.891 422 616.155 422.538 615.922 424.559Z" fill="#6B2215"/>
<path d="M600.817 512.668C600.647 512.655 600.48 512.615 600.322 512.551C600.007 513.083 599.73 513.637 599.494 514.209C599.145 515.067 597.749 514.689 598.04 513.816L598.127 513.627C592.923 518.341 587.478 522.782 581.814 526.931C574.879 531.976 568.234 536.279 565.486 544.843C564.117 549.828 563.054 554.893 562.302 560.008L559.074 577.091L552.546 611.317C552.372 612.233 553.768 612.625 554 611.709L560.252 578.923C562.244 568.484 563.727 557.798 566.373 547.504C567.443 542.742 569.926 538.414 573.497 535.087C577.292 531.641 581.77 528.937 585.856 525.855C591.337 521.696 596.586 517.262 601.631 512.58C601.37 512.67 601.091 512.7 600.817 512.668Z" fill="#196132"/>
<path d="M586.022 540.989L615.915 523.571L570.014 497.182L546.402 516.898" fill="#68E1FD"/>
<path opacity="0.38" d="M586.022 540.989L615.915 523.571L570.014 497.182L546.402 516.898" fill="black"/>
<path d="M578.274 506.633C578.274 506.633 586.125 541.426 586.009 541.004C585.893 540.583 547.291 519.835 547.029 519.094C546.767 518.352 536.852 483.051 536.852 483.051L578.274 506.633Z" fill="#68E1FD"/>
<path d="M606.538 507.216L595.692 513.482C595.692 513.482 588.117 519.501 587.841 520.563C587.565 521.624 584.264 528.545 584.933 529.926C585.602 531.307 587.841 529.039 587.841 529.039C587.841 529.039 586.925 531.467 587.841 531.322C588.757 531.176 590.196 531.525 591.272 529.868C591.272 529.868 591.636 531.758 592.828 531.322C594.02 530.886 596.114 527.367 596.114 527.367C596.114 527.367 596.114 529.272 597.379 529.039C598.644 528.807 601.261 521.871 601.261 521.871C603.943 521.171 606.37 519.718 608.254 517.684L614.302 514.558L606.538 507.216Z" fill="#FDBA45"/>
<path d="M577.763 490.32C577.763 490.32 567.978 500.759 568.211 500.905L576.935 505.805L584.771 496.688L577.763 490.32Z" fill="#FDBA45"/>
<mask id="path-198-inside-1" fill="white">
<path d="M469.872 439.371L173.706 268.759C172.246 267.885 170.58 267.416 168.878 267.402C167.177 267.388 165.503 267.829 164.029 268.68C162.556 269.53 161.336 270.76 160.498 272.24C159.659 273.72 159.231 275.398 159.259 277.099V458.398C159.26 459.703 159.604 460.984 160.257 462.113C160.911 463.242 161.85 464.179 162.98 464.829L478.212 646.796C478.757 647.111 479.376 647.277 480.007 647.277C480.637 647.277 481.256 647.111 481.801 646.796C482.347 646.48 482.799 646.027 483.114 645.481C483.429 644.935 483.594 644.316 483.593 643.686V463.112C483.595 458.298 482.327 453.568 479.918 449.401C477.509 445.233 474.044 441.773 469.872 439.371Z"/>
</mask>
<path d="M469.872 439.371L464.652 448.432L464.654 448.434L469.872 439.371ZM173.706 268.759L168.329 277.728L168.407 277.775L168.486 277.82L173.706 268.759ZM159.259 277.099H169.716V277.014L169.715 276.929L159.259 277.099ZM159.259 458.398H148.802L148.802 458.403L159.259 458.398ZM162.98 464.829L168.208 455.773L168.202 455.769L168.196 455.766L162.98 464.829ZM478.212 646.796L483.44 637.74L483.44 637.74L478.212 646.796ZM483.593 643.686H473.136L473.136 643.696L483.593 643.686ZM483.593 463.112L473.136 463.109V463.112H483.593ZM475.092 430.31L178.926 259.698L168.486 277.82L464.652 448.432L475.092 430.31ZM179.082 259.79C176.023 257.957 172.53 256.975 168.964 256.945L168.792 277.859C168.629 277.857 168.469 277.812 168.329 277.728L179.082 259.79ZM168.964 256.945C165.398 256.916 161.89 257.841 158.801 259.623L169.257 277.736C169.116 277.818 168.955 277.86 168.792 277.859L168.964 256.945ZM158.801 259.623C155.713 261.406 153.157 263.982 151.4 267.085L169.596 277.395C169.515 277.537 169.399 277.655 169.257 277.736L158.801 259.623ZM151.4 267.085C149.642 270.188 148.745 273.704 148.803 277.269L169.715 276.929C169.717 277.092 169.676 277.253 169.596 277.395L151.4 267.085ZM148.802 277.099V458.398H169.716V277.099H148.802ZM148.802 458.403C148.803 461.545 149.633 464.631 151.206 467.35L169.308 456.876C169.575 457.337 169.716 457.861 169.716 458.393L148.802 458.403ZM151.206 467.35C152.78 470.07 155.042 472.326 157.765 473.893L168.196 455.766C168.657 456.031 169.041 456.414 169.308 456.876L151.206 467.35ZM157.753 473.886L472.984 655.853L483.44 637.74L168.208 455.773L157.753 473.886ZM472.983 655.852C475.12 657.086 477.543 657.735 480.009 657.734L480.004 636.82C481.21 636.82 482.395 637.137 483.44 637.74L472.983 655.852ZM480.009 657.734C482.476 657.734 484.899 657.083 487.034 655.849L476.568 637.742C477.613 637.138 478.798 636.82 480.004 636.82L480.009 657.734ZM487.034 655.849C489.17 654.615 490.942 652.84 492.174 650.703L474.054 640.259C474.657 639.214 475.524 638.346 476.568 637.742L487.034 655.849ZM492.174 650.703C493.406 648.565 494.053 646.142 494.05 643.675L473.136 643.696C473.135 642.49 473.452 641.305 474.054 640.259L492.174 650.703ZM494.05 643.686V463.112H473.136V643.686H494.05ZM494.05 463.115C494.052 456.463 492.301 449.927 488.972 444.168L470.864 454.633C472.354 457.21 473.137 460.133 473.136 463.109L494.05 463.115ZM488.972 444.168C485.643 438.408 480.855 433.628 475.09 430.309L464.654 448.434C467.233 449.918 469.375 452.057 470.864 454.633L488.972 444.168Z" fill="#414CD8" mask="url(#path-198-inside-1)"/>
<path d="M245.796 570.636C245.429 572.13 245.999 591.983 246.797 595.756C247.594 599.529 253.406 598.946 255.14 598.516C256.875 598.085 260.078 595.908 262.256 595.464C264.434 595.021 276.183 590.742 275.322 587.577C274.461 584.411 271.84 581.664 269.08 581.955C266.32 582.246 258.951 583.93 258.951 583.93L256.799 566.205" fill="#063507"/>
<path d="M287.718 423.095C287.587 422.77 287.571 422.409 287.672 422.073C287.774 421.737 287.986 421.446 288.275 421.247C290.428 419.73 292.418 417.994 294.213 416.068C294.243 415.676 294.243 415.283 294.213 414.891C293.948 411.827 293.618 408.763 293.327 405.699C293.213 404.509 294.315 404.066 295.214 404.344L295.138 402.432C295.135 402.162 295.207 401.896 295.347 401.664C295.486 401.433 295.688 401.245 295.928 401.121C296.169 400.998 296.439 400.943 296.709 400.965C296.978 400.986 297.237 401.082 297.455 401.242C297.455 400.799 297.455 400.356 297.379 399.913C297.252 397.976 300.265 397.976 300.392 399.913C300.557 402.306 300.671 404.711 300.785 407.104C300.861 405.306 300.937 403.496 300.962 401.698C300.962 401.298 301.121 400.915 301.403 400.633C301.686 400.35 302.069 400.191 302.469 400.191C302.868 400.191 303.251 400.35 303.534 400.633C303.816 400.915 303.975 401.298 303.975 401.698C303.975 406.269 303.671 410.814 303.279 415.372C304.266 413.587 304.165 411.713 304.431 409.636C304.697 407.56 307.71 407.712 307.444 409.636C307.065 412.498 307.267 415.005 305.52 417.474C304.578 418.771 303.495 419.96 302.291 421.019C302.228 421.144 302.147 421.259 302.051 421.361C299.397 423.854 296.505 426.081 293.416 428.008C292.086 428.843 290.884 427.311 291.301 426.147C291.238 425.989 291.2 425.822 291.187 425.653C291.133 425.597 291.082 425.538 291.036 425.476C290.682 425.416 290.357 425.243 290.111 424.982L289.833 425.222C288.389 426.45 286.25 424.349 287.718 423.095Z" fill="#F7931E"/>
<path d="M255.084 427.476C261.807 426.311 269.517 424.881 272.037 423.969C276.823 422.26 291.687 411.308 291.687 411.308C291.687 411.308 299.739 420.019 299.777 425.577C299.815 431.135 275.987 444.354 269.099 445.442C266.567 445.835 261.996 447.088 257.008 448.392C255.692 441.499 255.048 434.494 255.084 427.476Z" fill="#7DB53C"/>
<path d="M247.336 479.564C245.531 488.407 244.426 497.377 244.031 506.393C243.842 515.712 240.993 585.146 240.993 585.146C240.993 585.146 248.855 589.805 263.783 585.462C265.948 584.829 268.695 521.156 268.695 521.156L263.631 488.301" fill="#C66B28"/>
<path d="M312.981 464.51C312.934 464.332 312.927 464.146 312.959 463.964C312.992 463.783 313.064 463.611 313.17 463.46C313.276 463.309 313.414 463.184 313.574 463.092C313.733 463 313.911 462.944 314.095 462.928L320.046 462.079C321.388 461.206 322.882 460.269 324.236 459.193C324.375 457.284 324.408 455.369 324.338 453.457C324.249 451.393 327.452 451.406 327.541 453.457C327.541 454.128 327.541 454.799 327.541 455.47C328.44 453.457 328.529 450.634 328.908 448.621C329.225 446.987 331.276 447.253 331.858 448.481C331.985 447.874 332.137 447.215 332.264 446.658C332.669 444.645 335.758 445.493 335.353 447.506C335.214 448.228 335.036 448.95 334.884 449.659C335.143 449.46 335.456 449.346 335.782 449.331C336.108 449.316 336.43 449.401 336.706 449.575C336.982 449.748 337.198 450.003 337.325 450.303C337.452 450.603 337.484 450.935 337.417 451.254C337.151 452.178 336.847 453.09 336.505 453.976C337.619 453.634 339.037 454.432 338.543 455.825C337.277 459.497 336.087 464.181 332.783 466.587C328.604 469.613 322.768 470.195 317.817 470.892C317.551 470.923 317.282 470.894 317.028 470.808C316.775 470.722 316.544 470.58 316.352 470.393C316.16 470.207 316.013 469.979 315.92 469.728C315.828 469.477 315.792 469.208 315.817 468.942L315.032 469.094C313.272 469.36 312.386 467.03 313.563 466.245C313.321 466.034 313.139 465.761 313.037 465.457C312.934 465.152 312.915 464.825 312.981 464.51Z" fill="#F7931E"/>
<path d="M273.795 444.139C273.795 444.139 295.002 454.685 299.889 456.053C304.777 457.42 323.224 457.104 323.224 457.104C323.224 457.104 324.769 468.866 321.578 473.424C318.387 477.982 291.33 474.943 285.063 471.854C278.796 468.764 254.879 461.434 256.019 458.015C257.158 454.597 273.795 444.139 273.795 444.139Z" fill="#9CD861"/>
<path d="M277.878 599.592C277.511 601.086 278.081 620.938 278.879 624.711C279.676 628.484 285.488 627.902 287.222 627.472C288.957 627.041 292.16 624.863 294.338 624.42C296.516 623.977 308.265 619.698 307.404 616.532C306.543 613.367 303.922 610.62 301.162 610.911C298.402 611.202 291.033 612.886 291.033 612.886L288.881 595.16" fill="#063507"/>
<path d="M276.613 486.262C276.613 486.262 286.134 521.409 290.021 552.885C290.958 560.481 298.77 605.479 298.77 605.479C298.77 605.479 285.893 610.189 274.435 606.505C274.435 606.505 260.811 549.023 260.229 547.909C259.647 546.795 257.52 512.268 256.431 485.553" fill="#C66B28"/>
<path d="M256.143 437.01L261.802 435.744C263.17 436.023 274.894 441.67 279.363 450.545C279.809 453.195 280.054 455.874 280.098 458.56C280.338 462.156 280.49 465.751 280.439 469.347C280.434 473.268 280.133 477.183 279.541 481.059C279.262 482.717 279.11 483.591 278.718 485.173C278.037 485.698 277.27 486.101 276.451 486.364C259.422 491.124 247.774 481.008 247.331 479.628C246.887 478.248 247.331 458.978 247.596 447.519C247.649 445.067 248.518 442.701 250.066 440.798C251.614 438.895 253.752 437.562 256.143 437.01Z" fill="#9CD861"/>
<path d="M272.073 418.107C272.073 418.107 274.669 437.162 267.604 438.77C260.539 440.378 252.854 432.034 252.499 428.122C252.145 424.209 262.692 411.232 272.073 418.107Z" fill="#F7931E"/>
<path d="M247.495 421.564C247.677 418.623 248.586 415.773 250.142 413.27C252.294 409.346 256.928 408.003 260.992 407.218C262.73 406.879 264.528 407.032 266.183 407.662C266.929 406.822 267.972 406.306 269.092 406.221C270.211 406.136 271.32 406.489 272.185 407.206C272.662 407.7 272.982 408.325 273.103 409.001C273.225 409.677 273.143 410.374 272.868 411.004C273.701 411.073 274.483 411.436 275.074 412.027C275.665 412.618 276.028 413.4 276.097 414.233C276.307 415.157 276.253 416.122 275.942 417.017C275.631 417.912 275.075 418.702 274.337 419.297C274.86 419.838 275.166 420.552 275.197 421.304C275.227 422.056 274.98 422.793 274.502 423.374C272.716 425.628 269.108 425.286 266.538 425.476C266.346 425.492 266.154 425.457 265.981 425.375C265.767 425.518 265.543 425.645 265.31 425.754L264.904 425.919C264.909 425.978 264.909 426.037 264.904 426.096C264.474 427.666 265.499 428.97 264.436 430.49C264.065 431.052 263.536 431.492 262.917 431.756C262.714 431.844 262.258 431.87 262.119 431.996C261.435 432.617 261.98 433.946 262.309 434.529C262.386 434.671 262.434 434.828 262.448 434.99C262.462 435.152 262.443 435.315 262.392 435.469C262.341 435.623 262.259 435.765 262.151 435.887C262.043 436.008 261.912 436.106 261.764 436.174C261.69 436.327 261.586 436.465 261.461 436.58C261.393 436.803 261.247 436.994 261.049 437.118C260.851 437.241 260.615 437.288 260.384 437.251C258.563 436.939 256.89 436.051 255.611 434.718C254.865 434.21 254.15 433.656 253.471 433.06C251.116 430.401 248.711 427.438 247.812 423.919C247.611 423.149 247.505 422.358 247.495 421.564Z" fill="#653200"/>
<path d="M257.268 507.735C261.783 540.795 267.953 573.607 275.753 606.049C276.133 607.632 273.689 608.303 273.309 606.72C265.509 574.278 259.34 541.466 254.824 508.406C254.609 506.824 257.053 506.127 257.268 507.735Z" fill="#063507"/>
<path d="M400.507 430.328L457.508 462.605V526.001C448.822 521.343 415.815 502.636 400.482 493.925L400.507 430.328Z" fill="#FE9881"/>
<path d="M434.398 470.831C433.803 470.687 433.181 470.687 432.586 470.831C432.145 470.986 431.723 471.189 431.327 471.435C431.029 471.615 430.765 471.845 430.546 472.115L430.295 472.442L432.409 476.747L432.586 476.496C432.735 476.318 432.904 476.158 433.089 476.017C433.343 475.807 433.633 475.645 433.945 475.539C434.352 475.458 434.772 475.458 435.179 475.539C435.718 475.592 436.241 475.755 436.715 476.017C438.298 476.934 439.563 478.313 440.34 479.97C441.294 481.743 441.795 483.723 441.8 485.736C441.88 486.512 441.791 487.297 441.539 488.035C441.287 488.774 440.878 489.45 440.34 490.016C439.838 490.444 439.211 490.697 438.553 490.738C437.894 490.779 437.24 490.605 436.689 490.242C436.102 489.943 435.559 489.561 435.078 489.109C434.604 488.684 434.174 488.211 433.794 487.699C433.458 487.229 433.156 486.776 432.888 486.34C432.677 485.993 432.492 485.631 432.334 485.257L432.158 484.854L430.143 486.843L430.395 487.448C430.513 487.699 430.773 488.178 431.176 488.883C431.57 489.565 432.007 490.221 432.485 490.847C433.037 491.547 433.653 492.196 434.323 492.785C435.023 493.43 435.812 493.973 436.664 494.397C437.569 494.989 438.64 495.274 439.719 495.211C440.798 495.147 441.828 494.738 442.656 494.044C443.545 493.204 444.233 492.175 444.669 491.033C445.104 489.891 445.277 488.666 445.174 487.448C445.11 484.255 444.244 481.13 442.656 478.359C441.396 475.599 439.335 473.283 436.74 471.712C436.02 471.276 435.226 470.978 434.398 470.831Z" fill="black"/>
<path d="M413.294 480.373V474.834L417.07 476.722V472.669L413.319 470.73V465.191L410.801 463.857V469.421L407.025 467.482V471.712L410.801 473.6V479.165L413.294 480.373Z" fill="black"/>
<path d="M425.04 485.659V480.12L428.816 482.009V477.955L425.065 476.017V470.478L422.547 469.143V474.707L418.771 472.769V476.998L422.547 478.887V484.451L425.04 485.659Z" fill="black"/>
<path d="M397.787 513.151L454.785 545.502V608.769C446.1 604.111 413.094 585.406 397.762 576.695L397.787 513.151Z" fill="#FE9881"/>
<path d="M432.154 555.582C431.666 555.478 431.157 555.522 430.694 555.708C430.336 555.869 429.998 556.072 429.687 556.312C429.442 556.493 429.229 556.715 429.058 556.967L428.856 557.294L430.568 561.297L430.744 560.97C430.861 560.796 430.996 560.636 431.147 560.491C431.348 560.287 431.588 560.124 431.852 560.013C432.175 559.936 432.511 559.936 432.834 560.013C433.284 560.06 433.716 560.215 434.093 560.466C435.436 561.417 436.462 562.751 437.038 564.293C437.821 566.079 438.224 568.008 438.222 569.957C438.362 571.465 437.94 572.971 437.038 574.187C436.678 574.598 436.173 574.854 435.629 574.901C435.084 574.948 434.543 574.782 434.118 574.439C433.63 574.145 433.189 573.78 432.809 573.356C432.421 572.929 432.075 572.465 431.777 571.971C431.508 571.518 431.265 571.082 431.046 570.662C430.873 570.32 430.722 569.967 430.593 569.605L430.442 569.202L428.831 571.166L429.058 571.77C429.158 572.022 429.368 572.492 429.687 573.18C430.002 573.838 430.355 574.477 430.744 575.093C431.183 575.765 431.68 576.397 432.23 576.981C432.777 577.594 433.414 578.12 434.118 578.542C434.823 579.094 435.71 579.358 436.601 579.284C437.493 579.209 438.323 578.8 438.926 578.14C440.394 576.299 441.097 573.964 440.89 571.619C440.877 568.534 440.207 565.488 438.926 562.682C437.956 560.154 436.267 557.967 434.068 556.388C433.495 555.984 432.843 555.71 432.154 555.582Z" fill="black"/>
<path d="M421.833 562.732C422.319 562.534 422.851 562.473 423.369 562.556C423.972 562.61 424.579 562.61 425.182 562.556C425.505 562.521 425.815 562.406 426.083 562.221C426.351 562.037 426.569 561.788 426.717 561.499C427.207 560.535 427.425 559.455 427.347 558.377C427.321 556.554 426.9 554.759 426.113 553.115C425.444 551.534 424.334 550.18 422.916 549.213C422.464 548.913 421.96 548.7 421.43 548.583C421.042 548.489 420.636 548.489 420.247 548.583C419.963 548.661 419.691 548.779 419.442 548.936C419.252 549.052 419.089 549.206 418.963 549.389L418.812 549.59L420.449 553.619L420.726 553.266C420.95 553.082 421.219 552.961 421.506 552.914C421.718 552.869 421.937 552.869 422.149 552.912C422.361 552.955 422.562 553.041 422.74 553.165C423.281 553.525 423.709 554.032 423.973 554.626C424.278 555.236 424.442 555.907 424.452 556.589C424.452 557.328 424.242 557.781 423.822 557.949C423.334 558.14 422.805 558.2 422.286 558.125C421.683 558.074 421.077 558.074 420.474 558.125C420.148 558.163 419.836 558.282 419.568 558.471C419.3 558.66 419.083 558.913 418.938 559.208C418.455 560.21 418.247 561.321 418.334 562.43C418.34 564.425 418.787 566.393 419.643 568.195C420.389 569.849 421.629 571.23 423.193 572.148C423.708 572.461 424.282 572.667 424.88 572.752C425.317 572.863 425.776 572.863 426.214 572.752C426.545 572.626 426.858 572.457 427.145 572.249C427.368 572.098 427.564 571.911 427.724 571.695L427.926 571.443L426.289 567.692L425.937 568.12C425.581 568.395 425.15 568.556 424.701 568.583C424.252 568.61 423.806 568.501 423.419 568.271C422.76 567.87 422.235 567.283 421.909 566.584C421.549 565.856 421.36 565.055 421.355 564.243C421.254 563.42 421.414 562.917 421.833 562.732Z" fill="black"/>
<path d="M411.135 556.262C411.615 556.043 412.148 555.964 412.671 556.035C413.274 556.091 413.88 556.091 414.483 556.035C414.811 555.993 415.123 555.869 415.391 555.676C415.66 555.483 415.875 555.225 416.019 554.928C416.499 553.925 416.708 552.814 416.623 551.705C416.594 549.84 416.165 548.003 415.364 546.318C414.704 544.718 413.593 543.345 412.167 542.365C411.717 542.062 411.212 541.849 410.682 541.736C410.293 541.642 409.887 541.642 409.498 541.736C409.213 541.821 408.941 541.948 408.693 542.113C408.502 542.238 408.339 542.4 408.215 542.592L408.063 542.818L409.7 546.922L409.977 546.569C410.202 546.386 410.471 546.264 410.757 546.217C410.969 546.169 411.188 546.167 411.401 546.21C411.614 546.254 411.815 546.342 411.991 546.469C412.536 546.835 412.964 547.351 413.224 547.954C413.527 548.574 413.69 549.253 413.703 549.943C413.703 550.698 413.493 551.168 413.073 551.353C412.589 551.556 412.058 551.625 411.538 551.554C410.935 551.502 410.328 551.502 409.725 551.554C409.395 551.599 409.081 551.726 408.812 551.924C408.544 552.122 408.33 552.385 408.189 552.687C407.707 553.725 407.499 554.869 407.585 556.01C407.59 558.054 408.037 560.072 408.894 561.926C409.614 563.6 410.837 565.008 412.394 565.955C412.907 566.272 413.482 566.478 414.08 566.559C414.529 566.632 414.988 566.589 415.415 566.433C415.739 566.297 416.043 566.119 416.321 565.904C416.544 565.744 416.74 565.549 416.9 565.325L417.102 565.048L415.465 561.222L415.138 561.675C414.86 561.92 414.521 562.086 414.156 562.153C413.887 562.22 413.607 562.23 413.334 562.182C413.061 562.135 412.8 562.03 412.57 561.876C411.907 561.469 411.381 560.873 411.059 560.164C410.682 559.379 410.492 558.517 410.506 557.647C410.573 556.925 410.782 556.463 411.135 556.262Z" fill="black"/>
</g>
<defs>
<linearGradient id="paint0_linear" x1="514.246" y1="339.809" x2="548.052" y2="309.887" gradientUnits="userSpaceOnUse">
<stop stop-color="#BF5A00" stop-opacity="0.03"/>
<stop offset="0.84" stop-color="#BF5A00" stop-opacity="0.84"/>
<stop offset="1" stop-color="#BF5A00"/>
</linearGradient>
<linearGradient id="paint1_linear" x1="33548.5" y1="27531" x2="37059.2" y2="16699.1" gradientUnits="userSpaceOnUse">
<stop stop-color="#BF5A00" stop-opacity="0.03"/>
<stop offset="0.84" stop-color="#BF5A00" stop-opacity="0.84"/>
<stop offset="1" stop-color="#BF5A00"/>
</linearGradient>
<linearGradient id="paint2_linear" x1="301.563" y1="463.371" x2="244.437" y2="397.084" gradientUnits="userSpaceOnUse">
<stop offset="0.01" stop-color="#2E3192" stop-opacity="0"/>
<stop offset="1" stop-color="#0071BC"/>
</linearGradient>
<linearGradient id="paint3_linear" x1="-10344.9" y1="20487.1" x2="-14871.8" y2="12672.2" gradientUnits="userSpaceOnUse">
<stop offset="0.01" stop-color="#2E3192" stop-opacity="0"/>
<stop offset="1" stop-color="#0071BC"/>
</linearGradient>
<linearGradient id="paint4_linear" x1="-15527.8" y1="7502.42" x2="-16711.5" y2="5894.51" gradientUnits="userSpaceOnUse">
<stop offset="0.01" stop-color="#2E3192" stop-opacity="0"/>
<stop offset="1" stop-color="#0071BC"/>
</linearGradient>
<linearGradient id="paint5_linear" x1="301.838" y1="352.354" x2="280.536" y2="334.517" gradientUnits="userSpaceOnUse">
<stop offset="0.01" stop-color="#2E3192" stop-opacity="0"/>
<stop offset="1" stop-color="#9E005D"/>
</linearGradient>
<linearGradient id="paint6_linear" x1="-6574.95" y1="4069.97" x2="-7277.63" y2="3094.14" gradientUnits="userSpaceOnUse">
<stop offset="0.01" stop-color="#2E3192" stop-opacity="0"/>
<stop offset="1" stop-color="#9E005D"/>
</linearGradient>
<linearGradient id="paint7_linear" x1="667.24" y1="523.176" x2="722.71" y2="426.669" gradientUnits="userSpaceOnUse">
<stop stop-opacity="0"/>
<stop offset="0.99" stop-color="#006837"/>
</linearGradient>
<linearGradient id="paint8_linear" x1="18685.7" y1="9753.26" x2="20779" y2="7776.86" gradientUnits="userSpaceOnUse">
<stop stop-opacity="0"/>
<stop offset="0.99" stop-color="#006837"/>
</linearGradient>
<linearGradient id="paint9_linear" x1="32901.8" y1="16479.6" x2="34984.2" y2="13307.7" gradientUnits="userSpaceOnUse">
<stop stop-opacity="0"/>
<stop offset="0.99" stop-color="#006837"/>
</linearGradient>
<linearGradient id="paint10_linear" x1="660.412" y1="436.477" x2="696.3" y2="393.583" gradientUnits="userSpaceOnUse">
<stop stop-opacity="0"/>
<stop offset="0.99" stop-color="#1A1A1A"/>
</linearGradient>
<linearGradient id="paint11_linear" x1="613.665" y1="553.542" x2="529.45" y2="633.58" gradientUnits="userSpaceOnUse">
<stop offset="0.473958" stop-color="#6A55E2"/>
<stop offset="1" stop-color="#6B56E2" stop-opacity="0.2"/>
</linearGradient>
<clipPath id="clip0">
<rect width="878.392" height="658.794" fill="white" transform="translate(80.082 98.5951)"/>
</clipPath>
</defs>
</svg>
