<svg width="493" height="370" viewBox="0 0 493 370" fill="none" xmlns="http://www.w3.org/2000/svg">
<path d="M31.9049 214.948L258.574 345.803C261.976 347.761 265.838 348.781 269.763 348.76C273.689 348.738 277.539 347.675 280.919 345.679L461.135 238.932C461.991 238.425 462.7 237.704 463.193 236.839C463.685 235.975 463.944 234.997 463.944 234.002C463.944 233.008 463.685 232.03 463.193 231.166C462.7 230.301 461.991 229.58 461.135 229.072C421.067 205.988 252.264 108.707 224.804 93.14C223.668 92.4845 222.38 92.1394 221.069 92.1394C219.758 92.1394 218.47 92.4845 217.335 93.14L31.8556 202.019C30.7245 202.679 29.7869 203.626 29.1369 204.763C28.4869 205.9 28.1474 207.188 28.1524 208.498C28.1574 209.808 28.5067 211.093 29.1654 212.225C29.824 213.357 30.7688 214.296 31.9049 214.948Z" fill="#DAF2E9"/>
<path d="M101.449 187.919L43.8789 220.05C43.8789 220.05 143.711 279.026 170.075 294.715L229.419 257.74" fill="url(#paint0_linear)"/>
<path d="M166.879 12.325L186.168 22.6163L133.491 72.2244L87.0376 86.8173L71.582 65.8401" fill="#FFE8BC"/>
<path d="M94.1491 76.2546L76.2409 66.0618L166.879 12.3248L164.747 11.0923L71.582 65.8399V205.655L91.906 217.216L99.6584 209.13" fill="#68E1FD"/>
<path opacity="0.42" d="M94.1491 76.2546L76.2409 66.0618L166.879 12.3248L164.747 11.0923L71.582 65.8399V205.655L91.906 217.216L99.6584 209.13" fill="#1371A5"/>
<path d="M186.168 22.6165L91.9062 77.5736V217.216L187.659 159.991L186.168 22.6165Z" fill="#68E1FD"/>
<path d="M95.4688 68.4037L101.225 72.0519V101.829L104.873 97.1456L107.436 100.042V68.5146L102.063 64.6445L95.4688 68.4037Z" fill="#E85858"/>
<path d="M105.107 218.362C104.65 218.362 100.583 216.735 104.01 214.11C106.283 212.343 108.662 210.717 111.133 209.241" fill="#E27825"/>
<path d="M105.109 196.781C105.109 196.781 108.536 209.463 105.109 216.23L151.686 243.616L197.756 270.275V250.555" fill="#FFE8BC"/>
<path d="M103.527 194.809C103.634 195.688 103.745 196.567 103.86 197.447L197.715 250.567V270.287L103.959 215.564C103.959 216.341 103.959 217.117 103.959 217.906L201.388 274.293V247.425L103.527 194.809Z" fill="#E27825"/>
<path d="M104.072 195.154L200.873 250.617L336.694 170.874L241.977 116.508C240.544 115.686 238.918 115.259 237.266 115.269C235.614 115.28 233.995 115.729 232.573 116.57L104.06 192.738C103.851 192.864 103.679 193.042 103.559 193.254C103.44 193.466 103.378 193.706 103.379 193.95C103.38 194.193 103.445 194.432 103.566 194.644C103.688 194.855 103.862 195.031 104.072 195.154Z" fill="#FDBA45"/>
<path d="M201.367 274.281C201.367 274.281 337.102 194.341 336.695 193.958C336.289 193.576 336.695 170.824 336.695 170.824L200.898 250.567L201.367 274.281Z" fill="#E27825"/>
<path d="M104.06 192.738C103.663 193.025 103.33 193.393 103.086 193.818C102.842 194.243 102.691 194.715 102.643 195.203C102.483 196.855 104.245 197.668 104.862 198.001" fill="#FDBA45"/>
<path d="M380.927 309.961C380.909 309.855 380.854 309.758 380.772 309.688C380.69 309.618 380.585 309.58 380.477 309.58C380.369 309.58 380.265 309.618 380.182 309.688C380.1 309.758 380.045 309.855 380.027 309.961" fill="#7A9F36"/>
<path d="M95.4229 180.598C94.9669 180.598 90.8997 178.971 94.326 176.346C96.599 174.579 98.978 172.953 101.45 171.478" fill="#9A433A"/>
<path d="M95.4219 158.992C95.4219 158.992 98.8482 171.675 95.4219 178.441L141.998 205.827L188.069 232.486V212.766" fill="#FFE8BC"/>
<path d="M93.8828 157.045C93.9896 157.924 94.1006 158.804 94.2156 159.683L188.07 212.803V232.523L94.2895 177.788C94.2895 178.565 94.2895 179.341 94.2895 180.13L191.719 236.517V209.661L93.8828 157.045Z" fill="#9A433A"/>
<path d="M94.3953 157.39L191.196 212.853L327.017 133.11L232.3 78.7443C230.867 77.9222 229.241 77.4947 227.589 77.5056C225.937 77.5164 224.318 77.9651 222.896 78.8059L94.383 154.962C94.1713 155.087 93.9961 155.265 93.8747 155.479C93.7534 155.692 93.6902 155.934 93.6914 156.18C93.6927 156.425 93.7583 156.666 93.8818 156.879C94.0053 157.091 94.1824 157.268 94.3953 157.39Z" fill="#F26250"/>
<path d="M191.688 236.517C191.688 236.517 327.424 156.527 327.017 156.195C326.61 155.862 327.017 133.061 327.017 133.061L191.195 212.803L191.688 236.517Z" fill="#9A433A"/>
<path d="M94.3886 154.962C93.9908 155.249 93.6586 155.617 93.4142 156.042C93.1698 156.467 93.0188 156.939 92.9712 157.427C92.811 159.079 94.5734 159.892 95.1897 160.225" fill="#F26250"/>
<path d="M175.174 215.071L174.188 232.955L178.982 228.999L182.642 238.131L184.121 219.767L175.174 215.071Z" fill="#2AE400"/>
<path d="M258.184 205.088L262.818 202.833C262.818 202.833 263.188 198.765 261.585 197.903C259.983 197.04 258.184 205.088 258.184 205.088Z" fill="#196132"/>
<path d="M269.459 193.502C269.459 193.502 270.1 203.498 270.79 204.521C271.48 205.544 280.367 210.203 281.094 211.916C281.821 213.629 271.234 211.768 267.684 210.893C264.135 210.018 260.93 208.268 260.807 206.961C260.684 205.655 262.039 198.938 260.807 199.086C259.574 199.233 258.182 205.038 258.182 205.038L255.125 203.264L261.928 179.846" fill="#196132"/>
<path d="M279.246 195.129L283.88 192.874C283.88 192.874 284.25 188.807 282.648 187.944C281.046 187.081 279.246 195.129 279.246 195.129Z" fill="#196132"/>
<path d="M290.526 183.556C290.526 183.556 291.167 193.552 291.857 194.575C292.547 195.598 301.434 200.257 302.161 201.97C302.888 203.683 292.301 201.822 288.751 200.947C285.202 200.072 281.997 198.322 281.874 197.015C281.751 195.709 283.106 188.992 281.874 189.139C280.641 189.287 279.249 195.092 279.249 195.092L276.18 193.268L282.983 169.851" fill="#196132"/>
<path d="M256.066 108.571C254.439 110.136 250.631 131.902 253.169 142.354C255.708 152.805 281.098 157.144 281.098 157.144L275.133 183.778C275.133 183.778 284.857 191.173 294.15 188.117C297.503 187.032 305.144 148.788 302.186 143.463C299.228 138.139 265.211 119.701 265.211 119.701" fill="#FFF0D7"/>
<path d="M236.023 116.508C234.396 118.074 229.712 130.312 236.023 145.336C240.188 155.196 262.842 162.246 262.842 162.246L255.126 191.74C255.126 191.74 265.27 200.146 274.144 196.078C283.018 192.011 285.507 155.776 282.549 150.476C279.591 145.176 250.122 126.393 250.122 126.393" fill="#FFF0D7"/>
<path d="M244.033 87.2366C244.033 87.2366 227.234 94.2125 231.93 118.049C235.233 134.811 251.847 136.66 251.847 136.66C251.847 136.66 262.73 129.807 261.51 127.515L246.72 119.812L263.47 111.344L275.561 124.027L284.188 117.297C284.188 117.297 271.715 97.7252 266.292 89.64C260.869 81.5548 244.033 87.2366 244.033 87.2366Z" fill="#FF9A22"/>
<path d="M265.813 127.699L262.855 125.32C262.855 125.32 269.449 119.293 278.447 120.082C280.819 116.429 284.38 113.708 288.528 112.379L292.226 115.054" fill="#FFE8BC"/>
<path d="M262.857 125.321L260.516 142.44L265.803 145.336L269.969 129.696" fill="#FFE8BC"/>
<path d="M265.817 127.7L263.352 143.907L265.817 145.337C265.817 145.337 290.972 131.508 290.725 131.261C290.479 131.015 292.241 115.066 292.241 115.066" fill="#68E1FD"/>
<path d="M290.414 113.747L265.801 127.699L268.118 129.006L292.238 115.054L290.414 113.747Z" fill="#68E1FD"/>
<path opacity="0.42" d="M290.414 113.747L265.801 127.699L268.118 129.006L292.238 115.054L290.414 113.747Z" fill="#1371A5"/>
<path d="M268.964 129.955C269.024 129.728 269.023 129.49 268.961 129.264C268.9 129.037 268.78 128.831 268.615 128.665C268.449 128.5 268.243 128.38 268.017 128.319C267.79 128.257 267.552 128.256 267.325 128.316C265.409 129.023 263.377 129.365 261.335 129.326C261.116 129.319 260.899 129.37 260.707 129.474C258.788 131.402 256.659 133.11 254.359 134.564L255.05 134.885C255.963 136.674 257.009 138.392 258.18 140.024C258.446 140.402 258.799 140.711 259.208 140.925C259.618 141.139 260.072 141.253 260.534 141.257C260.838 141.487 261.16 141.693 261.496 141.873C261.978 142.141 262.529 142.258 263.078 142.21C263.627 142.161 264.149 141.95 264.577 141.602C264.896 141.803 265.28 141.874 265.649 141.799C265.889 141.923 266.16 141.975 266.429 141.948C266.698 141.922 266.953 141.819 267.165 141.651C267.77 141.295 268.212 140.718 268.399 140.042C268.585 139.365 268.501 138.643 268.163 138.028C268.592 137.536 268.836 136.91 268.854 136.258C268.872 135.606 268.663 134.968 268.262 134.453C267.707 133.656 267.019 132.96 266.228 132.395C266.867 132.284 267.461 131.996 267.944 131.565C268.428 131.134 268.781 130.576 268.964 129.955Z" fill="#FDBA45"/>
<path d="M293.165 124.273C293.313 124.051 293.448 123.817 293.584 123.595C293.686 123.44 293.752 123.264 293.777 123.079C293.802 122.895 293.784 122.707 293.726 122.531C293.668 122.354 293.571 122.193 293.442 122.059C293.312 121.925 293.154 121.823 292.98 121.759L292.795 121.586C292.925 121.287 292.942 120.95 292.842 120.64C292.742 120.329 292.533 120.065 292.253 119.898C292.062 119.801 291.851 119.751 291.636 119.751C291.422 119.751 291.211 119.801 291.02 119.898C290.903 119.926 290.791 119.972 290.687 120.033C289.742 120.632 289.019 121.524 288.629 122.572C288.551 122.856 288.57 123.157 288.681 123.429C288.793 123.701 288.991 123.928 289.245 124.076C289.392 124.152 289.55 124.202 289.714 124.224C289.243 124.837 288.862 125.513 288.58 126.233C288.235 127.169 289.196 127.995 290.047 127.909L289.849 128.18C289.11 129.141 290.33 130.436 291.353 130.14C291.716 130.019 292.051 129.824 292.335 129.567C292.619 129.31 292.847 128.998 293.005 128.648C293.436 127.86 293.855 127.071 294.237 126.27C294.335 126.071 294.384 125.851 294.38 125.63C294.376 125.408 294.319 125.191 294.215 124.995C294.11 124.8 293.96 124.633 293.777 124.507C293.595 124.381 293.385 124.301 293.165 124.273Z" fill="#FDBA45"/>
<path d="M264.065 105.255C264.065 105.255 264.472 120.366 263.572 122.017C262.672 123.669 246.712 130.448 246.712 130.448L236.852 117.999L264.065 105.255Z" fill="#FF9A22"/>
<path d="M255.943 79.3975C255.943 79.3975 258.753 85.56 257.669 87.7292C256.584 89.8984 250.668 88.4194 250.668 88.4194" fill="#1B6333"/>
<path d="M256.447 76.2671C256.447 76.2671 256.62 88.7153 251.517 90.0587C246.415 91.4022 243.703 85.1287 243.703 85.1287C243.703 85.1287 242.668 76.7231 244.319 74.9606C245.971 73.1981 253.748 72.7175 256.447 76.2671Z" fill="#FDBA45"/>
<path d="M258.419 74.8864C258.419 74.8864 254.98 79.8164 252.946 81.0489C250.913 82.2814 248.608 81.5789 247.893 83.2674C247.178 84.9559 249.73 94.9638 247.388 96.8249C245.046 98.686 240.486 93.2876 238.477 95.9375C236.468 98.5874 237.552 103.468 234.397 104.565C231.242 105.662 227.52 100.757 230.527 96.8619C233.534 92.9672 233.83 91.0568 232.105 89.775C229.529 87.8646 232.191 80.8271 235.198 79.496C238.206 78.1649 239.019 71.3368 244.43 69.636C249.84 67.9351 257.248 71.0287 258.419 74.8864Z" fill="#1B6333"/>
<path d="M262.856 100.461C262.856 107.429 262.72 114.413 262.449 121.413C262.449 122.202 263.682 122.202 263.682 121.413C263.969 114.446 264.105 107.462 264.088 100.461C264.088 100.298 264.024 100.141 263.908 100.025C263.792 99.9097 263.636 99.8447 263.472 99.8447C263.309 99.8447 263.152 99.9097 263.036 100.025C262.921 100.141 262.856 100.298 262.856 100.461Z" fill="#F26250"/>
<path d="M261.291 127.034C257.323 125.226 253.831 122.518 251.093 119.124C248.354 115.731 246.444 111.746 245.515 107.486C245.342 106.71 244.159 107.042 244.282 107.819C245.254 112.238 247.239 116.372 250.082 119.892C252.925 123.413 256.547 126.225 260.662 128.106C261.427 128.426 262.055 127.366 261.291 127.034Z" fill="#F26250"/>
<path d="M386.383 178.323C386.028 179.096 385.82 179.928 385.77 180.776L386.383 178.323Z" fill="#FF666D"/>
<path opacity="0.32" d="M390 264.5L428.5 240H406.5L372.5 252.5C389.488 262.996 373.536 253.297 390 264.5Z" fill="url(#paint1_linear)" fill-opacity="0.6"/>
<path d="M432.909 202.19C432.824 201.839 432.667 201.51 432.449 201.223C432.044 200.733 431.562 200.313 431.021 199.98C423.792 195.084 413.786 193.733 406.127 198.445C404.377 199.534 401.784 202.021 402.812 204.354C403.41 205.704 405.221 206.502 406.48 207.055C410.684 208.72 415.075 209.864 419.556 210.462C421.183 210.738 422.81 210.999 424.452 211.168C425.58 211.275 426.717 211.096 427.758 210.648C428.798 210.2 429.709 209.497 430.407 208.605C431.574 207.239 433.431 204.308 432.909 202.19Z" fill="#007058"/>
<path d="M402.645 203.356C407.762 207.305 414.204 209.13 420.632 208.452C432.02 207.577 432.91 202.19 432.91 202.19C432.91 202.19 429.964 239.961 428.398 240.559C426.833 241.158 421.016 244.013 418.207 244.227C415.399 244.442 406.512 240.882 406.297 239.899C406.082 238.917 402.645 203.356 402.645 203.356Z" fill="#4BE2C5"/>
<path d="M422.225 192.844C422.038 193.249 421.929 193.687 421.902 194.133L422.225 192.844Z" fill="#FF666D"/>
<path d="M404.719 148.319C404.366 147.598 403.291 148.227 403.644 148.948C411.441 164.879 412.961 182.806 414.388 200.21C414.388 201.008 415.692 201.008 415.631 200.21C414.204 182.545 412.623 164.465 404.719 148.319Z" fill="#FF666D"/>
<path d="M403.737 148.473C403.737 148.473 405.917 156.73 403.737 160.874C401.558 165.018 399.624 165.831 402.31 170.988C404.996 176.145 412.179 176.805 412.654 180.749C413.13 184.694 409.14 155.487 403.737 148.473Z" fill="#FF666D"/>
<path d="M428.677 163.39C422.684 176.136 419.318 189.958 418.777 204.032C418.777 205.014 420.312 205.014 420.312 204.032C420.846 190.212 424.155 176.641 430.043 164.127C430.396 163.283 429.091 162.516 428.677 163.39Z" fill="#FF666D"/>
<path d="M429.731 167.427C429.731 166.598 429.547 164.971 429.639 163.513L428.764 164.066C425.802 171.356 421.382 188.5 420.047 193.749C421.843 189.82 429.256 189.282 431.389 183.634C432.344 181.253 432.387 178.603 431.512 176.191C430.449 173.385 429.848 170.425 429.731 167.427Z" fill="#FF666D"/>
<defs>
<linearGradient id="paint0_linear" x1="17380.8" y1="23401.1" x2="18755.1" y2="20177.9" gradientUnits="userSpaceOnUse">
<stop stop-color="#DAF2E9"/>
<stop offset="1" stop-color="#C4E0D1"/>
</linearGradient>
<linearGradient id="paint1_linear" x1="365.887" y1="274.87" x2="412.034" y2="238.409" gradientUnits="userSpaceOnUse">
<stop stop-opacity="0"/>
<stop offset="0.99" stop-color="#1A1A1A"/>
</linearGradient>
</defs>
</svg>
