<svg width="54" height="54" viewBox="0 0 54 54" fill="none" xmlns="http://www.w3.org/2000/svg">
<path d="M34.5781 25.5598L36.0816 24.0564C36.0816 24.0564 37.585 22.5529 39.0884 24.0564L42.0953 27.0632C42.0953 27.0632 43.5987 28.5667 42.0953 30.0701L40.5918 31.5735L34.5781 25.5598Z" fill="#66757F"/>
<path d="M52.4396 41.9161C54.1926 43.6691 54.1926 46.5407 52.4396 48.2937L48.2932 52.4401C46.5402 54.1931 43.6686 54.1931 41.9156 52.4401L13.7143 24.2388C11.9598 22.4858 11.9598 19.6143 13.7143 17.8613L17.8608 13.7148C19.6153 11.9603 22.4853 11.9603 24.2383 13.7148L52.4396 41.9161Z" fill="#8899A6"/>
<path d="M31.3932 16.3574C33.1462 18.1119 33.1462 20.982 31.3932 22.735L22.7364 31.3917C20.9819 33.1447 18.1119 33.1447 16.3589 31.3917L9.02366 24.0565C9.02366 24.0565 7.52023 22.5531 9.02366 21.0496L21.0511 9.02219C22.5545 7.51877 24.058 9.02219 24.058 9.02219L31.3932 16.3574Z" fill="#66757F"/>
<path d="M10.5234 25.5607L25.5577 10.5264L28.5646 13.5332L13.5303 28.5675L10.5234 25.5607Z" fill="#8899A6"/>
<path d="M16.5402 9.0225C15.9884 9.0225 15.4577 8.71881 15.1931 8.19111L12.1863 2.17739C11.8149 1.4347 12.1171 0.532639 12.8598 0.159789C13.604 -0.213062 14.506 0.0891276 14.8774 0.831822L17.8843 6.84554C18.2556 7.58823 17.9549 8.49179 17.2122 8.86314C16.9957 8.97139 16.7657 9.0225 16.5402 9.0225ZM7.5166 18.0431C7.29109 18.0431 7.06107 17.992 6.84608 17.8837L0.832358 14.8769C0.0896645 14.5055 -0.212525 13.6035 0.158822 12.8608C0.530169 12.1181 1.43223 11.8159 2.17642 12.1887L8.19014 15.1956C8.93283 15.5669 9.23352 16.4705 8.86217 17.2132C8.59907 17.7394 8.06836 18.0431 7.5166 18.0431ZM12.0284 13.5328C11.6435 13.5328 11.2586 13.3855 10.9655 13.0923L4.95175 7.07857C4.36391 6.49073 4.36391 5.54056 4.95175 4.95272C5.5396 4.36488 6.48976 4.36488 7.0776 4.95272L13.0913 10.9664C13.6792 11.5543 13.6792 12.5044 13.0913 13.0923C12.7982 13.3855 12.4133 13.5328 12.0284 13.5328Z" fill="#FFCC4D"/>
</svg>
