<svg width="575" height="432" viewBox="0 0 575 432" fill="none" xmlns="http://www.w3.org/2000/svg">
<path d="M92.1249 305.08L272.574 409.256C274.863 410.567 277.455 411.257 280.092 411.257C282.73 411.257 285.322 410.567 287.611 409.256L495.789 290.95C497.076 290.211 498.146 289.145 498.889 287.86C499.633 286.575 500.024 285.117 500.024 283.633C500.024 282.149 499.633 280.691 498.889 279.406C498.146 278.121 497.076 277.055 495.789 276.316L310.352 169.079C309.456 168.554 308.436 168.278 307.398 168.278C306.359 168.278 305.34 168.554 304.444 169.079L92.0674 294.989C91.1908 295.511 90.4657 296.252 89.9639 297.14C89.4622 298.028 89.2013 299.031 89.2071 300.051C89.2129 301.071 89.4853 302.072 89.9971 302.954C90.5089 303.836 91.2424 304.569 92.1249 305.08Z" fill="#FFD348"/>
<path opacity="0.32" d="M316.38 329.001C316.278 328.845 316.224 328.662 316.224 328.476C316.224 328.29 316.278 328.108 316.38 327.951C316.581 327.592 311.176 326.514 311.377 326.14C311.636 325.249 308.157 325.062 308.402 324.171C299.288 320.131 297.419 318.737 290.49 312.038L217.293 352.82L247.38 369.984L315.891 331.056C316.035 330.366 316.198 329.681 316.38 329.001Z" fill="url(#paint0_linear)"/>
<path opacity="0.32" d="M479.217 285.171C479.116 285.015 479.062 284.833 479.062 284.647C479.062 284.46 479.116 284.278 479.217 284.122L479.821 283.029C480.08 282.138 480.339 281.261 480.569 280.37C471.455 276.331 460.242 274.907 453.256 268.209L380.059 308.991L410.145 326.154L478.685 287.212C478.858 286.522 479.035 285.842 479.217 285.171Z" fill="url(#paint1_linear)"/>
<path d="M311.475 174.7C312.913 175.85 318.519 214.403 317.642 217.163C316.765 219.923 308.184 224.135 308.184 224.135" fill="#159E97"/>
<path d="M260.303 174.326L259.757 173.348C259.945 173.239 260.087 173.065 260.156 172.858C260.225 172.652 260.216 172.427 260.13 172.227C259.67 171.178 259.182 170.128 258.693 169.079C258.723 168.951 258.723 168.818 258.693 168.691C258.056 166.351 257.784 163.926 257.888 161.503C258.103 159.548 258.678 157.679 258.88 155.753C258.88 155.049 258.147 154.819 257.629 155.034C257.183 155.246 256.83 155.614 256.637 156.069C256.031 156.948 255.642 157.958 255.502 159.016C255.459 158.561 255.347 158.115 255.171 157.694L254.783 156.098C254.597 155.255 254.317 154.436 253.949 153.654C253.575 152.921 252.742 152.591 252.325 153.065C251.692 153.784 252.325 155.106 252.425 155.94C252.526 156.774 252.684 157.521 252.9 158.369C252.569 157.579 251.908 156.213 251.462 155.25C251.132 154.517 250.183 152.131 249.119 152.447C248.055 152.763 248.573 154.402 248.86 155.178L249.68 157.392C249.924 158.053 250.197 158.916 250.485 159.519C250.485 159.519 249.378 157.909 248.832 157.047C248.285 156.184 247.926 155.379 246.92 155.681C246.273 155.883 246.316 156.831 246.618 157.392C247.408 158.829 248.3 160.353 249.22 161.704C248.63 161.158 248.055 160.583 247.437 160.051C247.308 159.935 247.147 159.86 246.975 159.836C246.803 159.813 246.628 159.842 246.473 159.919C246.318 159.997 246.189 160.12 246.105 160.272C246.02 160.423 245.984 160.597 246 160.77C245.992 160.929 246.038 161.086 246.129 161.216L253.762 172.184C254.511 173.926 255.562 175.523 256.867 176.899C257.6 177.675 258.765 176.496 258.032 175.734L257.931 175.619C257.934 175.576 257.934 175.533 257.931 175.49C258.056 175.463 258.173 175.409 258.275 175.332C258.377 175.255 258.46 175.157 258.52 175.044C258.599 175.097 258.687 175.136 258.779 175.159C258.89 175.361 259.076 175.511 259.297 175.576C259.518 175.641 259.756 175.615 259.958 175.504C260.16 175.394 260.31 175.208 260.374 174.986C260.439 174.765 260.413 174.528 260.303 174.326Z" fill="#FFB7A2"/>
<path d="M254.436 159.563C253.795 160.073 253.289 160.734 252.963 161.486C252.637 162.238 252.501 163.058 252.567 163.875C252.567 164.249 253.185 164.249 253.156 163.875C253.089 163.131 253.209 162.383 253.505 161.697C253.801 161.011 254.264 160.411 254.852 159.951C255.14 159.807 254.723 159.39 254.436 159.563Z" fill="#42342D"/>
<path d="M253.63 158.729C253.208 157.186 252.854 155.633 252.566 154.071C252.566 153.697 251.934 153.855 252.006 154.229C252.293 155.801 252.648 157.353 253.069 158.887C253.09 158.961 253.14 159.024 253.207 159.062C253.275 159.1 253.354 159.109 253.429 159.088C253.503 159.067 253.566 159.017 253.604 158.95C253.642 158.883 253.651 158.803 253.63 158.729Z" fill="#42342D"/>
<path d="M251.158 160.023C250.368 158.312 249.724 156.537 249.232 154.718C249.221 154.681 249.204 154.647 249.18 154.617C249.156 154.587 249.127 154.562 249.094 154.543C249.06 154.525 249.024 154.513 248.986 154.508C248.948 154.504 248.909 154.507 248.872 154.517C248.836 154.527 248.801 154.545 248.771 154.569C248.741 154.592 248.716 154.622 248.697 154.655C248.679 154.688 248.667 154.725 248.662 154.763C248.658 154.801 248.661 154.84 248.671 154.876C249.178 156.745 249.842 158.567 250.655 160.325C250.813 160.67 251.316 160.368 251.158 160.023Z" fill="#42342D"/>
<path d="M250.254 162.322C249.009 160.883 247.956 159.289 247.121 157.579C246.948 157.234 246.445 157.579 246.618 157.88C247.481 159.633 248.568 161.266 249.852 162.739C250.125 163.027 250.499 162.61 250.254 162.322Z" fill="#42342D"/>
<path d="M305.934 303.945C305.934 303.945 305.502 315.56 307.644 319.067C309.786 322.575 320.366 328.497 317.563 330.984C314.76 333.471 308.162 332.221 305.962 329.547C304.516 327.599 303.2 325.559 302.024 323.437V327.836C302.024 327.836 297.61 325.206 297.61 325.033C297.61 324.861 296.59 298.827 296.59 298.827" fill="#42342D"/>
<path d="M289.873 308.832C289.873 308.832 289.441 320.419 291.583 323.912C293.725 327.405 304.88 335.412 302.063 337.899C299.245 340.386 292.661 338.1 289.93 334.707C288.4 332.71 287.062 330.573 285.934 328.325V332.709C285.934 332.709 281.492 330.093 281.478 329.921C281.463 329.748 280.457 303.787 280.457 303.787" fill="#42342D"/>
<path d="M310.903 211.011C311.464 212.448 316.653 297.505 311.176 308.329C306.75 310.63 301.781 311.683 296.801 311.377L294.947 317.687C294.947 317.687 281.521 321.856 271.832 317.802C271.832 317.802 266.226 241.845 283.332 210.666" fill="#F679BD"/>
<path d="M311.072 210.062C311.403 206.166 311.403 201.006 311.474 200.1C311.637 197.781 311.786 195.462 311.92 193.143C312.083 190.335 312.222 187.522 312.337 184.704C312.509 180.651 312.969 175.893 310.166 172.558C307.363 169.223 300.837 167.943 296.51 168.504C292.038 169.311 288.037 171.781 285.312 175.418C283.86 187.124 283.207 198.915 283.357 210.709C291.723 213.167 304.517 215.524 311.072 210.062Z" fill="#27D9D3"/>
<path d="M295.892 169.165C292.431 169.338 289.068 170.381 286.117 172.198C283.875 173.636 282.595 176.036 280.166 177.244C276.903 178.883 272.13 178.868 269.457 176.108C268.012 174.529 266.654 172.874 265.388 171.149C264.382 169.869 260.257 163.171 258.086 163.961C255.542 164.91 251.89 168.489 251.732 170.516C251.574 172.543 262.327 193.746 271.857 195.227C277.783 196.012 283.796 194.678 288.834 191.461" fill="#27D9D3"/>
<path d="M293.609 165.457V171.523C295.997 172.264 298.553 172.264 300.941 171.523V166.075" fill="#FCAA97"/>
<path d="M306.29 151.512C306.721 151.613 309.395 169.682 301.906 169.826C294.416 169.97 292.964 164.076 292.734 162.552C292.504 161.029 294.891 156.457 295.609 154.747C296.328 153.036 304.45 151.067 306.29 151.512Z" fill="#FFB7A2"/>
<path d="M307.209 149.687C304.952 145.605 296.198 144.67 290.103 150.262C288.532 151.915 287.653 154.106 287.645 156.386C287.797 158.641 288.543 160.816 289.804 162.691C291.066 164.566 292.801 166.076 294.832 167.066C294.832 167.066 294.832 166.836 294.832 166.736C294.832 166.635 294.832 166.578 294.832 166.491C294.082 163.146 294.43 159.648 295.824 156.515C297.261 153.64 300.323 152.864 303.285 152.404C304.222 152.16 305.192 152.063 306.16 152.116L307.123 156.76C307.849 155.727 308.246 154.499 308.262 153.237C308.277 151.974 307.91 150.737 307.209 149.687Z" fill="#EDB033"/>
<path d="M285.207 157.642C288.383 157.421 290.778 154.667 290.557 151.492C290.336 148.316 287.583 145.92 284.407 146.141C281.231 146.362 278.835 149.116 279.056 152.292C279.277 155.468 282.031 157.863 285.207 157.642Z" fill="#EDB033"/>
<path d="M307.166 155.25H300.051L299.389 153.123L298.771 155.768L296.744 155.897C296.744 155.897 296.644 166.808 295.091 167.052C293.539 167.296 291.354 162.596 291.124 159.865C290.894 157.133 292.403 151.24 297.535 149.63C303.989 147.617 306.864 150.19 307.166 155.25Z" fill="#EDB033"/>
<path d="M301.444 231.351C300.552 258.098 298.703 284.788 295.895 311.42C295.809 312.239 297.102 312.239 297.189 311.42C299.996 284.807 301.846 258.117 302.737 231.351C302.766 230.532 301.472 230.532 301.444 231.351Z" fill="white"/>
<path d="M166.754 171.437V309.882C166.753 311.382 167.149 312.855 167.901 314.152C168.654 315.449 169.737 316.523 171.039 317.267C172.341 318.01 173.817 318.395 175.317 318.383C176.816 318.371 178.286 317.963 179.576 317.199L378.598 199.741C379.285 199.338 379.854 198.762 380.25 198.071C380.646 197.381 380.855 196.598 380.855 195.802V60.2459C380.856 58.8991 380.503 57.5758 379.831 56.4083C379.16 55.2408 378.194 54.2701 377.029 53.5934C375.865 52.9166 374.543 52.5574 373.196 52.5518C371.85 52.5462 370.525 52.8944 369.355 53.5615L169.083 167.455C168.376 167.852 167.788 168.431 167.379 169.13C166.97 169.83 166.754 170.626 166.754 171.437ZM360.903 187.709L189.438 286.508C188.742 286.91 187.953 287.121 187.15 287.121C186.347 287.12 185.558 286.908 184.863 286.506C184.167 286.104 183.591 285.526 183.19 284.83C182.789 284.133 182.579 283.344 182.581 282.541V178.25C182.581 177.445 182.793 176.654 183.197 175.957C183.601 175.261 184.182 174.683 184.881 174.283L356.375 76.1877C357.07 75.7897 357.857 75.5814 358.658 75.5836C359.459 75.5858 360.246 75.7984 360.939 76.2003C361.632 76.6021 362.207 77.1789 362.607 77.8731C363.007 78.5672 363.217 79.3542 363.217 80.1552V183.742C363.219 184.545 363.008 185.335 362.607 186.032C362.205 186.729 361.628 187.307 360.931 187.709H360.903Z" fill="#68E1FD"/>
<path d="M193.733 277.02L336.203 194.767L356.501 183.051C356.624 182.979 356.731 182.884 356.817 182.771C356.903 182.657 356.966 182.528 357.002 182.391C357.038 182.253 357.046 182.11 357.027 181.969C357.008 181.829 356.961 181.693 356.889 181.57C356.817 181.448 356.722 181.34 356.609 181.254C356.496 181.168 356.367 181.106 356.229 181.07C356.092 181.034 355.948 181.025 355.808 181.044C355.667 181.064 355.531 181.11 355.408 181.182L212.938 263.436L192.626 275.166C192.378 275.311 192.198 275.548 192.125 275.826C192.052 276.103 192.093 276.399 192.238 276.647C192.383 276.894 192.62 277.074 192.898 277.147C193.175 277.22 193.471 277.18 193.718 277.035L193.733 277.02Z" fill="#B3B3B3"/>
<path d="M135.863 161.287V223.272C135.863 223.88 136.023 224.476 136.326 225.003C136.63 225.529 137.066 225.966 137.592 226.27C138.118 226.575 138.714 226.736 139.321 226.737C139.929 226.738 140.526 226.579 141.053 226.277L227.303 176.64C227.831 176.336 228.27 175.899 228.576 175.371C228.881 174.844 229.042 174.245 229.042 173.635V110.831C229.039 110.231 228.88 109.641 228.581 109.121C228.281 108.601 227.852 108.167 227.334 107.863C226.817 107.558 226.229 107.394 225.629 107.385C225.029 107.376 224.436 107.523 223.91 107.812L138.278 157.119C137.545 157.54 136.936 158.147 136.512 158.879C136.088 159.611 135.864 160.442 135.863 161.287Z" fill="#EDB033"/>
<path d="M148.035 160.482V214.935L219.795 173.664V119.183L148.035 160.482Z" fill="white"/>
<path d="M357.938 127.851L391.748 108.344C392.525 107.895 393.407 107.659 394.305 107.659C395.203 107.658 396.085 107.895 396.863 108.343C397.641 108.792 398.287 109.437 398.737 110.215C399.186 110.992 399.423 111.874 399.424 112.772V134.722C399.425 135.613 399.194 136.489 398.752 137.263C398.311 138.037 397.675 138.683 396.908 139.136L363.098 159.045C362.321 159.504 361.435 159.749 360.532 159.756C359.629 159.762 358.741 159.529 357.957 159.081C357.173 158.633 356.521 157.985 356.068 157.204C355.616 156.422 355.378 155.535 355.379 154.632V132.25C355.385 131.357 355.624 130.482 356.073 129.71C356.522 128.938 357.165 128.298 357.938 127.851Z" fill="#F24C4C"/>
<path d="M374.832 150.981L380.956 158.341L385.958 144.268" fill="#F24C4C"/>
<path d="M377.532 132.078C377.532 132.078 373.392 125.379 369.31 130.453C366.967 133.328 371.222 142.198 377.317 143.118C382.837 143.951 390.599 125.034 382.866 124.833C377.863 124.689 377.532 132.078 377.532 132.078Z" fill="white"/>
<path d="M476.303 250.815C475.268 248.587 470.668 246.905 465.162 246.905C459.656 246.905 454.841 248.673 453.964 250.987C447.481 260.058 441.113 274.821 449.076 284.711C451.006 286.966 453.406 288.771 456.108 289.998C458.81 291.225 461.749 291.844 464.716 291.812H465.679C468.645 291.848 471.582 291.233 474.284 290.011C476.986 288.789 479.387 286.99 481.319 284.74C489.326 274.749 482.814 259.857 476.303 250.815Z" fill="#68E1FD"/>
<path opacity="0.5" d="M465.165 256.637C471.437 256.637 476.521 254.455 476.521 251.764C476.521 249.072 471.437 246.891 465.165 246.891C458.893 246.891 453.809 249.072 453.809 251.764C453.809 254.455 458.893 256.637 465.165 256.637Z" fill="black"/>
<path d="M478.429 210.435C471.394 222.322 467.065 235.613 465.75 249.363C465.768 232.743 464.262 216.157 461.251 199.812C461.136 199.237 460.259 199.481 460.36 200.056C463.751 218.335 465.249 236.915 464.83 255.501C464.828 255.572 464.843 255.644 464.875 255.708C464.906 255.772 464.954 255.827 465.012 255.869C465.071 255.91 465.139 255.936 465.21 255.945C465.281 255.953 465.353 255.944 465.42 255.918C465.42 256.047 465.42 256.191 465.42 256.32C465.42 256.442 465.468 256.559 465.554 256.646C465.641 256.732 465.758 256.78 465.88 256.78C466.002 256.78 466.119 256.732 466.205 256.646C466.291 256.559 466.34 256.442 466.34 256.32C466.672 240.318 471.128 224.672 479.277 210.895C479.338 210.783 479.352 210.651 479.316 210.528C479.279 210.405 479.195 210.302 479.083 210.241C478.971 210.18 478.838 210.166 478.716 210.203C478.593 210.239 478.49 210.323 478.429 210.435Z" fill="#FE6162"/>
<path d="M471.245 225.558C471.245 225.558 478.275 202.947 493.368 194.595C493.368 194.595 490.306 199.08 491.744 202.745C493.181 206.411 495.41 212.937 488.28 216.617C481.15 220.297 477.067 216.617 477.671 223.805C478.275 230.992 481.106 234.413 476.535 237.878C471.964 241.342 468.054 244.361 466.473 251.822C466.53 251.764 468.255 233.077 471.245 225.558Z" fill="#FE6162"/>
<path d="M464.539 223.172C464.539 223.172 461.664 188.442 455.511 179.659C455.981 183.016 455.383 186.436 453.801 189.434C451.156 194.451 448.309 196.204 449.833 202.745C451.357 209.286 457.567 207.977 457.021 214.532C456.474 221.087 451.271 219.851 453.844 228.102C456.417 236.354 465.243 241.802 465.243 241.802" fill="#FE6162"/>
<path d="M197.288 276.365C198.007 273.863 197.056 271.393 195.163 270.849C193.271 270.306 191.154 271.894 190.435 274.397C189.716 276.899 190.667 279.369 192.559 279.913C194.452 280.456 196.569 278.868 197.288 276.365Z" fill="#3C6071"/>
<path d="M257.952 178.928L293.817 158.236C294.641 157.759 295.577 157.509 296.53 157.508C297.482 157.508 298.418 157.759 299.243 158.234C300.068 158.71 300.753 159.395 301.23 160.219C301.707 161.044 301.958 161.98 301.959 162.932V186.216C301.953 187.169 301.695 188.103 301.214 188.924C300.732 189.746 300.042 190.427 299.214 190.897L263.427 212.016C262.602 212.503 261.663 212.764 260.705 212.77C259.747 212.777 258.804 212.53 257.972 212.055C257.141 211.579 256.45 210.892 255.97 210.063C255.489 209.234 255.237 208.293 255.238 207.335V183.624C255.239 182.672 255.49 181.737 255.967 180.912C256.443 180.088 257.128 179.404 257.952 178.928Z" fill="black" fill-opacity="0.5"/>
<path d="M274.215 178.195C274.215 181.674 274.215 191.525 274.215 195.431C274.216 195.569 274.257 195.704 274.332 195.821C274.407 195.938 274.513 196.031 274.638 196.089C274.764 196.148 274.904 196.17 275.041 196.152C275.178 196.135 275.308 196.079 275.415 195.99L288.185 185.406C288.278 185.329 288.35 185.23 288.395 185.118C288.44 185.006 288.456 184.884 288.443 184.764C288.43 184.644 288.387 184.529 288.319 184.43C288.251 184.33 288.159 184.249 288.052 184.193L275.308 177.529C275.195 177.464 275.066 177.432 274.936 177.434C274.805 177.436 274.678 177.473 274.566 177.541C274.455 177.609 274.364 177.705 274.302 177.82C274.24 177.935 274.21 178.065 274.215 178.195Z" fill="white"/>
<path d="M153 185L186 166" stroke="#D4145A" stroke-width="9.18667" stroke-miterlimit="10"/>
<path d="M153 202L213 166" stroke="#F7931E" stroke-width="9.18667" stroke-miterlimit="10"/>
<path d="M191 163L214 150" stroke="#29ABE2" stroke-width="9.18667" stroke-miterlimit="10"/>
<defs>
<linearGradient id="paint0_linear" x1="244.174" y1="356.098" x2="287.242" y2="328.871" gradientUnits="userSpaceOnUse">
<stop stop-color="white" stop-opacity="0"/>
<stop offset="0.98" stop-color="#F15A24"/>
</linearGradient>
<linearGradient id="paint1_linear" x1="28674.6" y1="12867.3" x2="30987.9" y2="10523" gradientUnits="userSpaceOnUse">
<stop stop-color="white" stop-opacity="0"/>
<stop offset="0.98" stop-color="#F15A24"/>
</linearGradient>
</defs>
</svg>
