<svg width="49" height="35" viewBox="0 0 49 35" fill="none" xmlns="http://www.w3.org/2000/svg">
<path d="M47.9773 6.27819C47.6984 5.24973 47.1515 4.31184 46.3914 3.55838C45.6313 2.80492 44.6846 2.26232 43.6461 1.98488C39.8234 0.967041 24.5 0.967041 24.5 0.967041C24.5 0.967041 9.17656 0.967041 5.35391 1.97946C4.31496 2.256 3.36779 2.79831 2.60753 3.55191C1.84727 4.30551 1.30068 5.24387 1.02266 6.27277C-1.94709e-07 10.0626 0 17.967 0 17.967C0 17.967 -1.94709e-07 25.8715 1.02266 29.6559C1.58594 31.7457 3.24844 33.3916 5.35391 33.9492C9.17656 34.967 24.5 34.967 24.5 34.967C24.5 34.967 39.8234 34.967 43.6461 33.9492C45.757 33.3916 47.4141 31.7457 47.9773 29.6559C49 25.8715 49 17.967 49 17.967C49 17.967 49 10.0626 47.9773 6.27819ZM19.6328 25.2218V10.7123L32.3203 17.9129L19.6328 25.2218Z" fill="#DDE3E2"/>
</svg>
